<?xml version="1.0" encoding="UTF-8" standalone="no"?>
<svg
   xmlns:dc="http://purl.org/dc/elements/1.1/"
   xmlns:cc="http://creativecommons.org/ns#"
   xmlns:rdf="http://www.w3.org/1999/02/22-rdf-syntax-ns#"
   xmlns:svg="http://www.w3.org/2000/svg"
   xmlns="http://www.w3.org/2000/svg"
   xmlns:sodipodi="http://sodipodi.sourceforge.net/DTD/sodipodi-0.dtd"
   xmlns:inkscape="http://www.inkscape.org/namespaces/inkscape"
   inkscape:version="1.0.2 (e86c870879, 2021-01-15)"
   sodipodi:docname="shape-outline.svg"
   viewBox="0 0 273.63779 273.64444"
   height="273.64444"
   width="273.63779"
   id="svg96"
   version="1.1">
  <metadata
     id="metadata102">
    <rdf:RDF>
      <cc:Work
         rdf:about="">
        <dc:format>image/svg+xml</dc:format>
        <dc:type
           rdf:resource="http://purl.org/dc/dcmitype/StillImage" />
        <dc:title></dc:title>
      </cc:Work>
    </rdf:RDF>
  </metadata>
  <defs
     id="defs100" />
  <sodipodi:namedview
     pagecolor="#ffffff"
     bordercolor="#666666"
     borderopacity="1"
     objecttolerance="10"
     gridtolerance="10"
     guidetolerance="10"
     inkscape:pageopacity="0"
     inkscape:pageshadow="2"
     inkscape:window-width="1920"
     inkscape:window-height="1011"
     id="namedview98"
     showgrid="false"
     inkscape:zoom="3.3017678"
     inkscape:cx="71.887622"
     inkscape:cy="202.84365"
     inkscape:window-x="0"
     inkscape:window-y="0"
     inkscape:window-maximized="1"
     inkscape:current-layer="g104"
     inkscape:document-rotation="0"
     fit-margin-top="0"
     fit-margin-left="0"
     fit-margin-right="0"
     fit-margin-bottom="0" />
  <g
     inkscape:groupmode="layer"
     inkscape:label="Edge.Cuts"
     id="g104"
     transform="translate(-98.335294,-570.76904)">
    <path
       id="path122-3"
       style="fill:#d40000;fill-opacity:0.608434;stroke-width:0.085;stroke-linecap:round;stroke-linejoin:round;stroke-miterlimit:4;stroke-dasharray:none"
       d="m 234.26019,570.77455 c -1.34829,0.0118 -2.70525,0.0421 -4.07226,0.0918 -35.97605,1.30692 -69.98824,16.74088 -94.66211,42.95508 -7.94799,8.44416 -14.71983,17.78704 -20.22071,27.77735 -0.90028,1.63503 -1.06086,3.33729 -1.89258,5.00586 -0.36285,0.72795 1.55398,1.97483 1.28516,2.74218 l -10.93555,31.2168 -2.10351,-0.21094 c -0.95953,0.86946 -0.97337,1.95326 -1.21289,3.30078 -1.586926,8.92806 -2.293036,18.05497 -2.070306,27.25391 0.87138,35.98923 15.197676,69.72745 41.111316,94.7168 0.58078,0.56007 2.91773,-1.45988 3.56055,-0.97461 l 25.54883,19.28711 c 1.47456,1.11316 -0.0193,1.43797 0.44922,3.44531 20.55988,11.34595 43.88156,17.31058 67.76562,17.02148 35.99714,-0.43572 70.37072,-15.04111 95.67188,-40.65039 10.36367,-10.48987 18.86386,-22.47999 25.28711,-35.45507 0.4661,-0.94154 -2.1026,-2.2188 -1.76953,-3.21485 l 10.15625,-30.36914 c 0.27658,-0.82712 3.14489,-0.19391 3.32617,-1.13086 1.64531,-8.50379 2.49023,-17.20286 2.49023,-25.98828 l -0.16015,-6.62109 c -1.74227,-35.9576 -17.58674,-69.77999 -44.09766,-94.13477 -9.49041,-8.71855 -20.07399,-15.9723 -31.40234,-21.63281 -0.7456,-0.37256 -2.46253,2.03573 -3.25,1.76367 l -30.66211,-10.59375 c -0.57049,-0.19709 0.14242,-2.82841 -0.44922,-2.94922 -9.23128,-1.88492 -18.25335,-2.73528 -27.69141,-2.65234 z"
       sodipodi:nodetypes="scsssccccsscscsssccsccsscccss" />
  </g>
</svg>
