<?xml version="1.0" encoding="UTF-8" standalone="no"?>
<svg
   xmlns:dc="http://purl.org/dc/elements/1.1/"
   xmlns:cc="http://creativecommons.org/ns#"
   xmlns:rdf="http://www.w3.org/1999/02/22-rdf-syntax-ns#"
   xmlns:svg="http://www.w3.org/2000/svg"
   xmlns="http://www.w3.org/2000/svg"
   xmlns:sodipodi="http://sodipodi.sourceforge.net/DTD/sodipodi-0.dtd"
   xmlns:inkscape="http://www.inkscape.org/namespaces/inkscape"
   version="1.1"
   id="svg96"
   width="72.400002mm"
   height="72.400009mm"
   viewBox="0 0 273.63779 273.63783"
   sodipodi:docname="shape-silk.svg"
   inkscape:version="1.0.2 (e86c870879, 2021-01-15)">
  <metadata
     id="metadata102">
    <rdf:RDF>
      <cc:Work
         rdf:about="">
        <dc:format>image/svg+xml</dc:format>
        <dc:type
           rdf:resource="http://purl.org/dc/dcmitype/StillImage" />
        <dc:title />
      </cc:Work>
    </rdf:RDF>
  </metadata>
  <defs
     id="defs100" />
  <sodipodi:namedview
     pagecolor="#ffffff"
     bordercolor="#666666"
     borderopacity="1"
     objecttolerance="10"
     gridtolerance="10"
     guidetolerance="10"
     inkscape:pageopacity="0"
     inkscape:pageshadow="2"
     inkscape:window-width="1920"
     inkscape:window-height="1011"
     id="namedview98"
     showgrid="false"
     inkscape:zoom="3.6203867"
     inkscape:cx="121.84122"
     inkscape:cy="97.90249"
     inkscape:window-x="0"
     inkscape:window-y="0"
     inkscape:window-maximized="1"
     inkscape:current-layer="g104"
     inkscape:document-rotation="0"
     units="mm"
     fit-margin-top="0"
     fit-margin-left="0"
     fit-margin-right="0"
     fit-margin-bottom="0" />
  <g
     inkscape:groupmode="layer"
     inkscape:label="SilkS"
     id="g104"
     transform="translate(-232.12088,-264.91332)">
    <path
       style="color:#000000;font-style:normal;font-variant:normal;font-weight:normal;font-stretch:normal;font-size:medium;line-height:normal;font-family:sans-serif;font-variant-ligatures:normal;font-variant-position:normal;font-variant-caps:normal;font-variant-numeric:normal;font-variant-alternates:normal;font-variant-east-asian:normal;font-feature-settings:normal;font-variation-settings:normal;text-indent:0;text-align:start;text-decoration:none;text-decoration-line:none;text-decoration-style:solid;text-decoration-color:#000000;letter-spacing:normal;word-spacing:normal;text-transform:none;writing-mode:lr-tb;direction:ltr;text-orientation:mixed;dominant-baseline:auto;baseline-shift:baseline;text-anchor:start;white-space:normal;shape-padding:0;shape-margin:0;inline-size:0;clip-rule:nonzero;display:inline;overflow:visible;visibility:visible;isolation:auto;mix-blend-mode:normal;color-interpolation:sRGB;color-interpolation-filters:linearRGB;solid-color:#000000;solid-opacity:1;vector-effect:none;fill:#ff2525;fill-opacity:1;fill-rule:nonzero;stroke:none;stroke-linecap:round;stroke-linejoin:round;stroke-miterlimit:4;stroke-dasharray:none;stroke-dashoffset:0;stroke-opacity:1;color-rendering:auto;image-rendering:auto;shape-rendering:auto;text-rendering:auto;enable-background:accumulate;stop-color:#000000"
       d="m 368.04297,264.91797 c -1.3476,0.0118 -2.70399,0.0421 -4.07031,0.0918 -35.97572,1.30687 -69.98848,16.74176 -94.66211,42.95507 -7.94793,8.44389 -14.71983,17.78728 -20.22071,27.77735 -1.00384,1.82307 -1.16239,3.53122 -1.89648,5.0039 -0.28449,0.57072 -0.0891,1.13745 0.0977,1.48438 0.18674,0.34693 0.41266,0.61727 0.61328,0.86719 0.20061,0.24992 0.37777,0.47926 0.45508,0.61328 0.0773,0.13401 -0.01,0.0789 0.0645,-0.13282 l -10.61719,30.30665 -1.35547,-0.13477 a 0.9361386,0.9361386 0 0 0 -0.72265,0.23633 c -0.61825,0.56018 -0.95993,1.24951 -1.14258,1.90234 -0.18266,0.65284 -0.24356,1.27663 -0.35547,1.90625 -1.58693,8.92788 -2.29306,18.05528 -2.07031,27.25391 0.87108,35.97618 15.20189,69.72647 41.11718,94.71679 0.28618,0.27598 0.669,0.3629 0.94532,0.36133 0.27631,-0.002 0.49641,-0.0617 0.70507,-0.13086 0.41734,-0.13833 0.80028,-0.33869 1.16797,-0.52539 0.3677,-0.1867 0.7177,-0.35996 0.9375,-0.4375 0.0365,-0.0129 0.0315,-0.008 0.0586,-0.0156 l 25.18164,19.00781 c 0.28798,0.2174 0.31343,0.31435 0.30078,0.27734 -0.0127,-0.037 0.008,-0.0743 -0.041,0.10352 -0.0986,0.35571 -0.44737,1.2857 -0.16211,2.50781 a 0.9361386,0.9361386 0 0 0 0.45899,0.60547 c 20.55988,11.34568 43.8818,17.31059 67.76562,17.02149 35.99678,-0.43572 70.37097,-15.04002 95.67188,-40.64844 10.36356,-10.4895 18.86386,-22.48031 25.28711,-35.45508 0.30473,-0.61554 0.075,-1.28024 -0.17383,-1.67188 -0.2488,-0.39163 -0.54902,-0.68979 -0.82031,-0.9707 -0.2713,-0.28091 -0.51427,-0.54133 -0.62696,-0.70703 -0.11269,-0.1657 -0.0348,-0.11388 -0.0859,0.0391 l 10.00976,-29.93554 c 0.005,-10e-4 0.001,-8.5e-4 0.006,-0.002 0.19281,-0.0444 0.55495,-0.0761 0.94531,-0.10742 0.39037,-0.0314 0.80782,-0.059 1.24414,-0.18359 0.21816,-0.0623 0.44915,-0.14808 0.6836,-0.32813 0.23445,-0.18004 0.46315,-0.4957 0.53125,-0.84765 1.64531,-8.50362 2.49023,-17.2012 2.49023,-25.98633 a 0.9361386,0.9361386 0 0 0 0,-0.0234 l -0.1582,-6.57617 a 0.9361386,0.9361386 0 0 0 -0.002,-0.0215 c -1.74226,-35.9564 -17.587,-69.77884 -44.09766,-94.13281 -9.49033,-8.71826 -20.07402,-15.97244 -31.40234,-21.63281 -0.33716,-0.16847 -0.69929,-0.15461 -0.96094,-0.0898 -0.26165,0.0648 -0.46357,0.16959 -0.65039,0.2832 -0.37364,0.22722 -0.69571,0.50512 -1.00586,0.76562 -0.31015,0.26051 -0.60538,0.50431 -0.80274,0.63086 -0.19735,0.12655 -0.22647,0.009 0.0801,0.11524 l -30.04883,-10.38281 c -0.005,-0.18379 -0.002,-0.41565 0.0117,-0.70313 0.0164,-0.34737 0.0396,-0.71068 0.004,-1.08789 -0.0179,-0.1886 -0.0427,-0.3822 -0.1543,-0.62695 -0.11156,-0.24476 -0.41228,-0.59633 -0.83008,-0.68164 -9.23119,-1.88487 -18.26232,-2.73721 -27.69726,-2.6543 z m 0.0176,1.87305 c 9.13655,-0.0803 17.86917,0.7527 26.79492,2.53906 7.1e-4,0.16732 0.005,0.31942 -0.006,0.55078 -0.0163,0.34541 -0.0387,0.71279 -0.008,1.08984 0.0154,0.18853 0.0373,0.38223 0.13086,0.61719 0.0934,0.23464 0.31868,0.57524 0.7207,0.71484 l 30.45312,10.52149 c 0.69761,0.24101 1.17555,-0.0743 1.54102,-0.3086 0.36547,-0.23434 0.68963,-0.51602 0.99609,-0.77343 0.30647,-0.25741 0.59661,-0.49089 0.77539,-0.59961 0.007,-0.004 0.004,-3.2e-4 0.01,-0.004 11.09382,5.56744 21.46388,12.67764 30.76563,21.22266 26.14842,24.02119 41.77569,57.37869 43.49414,92.84375 l 0.1582,6.53906 c -5e-4,8.57391 -0.83017,17.06041 -2.41992,25.36328 -0.1715,0.0406 -0.46103,0.0795 -0.8086,0.10742 -0.37864,0.0304 -0.79064,0.0526 -1.21484,0.15039 -0.2121,0.0489 -0.43286,0.11364 -0.66797,0.25586 -0.23511,0.14223 -0.5,0.39954 -0.61719,0.75 l -10.08593,30.16211 c -0.21655,0.64756 0.0543,1.22784 0.3125,1.60742 0.25814,0.37959 0.5628,0.67833 0.83007,0.95508 0.26398,0.27334 0.48679,0.52481 0.57813,0.66602 -6.3261,12.73682 -14.67538,24.51065 -24.85547,34.81445 -24.95521,25.25852 -58.85834,39.66399 -94.36328,40.09375 -23.37069,0.2829 -46.18717,-5.52091 -66.34766,-16.53906 -0.0335,-0.44286 -0.0151,-0.77536 0.10938,-1.22461 0.0804,-0.29018 0.17065,-0.73827 0.01,-1.20898 -0.16088,-0.47072 -0.50106,-0.83066 -0.94531,-1.16602 l -25.37305,-19.1543 c -0.31325,-0.23647 -0.67054,-0.27771 -0.93359,-0.26172 -0.26305,0.016 -0.47712,0.0795 -0.68359,0.15235 -0.41296,0.14567 -0.79767,0.34815 -1.16211,0.5332 -0.35045,0.17794 -0.67212,0.3313 -0.875,0.40234 -25.42215,-24.62429 -39.4825,-57.79239 -40.33985,-93.20117 -0.2197,-9.07295 0.47581,-18.07326 2.04102,-26.8789 0.12596,-0.70866 0.19252,-1.29274 0.31445,-1.72852 0.0869,-0.31053 0.25636,-0.50929 0.42578,-0.72656 l 1.53907,0.1543 a 0.9361386,0.9361386 0 0 0 0.97656,-0.62305 l 10.86133,-31.00195 c 0.20767,-0.59277 -0.0177,-1.08678 -0.21094,-1.42188 -0.19329,-0.3351 -0.42029,-0.60432 -0.61719,-0.84961 -0.19081,-0.23771 -0.34524,-0.44894 -0.41016,-0.56445 0.81469,-1.74445 1.02805,-3.356 1.77735,-4.7168 5.42562,-9.8534 12.10405,-19.06799 19.94336,-27.39648 24.33648,-25.85513 57.88304,-41.07817 93.36719,-42.36719 1.34895,-0.0491 2.68901,-0.0782 4.01953,-0.0898 z"
       id="path122" />
    <path
       style="color:#000000;font-style:normal;font-variant:normal;font-weight:normal;font-stretch:normal;font-size:medium;line-height:normal;font-family:sans-serif;font-variant-ligatures:normal;font-variant-position:normal;font-variant-caps:normal;font-variant-numeric:normal;font-variant-alternates:normal;font-variant-east-asian:normal;font-feature-settings:normal;font-variation-settings:normal;text-indent:0;text-align:start;text-decoration:none;text-decoration-line:none;text-decoration-style:solid;text-decoration-color:#000000;letter-spacing:normal;word-spacing:normal;text-transform:none;writing-mode:lr-tb;direction:ltr;text-orientation:mixed;dominant-baseline:auto;baseline-shift:baseline;text-anchor:start;white-space:normal;shape-padding:0;shape-margin:0;inline-size:0;clip-rule:nonzero;display:inline;overflow:visible;visibility:visible;isolation:auto;mix-blend-mode:normal;color-interpolation:sRGB;color-interpolation-filters:linearRGB;solid-color:#000000;solid-opacity:1;vector-effect:none;fill:#ff2525;fill-opacity:1;fill-rule:nonzero;stroke:none;stroke-linecap:round;stroke-linejoin:round;stroke-miterlimit:4;stroke-dasharray:none;stroke-dashoffset:0;stroke-opacity:1;color-rendering:auto;image-rendering:auto;shape-rendering:auto;text-rendering:auto;enable-background:accumulate;stop-color:#000000"
       d="m 330.73242,444.89062 c -6.8898,0.25029 -12.32313,6.02186 -12.15625,12.91407 0.16688,6.89221 5.87374,12.39594 12.76758,12.3125 6.89384,-0.0834 12.46485,-5.72296 12.46484,-12.61719 a 1.278255,1.278255 0 0 0 -0.0371,-0.30273 1.278255,1.278255 0 0 0 0.0215,-0.3086 c -0.33367,-6.88615 -6.17075,-12.24833 -13.06055,-11.99805 z m 0.0937,2.55469 c 5.52004,-0.20052 10.14674,4.05134 10.41406,9.56836 a 1.278255,1.278255 0 0 0 0.0352,0.24219 1.278255,1.278255 0 0 0 -0.0234,0.24414 c 10e-6,5.5235 -4.41617,9.99369 -9.93945,10.06055 -5.52328,0.0669 -10.04599,-4.29453 -10.17969,-9.81641 -0.1337,-5.52188 4.17332,-10.0983 9.69336,-10.29883 z"
       id="path882" />
    <path
       style="color:#000000;font-style:normal;font-variant:normal;font-weight:normal;font-stretch:normal;font-size:medium;line-height:normal;font-family:sans-serif;font-variant-ligatures:normal;font-variant-position:normal;font-variant-caps:normal;font-variant-numeric:normal;font-variant-alternates:normal;font-variant-east-asian:normal;font-feature-settings:normal;font-variation-settings:normal;text-indent:0;text-align:start;text-decoration:none;text-decoration-line:none;text-decoration-style:solid;text-decoration-color:#000000;letter-spacing:normal;word-spacing:normal;text-transform:none;writing-mode:lr-tb;direction:ltr;text-orientation:mixed;dominant-baseline:auto;baseline-shift:baseline;text-anchor:start;white-space:normal;shape-padding:0;shape-margin:0;inline-size:0;clip-rule:nonzero;display:inline;overflow:visible;visibility:visible;isolation:auto;mix-blend-mode:normal;color-interpolation:sRGB;color-interpolation-filters:linearRGB;solid-color:#000000;solid-opacity:1;vector-effect:none;fill:#ff2525;fill-opacity:1;fill-rule:nonzero;stroke:none;stroke-linecap:round;stroke-linejoin:round;stroke-miterlimit:4;stroke-dasharray:none;stroke-dashoffset:0;stroke-opacity:1;color-rendering:auto;image-rendering:auto;shape-rendering:auto;text-rendering:auto;enable-background:accumulate;stop-color:#000000"
       d="m 367.88672,381.47852 c -11.28676,0.41001 -20.16205,9.83829 -19.88867,21.1289 0.27338,11.29062 9.59529,20.28123 20.88867,20.14453 11.29338,-0.13669 20.39453,-9.34865 20.39453,-20.64257 a 0.90341997,0.90341997 0 0 0 -0.14844,-0.49805 0.90341997,0.90341997 0 0 0 0.125,-0.50195 c -0.5466,-11.2807 -10.08433,-20.04088 -21.37109,-19.63086 z m 0.0664,1.80468 c 10.31868,-0.37484 19.00029,7.60102 19.5,17.91407 a 0.90341997,0.90341997 0 0 0 0.14844,0.45312 0.90341997,0.90341997 0 0 0 -0.12695,0.45899 c 0,10.32514 -8.28465,18.71096 -18.60938,18.83593 -10.32472,0.12497 -18.81061,-8.05874 -19.06054,-18.38086 -0.24993,-10.32211 7.82977,-18.9064 18.14843,-19.28125 z"
       id="path1447" />
    <path
       style="color:#000000;font-style:normal;font-variant:normal;font-weight:normal;font-stretch:normal;font-size:medium;line-height:normal;font-family:sans-serif;font-variant-ligatures:normal;font-variant-position:normal;font-variant-caps:normal;font-variant-numeric:normal;font-variant-alternates:normal;font-variant-east-asian:normal;font-feature-settings:normal;font-variation-settings:normal;text-indent:0;text-align:start;text-decoration:none;text-decoration-line:none;text-decoration-style:solid;text-decoration-color:#000000;letter-spacing:normal;word-spacing:normal;text-transform:none;writing-mode:lr-tb;direction:ltr;text-orientation:mixed;dominant-baseline:auto;baseline-shift:baseline;text-anchor:start;white-space:normal;shape-padding:0;shape-margin:0;inline-size:0;clip-rule:nonzero;display:inline;overflow:visible;visibility:visible;isolation:auto;mix-blend-mode:normal;color-interpolation:sRGB;color-interpolation-filters:linearRGB;solid-color:#000000;solid-opacity:1;vector-effect:none;fill:#ff2525;fill-opacity:1;fill-rule:nonzero;stroke:none;stroke-linecap:round;stroke-linejoin:round;stroke-miterlimit:4;stroke-dasharray:none;stroke-dashoffset:0;stroke-opacity:1;color-rendering:auto;image-rendering:auto;shape-rendering:auto;text-rendering:auto;enable-background:accumulate;stop-color:#000000"
       d="m 261.43945,381.46875 c -11.28676,0.41001 -20.16205,9.83829 -19.88867,21.12891 0.27338,11.29061 9.5953,20.28122 20.88867,20.14453 11.29338,-0.1367 20.39453,-9.34865 20.39453,-20.64258 a 0.90341997,0.90341997 0 0 0 -0.14843,-0.49609 0.90341997,0.90341997 0 0 0 0.125,-0.50391 c -0.54661,-11.2807 -10.08433,-20.04087 -21.3711,-19.63086 z m 0.0664,1.80469 c 10.31867,-0.37485 19.00028,7.60101 19.5,17.91406 a 0.90341997,0.90341997 0 0 0 0.14844,0.45312 0.90341997,0.90341997 0 0 0 -0.12696,0.45899 c 0,10.32515 -8.28465,18.71097 -18.60937,18.83594 -10.32472,0.12497 -18.81257,-8.05874 -19.0625,-18.38086 -0.24994,-10.32212 7.83172,-18.90641 18.15039,-19.28125 z"
       id="path1447-3" />
    <path
       style="color:#000000;font-style:normal;font-variant:normal;font-weight:normal;font-stretch:normal;font-size:medium;line-height:normal;font-family:sans-serif;font-variant-ligatures:normal;font-variant-position:normal;font-variant-caps:normal;font-variant-numeric:normal;font-variant-alternates:normal;font-variant-east-asian:normal;font-feature-settings:normal;font-variation-settings:normal;text-indent:0;text-align:start;text-decoration:none;text-decoration-line:none;text-decoration-style:solid;text-decoration-color:#000000;letter-spacing:normal;word-spacing:normal;text-transform:none;writing-mode:lr-tb;direction:ltr;text-orientation:mixed;dominant-baseline:auto;baseline-shift:baseline;text-anchor:start;white-space:normal;shape-padding:0;shape-margin:0;inline-size:0;clip-rule:nonzero;display:inline;overflow:visible;visibility:visible;isolation:auto;mix-blend-mode:normal;color-interpolation:sRGB;color-interpolation-filters:linearRGB;solid-color:#000000;solid-opacity:1;vector-effect:none;fill:#ff2525;fill-opacity:1;fill-rule:nonzero;stroke:none;stroke-linecap:round;stroke-linejoin:round;stroke-miterlimit:4;stroke-dasharray:none;stroke-dashoffset:0;stroke-opacity:1;color-rendering:auto;image-rendering:auto;shape-rendering:auto;text-rendering:auto;enable-background:accumulate;stop-color:#000000"
       d="m 281.72852,441.99609 c -11.28676,0.41001 -20.16206,9.84025 -19.88868,21.13086 0.27338,11.29062 9.5953,20.28123 20.88868,20.14453 11.29338,-0.13669 20.39453,-9.34864 20.39453,-20.64257 a 0.90341997,0.90341997 0 0 0 -0.14844,-0.4961 0.90341997,0.90341997 0 0 0 0.125,-0.5039 c -0.5466,-11.2807 -10.08433,-20.04283 -21.37109,-19.63282 z m 0.0664,1.80664 c 10.31868,-0.37484 19.00029,7.60102 19.5,17.91407 a 0.90341997,0.90341997 0 0 0 0.14844,0.45312 0.90341997,0.90341997 0 0 0 -0.12695,0.45899 c 0,10.32514 -8.28466,18.71096 -18.60938,18.83593 -10.32472,0.12497 -18.81062,-8.05874 -19.06055,-18.38086 -0.24992,-10.32211 7.82977,-18.9064 18.14844,-19.28125 z"
       id="path1447-6" />
    <path
       style="color:#000000;font-style:normal;font-variant:normal;font-weight:normal;font-stretch:normal;font-size:medium;line-height:normal;font-family:sans-serif;font-variant-ligatures:normal;font-variant-position:normal;font-variant-caps:normal;font-variant-numeric:normal;font-variant-alternates:normal;font-variant-east-asian:normal;font-feature-settings:normal;font-variation-settings:normal;text-indent:0;text-align:start;text-decoration:none;text-decoration-line:none;text-decoration-style:solid;text-decoration-color:#000000;letter-spacing:normal;word-spacing:normal;text-transform:none;writing-mode:lr-tb;direction:ltr;text-orientation:mixed;dominant-baseline:auto;baseline-shift:baseline;text-anchor:start;white-space:normal;shape-padding:0;shape-margin:0;inline-size:0;clip-rule:nonzero;display:inline;overflow:visible;visibility:visible;isolation:auto;mix-blend-mode:normal;color-interpolation:sRGB;color-interpolation-filters:linearRGB;solid-color:#000000;solid-opacity:1;vector-effect:none;fill:#ff2525;fill-opacity:1;fill-rule:nonzero;stroke:none;stroke-linecap:round;stroke-linejoin:round;stroke-miterlimit:4;stroke-dasharray:none;stroke-dashoffset:0;stroke-opacity:1;color-rendering:auto;image-rendering:auto;shape-rendering:auto;text-rendering:auto;enable-background:accumulate;stop-color:#000000"
       d="m 452.79102,443.8125 c -11.28677,0.41001 -20.16205,9.84024 -19.88868,21.13086 0.27338,11.29062 9.59529,20.27928 20.88868,20.14258 11.29337,-0.1367 20.39453,-9.34866 20.39453,-20.64258 a 0.90341997,0.90341997 0 0 0 -0.14844,-0.49609 0.90341997,0.90341997 0 0 0 0.125,-0.50391 c -0.5466,-11.28069 -10.08434,-20.04087 -21.37109,-19.63086 z m 0.0664,1.80469 c 10.31867,-0.37484 19.00029,7.60102 19.5,17.91406 a 0.90341997,0.90341997 0 0 0 0.14844,0.45313 0.90341997,0.90341997 0 0 0 -0.12695,0.45898 c 0,10.32514 -8.28466,18.71096 -18.60938,18.83594 -10.32472,0.12497 -18.81062,-8.05874 -19.06055,-18.38086 -0.24992,-10.32212 7.82977,-18.90641 18.14844,-19.28125 z"
       id="path1447-7" />
    <path
       style="color:#000000;font-style:normal;font-variant:normal;font-weight:normal;font-stretch:normal;font-size:medium;line-height:normal;font-family:sans-serif;font-variant-ligatures:normal;font-variant-position:normal;font-variant-caps:normal;font-variant-numeric:normal;font-variant-alternates:normal;font-variant-east-asian:normal;font-feature-settings:normal;font-variation-settings:normal;text-indent:0;text-align:start;text-decoration:none;text-decoration-line:none;text-decoration-style:solid;text-decoration-color:#000000;letter-spacing:normal;word-spacing:normal;text-transform:none;writing-mode:lr-tb;direction:ltr;text-orientation:mixed;dominant-baseline:auto;baseline-shift:baseline;text-anchor:start;white-space:normal;shape-padding:0;shape-margin:0;inline-size:0;clip-rule:nonzero;display:inline;overflow:visible;visibility:visible;isolation:auto;mix-blend-mode:normal;color-interpolation:sRGB;color-interpolation-filters:linearRGB;solid-color:#000000;solid-opacity:1;vector-effect:none;fill:#ff2525;fill-opacity:1;fill-rule:nonzero;stroke:none;stroke-linecap:round;stroke-linejoin:round;stroke-miterlimit:4;stroke-dasharray:none;stroke-dashoffset:0;stroke-opacity:1;color-rendering:auto;image-rendering:auto;shape-rendering:auto;text-rendering:auto;enable-background:accumulate;stop-color:#000000"
       d="m 473.5957,382.81445 c -11.28675,0.41001 -20.16205,9.84025 -19.88867,21.13086 0.27338,11.29062 9.5953,20.27927 20.88867,20.14258 11.29338,-0.13669 20.39453,-9.34865 20.39453,-20.64258 a 0.90341997,0.90341997 0 0 0 -0.15039,-0.49609 0.90341997,0.90341997 0 0 0 0.12696,-0.50391 c -0.54661,-11.28069 -10.08433,-20.04087 -21.3711,-19.63086 z m 0.0664,1.80469 c 10.31867,-0.37484 19.00028,7.60101 19.5,17.91406 a 0.90341997,0.90341997 0 0 0 0.14844,0.45313 0.90341997,0.90341997 0 0 0 -0.12696,0.45898 c 0,10.32515 -8.28465,18.71097 -18.60937,18.83594 -10.32472,0.12497 -18.81257,-8.05874 -19.0625,-18.38086 -0.24993,-10.32212 7.83172,-18.90641 18.15039,-19.28125 z"
       id="path1447-5" />
    <path
       style="color:#000000;font-style:normal;font-variant:normal;font-weight:normal;font-stretch:normal;font-size:medium;line-height:normal;font-family:sans-serif;font-variant-ligatures:normal;font-variant-position:normal;font-variant-caps:normal;font-variant-numeric:normal;font-variant-alternates:normal;font-variant-east-asian:normal;font-feature-settings:normal;font-variation-settings:normal;text-indent:0;text-align:start;text-decoration:none;text-decoration-line:none;text-decoration-style:solid;text-decoration-color:#000000;letter-spacing:normal;word-spacing:normal;text-transform:none;writing-mode:lr-tb;direction:ltr;text-orientation:mixed;dominant-baseline:auto;baseline-shift:baseline;text-anchor:start;white-space:normal;shape-padding:0;shape-margin:0;inline-size:0;clip-rule:nonzero;display:inline;overflow:visible;visibility:visible;isolation:auto;mix-blend-mode:normal;color-interpolation:sRGB;color-interpolation-filters:linearRGB;solid-color:#000000;solid-opacity:1;vector-effect:none;fill:#ff2525;fill-opacity:1;fill-rule:nonzero;stroke:none;stroke-linecap:round;stroke-linejoin:round;stroke-miterlimit:4;stroke-dasharray:none;stroke-dashoffset:0;stroke-opacity:1;color-rendering:auto;image-rendering:auto;shape-rendering:auto;text-rendering:auto;enable-background:accumulate;stop-color:#000000"
       d="m 454.04102,320.94336 c -11.28677,0.41 -20.16401,9.84024 -19.89063,21.13086 0.27338,11.29062 9.59529,20.27928 20.88867,20.14258 11.29338,-0.1367 20.39649,-9.34866 20.39649,-20.64258 a 0.90341997,0.90341997 0 0 0 -0.15039,-0.4961 0.90341997,0.90341997 0 0 0 0.125,-0.5039 c -0.54661,-11.28069 -10.08239,-20.04087 -21.36914,-19.63086 z m 0.0645,1.80469 c 10.31867,-0.37484 19.00028,7.60101 19.5,17.91406 a 0.90341997,0.90341997 0 0 0 0.14844,0.45312 0.90341997,0.90341997 0 0 0 -0.12696,0.45899 c 0,10.32514 -8.28465,18.71096 -18.60937,18.83594 -10.32473,0.12497 -18.81062,-8.05874 -19.06055,-18.38086 -0.24993,-10.32212 7.82977,-18.90641 18.14844,-19.28125 z"
       id="path1447-35" />
    <path
       style="color:#000000;font-style:normal;font-variant:normal;font-weight:normal;font-stretch:normal;font-size:medium;line-height:normal;font-family:sans-serif;font-variant-ligatures:normal;font-variant-position:normal;font-variant-caps:normal;font-variant-numeric:normal;font-variant-alternates:normal;font-variant-east-asian:normal;font-feature-settings:normal;font-variation-settings:normal;text-indent:0;text-align:start;text-decoration:none;text-decoration-line:none;text-decoration-style:solid;text-decoration-color:#000000;letter-spacing:normal;word-spacing:normal;text-transform:none;writing-mode:lr-tb;direction:ltr;text-orientation:mixed;dominant-baseline:auto;baseline-shift:baseline;text-anchor:start;white-space:normal;shape-padding:0;shape-margin:0;inline-size:0;clip-rule:nonzero;display:inline;overflow:visible;visibility:visible;isolation:auto;mix-blend-mode:normal;color-interpolation:sRGB;color-interpolation-filters:linearRGB;solid-color:#000000;solid-opacity:1;vector-effect:none;fill:#ff2525;fill-opacity:1;fill-rule:nonzero;stroke:none;stroke-linecap:round;stroke-linejoin:round;stroke-miterlimit:4;stroke-dasharray:none;stroke-dashoffset:0;stroke-opacity:1;color-rendering:auto;image-rendering:auto;shape-rendering:auto;text-rendering:auto;enable-background:accumulate;stop-color:#000000"
       d="m 284.08203,319.14453 c -11.28676,0.41001 -20.16206,9.84024 -19.88867,21.13086 0.27339,11.29061 9.5953,20.27927 20.88867,20.14258 11.29338,-0.1367 20.39649,-9.34865 20.39649,-20.64258 a 0.90341997,0.90341997 0 0 0 -0.1504,-0.49609 0.90341997,0.90341997 0 0 0 0.125,-0.50391 c -0.5466,-11.2807 -10.08433,-20.04087 -21.37109,-19.63086 z m 0.0664,1.80469 c 10.31867,-0.37485 19.00028,7.60101 19.5,17.91406 a 0.90341997,0.90341997 0 0 0 0.14844,0.45313 0.90341997,0.90341997 0 0 0 -0.12696,0.45898 c 0,10.32515 -8.28465,18.71097 -18.60937,18.83594 -10.32472,0.12497 -18.81061,-8.05875 -19.06055,-18.38086 -0.24993,-10.32212 7.82977,-18.90641 18.14844,-19.28125 z"
       id="path1447-62" />
    <path
       style="color:#000000;font-style:normal;font-variant:normal;font-weight:normal;font-stretch:normal;font-size:medium;line-height:normal;font-family:sans-serif;font-variant-ligatures:normal;font-variant-position:normal;font-variant-caps:normal;font-variant-numeric:normal;font-variant-alternates:normal;font-variant-east-asian:normal;font-feature-settings:normal;font-variation-settings:normal;text-indent:0;text-align:start;text-decoration:none;text-decoration-line:none;text-decoration-style:solid;text-decoration-color:#000000;letter-spacing:normal;word-spacing:normal;text-transform:none;writing-mode:lr-tb;direction:ltr;text-orientation:mixed;dominant-baseline:auto;baseline-shift:baseline;text-anchor:start;white-space:normal;shape-padding:0;shape-margin:0;inline-size:0;clip-rule:nonzero;display:inline;overflow:visible;visibility:visible;isolation:auto;mix-blend-mode:normal;color-interpolation:sRGB;color-interpolation-filters:linearRGB;solid-color:#000000;solid-opacity:1;vector-effect:none;fill:#ff2525;fill-opacity:1;fill-rule:nonzero;stroke:none;stroke-linecap:round;stroke-linejoin:round;stroke-miterlimit:4;stroke-dasharray:none;stroke-dashoffset:0;stroke-opacity:1;color-rendering:auto;image-rendering:auto;shape-rendering:auto;text-rendering:auto;enable-background:accumulate;stop-color:#000000"
       d="m 316.1582,301.44922 c -5.12678,0.18609 -9.17108,4.47769 -9.04687,9.60351 0.12421,5.12583 4.37216,9.21829 9.50195,9.15625 5.1298,-0.062 9.27735,-4.25548 9.27734,-9.38281 a 1.0013649,1.0013649 0 0 0 -0.0254,-0.22656 1.0013649,1.0013649 0 0 0 0.0137,-0.22656 c -0.24835,-5.12132 -4.59392,-9.10992 -9.72071,-8.92383 z m 0.0723,2 c 4.05457,-0.14717 7.45214,2.9716 7.64844,7.01953 a 1.0013649,1.0013649 0 0 0 0.0254,0.18164 1.0013649,1.0013649 0 0 0 -0.0176,0.17578 c 0,4.05268 -3.23992,7.3318 -7.29688,7.38086 -4.05694,0.0491 -7.37838,-3.14968 -7.47656,-7.20117 -0.0982,-4.05149 3.06262,-7.40947 7.11719,-7.55664 z"
       id="path1528" />
    <path
       style="color:#000000;font-style:normal;font-variant:normal;font-weight:normal;font-stretch:normal;font-size:medium;line-height:normal;font-family:sans-serif;font-variant-ligatures:normal;font-variant-position:normal;font-variant-caps:normal;font-variant-numeric:normal;font-variant-alternates:normal;font-variant-east-asian:normal;font-feature-settings:normal;font-variation-settings:normal;text-indent:0;text-align:start;text-decoration:none;text-decoration-line:none;text-decoration-style:solid;text-decoration-color:#000000;letter-spacing:normal;word-spacing:normal;text-transform:none;writing-mode:lr-tb;direction:ltr;text-orientation:mixed;dominant-baseline:auto;baseline-shift:baseline;text-anchor:start;white-space:normal;shape-padding:0;shape-margin:0;inline-size:0;clip-rule:nonzero;display:inline;overflow:visible;visibility:visible;isolation:auto;mix-blend-mode:normal;color-interpolation:sRGB;color-interpolation-filters:linearRGB;solid-color:#000000;solid-opacity:1;vector-effect:none;fill:#ff2525;fill-opacity:1;fill-rule:nonzero;stroke:none;stroke-linecap:round;stroke-linejoin:round;stroke-miterlimit:4;stroke-dasharray:none;stroke-dashoffset:0;stroke-opacity:1;color-rendering:auto;image-rendering:auto;shape-rendering:auto;text-rendering:auto;enable-background:accumulate;stop-color:#000000"
       d="m 350.35156,289.38672 c -5.12678,0.18609 -9.17108,4.47964 -9.04687,9.60547 0.12421,5.12582 4.37216,9.21829 9.50195,9.15625 5.1298,-0.062 9.27735,-4.25744 9.27734,-9.38477 a 1.0013649,1.0013649 0 0 0 -0.0254,-0.22461 1.0013649,1.0013649 0 0 0 0.0137,-0.22851 c -0.24835,-5.12132 -4.59392,-9.10993 -9.72071,-8.92383 z m 0.0723,2.00195 c 4.05457,-0.14717 7.45214,2.96965 7.64844,7.01758 a 1.0013649,1.0013649 0 0 0 0.0254,0.18359 1.0013649,1.0013649 0 0 0 -0.0176,0.17383 c 0,4.05268 -3.23992,7.3318 -7.29688,7.38086 -4.05694,0.0491 -7.37838,-3.14968 -7.47656,-7.20117 -0.0982,-4.05149 3.06262,-7.40751 7.11719,-7.55469 z"
       id="path1528-9" />
    <path
       style="color:#000000;font-style:normal;font-variant:normal;font-weight:normal;font-stretch:normal;font-size:medium;line-height:normal;font-family:sans-serif;font-variant-ligatures:normal;font-variant-position:normal;font-variant-caps:normal;font-variant-numeric:normal;font-variant-alternates:normal;font-variant-east-asian:normal;font-feature-settings:normal;font-variation-settings:normal;text-indent:0;text-align:start;text-decoration:none;text-decoration-line:none;text-decoration-style:solid;text-decoration-color:#000000;letter-spacing:normal;word-spacing:normal;text-transform:none;writing-mode:lr-tb;direction:ltr;text-orientation:mixed;dominant-baseline:auto;baseline-shift:baseline;text-anchor:start;white-space:normal;shape-padding:0;shape-margin:0;inline-size:0;clip-rule:nonzero;display:inline;overflow:visible;visibility:visible;isolation:auto;mix-blend-mode:normal;color-interpolation:sRGB;color-interpolation-filters:linearRGB;solid-color:#000000;solid-opacity:1;vector-effect:none;fill:#ff2525;fill-opacity:1;fill-rule:nonzero;stroke:none;stroke-linecap:round;stroke-linejoin:round;stroke-miterlimit:4;stroke-dasharray:none;stroke-dashoffset:0;stroke-opacity:1;color-rendering:auto;image-rendering:auto;shape-rendering:auto;text-rendering:auto;enable-background:accumulate;stop-color:#000000"
       d="m 387.75586,289.60547 c -5.12678,0.18609 -9.17108,4.47769 -9.04688,9.60351 0.12421,5.12583 4.37216,9.2183 9.50196,9.15625 5.12979,-0.062 9.27734,-4.25548 9.27734,-9.38281 a 1.0013649,1.0013649 0 0 0 -0.0254,-0.22656 1.0013649,1.0013649 0 0 0 0.0137,-0.22852 c -0.24835,-5.12131 -4.59392,-9.10797 -9.7207,-8.92187 z m 0.0742,2 c 4.05457,-0.14718 7.45019,2.9716 7.64648,7.01953 a 1.0013649,1.0013649 0 0 0 0.0274,0.17773 1.0013649,1.0013649 0 0 0 -0.0176,0.17969 c 0,4.05268 -3.24188,7.33179 -7.29883,7.38086 -4.05695,0.0491 -7.37839,-3.15163 -7.47656,-7.20312 -0.0982,-4.05149 3.06457,-7.40752 7.11914,-7.55469 z"
       id="path1528-1" />
    <path
       style="color:#000000;font-style:normal;font-variant:normal;font-weight:normal;font-stretch:normal;font-size:medium;line-height:normal;font-family:sans-serif;font-variant-ligatures:normal;font-variant-position:normal;font-variant-caps:normal;font-variant-numeric:normal;font-variant-alternates:normal;font-variant-east-asian:normal;font-feature-settings:normal;font-variation-settings:normal;text-indent:0;text-align:start;text-decoration:none;text-decoration-line:none;text-decoration-style:solid;text-decoration-color:#000000;letter-spacing:normal;word-spacing:normal;text-transform:none;writing-mode:lr-tb;direction:ltr;text-orientation:mixed;dominant-baseline:auto;baseline-shift:baseline;text-anchor:start;white-space:normal;shape-padding:0;shape-margin:0;inline-size:0;clip-rule:nonzero;display:inline;overflow:visible;visibility:visible;isolation:auto;mix-blend-mode:normal;color-interpolation:sRGB;color-interpolation-filters:linearRGB;solid-color:#000000;solid-opacity:1;vector-effect:none;fill:#ff2525;fill-opacity:1;fill-rule:nonzero;stroke:none;stroke-linecap:round;stroke-linejoin:round;stroke-miterlimit:4;stroke-dasharray:none;stroke-dashoffset:0;stroke-opacity:1;color-rendering:auto;image-rendering:auto;shape-rendering:auto;text-rendering:auto;enable-background:accumulate;stop-color:#000000"
       d="m 422.30469,301.84766 c -5.12679,0.18609 -9.17109,4.47964 -9.04688,9.60546 0.12421,5.12583 4.37022,9.21829 9.5,9.15626 5.12979,-0.062 9.27735,-4.25549 9.27735,-9.38282 A 1.0013649,1.0013649 0 0 0 432.00977,311 a 1.0013649,1.0013649 0 0 0 0.0156,-0.22852 c -0.24834,-5.12131 -4.59392,-9.10991 -9.7207,-8.92382 z m 0.0723,2.00195 c 4.05457,-0.14717 7.45215,2.9716 7.64844,7.01953 a 1.0013649,1.0013649 0 0 0 0.0254,0.17774 1.0013649,1.0013649 0 0 0 -0.0176,0.17968 c 10e-6,4.05268 -3.24187,7.33179 -7.29882,7.38086 -4.05695,0.0491 -7.37644,-3.15164 -7.47461,-7.20312 -0.0982,-4.05149 3.06261,-7.40752 7.11718,-7.55469 z"
       id="path1528-2" />
    <path
       style="color:#000000;font-style:normal;font-variant:normal;font-weight:normal;font-stretch:normal;font-size:medium;line-height:normal;font-family:sans-serif;font-variant-ligatures:normal;font-variant-position:normal;font-variant-caps:normal;font-variant-numeric:normal;font-variant-alternates:normal;font-variant-east-asian:normal;font-feature-settings:normal;font-variation-settings:normal;text-indent:0;text-align:start;text-decoration:none;text-decoration-line:none;text-decoration-style:solid;text-decoration-color:#000000;letter-spacing:normal;word-spacing:normal;text-transform:none;writing-mode:lr-tb;direction:ltr;text-orientation:mixed;dominant-baseline:auto;baseline-shift:baseline;text-anchor:start;white-space:normal;shape-padding:0;shape-margin:0;inline-size:0;clip-rule:nonzero;display:inline;overflow:visible;visibility:visible;isolation:auto;mix-blend-mode:normal;color-interpolation:sRGB;color-interpolation-filters:linearRGB;solid-color:#000000;solid-opacity:1;vector-effect:none;fill:#ff2525;fill-opacity:1;fill-rule:nonzero;stroke:none;stroke-linecap:round;stroke-linejoin:round;stroke-miterlimit:4;stroke-dasharray:none;stroke-dashoffset:0;stroke-opacity:1;color-rendering:auto;image-rendering:auto;shape-rendering:auto;text-rendering:auto;enable-background:accumulate;stop-color:#000000"
       d="m 453.56445,332.67188 c -5.12678,0.18609 -9.17108,4.47964 -9.04687,9.60546 0.12421,5.12582 4.37216,9.21829 9.50195,9.15625 5.12979,-0.062 9.27734,-4.25548 9.27735,-9.38281 a 1.0013649,1.0013649 0 0 0 -0.0274,-0.22656 1.0013649,1.0013649 0 0 0 0.0156,-0.22852 c -0.24835,-5.12132 -4.59392,-9.10992 -9.72071,-8.92382 z m 0.0723,2.00195 c 4.05457,-0.14718 7.45214,2.97159 7.64844,7.01953 a 1.0013649,1.0013649 0 0 0 0.0254,0.17773 1.0013649,1.0013649 0 0 0 -0.0176,0.17969 c 0,4.05268 -3.24188,7.32984 -7.29883,7.37891 -4.05695,0.0491 -7.37643,-3.14969 -7.47461,-7.20117 -0.0982,-4.0515 3.06262,-7.40752 7.11719,-7.55469 z"
       id="path1528-7" />
    <path
       style="color:#000000;font-style:normal;font-variant:normal;font-weight:normal;font-stretch:normal;font-size:medium;line-height:normal;font-family:sans-serif;font-variant-ligatures:normal;font-variant-position:normal;font-variant-caps:normal;font-variant-numeric:normal;font-variant-alternates:normal;font-variant-east-asian:normal;font-feature-settings:normal;font-variation-settings:normal;text-indent:0;text-align:start;text-decoration:none;text-decoration-line:none;text-decoration-style:solid;text-decoration-color:#000000;letter-spacing:normal;word-spacing:normal;text-transform:none;writing-mode:lr-tb;direction:ltr;text-orientation:mixed;dominant-baseline:auto;baseline-shift:baseline;text-anchor:start;white-space:normal;shape-padding:0;shape-margin:0;inline-size:0;clip-rule:nonzero;display:inline;overflow:visible;visibility:visible;isolation:auto;mix-blend-mode:normal;color-interpolation:sRGB;color-interpolation-filters:linearRGB;solid-color:#000000;solid-opacity:1;vector-effect:none;fill:#ff2525;fill-opacity:1;fill-rule:nonzero;stroke:none;stroke-linecap:round;stroke-linejoin:round;stroke-miterlimit:4;stroke-dasharray:none;stroke-dashoffset:0;stroke-opacity:1;color-rendering:auto;image-rendering:auto;shape-rendering:auto;text-rendering:auto;enable-background:accumulate;stop-color:#000000"
       d="m 473.81641,393.62695 c -5.12679,0.1861 -9.17109,4.47965 -9.04688,9.60547 0.12421,5.12582 4.37217,9.21829 9.50195,9.15625 5.1298,-0.062 9.27735,-4.25548 9.27735,-9.38281 a 1.0013649,1.0013649 0 0 0 -0.0254,-0.22656 1.0013649,1.0013649 0 0 0 0.0137,-0.22852 c -0.24834,-5.12132 -4.59391,-9.10992 -9.7207,-8.92383 z m 0.0723,2.00196 c 4.05458,-0.14718 7.45215,2.97159 7.64844,7.01953 a 1.0013649,1.0013649 0 0 0 0.0254,0.17968 1.0013649,1.0013649 0 0 0 -0.0176,0.17774 c 0,4.05268 -3.24188,7.3318 -7.29883,7.38086 -4.05694,0.0491 -7.37643,-3.15164 -7.47461,-7.20313 -0.0982,-4.05149 3.06262,-7.40751 7.11719,-7.55468 z"
       id="path1528-0" />
    <path
       style="color:#000000;font-style:normal;font-variant:normal;font-weight:normal;font-stretch:normal;font-size:medium;line-height:normal;font-family:sans-serif;font-variant-ligatures:normal;font-variant-position:normal;font-variant-caps:normal;font-variant-numeric:normal;font-variant-alternates:normal;font-variant-east-asian:normal;font-feature-settings:normal;font-variation-settings:normal;text-indent:0;text-align:start;text-decoration:none;text-decoration-line:none;text-decoration-style:solid;text-decoration-color:#000000;letter-spacing:normal;word-spacing:normal;text-transform:none;writing-mode:lr-tb;direction:ltr;text-orientation:mixed;dominant-baseline:auto;baseline-shift:baseline;text-anchor:start;white-space:normal;shape-padding:0;shape-margin:0;inline-size:0;clip-rule:nonzero;display:inline;overflow:visible;visibility:visible;isolation:auto;mix-blend-mode:normal;color-interpolation:sRGB;color-interpolation-filters:linearRGB;solid-color:#000000;solid-opacity:1;vector-effect:none;fill:#ff2525;fill-opacity:1;fill-rule:nonzero;stroke:none;stroke-linecap:round;stroke-linejoin:round;stroke-miterlimit:4;stroke-dasharray:none;stroke-dashoffset:0;stroke-opacity:1;color-rendering:auto;image-rendering:auto;shape-rendering:auto;text-rendering:auto;enable-background:accumulate;stop-color:#000000"
       d="m 452.94922,455.29688 c -5.12679,0.18609 -9.17109,4.47964 -9.04688,9.60546 0.12421,5.12582 4.37022,9.21829 9.5,9.15625 5.12979,-0.062 9.27735,-4.25548 9.27735,-9.38281 a 1.0013649,1.0013649 0 0 0 -0.0254,-0.22656 1.0013649,1.0013649 0 0 0 0.0156,-0.22852 c -0.24834,-5.12131 -4.59392,-9.10991 -9.7207,-8.92382 z m 0.0723,2.00195 c 4.05457,-0.14717 7.4502,2.9716 7.64649,7.01953 a 1.0013649,1.0013649 0 0 0 0.0273,0.17773 1.0013649,1.0013649 0 0 0 -0.0176,0.17969 c 1e-5,4.05268 -3.24187,7.33179 -7.29882,7.38086 -4.05695,0.0491 -7.37644,-3.15164 -7.47461,-7.20312 -0.0982,-4.0515 3.06261,-7.40752 7.11718,-7.55469 z"
       id="path1528-93" />
    <path
       style="color:#000000;font-style:normal;font-variant:normal;font-weight:normal;font-stretch:normal;font-size:medium;line-height:normal;font-family:sans-serif;font-variant-ligatures:normal;font-variant-position:normal;font-variant-caps:normal;font-variant-numeric:normal;font-variant-alternates:normal;font-variant-east-asian:normal;font-feature-settings:normal;font-variation-settings:normal;text-indent:0;text-align:start;text-decoration:none;text-decoration-line:none;text-decoration-style:solid;text-decoration-color:#000000;letter-spacing:normal;word-spacing:normal;text-transform:none;writing-mode:lr-tb;direction:ltr;text-orientation:mixed;dominant-baseline:auto;baseline-shift:baseline;text-anchor:start;white-space:normal;shape-padding:0;shape-margin:0;inline-size:0;clip-rule:nonzero;display:inline;overflow:visible;visibility:visible;isolation:auto;mix-blend-mode:normal;color-interpolation:sRGB;color-interpolation-filters:linearRGB;solid-color:#000000;solid-opacity:1;vector-effect:none;fill:#ff2525;fill-opacity:1;fill-rule:nonzero;stroke:none;stroke-linecap:round;stroke-linejoin:round;stroke-miterlimit:4;stroke-dasharray:none;stroke-dashoffset:0;stroke-opacity:1;color-rendering:auto;image-rendering:auto;shape-rendering:auto;text-rendering:auto;enable-background:accumulate;stop-color:#000000"
       d="m 409.52148,489.04297 c -5.12678,0.18609 -9.17108,4.47769 -9.04687,9.60351 0.12421,5.12583 4.37021,9.2183 9.5,9.15625 5.12979,-0.062 9.27735,-4.25548 9.27734,-9.38281 a 1.0013649,1.0013649 0 0 0 -0.0254,-0.22461 1.0013649,1.0013649 0 0 0 0.0156,-0.22851 c -0.24834,-5.12132 -4.59392,-9.10993 -9.72071,-8.92383 z m 0.0723,2 c 4.05457,-0.14718 7.45019,2.9716 7.64648,7.01953 a 1.0013649,1.0013649 0 0 0 0.0274,0.17773 1.0013649,1.0013649 0 0 0 -0.0176,0.17969 c 0,4.05268 -3.24188,7.33179 -7.29883,7.38086 -4.05695,0.0491 -7.37643,-3.14968 -7.47461,-7.20117 -0.0982,-4.05149 3.06262,-7.40947 7.11719,-7.55664 z"
       id="path1528-6" />
    <path
       style="color:#000000;font-style:normal;font-variant:normal;font-weight:normal;font-stretch:normal;font-size:medium;line-height:normal;font-family:sans-serif;font-variant-ligatures:normal;font-variant-position:normal;font-variant-caps:normal;font-variant-numeric:normal;font-variant-alternates:normal;font-variant-east-asian:normal;font-feature-settings:normal;font-variation-settings:normal;text-indent:0;text-align:start;text-decoration:none;text-decoration-line:none;text-decoration-style:solid;text-decoration-color:#000000;letter-spacing:normal;word-spacing:normal;text-transform:none;writing-mode:lr-tb;direction:ltr;text-orientation:mixed;dominant-baseline:auto;baseline-shift:baseline;text-anchor:start;white-space:normal;shape-padding:0;shape-margin:0;inline-size:0;clip-rule:nonzero;display:inline;overflow:visible;visibility:visible;isolation:auto;mix-blend-mode:normal;color-interpolation:sRGB;color-interpolation-filters:linearRGB;solid-color:#000000;solid-opacity:1;vector-effect:none;fill:#ff2525;fill-opacity:1;fill-rule:nonzero;stroke:none;stroke-linecap:round;stroke-linejoin:round;stroke-miterlimit:4;stroke-dasharray:none;stroke-dashoffset:0;stroke-opacity:1;color-rendering:auto;image-rendering:auto;shape-rendering:auto;text-rendering:auto;enable-background:accumulate;stop-color:#000000"
       d="m 367.17578,498.29102 c -5.12678,0.18608 -9.17303,4.47964 -9.04883,9.60546 0.12421,5.12583 4.37217,9.2183 9.50196,9.15625 5.12978,-0.062 9.27734,-4.25744 9.27734,-9.38476 a 1.0013649,1.0013649 0 0 0 -0.0254,-0.22461 1.0013649,1.0013649 0 0 0 0.0156,-0.22852 c -0.24834,-5.12131 -4.59392,-9.10991 -9.7207,-8.92382 z m 0.0723,2.00195 c 4.05456,-0.14717 7.45019,2.96965 7.64648,7.01758 a 1.0013649,1.0013649 0 0 0 0.0274,0.17968 1.0013649,1.0013649 0 0 0 -0.0176,0.17774 c -10e-6,4.05267 -3.24188,7.33179 -7.29883,7.38086 -4.05695,0.0491 -7.37643,-3.14968 -7.47461,-7.20117 -0.0982,-4.05149 3.06262,-7.40752 7.11719,-7.55469 z"
       id="path1528-06" />
    <path
       style="color:#000000;font-style:normal;font-variant:normal;font-weight:normal;font-stretch:normal;font-size:medium;line-height:normal;font-family:sans-serif;font-variant-ligatures:normal;font-variant-position:normal;font-variant-caps:normal;font-variant-numeric:normal;font-variant-alternates:normal;font-variant-east-asian:normal;font-feature-settings:normal;font-variation-settings:normal;text-indent:0;text-align:start;text-decoration:none;text-decoration-line:none;text-decoration-style:solid;text-decoration-color:#000000;letter-spacing:normal;word-spacing:normal;text-transform:none;writing-mode:lr-tb;direction:ltr;text-orientation:mixed;dominant-baseline:auto;baseline-shift:baseline;text-anchor:start;white-space:normal;shape-padding:0;shape-margin:0;inline-size:0;clip-rule:nonzero;display:inline;overflow:visible;visibility:visible;isolation:auto;mix-blend-mode:normal;color-interpolation:sRGB;color-interpolation-filters:linearRGB;solid-color:#000000;solid-opacity:1;vector-effect:none;fill:#ff2525;fill-opacity:1;fill-rule:nonzero;stroke:none;stroke-linecap:round;stroke-linejoin:round;stroke-miterlimit:4;stroke-dasharray:none;stroke-dashoffset:0;stroke-opacity:1;color-rendering:auto;image-rendering:auto;shape-rendering:auto;text-rendering:auto;enable-background:accumulate;stop-color:#000000"
       d="m 324.05078,488.36133 c -5.12678,0.18609 -9.17108,4.47769 -9.04687,9.60351 0.12421,5.12582 4.37216,9.21829 9.50195,9.15625 5.12979,-0.062 9.27734,-4.25548 9.27734,-9.38281 a 1.0013649,1.0013649 0 0 0 -0.0254,-0.22656 1.0013649,1.0013649 0 0 0 0.0137,-0.22852 c -0.24834,-5.12131 -4.59392,-9.10796 -9.7207,-8.92187 z m 0.0723,2 c 4.05456,-0.14717 7.45214,2.9716 7.64843,7.01953 a 1.0013649,1.0013649 0 0 0 0.0254,0.17969 1.0013649,1.0013649 0 0 0 -0.0176,0.17773 c -1e-5,4.05268 -3.23993,7.33179 -7.29688,7.38086 -4.05695,0.0491 -7.37838,-3.15164 -7.47656,-7.20312 -0.0982,-4.05149 3.06262,-7.40752 7.11719,-7.55469 z"
       id="path1528-26" />
    <path
       style="color:#000000;font-style:normal;font-variant:normal;font-weight:normal;font-stretch:normal;font-size:medium;line-height:normal;font-family:sans-serif;font-variant-ligatures:normal;font-variant-position:normal;font-variant-caps:normal;font-variant-numeric:normal;font-variant-alternates:normal;font-variant-east-asian:normal;font-feature-settings:normal;font-variation-settings:normal;text-indent:0;text-align:start;text-decoration:none;text-decoration-line:none;text-decoration-style:solid;text-decoration-color:#000000;letter-spacing:normal;word-spacing:normal;text-transform:none;writing-mode:lr-tb;direction:ltr;text-orientation:mixed;dominant-baseline:auto;baseline-shift:baseline;text-anchor:start;white-space:normal;shape-padding:0;shape-margin:0;inline-size:0;clip-rule:nonzero;display:inline;overflow:visible;visibility:visible;isolation:auto;mix-blend-mode:normal;color-interpolation:sRGB;color-interpolation-filters:linearRGB;solid-color:#000000;solid-opacity:1;vector-effect:none;fill:#ff2525;fill-opacity:1;fill-rule:nonzero;stroke:none;stroke-linecap:round;stroke-linejoin:round;stroke-miterlimit:4;stroke-dasharray:none;stroke-dashoffset:0;stroke-opacity:1;color-rendering:auto;image-rendering:auto;shape-rendering:auto;text-rendering:auto;enable-background:accumulate;stop-color:#000000"
       d="m 282.42188,453.73633 c -5.12679,0.18609 -9.17109,4.47769 -9.04688,9.60351 0.1242,5.12583 4.37021,9.2183 9.5,9.15625 5.12979,-0.062 9.27735,-4.25548 9.27734,-9.38281 a 1.0013649,1.0013649 0 0 0 -0.0254,-0.22656 1.0013649,1.0013649 0 0 0 0.0156,-0.22852 c -0.24835,-5.12131 -4.59392,-9.10797 -9.7207,-8.92187 z m 0.0723,2 c 4.05457,-0.14718 7.45019,2.9716 7.64648,7.01953 a 1.0013649,1.0013649 0 0 0 0.0274,0.17773 1.0013649,1.0013649 0 0 0 -0.0176,0.17969 c 0,4.05268 -3.24188,7.33179 -7.29883,7.38086 -4.05695,0.0491 -7.37644,-3.15163 -7.47461,-7.20312 -0.0982,-4.05149 3.06262,-7.40752 7.11719,-7.55469 z"
       id="path1528-18" />
    <path
       style="color:#000000;font-style:normal;font-variant:normal;font-weight:normal;font-stretch:normal;font-size:medium;line-height:normal;font-family:sans-serif;font-variant-ligatures:normal;font-variant-position:normal;font-variant-caps:normal;font-variant-numeric:normal;font-variant-alternates:normal;font-variant-east-asian:normal;font-feature-settings:normal;font-variation-settings:normal;text-indent:0;text-align:start;text-decoration:none;text-decoration-line:none;text-decoration-style:solid;text-decoration-color:#000000;letter-spacing:normal;word-spacing:normal;text-transform:none;writing-mode:lr-tb;direction:ltr;text-orientation:mixed;dominant-baseline:auto;baseline-shift:baseline;text-anchor:start;white-space:normal;shape-padding:0;shape-margin:0;inline-size:0;clip-rule:nonzero;display:inline;overflow:visible;visibility:visible;isolation:auto;mix-blend-mode:normal;color-interpolation:sRGB;color-interpolation-filters:linearRGB;solid-color:#000000;solid-opacity:1;vector-effect:none;fill:#ff2525;fill-opacity:1;fill-rule:nonzero;stroke:none;stroke-linecap:round;stroke-linejoin:round;stroke-miterlimit:4;stroke-dasharray:none;stroke-dashoffset:0;stroke-opacity:1;color-rendering:auto;image-rendering:auto;shape-rendering:auto;text-rendering:auto;enable-background:accumulate;stop-color:#000000"
       d="m 262.18945,392.59375 c -5.12678,0.18609 -9.17108,4.47965 -9.04687,9.60547 0.12421,5.12582 4.37021,9.21829 9.5,9.15625 5.12978,-0.062 9.27734,-4.25549 9.27734,-9.38281 a 1.0013649,1.0013649 0 0 0 -0.0254,-0.22657 1.0013649,1.0013649 0 0 0 0.0156,-0.22851 c -0.24835,-5.12132 -4.59392,-9.10993 -9.72071,-8.92383 z m 0.0723,2.00195 c 4.05457,-0.14717 7.45214,2.9716 7.64844,7.01953 a 1.0013649,1.0013649 0 0 0 0.0254,0.17774 1.0013649,1.0013649 0 0 0 -0.0176,0.17969 c 0,4.05267 -3.24188,7.33179 -7.29883,7.38086 -4.05695,0.0491 -7.37643,-3.15164 -7.47461,-7.20313 -0.0982,-4.05149 3.06262,-7.40751 7.11719,-7.55469 z"
       id="path1528-79" />
    <path
       style="color:#000000;font-style:normal;font-variant:normal;font-weight:normal;font-stretch:normal;font-size:medium;line-height:normal;font-family:sans-serif;font-variant-ligatures:normal;font-variant-position:normal;font-variant-caps:normal;font-variant-numeric:normal;font-variant-alternates:normal;font-variant-east-asian:normal;font-feature-settings:normal;font-variation-settings:normal;text-indent:0;text-align:start;text-decoration:none;text-decoration-line:none;text-decoration-style:solid;text-decoration-color:#000000;letter-spacing:normal;word-spacing:normal;text-transform:none;writing-mode:lr-tb;direction:ltr;text-orientation:mixed;dominant-baseline:auto;baseline-shift:baseline;text-anchor:start;white-space:normal;shape-padding:0;shape-margin:0;inline-size:0;clip-rule:nonzero;display:inline;overflow:visible;visibility:visible;isolation:auto;mix-blend-mode:normal;color-interpolation:sRGB;color-interpolation-filters:linearRGB;solid-color:#000000;solid-opacity:1;vector-effect:none;fill:#ff2525;fill-opacity:1;fill-rule:nonzero;stroke:none;stroke-linecap:round;stroke-linejoin:round;stroke-miterlimit:4;stroke-dasharray:none;stroke-dashoffset:0;stroke-opacity:1;color-rendering:auto;image-rendering:auto;shape-rendering:auto;text-rendering:auto;enable-background:accumulate;stop-color:#000000"
       d="m 368.0918,392.73047 c -5.12679,0.18609 -9.17109,4.47964 -9.04688,9.60547 0.12421,5.12582 4.37216,9.21829 9.50196,9.15625 5.12978,-0.062 9.27734,-4.25744 9.27734,-9.38477 a 1.0013649,1.0013649 0 0 0 -0.0273,-0.2207 1.0013649,1.0013649 0 0 0 0.0156,-0.23242 c -0.24834,-5.12132 -4.59392,-9.10992 -9.7207,-8.92383 z m 0.0723,2.00195 c 4.05457,-0.14717 7.45215,2.9716 7.64844,7.01953 a 1.0013649,1.0013649 0 0 0 0.0254,0.17774 1.0013649,1.0013649 0 0 0 -0.0176,0.17773 c 0,4.05268 -3.24188,7.33179 -7.29883,7.38086 -4.05695,0.0491 -7.37643,-3.14968 -7.4746,-7.20117 -0.0982,-4.0515 3.06261,-7.40752 7.11718,-7.55469 z"
       id="path1528-20" />
    <path
       style="color:#000000;font-style:normal;font-variant:normal;font-weight:normal;font-stretch:normal;font-size:medium;line-height:normal;font-family:sans-serif;font-variant-ligatures:normal;font-variant-position:normal;font-variant-caps:normal;font-variant-numeric:normal;font-variant-alternates:normal;font-variant-east-asian:normal;font-feature-settings:normal;font-variation-settings:normal;text-indent:0;text-align:start;text-decoration:none;text-decoration-line:none;text-decoration-style:solid;text-decoration-color:#000000;letter-spacing:normal;word-spacing:normal;text-transform:none;writing-mode:lr-tb;direction:ltr;text-orientation:mixed;dominant-baseline:auto;baseline-shift:baseline;text-anchor:start;white-space:normal;shape-padding:0;shape-margin:0;inline-size:0;clip-rule:nonzero;display:inline;overflow:visible;visibility:visible;opacity:0.679558;isolation:auto;mix-blend-mode:normal;color-interpolation:sRGB;color-interpolation-filters:linearRGB;solid-color:#000000;solid-opacity:1;vector-effect:none;fill:#ff2525;fill-opacity:1;fill-rule:nonzero;stroke:none;stroke-linecap:round;stroke-linejoin:round;stroke-miterlimit:4;stroke-dasharray:none;stroke-dashoffset:0;stroke-opacity:1;color-rendering:auto;image-rendering:auto;shape-rendering:auto;text-rendering:auto;enable-background:accumulate;stop-color:#000000"
       d="m 369.1875,304.56055 a 0.9361386,0.9361386 0 0 0 -0.6543,0.32812 l -9.08398,10.64649 -11.54297,3.11718 -9.99805,-7.70507 a 0.9361386,0.9361386 0 0 0 -1.44531,0.40625 l -2.8125,7.34179 -8.25195,9.89063 -13.83594,-0.13867 a 0.9361386,0.9361386 0 0 0 -0.93555,1.07226 l 1.61524,10.9707 -3.14844,11.6836 -12.1582,12.36719 -15.15235,2.27343 -12.16406,-3.62695 a 0.9361386,0.9361386 0 0 0 -1.19531,0.77344 l -1.08399,8.05859 a 0.9361386,0.9361386 0 0 0 0.48243,0.94727 l 11.64062,6.30273 9.30469,12.15625 0.90234,6.86914 -0.66797,13.94727 -9.16992,11.37109 -11.31641,6.46875 a 0.9361386,0.9361386 0 0 0 -0.29687,1.35742 l 4.40039,6.1211 a 0.9361386,0.9361386 0 0 0 0.80469,0.38867 l 10.17773,-0.48438 12.61328,3.44727 6.69141,5.44531 3.69336,7.29688 3.77539,8.84765 c -0.1494,0.3085 -0.66193,1.36296 -1.36914,2.85938 -0.53269,1.12715 -0.87465,1.93216 -1.25781,2.80664 -0.35252,0.0541 -0.68465,0.18052 -0.90039,0.43945 -0.37675,0.45218 -0.38786,0.92744 -0.33204,1.3125 0.0279,0.19253 0.0795,0.37406 0.17383,0.56055 0.0944,0.18649 0.21985,0.40793 0.5586,0.57617 0.17854,0.0887 0.39516,-0.0449 0.6289,-0.084 0.005,0.64803 -0.029,1.41128 -0.13086,2.23437 -0.22776,1.84118 -0.58864,3.49213 -0.625,3.66016 l -3.95312,5.27734 a 0.9361386,0.9361386 0 0 0 0.25,1.35156 l 5.86133,3.69336 a 0.9361386,0.9361386 0 0 0 1.08008,-0.0586 l 10.39257,-8.23047 a 0.9361386,0.9361386 0 0 0 0.34571,-0.87109 l -1.58399,-10.69336 a 0.9361386,0.9361386 0 0 0 -0.01,-0.0547 l -3.125,-14.90039 7.30664,-6.63672 11.04687,-2.72266 6.76563,4.69727 a 0.9361386,0.9361386 0 0 0 1.20117,-0.11328 l 15.58984,-15.89453 a 0.9361386,0.9361386 0 0 0 0.0449,-1.26367 l -13.55859,-15.88282 -2.60742,-19.29297 9.10742,-14.16406 13.15039,-5.33984 16.03516,3.23242 9.875,7.09375 4.73633,10.4668 0.14062,12.45312 -7.14062,13.89258 -8.78125,4.94922 a 0.9361386,0.9361386 0 0 0 -0.24219,0.19531 l -2.36328,2.67383 a 0.9361386,0.9361386 0 0 0 0.16992,1.39062 l 12.08203,8.35547 5.86523,8.13477 1.55079,11.00781 -2.96094,13.82617 -4.86719,5.98047 a 0.9361386,0.9361386 0 0 0 0.30078,1.42383 l 8.02149,4.09375 a 0.9361386,0.9361386 0 0 0 0.93164,-0.0449 l 6.36132,-4.07617 13.25782,0.25586 5.37109,2.90039 a 0.9361386,0.9361386 0 0 0 0.875,0.008 l 5.27539,-2.73047 a 0.9361386,0.9361386 0 0 0 0.47656,-1.06055 l -2.83203,-11.18554 1.29102,-13.11719 4.29687,-8.41016 5.82813,-5.49609 9.25781,-3.41797 10.0332,0.10547 a 0.9361386,0.9361386 0 0 0 0.8418,-0.50781 l 4.44141,-8.60157 a 0.9361386,0.9361386 0 0 0 -0.39844,-1.25781 l -8.34375,-4.36523 -6.04688,-11.6875 -0.26562,-11.43555 1.84766,-11.19922 9.41015,-8.61719 7.32031,-2.77734 a 0.9361386,0.9361386 0 0 0 0.47071,-1.35742 l -3.77344,-6.2793 a 0.9361386,0.9361386 0 0 0 -0.69531,-0.44922 l -13.91211,-1.59961 -13.83594,-9.57031 -7.31836,-12.10547 2.90821,-11.82422 a 0.9361386,0.9361386 0 0 0 0.0137,-0.0723 l 0.94336,-5.83985 a 0.9361386,0.9361386 0 0 0 -1.08789,-1.07031 l -9.44922,1.69922 -12.27539,-5.97461 -3.82422,-11.74805 a 0.9361386,0.9361386 0 0 0 -1.33789,-0.53125 l -9.7793,5.33008 -11.33789,0.41797 -11.86523,-12.39648 a 0.9361386,0.9361386 0 0 0 -0.73438,-0.28711 z m 0.0977,2.33007 11.43945,11.95118 a 0.9361386,0.9361386 0 0 0 0.71094,0.28906 l 11.97851,-0.44336 a 0.9361386,0.9361386 0 0 0 0.41211,-0.11328 l 8.98438,-4.89453 3.59765,11.05273 a 0.9361386,0.9361386 0 0 0 0.48047,0.55078 l 12.90821,6.28321 a 0.9361386,0.9361386 0 0 0 0.57617,0.0801 l 8.44726,-1.51757 -0.72656,4.49414 -2.99023,12.16406 a 0.9361386,0.9361386 0 0 0 0.10742,0.70703 l 7.62304,12.60938 a 0.9361386,0.9361386 0 0 0 0.26954,0.28515 l 14.19336,9.81641 a 0.9361386,0.9361386 0 0 0 0.42578,0.16015 l 13.68554,1.57618 2.95899,4.92578 -6.44141,2.44336 a 0.9361386,0.9361386 0 0 0 -0.30078,0.18359 l -9.78125,8.95703 a 0.9361386,0.9361386 0 0 0 -0.29102,0.53906 l -1.91406,11.60352 a 0.9361386,0.9361386 0 0 0 -0.0137,0.17383 l 0.27539,11.74023 a 0.9361386,0.9361386 0 0 0 0.10352,0.40821 l 6.28125,12.14257 a 0.9361386,0.9361386 0 0 0 0.39843,0.39844 l 7.78125,4.07031 -3.75,7.26172 -9.6289,-0.0996 a 0.9361386,0.9361386 0 0 0 -0.33399,0.0586 l -9.59961,3.54297 a 0.9361386,0.9361386 0 0 0 -0.3164,0.19726 l -6.08594,5.73633 a 0.9361386,0.9361386 0 0 0 -0.19141,0.25586 l -4.45117,8.71289 a 0.9361386,0.9361386 0 0 0 -0.0976,0.33398 l -1.32422,13.45508 a 0.9361386,0.9361386 0 0 0 0.0234,0.32227 l 2.69141,10.625 -4.17578,2.16015 -5.13672,-2.77343 a 0.9361386,0.9361386 0 0 0 -0.42578,-0.11133 l -13.76953,-0.26563 a 0.9361386,0.9361386 0 0 0 -0.52149,0.14649 l -6.15039,3.9414 -6.51172,-3.32422 4.27735,-5.25585 a 0.9361386,0.9361386 0 0 0 0.18945,-0.39454 l 3.04297,-14.20898 a 0.9361386,0.9361386 0 0 0 0.0117,-0.32813 l -1.60742,-11.40039 a 0.9361386,0.9361386 0 0 0 -0.16797,-0.41796 l -6.09375,-8.45118 a 0.9361386,0.9361386 0 0 0 -0.22656,-0.22265 l -11.34766,-7.84961 1.56055,-1.76367 8.88867,-5.01172 a 0.9361386,0.9361386 0 0 0 0.37305,-0.38672 l 7.375,-14.34961 a 0.9361386,0.9361386 0 0 0 0.10351,-0.4375 l -0.14648,-12.88086 a 0.9361386,0.9361386 0 0 0 -0.082,-0.375 l -4.92188,-10.875 a 0.9361386,0.9361386 0 0 0 -0.30664,-0.37305 l -10.24219,-7.35937 a 0.9361386,0.9361386 0 0 0 -0.36133,-0.15821 l -16.50781,-3.32617 a 0.9361386,0.9361386 0 0 0 -0.53711,0.0508 l -13.68554,5.55665 a 0.9361386,0.9361386 0 0 0 -0.43555,0.36132 l -9.45508,14.70313 a 0.9361386,0.9361386 0 0 0 -0.14063,0.63086 l 2.69141,19.91015 a 0.9361386,0.9361386 0 0 0 0.2168,0.48047 l 13.17969,15.44141 -14.4375,14.71875 -6.4629,-4.48633 a 0.9361386,0.9361386 0 0 0 -0.75781,-0.14062 l -11.6875,2.8789 a 0.9361386,0.9361386 0 0 0 -0.40429,0.2168 l -7.87891,7.15625 a 0.9361386,0.9361386 0 0 0 -0.28711,0.88476 l 3.22852,15.39649 1.5,10.13281 -9.44922,7.48242 -4.44141,-2.79883 3.47852,-4.64257 a 0.9361386,0.9361386 0 0 0 0.16406,-0.36133 c 0,0 0.43436,-1.96736 0.6875,-4.01367 0.12657,-1.02316 0.21174,-2.06188 0.16406,-2.95117 -0.0238,-0.44465 -0.0738,-0.85152 -0.2168,-1.24805 -0.0226,-0.0627 -0.13106,-0.10032 -0.16211,-0.16602 0.35271,-0.81106 0.73386,-1.69208 1.3086,-2.9082 0.7983,-1.68916 1.54492,-3.23047 1.54492,-3.23047 a 0.9361386,0.9361386 0 0 0 0.0195,-0.77539 l -3.95312,-9.26563 a 0.9361386,0.9361386 0 0 0 -0.0254,-0.0547 l -3.79883,-7.50196 a 0.9361386,0.9361386 0 0 0 -0.24414,-0.30273 l -6.99805,-5.69531 a 0.9361386,0.9361386 0 0 0 -0.34375,-0.17774 l -12.94922,-3.53711 a 0.9361386,0.9361386 0 0 0 -0.29101,-0.0332 l -9.81836,0.4668 -3.4961,-4.86328 10.56836,-6.03907 a 0.9361386,0.9361386 0 0 0 0.26563,-0.22656 l 9.4707,-11.74609 a 0.9361386,0.9361386 0 0 0 0.20703,-0.54102 l 0.6875,-14.33789 a 0.9361386,0.9361386 0 0 0 -0.008,-0.16601 l -0.94531,-7.20118 a 0.9361386,0.9361386 0 0 0 -0.18555,-0.44726 l -9.58008,-12.51367 a 0.9361386,0.9361386 0 0 0 -0.29687,-0.25391 l -11.24805,-6.08984 0.85156,-6.33399 11.31641,3.37305 a 0.9361386,0.9361386 0 0 0 0.40625,0.0273 l 15.66797,-2.34961 a 0.9361386,0.9361386 0 0 0 0.52929,-0.26953 l 12.54883,-12.76367 a 0.9361386,0.9361386 0 0 0 0.23633,-0.41406 l 3.26367,-12.10938 a 0.9361386,0.9361386 0 0 0 0.0215,-0.3789 l -1.48438,-10.08008 13.1836,0.13281 a 0.9361386,0.9361386 0 0 0 0.72851,-0.33789 l 8.63867,-10.34961 a 0.9361386,0.9361386 0 0 0 0.1543,-0.26367 l 2.41797,-6.31445 9.36914,7.22265 a 0.9361386,0.9361386 0 0 0 0.81641,0.16211 l 12.26953,-3.31641 a 0.9361386,0.9361386 0 0 0 0.46875,-0.29492 z"
       id="path1649" />
    <path
       id="rect1130"
       style="opacity:0.679558;fill:none;fill-opacity:1;stroke:#1cd349;stroke-width:1.885;stroke-linecap:round;stroke-linejoin:round;stroke-opacity:1"
       d="m 393.74579,414.34567 h 67.2844 v 25.15643 h -67.2844 z" />
    <path
       id="rect1133"
       style="opacity:0.679558;fill:none;fill-opacity:1;stroke:#1cd349;stroke-width:1.885;stroke-linecap:round;stroke-linejoin:round;stroke-opacity:1"
       d="m 383.99435,336.89917 h 8.85938 v 41.27734 h -8.85938 z" />
  </g>
</svg>
