<?xml version="1.0" encoding="UTF-8" standalone="no"?>
<svg
   xmlns:dc="http://purl.org/dc/elements/1.1/"
   xmlns:cc="http://creativecommons.org/ns#"
   xmlns:rdf="http://www.w3.org/1999/02/22-rdf-syntax-ns#"
   xmlns:svg="http://www.w3.org/2000/svg"
   xmlns="http://www.w3.org/2000/svg"
   xmlns:xlink="http://www.w3.org/1999/xlink"
   xmlns:sodipodi="http://sodipodi.sourceforge.net/DTD/sodipodi-0.dtd"
   xmlns:inkscape="http://www.inkscape.org/namespaces/inkscape"
   version="1.1"
   id="svg96"
   width="226.06001mm"
   height="226.22932mm"
   viewBox="0 0 854.40002 855.03998"
   sodipodi:docname="shape.svg"
   inkscape:version="1.0.2 (e86c870879, 2021-01-15)">
  <metadata
     id="metadata102">
    <rdf:RDF>
      <cc:Work
         rdf:about="">
        <dc:format>image/svg+xml</dc:format>
        <dc:type
           rdf:resource="http://purl.org/dc/dcmitype/StillImage" />
        <dc:title></dc:title>
      </cc:Work>
    </rdf:RDF>
  </metadata>
  <defs
     id="defs100" />
  <sodipodi:namedview
     pagecolor="#ffffff"
     bordercolor="#666666"
     borderopacity="1"
     objecttolerance="10"
     gridtolerance="10"
     guidetolerance="10"
     inkscape:pageopacity="0"
     inkscape:pageshadow="2"
     inkscape:window-width="1920"
     inkscape:window-height="1011"
     id="namedview98"
     showgrid="false"
     inkscape:zoom="2.56"
     inkscape:cx="366.75319"
     inkscape:cy="400.12847"
     inkscape:window-x="0"
     inkscape:window-y="0"
     inkscape:window-maximized="1"
     inkscape:current-layer="g104"
     inkscape:document-rotation="0"
     units="mm" />
  <g
     inkscape:groupmode="layer"
     inkscape:label="Image"
     id="g104">
    <image
       sodipodi:absref="/home/depau/Beans-Unencrypted/air-purifier-pcb/front.jpg"
       xlink:href="front.jpg"
       width="273.43292"
       height="273.63776"
       preserveAspectRatio="none"
       id="image106"
       x="233.16585"
       y="265.8631"
       style="opacity:1" />
    <image
       sodipodi:absref="/home/depau/Beans-Unencrypted/air-purifier-pcb/photo_2021-04-12_16-50-49.jpg"
       xlink:href="photo_2021-04-12_16-50-49.jpg"
       transform="matrix(0.99984598,0.01755047,0.01755047,-0.99984598,0,0)"
       style="opacity:0.43979"
       y="-530.80811"
       x="187.90903"
       id="image1661"
       preserveAspectRatio="none"
       height="274.46985"
       width="365.95981" />
    <image
       sodipodi:absref="/home/depau/Beans-Unencrypted/air-purifier-pcb/PXL_20210413_220759070.jpg"
       xlink:href="PXL_20210413_220759070.jpg"
       transform="matrix(0.58888152,0.80821937,0.80821937,-0.58888152,0,0)"
       style="display:none;opacity:0.679558"
       y="-117.70546"
       x="298.60858"
       id="image1524"
       preserveAspectRatio="none"
       height="351.11765"
       width="468.1568" />
    <path
       id="path122"
       style="fill:none;fill-opacity:0.608434;stroke:#ff2525;stroke-width:1.885;stroke-linecap:round;stroke-linejoin:round;stroke-miterlimit:4;stroke-dasharray:none;stroke-opacity:1"
       d="m 368.98828,265.86133 c -1.34829,0.0118 -2.70525,0.0421 -4.07226,0.0918 -35.97605,1.30692 -69.98824,16.74088 -94.66211,42.95508 -7.94799,8.44416 -14.71983,17.78704 -20.22071,27.77735 -0.90028,1.63503 -1.06086,3.33729 -1.89258,5.00586 -0.36285,0.72795 1.55398,1.97483 1.28516,2.74218 l -10.93555,31.2168 -2.10351,-0.21094 c -0.95953,0.86946 -0.97337,1.95326 -1.21289,3.30078 -1.58693,8.92806 -2.29304,18.05497 -2.07031,27.25391 0.87138,35.98923 15.19768,69.72745 41.11132,94.7168 0.58078,0.56007 2.91773,-1.45988 3.56055,-0.97461 l 25.54883,19.28711 c 1.47456,1.11316 -0.0193,1.43797 0.44922,3.44531 20.55988,11.34595 43.88156,17.31058 67.76562,17.02148 35.99714,-0.43572 70.37072,-15.04111 95.67188,-40.65039 10.36367,-10.48987 18.86386,-22.47999 25.28711,-35.45507 0.4661,-0.94154 -2.1026,-2.2188 -1.76953,-3.21485 l 10.15625,-30.36914 c 0.27658,-0.82712 3.14489,-0.19391 3.32617,-1.13086 1.64531,-8.50379 2.49023,-17.20286 2.49023,-25.98828 l -0.16015,-6.62109 c -1.74227,-35.9576 -17.58674,-69.77999 -44.09766,-94.13477 -9.49041,-8.71855 -20.07399,-15.9723 -31.40234,-21.63281 -0.7456,-0.37256 -2.46253,2.03573 -3.25,1.76367 L 397.12891,271.4629 c -0.57049,-0.19709 0.14242,-2.82841 -0.44922,-2.94922 -9.23128,-1.88492 -18.25335,-2.73528 -27.69141,-2.65234 z"
       sodipodi:nodetypes="scssscccssssscsssccsccssccsss" />
    <circle
       style="fill:none;fill-opacity:0.608434;stroke:#ff2525;stroke-width:2.57416;stroke-linecap:round;stroke-linejoin:round;stroke-miterlimit:4;stroke-dasharray:none;stroke-opacity:1"
       id="path882"
       sodipodi:type="arc"
       sodipodi:cx="331.87292"
       sodipodi:cy="458.83154"
       sodipodi:rx="11.417454"
       sodipodi:ry="11.417454"
       sodipodi:start="0"
       sodipodi:end="6.2347699"
       sodipodi:open="true"
       sodipodi:arc-type="arc"
       d="m 343.29038,458.83154 a 11.417454,11.417454 0 0 1 -11.27926,11.41662 11.417454,11.417454 0 0 1 -11.5523,-11.14025 11.417454,11.417454 0 0 1 10.99961,-11.68629 11.417454,11.417454 0 0 1 11.81857,10.85736" />
    <circle
       style="fill:none;fill-opacity:0.608434;stroke:#ff2525;stroke-width:1.81931;stroke-linecap:round;stroke-linejoin:round;stroke-miterlimit:4;stroke-dasharray:none;stroke-opacity:1"
       id="path1447"
       sodipodi:type="arc"
       sodipodi:cx="369.57709"
       sodipodi:cy="403.05704"
       sodipodi:rx="19.877695"
       sodipodi:ry="19.877617"
       sodipodi:start="0"
       sodipodi:end="6.2347699"
       sodipodi:open="true"
       sodipodi:arc-type="arc"
       d="m 389.45478,403.05704 a 19.877695,19.877617 0 0 1 -19.6371,19.87616 19.877695,19.877617 0 0 1 -20.11246,-19.39502 19.877695,19.877617 0 0 1 19.15024,-20.34566 19.877695,19.877617 0 0 1 20.57603,18.90251" />
    <circle
       style="fill:none;fill-opacity:0.608434;stroke:#ff2525;stroke-width:1.81931;stroke-linecap:round;stroke-linejoin:round;stroke-miterlimit:4;stroke-dasharray:none;stroke-opacity:1"
       id="path1447-3"
       sodipodi:type="arc"
       sodipodi:cx="262.39627"
       sodipodi:cy="403.04715"
       sodipodi:rx="19.877695"
       sodipodi:ry="19.877617"
       sodipodi:start="0"
       sodipodi:end="6.2347699"
       sodipodi:open="true"
       sodipodi:arc-type="arc"
       d="m 282.27397,403.04715 a 19.877695,19.877617 0 0 1 -19.63711,19.87616 19.877695,19.877617 0 0 1 -20.11246,-19.39502 19.877695,19.877617 0 0 1 19.15024,-20.34565 19.877695,19.877617 0 0 1 20.57603,18.9025" />
    <circle
       style="fill:none;fill-opacity:0.608434;stroke:#ff2525;stroke-width:1.81931;stroke-linecap:round;stroke-linejoin:round;stroke-miterlimit:4;stroke-dasharray:none;stroke-opacity:1"
       id="path1447-6"
       sodipodi:type="arc"
       sodipodi:cx="282.82559"
       sodipodi:cy="463.99481"
       sodipodi:rx="19.877695"
       sodipodi:ry="19.877617"
       sodipodi:start="0"
       sodipodi:end="6.2347699"
       sodipodi:open="true"
       sodipodi:arc-type="arc"
       d="m 302.70329,463.99481 a 19.877695,19.877617 0 0 1 -19.63711,19.87616 19.877695,19.877617 0 0 1 -20.11246,-19.39501 19.877695,19.877617 0 0 1 19.15024,-20.34566 19.877695,19.877617 0 0 1 20.57603,18.90251" />
    <circle
       style="fill:none;fill-opacity:0.608434;stroke:#ff2525;stroke-width:1.81931;stroke-linecap:round;stroke-linejoin:round;stroke-miterlimit:4;stroke-dasharray:none;stroke-opacity:1"
       id="path1447-7"
       sodipodi:type="arc"
       sodipodi:cx="455.06662"
       sodipodi:cy="465.82205"
       sodipodi:rx="19.877695"
       sodipodi:ry="19.877617"
       sodipodi:start="0"
       sodipodi:end="6.2347699"
       sodipodi:open="true"
       sodipodi:arc-type="arc"
       d="m 474.94431,465.82205 a 19.877695,19.877617 0 0 1 -19.6371,19.87616 19.877695,19.877617 0 0 1 -20.11246,-19.39501 19.877695,19.877617 0 0 1 19.15024,-20.34566 19.877695,19.877617 0 0 1 20.57603,18.90251" />
    <circle
       style="fill:none;fill-opacity:0.608434;stroke:#ff2525;stroke-width:1.81931;stroke-linecap:round;stroke-linejoin:round;stroke-miterlimit:4;stroke-dasharray:none;stroke-opacity:1"
       id="path1447-5"
       sodipodi:type="arc"
       sodipodi:cx="476.01389"
       sodipodi:cy="404.4028"
       sodipodi:rx="19.877695"
       sodipodi:ry="19.877617"
       sodipodi:start="0"
       sodipodi:end="6.2347699"
       sodipodi:open="true"
       sodipodi:arc-type="arc"
       d="m 495.89158,404.4028 a 19.877695,19.877617 0 0 1 -19.6371,19.87616 19.877695,19.877617 0 0 1 -20.11247,-19.39501 19.877695,19.877617 0 0 1 19.15024,-20.34566 19.877695,19.877617 0 0 1 20.57604,18.9025" />
    <circle
       style="fill:none;fill-opacity:0.608434;stroke:#ff2525;stroke-width:1.81931;stroke-linecap:round;stroke-linejoin:round;stroke-miterlimit:4;stroke-dasharray:none;stroke-opacity:1"
       id="path1447-35"
       sodipodi:type="arc"
       sodipodi:cx="456.32349"
       sodipodi:cy="342.10364"
       sodipodi:rx="19.877695"
       sodipodi:ry="19.877617"
       sodipodi:start="0"
       sodipodi:end="6.2347699"
       sodipodi:open="true"
       sodipodi:arc-type="arc"
       d="m 476.20118,342.10364 a 19.877695,19.877617 0 0 1 -19.6371,19.87616 19.877695,19.877617 0 0 1 -20.11246,-19.39502 19.877695,19.877617 0 0 1 19.15023,-20.34566 19.877695,19.877617 0 0 1 20.57604,18.90251" />
    <circle
       style="fill:none;fill-opacity:0.608434;stroke:#ff2525;stroke-width:1.81931;stroke-linecap:round;stroke-linejoin:round;stroke-miterlimit:4;stroke-dasharray:none;stroke-opacity:1"
       id="path1447-62"
       sodipodi:type="arc"
       sodipodi:cx="285.19559"
       sodipodi:cy="340.29257"
       sodipodi:rx="19.877695"
       sodipodi:ry="19.877617"
       sodipodi:start="0"
       sodipodi:end="6.2347699"
       sodipodi:open="true"
       sodipodi:arc-type="arc"
       d="m 305.07328,340.29257 a 19.877695,19.877617 0 0 1 -19.6371,19.87616 19.877695,19.877617 0 0 1 -20.11246,-19.39501 19.877695,19.877617 0 0 1 19.15024,-20.34566 19.877695,19.877617 0 0 1 20.57603,18.90251" />
    <circle
       style="opacity:1;fill:none;fill-opacity:0.608434;stroke:#ff2525;stroke-width:2.01654;stroke-linecap:round;stroke-linejoin:round;stroke-miterlimit:4;stroke-dasharray:none;stroke-opacity:1"
       id="path1528"
       sodipodi:type="arc"
       sodipodi:cx="317.08084"
       sodipodi:cy="311.14368"
       sodipodi:rx="8.4471436"
       sodipodi:ry="8.4405384"
       sodipodi:start="0"
       sodipodi:end="6.2347699"
       sodipodi:open="true"
       sodipodi:arc-type="arc"
       d="m 325.52798,311.14368 a 8.4471436,8.4405384 0 0 1 -8.3449,8.43992 8.4471436,8.4405384 0 0 1 -8.54691,-8.23562 8.4471436,8.4405384 0 0 1 8.13801,-8.63928 8.4471436,8.4405384 0 0 1 8.74391,8.02648" />
    <circle
       style="fill:none;fill-opacity:0.608434;stroke:#ff2525;stroke-width:2.01654;stroke-linecap:round;stroke-linejoin:round;stroke-miterlimit:4;stroke-dasharray:none;stroke-opacity:1"
       id="path1528-9"
       sodipodi:type="arc"
       sodipodi:cx="351.50983"
       sodipodi:cy="298.99841"
       sodipodi:rx="8.4471436"
       sodipodi:ry="8.4405384"
       sodipodi:start="0"
       sodipodi:end="6.2347699"
       sodipodi:open="true"
       sodipodi:arc-type="arc"
       d="m 359.95697,298.99841 a 8.4471436,8.4405384 0 0 1 -8.3449,8.43992 8.4471436,8.4405384 0 0 1 -8.54691,-8.23561 8.4471436,8.4405384 0 0 1 8.13801,-8.63928 8.4471436,8.4405384 0 0 1 8.7439,8.02648" />
    <circle
       style="fill:none;fill-opacity:0.608434;stroke:#ff2525;stroke-width:2.01654;stroke-linecap:round;stroke-linejoin:round;stroke-miterlimit:4;stroke-dasharray:none;stroke-opacity:1"
       id="path1528-1"
       sodipodi:type="arc"
       sodipodi:cx="389.17203"
       sodipodi:cy="299.2179"
       sodipodi:rx="8.4471436"
       sodipodi:ry="8.4405384"
       sodipodi:start="0"
       sodipodi:end="6.2347699"
       sodipodi:open="true"
       sodipodi:arc-type="arc"
       d="m 397.61917,299.2179 a 8.4471436,8.4405384 0 0 1 -8.3449,8.43992 8.4471436,8.4405384 0 0 1 -8.54691,-8.23562 8.4471436,8.4405384 0 0 1 8.13801,-8.63928 8.4471436,8.4405384 0 0 1 8.7439,8.02648" />
    <circle
       style="fill:none;fill-opacity:0.608434;stroke:#ff2525;stroke-width:2.01654;stroke-linecap:round;stroke-linejoin:round;stroke-miterlimit:4;stroke-dasharray:none;stroke-opacity:1"
       id="path1528-2"
       sodipodi:type="arc"
       sodipodi:cx="423.95761"
       sodipodi:cy="311.54623"
       sodipodi:rx="8.4471436"
       sodipodi:ry="8.4405384"
       sodipodi:start="0"
       sodipodi:end="6.2347699"
       sodipodi:open="true"
       sodipodi:arc-type="arc"
       d="m 432.40475,311.54623 a 8.4471436,8.4405384 0 0 1 -8.3449,8.43992 8.4471436,8.4405384 0 0 1 -8.54691,-8.23561 8.4471436,8.4405384 0 0 1 8.13801,-8.63928 8.4471436,8.4405384 0 0 1 8.74391,8.02648" />
    <circle
       style="fill:none;fill-opacity:0.608434;stroke:#ff2525;stroke-width:2.01654;stroke-linecap:round;stroke-linejoin:round;stroke-miterlimit:4;stroke-dasharray:none;stroke-opacity:1"
       id="path1528-7"
       sodipodi:type="arc"
       sodipodi:cx="455.43307"
       sodipodi:cy="342.58307"
       sodipodi:rx="8.4471436"
       sodipodi:ry="8.4405384"
       sodipodi:start="0"
       sodipodi:end="6.2347699"
       sodipodi:open="true"
       sodipodi:arc-type="arc"
       d="m 463.88022,342.58307 a 8.4471436,8.4405384 0 0 1 -8.3449,8.43992 8.4471436,8.4405384 0 0 1 -8.54691,-8.23562 8.4471436,8.4405384 0 0 1 8.138,-8.63928 8.4471436,8.4405384 0 0 1 8.74391,8.02649" />
    <circle
       style="fill:none;fill-opacity:0.608434;stroke:#ff2525;stroke-width:2.01654;stroke-linecap:round;stroke-linejoin:round;stroke-miterlimit:4;stroke-dasharray:none;stroke-opacity:1"
       id="path1528-0"
       sodipodi:type="arc"
       sodipodi:cx="475.82492"
       sodipodi:cy="403.96027"
       sodipodi:rx="8.4471436"
       sodipodi:ry="8.4405384"
       sodipodi:start="0"
       sodipodi:end="6.2347699"
       sodipodi:open="true"
       sodipodi:arc-type="arc"
       d="m 484.27206,403.96027 a 8.4471436,8.4405384 0 0 1 -8.3449,8.43992 8.4471436,8.4405384 0 0 1 -8.54691,-8.23562 8.4471436,8.4405384 0 0 1 8.13801,-8.63928 8.4471436,8.4405384 0 0 1 8.74391,8.02648" />
    <circle
       style="fill:none;fill-opacity:0.608434;stroke:#ff2525;stroke-width:2.01654;stroke-linecap:round;stroke-linejoin:round;stroke-miterlimit:4;stroke-dasharray:none;stroke-opacity:1"
       id="path1528-93"
       sodipodi:type="arc"
       sodipodi:cx="454.81305"
       sodipodi:cy="466.05634"
       sodipodi:rx="8.4471436"
       sodipodi:ry="8.4405384"
       sodipodi:start="0"
       sodipodi:end="6.2347699"
       sodipodi:open="true"
       sodipodi:arc-type="arc"
       d="m 463.26019,466.05634 a 8.4471436,8.4405384 0 0 1 -8.3449,8.43992 8.4471436,8.4405384 0 0 1 -8.54691,-8.23562 8.4471436,8.4405384 0 0 1 8.13801,-8.63928 8.4471436,8.4405384 0 0 1 8.7439,8.02648" />
    <circle
       style="fill:none;fill-opacity:0.608434;stroke:#ff2525;stroke-width:2.01654;stroke-linecap:round;stroke-linejoin:round;stroke-miterlimit:4;stroke-dasharray:none;stroke-opacity:1"
       id="path1528-6"
       sodipodi:type="arc"
       sodipodi:cx="411.08627"
       sodipodi:cy="500.03427"
       sodipodi:rx="8.4471436"
       sodipodi:ry="8.4405384"
       sodipodi:start="0"
       sodipodi:end="6.2347699"
       sodipodi:open="true"
       sodipodi:arc-type="arc"
       d="m 419.53342,500.03427 a 8.4471436,8.4405384 0 0 1 -8.34491,8.43992 8.4471436,8.4405384 0 0 1 -8.54691,-8.23561 8.4471436,8.4405384 0 0 1 8.13801,-8.63928 8.4471436,8.4405384 0 0 1 8.74391,8.02648" />
    <circle
       style="fill:none;fill-opacity:0.608434;stroke:#ff2525;stroke-width:2.01654;stroke-linecap:round;stroke-linejoin:round;stroke-miterlimit:4;stroke-dasharray:none;stroke-opacity:1"
       id="path1528-06"
       sodipodi:type="arc"
       sodipodi:cx="368.44858"
       sodipodi:cy="509.34677"
       sodipodi:rx="8.4471436"
       sodipodi:ry="8.4405384"
       sodipodi:start="0"
       sodipodi:end="6.2347699"
       sodipodi:open="true"
       sodipodi:arc-type="arc"
       d="m 376.89572,509.34677 a 8.4471436,8.4405384 0 0 1 -8.3449,8.43992 8.4471436,8.4405384 0 0 1 -8.54691,-8.23561 8.4471436,8.4405384 0 0 1 8.13801,-8.63928 8.4471436,8.4405384 0 0 1 8.7439,8.02648" />
    <circle
       style="fill:none;fill-opacity:0.608434;stroke:#ff2525;stroke-width:2.01654;stroke-linecap:round;stroke-linejoin:round;stroke-miterlimit:4;stroke-dasharray:none;stroke-opacity:1"
       id="path1528-26"
       sodipodi:type="arc"
       sodipodi:cx="325.02771"
       sodipodi:cy="499.34766"
       sodipodi:rx="8.4471436"
       sodipodi:ry="8.4405384"
       sodipodi:start="0"
       sodipodi:end="6.2347699"
       sodipodi:open="true"
       sodipodi:arc-type="arc"
       d="m 333.47485,499.34766 a 8.4471436,8.4405384 0 0 1 -8.3449,8.43992 8.4471436,8.4405384 0 0 1 -8.54691,-8.23562 8.4471436,8.4405384 0 0 1 8.13801,-8.63928 8.4471436,8.4405384 0 0 1 8.74391,8.02648" />
    <circle
       style="fill:none;fill-opacity:0.608434;stroke:#ff2525;stroke-width:2.01654;stroke-linecap:round;stroke-linejoin:round;stroke-miterlimit:4;stroke-dasharray:none;stroke-opacity:1"
       id="path1528-18"
       sodipodi:type="arc"
       sodipodi:cx="283.11099"
       sodipodi:cy="464.4834"
       sodipodi:rx="8.4471436"
       sodipodi:ry="8.4405384"
       sodipodi:start="0"
       sodipodi:end="6.2347699"
       sodipodi:open="true"
       sodipodi:arc-type="arc"
       d="m 291.55814,464.4834 a 8.4471436,8.4405384 0 0 1 -8.34491,8.43992 8.4471436,8.4405384 0 0 1 -8.54691,-8.23562 8.4471436,8.4405384 0 0 1 8.13801,-8.63928 8.4471436,8.4405384 0 0 1 8.74391,8.02649" />
    <circle
       style="fill:none;fill-opacity:0.608434;stroke:#ff2525;stroke-width:2.01654;stroke-linecap:round;stroke-linejoin:round;stroke-miterlimit:4;stroke-dasharray:none;stroke-opacity:1"
       id="path1528-79"
       sodipodi:type="arc"
       sodipodi:cx="262.73938"
       sodipodi:cy="402.91968"
       sodipodi:rx="8.4471436"
       sodipodi:ry="8.4405384"
       sodipodi:start="0"
       sodipodi:end="6.2347699"
       sodipodi:open="true"
       sodipodi:arc-type="arc"
       d="m 271.18652,402.91968 a 8.4471436,8.4405384 0 0 1 -8.3449,8.43992 8.4471436,8.4405384 0 0 1 -8.54691,-8.23562 8.4471436,8.4405384 0 0 1 8.13801,-8.63928 8.4471436,8.4405384 0 0 1 8.74391,8.02649" />
    <circle
       style="fill:none;fill-opacity:0.608434;stroke:#ff2525;stroke-width:2.01654;stroke-linecap:round;stroke-linejoin:round;stroke-miterlimit:4;stroke-dasharray:none;stroke-opacity:1"
       id="path1528-20"
       sodipodi:type="arc"
       sodipodi:cx="369.37177"
       sodipodi:cy="403.0567"
       sodipodi:rx="8.4471436"
       sodipodi:ry="8.4405384"
       sodipodi:start="0"
       sodipodi:end="6.2347699"
       sodipodi:open="true"
       sodipodi:arc-type="arc"
       d="m 377.81891,403.0567 a 8.4471436,8.4405384 0 0 1 -8.3449,8.43992 8.4471436,8.4405384 0 0 1 -8.54691,-8.23561 8.4471436,8.4405384 0 0 1 8.138,-8.63928 8.4471436,8.4405384 0 0 1 8.74391,8.02648" />
    <path
       style="opacity:0.679558;fill:none;fill-opacity:0.608434;stroke:#ff2525;stroke-width:1.885;stroke-linecap:round;stroke-linejoin:round;stroke-miterlimit:4;stroke-dasharray:none;stroke-opacity:1"
       d="m 342.78881,448.20879 15.69678,-16.0044 -13.83076,-16.20361 -2.71001,-20.04672 9.5205,-14.80475 13.78007,-5.59542 16.6223,3.35038 10.31291,7.40943 4.9546,10.94931 0.14632,12.96959 -7.42618,14.44777 -9.08858,5.12296 -2.37902,2.69193 12.29881,8.50683 6.13662,8.51036 1.61833,11.48082 -3.06478,14.30762 -5.04363,6.19656 8.07844,4.12252 6.64698,-4.25914 13.86338,0.26708 5.60951,3.02953 5.31071,-2.74835 -2.89202,-11.42265 1.33363,-13.5487 4.48127,-8.77302 6.12692,-5.77788 9.66417,-3.56721 10.27589,0.10666 4.47245,-8.66108 -8.66549,-4.53328 -6.32437,-12.22564 -0.27589,-11.82107 1.9286,-11.68444 9.84839,-9.01895 7.53989,-2.86029 -3.79992,-6.32437 -14.24063,-1.6386 -14.29175,-9.88453 -7.67475,-12.69634 3.01984,-12.28382 0.95019,-5.87836 -9.81577,1.76377 -12.99691,-6.32525 -3.97444,-12.2089 -10.04143,5.47289 -12.06081,0.44513 -12.23887,-12.78712 -9.33627,10.94226 -12.35522,3.33803 -10.43719,-8.04495 -2.88674,7.53988 -8.69722,10.42133 -14.37725,-0.14367 1.65535,11.24019 -3.28515,12.19303 -12.6364,12.85324 -15.77611,2.3658 -12.45041,-3.71089 -1.09123,8.11459 11.89775,6.44248 9.64566,12.60026 0.95284,7.25077 -0.69282,14.43543 -9.53636,11.82724 -11.55046,6.60026 4.43015,6.16218 10.39665,-0.49361 13.03745,3.56192 7.04628,5.73469 3.82459,7.55398 3.98061,9.32834 c 0,0 -3.01895,6.223 -3.43147,7.42618 -0.41252,1.20317 -1.16351,-1.23138 0.27942,-0.81798 1.44292,0.41339 -0.26972,8.21947 -0.26972,8.21947 l -4.11547,5.49405 5.90127,3.71794 10.46541,-8.28735 -1.59446,-10.76808 -3.25702,-15.53072 7.93301,-7.2067 11.76729,-2.89907 z"
       id="path1649"
       sodipodi:nodetypes="ccccccccccccccccccccccccccccccccccccccccccccccccccccccccccccccccccccccccssccccccccc" />
    <rect
       style="opacity:1;fill:none;fill-opacity:0.608434;stroke:#1dff06;stroke-width:1.885;stroke-linecap:round;stroke-linejoin:round;stroke-miterlimit:4;stroke-dasharray:none;stroke-opacity:1"
       id="rect1665"
       width="67.254639"
       height="23.764038"
       x="395.961"
       y="416.94336" />
    <rect
       style="opacity:0.679558;fill:none;fill-opacity:0.608434;stroke:#1dff06;stroke-width:1.885;stroke-linecap:round;stroke-linejoin:round;stroke-miterlimit:4;stroke-dasharray:none;stroke-opacity:1"
       id="rect1667"
       width="9.8617554"
       height="41.56189"
       x="384.61456"
       y="337.44659" />
  </g>
</svg>
