M48
; DRILL file {KiCad 5.1.9} date Wed Apr 14 19:17:28 2021
; FORMAT={-:-/ absolute / metric / decimal}
; #@! TF.CreationDate,2021-04-14T19:17:28+02:00
; #@! TF.GenerationSoftware,Kicad,Pcbnew,5.1.9
; #@! TF.FileFunction,Plated,1,2,PTH
FMAT,2
METRIC
T1C0.300
T2C0.400
T3C0.750
T4C0.900
T5C1.000
%
G90
G05
T1
X88.138Y-84.836
X90.905Y-87.876
X91.694Y-76.184
X91.694Y-85.344
X93.98Y-79.502
X94.164Y-82.734
X94.193Y-80.518
X94.488Y-86.874
X94.996Y-91.44
X95.758Y-79.502
X100.322Y-76.462
X100.338Y-74.922
X101.1Y-75.684
X101.6Y-85.852
X101.854Y-87.122
X102.108Y-89.154
X102.212Y-86.52
X104.639Y-82.331
X105.156Y-80.518
X105.41Y-87.376
X106.68Y-48.26
X109.22Y-89.112
X109.728Y-88.138
X110.32Y-95.758
X110.998Y-88.9
X112.014Y-81.788
X114.046Y-50.546
X114.13Y-47.668
X115.316Y-86.106
X116.078Y-104.902
X116.586Y-79.756
X116.586Y-90.424
X116.84Y-82.55
X116.84Y-105.664
X117.306Y-80.222
X117.348Y-49.784
X118.618Y-84.074
X118.872Y-88.138
X119.126Y-91.948
X120.396Y-85.09
X120.396Y-104.902
X120.65Y-104.14
X123.698Y-69.341
X123.698Y-101.346
X123.952Y-92.456
X124.46Y-70.104
X124.64Y-72.21
X124.714Y-68.326
X124.986Y-91.93
X125.385Y-74.451
X125.954Y-69.846
X125.984Y-67.352
X126.238Y-51.816
X126.504Y-69.241
X126.534Y-76.454
X126.746Y-102.87
X128.27Y-73.944
X128.778Y-76.708
X129.032Y-66.252
X129.286Y-67.564
X129.54Y-69.85
X131.064Y-76.2
X131.318Y-81.83
X131.572Y-77.978
X131.572Y-79.502
X132.08Y-72.644
X132.842Y-78.74
X133.35Y-89.916
X133.858Y-72.898
X134.574Y-88.79
X134.874Y-92.964
X136.144Y-92.964
X137.668Y-93.472
X138.43Y-58.674
X139.446Y-72.644
T2
X86.58Y-50.596
X87.207Y-48.349
X93.98Y-93.98
X96.774Y-73.406
X98.806Y-53.848
X98.806Y-104.14
X99.06Y-73.152
X100.076Y-94.742
X107.95Y-91.186
X108.966Y-76.962
X113.792Y-96.266
X116.332Y-96.266
X121.158Y-76.962
X122.428Y-67.564
X122.715Y-78.519
X123.177Y-73.165
X124.944Y-80.494
X125.346Y-71.112
X126.746Y-77.978
X127.254Y-96.012
X127.496Y-78.927
X128.27Y-79.756
X129.286Y-80.772
X130.048Y-65.786
X130.954Y-68.944
X131.064Y-74.676
X132.842Y-76.2
X140.716Y-92.71
X144.526Y-79.248
T3
X124.112Y-87.376
X126.112Y-87.376
X128.112Y-87.376
X130.112Y-87.376
X132.112Y-87.376
X134.112Y-87.376
T4
X84.531Y-81.483
X87.071Y-81.483
X91.186Y-96.368
X91.186Y-98.908
X98.958Y-56.947
X100.99Y-106.731
X101.345Y-57.816
X103.53Y-106.731
X107.95Y-54.204
X110.49Y-54.204
X112.37Y-109.372
X113.487Y-82.702
X114.356Y-80.316
X114.91Y-109.372
X117.856Y-54.153
X120.396Y-54.153
X123.495Y-106.985
X126.035Y-106.985
X126.898Y-57.455
X129.438Y-57.455
X136.449Y-96.774
X136.449Y-99.314
X136.55Y-64.364
X136.55Y-66.904
X141.884Y-80.467
X141.884Y-83.007
T5
X84.011Y-86.131
X84.784Y-55.984
X86.084Y-97.485
X86.58Y-54.188
X88.376Y-52.392
X92.784Y-69.915
X115.553Y-76.785
X128.122Y-109.441
X130.203Y-107.984
X132.283Y-106.528
X134.364Y-105.071
X141.369Y-97.942
X141.754Y-65.481
X142.748Y-69.342
X143.617Y-71.729
X144.485Y-74.116
X146.914Y-81.839
T5
G00X86.492Y-76.392
M15
G01X88.371Y-77.076
M16
G05
G00X89.727Y-60.341
M15
G01X91.683Y-59.925
M16
G05
G00X96.084Y-96.485
M15
G01X96.084Y-98.485
M16
G05
G00X113.072Y-86.524
M15
G01X111.193Y-85.84
M16
G05
G00X131.369Y-98.942
M15
G01X131.369Y-96.942
M16
G05
G00X131.754Y-66.481
M15
G01X131.754Y-64.481
M16
G05
G00X136.914Y-82.839
M15
G01X136.914Y-80.839
M16
G05
T0
M30
