%TF.GenerationSoftware,KiCad,Pcbnew,5.1.9*%
%TF.CreationDate,2021-04-14T19:17:29+02:00*%
%TF.ProjectId,custom-pcb,63757374-6f6d-42d7-9063-622e6b696361,rev?*%
%TF.SameCoordinates,Original*%
%TF.FileFunction,Legend,Top*%
%TF.FilePolarity,Positive*%
%FSLAX46Y46*%
G04 Gerber Fmt 4.6, Leading zero omitted, Abs format (unit mm)*
G04 Created by KiCad (PCBNEW 5.1.9) date 2021-04-14 19:17:29*
%MOMM*%
%LPD*%
G01*
G04 APERTURE LIST*
%ADD10C,0.150000*%
%ADD11C,0.120000*%
G04 APERTURE END LIST*
D10*
X92814000Y-79282333D02*
X92147333Y-79282333D01*
X92147333Y-77882333D01*
X93814000Y-79215666D02*
X93680666Y-79282333D01*
X93414000Y-79282333D01*
X93280666Y-79215666D01*
X93214000Y-79082333D01*
X93214000Y-78549000D01*
X93280666Y-78415666D01*
X93414000Y-78349000D01*
X93680666Y-78349000D01*
X93814000Y-78415666D01*
X93880666Y-78549000D01*
X93880666Y-78682333D01*
X93214000Y-78815666D01*
X94347333Y-78349000D02*
X94680666Y-79282333D01*
X95014000Y-78349000D01*
X95547333Y-79282333D02*
X95547333Y-77882333D01*
X96414000Y-79282333D02*
X96280666Y-79215666D01*
X96214000Y-79149000D01*
X96147333Y-79015666D01*
X96147333Y-78615666D01*
X96214000Y-78482333D01*
X96280666Y-78415666D01*
X96414000Y-78349000D01*
X96614000Y-78349000D01*
X96747333Y-78415666D01*
X96814000Y-78482333D01*
X96880666Y-78615666D01*
X96880666Y-79015666D01*
X96814000Y-79149000D01*
X96747333Y-79215666D01*
X96614000Y-79282333D01*
X96414000Y-79282333D01*
X97280666Y-77882333D02*
X98080666Y-77882333D01*
X97680666Y-79282333D02*
X97680666Y-77882333D01*
X99614000Y-79282333D02*
X99614000Y-78349000D01*
X99614000Y-78615666D02*
X99680666Y-78482333D01*
X99747333Y-78415666D01*
X99880666Y-78349000D01*
X100014000Y-78349000D01*
X101014000Y-79215666D02*
X100880666Y-79282333D01*
X100614000Y-79282333D01*
X100480666Y-79215666D01*
X100414000Y-79082333D01*
X100414000Y-78549000D01*
X100480666Y-78415666D01*
X100614000Y-78349000D01*
X100880666Y-78349000D01*
X101014000Y-78415666D01*
X101080666Y-78549000D01*
X101080666Y-78682333D01*
X100414000Y-78815666D01*
X101547333Y-78349000D02*
X101880666Y-79282333D01*
X102214000Y-78349000D01*
X104080666Y-77882333D02*
X104214000Y-77882333D01*
X104347333Y-77949000D01*
X104414000Y-78015666D01*
X104480666Y-78149000D01*
X104547333Y-78415666D01*
X104547333Y-78749000D01*
X104480666Y-79015666D01*
X104414000Y-79149000D01*
X104347333Y-79215666D01*
X104214000Y-79282333D01*
X104080666Y-79282333D01*
X103947333Y-79215666D01*
X103880666Y-79149000D01*
X103814000Y-79015666D01*
X103747333Y-78749000D01*
X103747333Y-78415666D01*
X103814000Y-78149000D01*
X103880666Y-78015666D01*
X103947333Y-77949000D01*
X104080666Y-77882333D01*
X105147333Y-79149000D02*
X105214000Y-79215666D01*
X105147333Y-79282333D01*
X105080666Y-79215666D01*
X105147333Y-79149000D01*
X105147333Y-79282333D01*
X106547333Y-79282333D02*
X105747333Y-79282333D01*
X106147333Y-79282333D02*
X106147333Y-77882333D01*
X106014000Y-78082333D01*
X105880666Y-78215666D01*
X105747333Y-78282333D01*
X95547333Y-81532333D02*
X95547333Y-80132333D01*
X95547333Y-81465666D02*
X95414000Y-81532333D01*
X95147333Y-81532333D01*
X95014000Y-81465666D01*
X94947333Y-81399000D01*
X94880666Y-81265666D01*
X94880666Y-80865666D01*
X94947333Y-80732333D01*
X95014000Y-80665666D01*
X95147333Y-80599000D01*
X95414000Y-80599000D01*
X95547333Y-80665666D01*
X96747333Y-81465666D02*
X96614000Y-81532333D01*
X96347333Y-81532333D01*
X96214000Y-81465666D01*
X96147333Y-81332333D01*
X96147333Y-80799000D01*
X96214000Y-80665666D01*
X96347333Y-80599000D01*
X96614000Y-80599000D01*
X96747333Y-80665666D01*
X96814000Y-80799000D01*
X96814000Y-80932333D01*
X96147333Y-81065666D01*
X97414000Y-80599000D02*
X97414000Y-81999000D01*
X97414000Y-80665666D02*
X97547333Y-80599000D01*
X97814000Y-80599000D01*
X97947333Y-80665666D01*
X98014000Y-80732333D01*
X98080666Y-80865666D01*
X98080666Y-81265666D01*
X98014000Y-81399000D01*
X97947333Y-81465666D01*
X97814000Y-81532333D01*
X97547333Y-81532333D01*
X97414000Y-81465666D01*
X99280666Y-81532333D02*
X99280666Y-80799000D01*
X99214000Y-80665666D01*
X99080666Y-80599000D01*
X98814000Y-80599000D01*
X98680666Y-80665666D01*
X99280666Y-81465666D02*
X99147333Y-81532333D01*
X98814000Y-81532333D01*
X98680666Y-81465666D01*
X98614000Y-81332333D01*
X98614000Y-81199000D01*
X98680666Y-81065666D01*
X98814000Y-80999000D01*
X99147333Y-80999000D01*
X99280666Y-80932333D01*
X100547333Y-80599000D02*
X100547333Y-81532333D01*
X99947333Y-80599000D02*
X99947333Y-81332333D01*
X100014000Y-81465666D01*
X100147333Y-81532333D01*
X100347333Y-81532333D01*
X100480666Y-81465666D01*
X100547333Y-81399000D01*
X101214000Y-81399000D02*
X101280666Y-81465666D01*
X101214000Y-81532333D01*
X101147333Y-81465666D01*
X101214000Y-81399000D01*
X101214000Y-81532333D01*
X102414000Y-81465666D02*
X102280666Y-81532333D01*
X102014000Y-81532333D01*
X101880666Y-81465666D01*
X101814000Y-81332333D01*
X101814000Y-80799000D01*
X101880666Y-80665666D01*
X102014000Y-80599000D01*
X102280666Y-80599000D01*
X102414000Y-80665666D01*
X102480666Y-80799000D01*
X102480666Y-80932333D01*
X101814000Y-81065666D01*
X103680666Y-80599000D02*
X103680666Y-81532333D01*
X103080666Y-80599000D02*
X103080666Y-81332333D01*
X103147333Y-81465666D01*
X103280666Y-81532333D01*
X103480666Y-81532333D01*
X103614000Y-81465666D01*
X103680666Y-81399000D01*
X93247333Y-83649000D02*
X93180666Y-83715666D01*
X92980666Y-83782333D01*
X92847333Y-83782333D01*
X92647333Y-83715666D01*
X92514000Y-83582333D01*
X92447333Y-83449000D01*
X92380666Y-83182333D01*
X92380666Y-82982333D01*
X92447333Y-82715666D01*
X92514000Y-82582333D01*
X92647333Y-82449000D01*
X92847333Y-82382333D01*
X92980666Y-82382333D01*
X93180666Y-82449000D01*
X93247333Y-82515666D01*
X93847333Y-83049000D02*
X94314000Y-83049000D01*
X94514000Y-83782333D02*
X93847333Y-83782333D01*
X93847333Y-82382333D01*
X94514000Y-82382333D01*
X95914000Y-83782333D02*
X95447333Y-83115666D01*
X95114000Y-83782333D02*
X95114000Y-82382333D01*
X95647333Y-82382333D01*
X95780666Y-82449000D01*
X95847333Y-82515666D01*
X95914000Y-82649000D01*
X95914000Y-82849000D01*
X95847333Y-82982333D01*
X95780666Y-83049000D01*
X95647333Y-83115666D01*
X95114000Y-83115666D01*
X96514000Y-83782333D02*
X96514000Y-82382333D01*
X97314000Y-83782333D01*
X97314000Y-82382333D01*
X97980666Y-83249000D02*
X99047333Y-83249000D01*
X99980666Y-82382333D02*
X100247333Y-82382333D01*
X100380666Y-82449000D01*
X100514000Y-82582333D01*
X100580666Y-82849000D01*
X100580666Y-83315666D01*
X100514000Y-83582333D01*
X100380666Y-83715666D01*
X100247333Y-83782333D01*
X99980666Y-83782333D01*
X99847333Y-83715666D01*
X99714000Y-83582333D01*
X99647333Y-83315666D01*
X99647333Y-82849000D01*
X99714000Y-82582333D01*
X99847333Y-82449000D01*
X99980666Y-82382333D01*
X101180666Y-83782333D02*
X101180666Y-82382333D01*
X101180666Y-83049000D02*
X101980666Y-83049000D01*
X101980666Y-83782333D02*
X101980666Y-82382333D01*
X103314000Y-83782333D02*
X102647333Y-83782333D01*
X102647333Y-82382333D01*
X103780666Y-83249000D02*
X104847333Y-83249000D01*
X105447333Y-83715666D02*
X105647333Y-83782333D01*
X105980666Y-83782333D01*
X106114000Y-83715666D01*
X106180666Y-83649000D01*
X106247333Y-83515666D01*
X106247333Y-83382333D01*
X106180666Y-83249000D01*
X106114000Y-83182333D01*
X105980666Y-83115666D01*
X105714000Y-83049000D01*
X105580666Y-82982333D01*
X105514000Y-82915666D01*
X105447333Y-82782333D01*
X105447333Y-82649000D01*
X105514000Y-82515666D01*
X105580666Y-82449000D01*
X105714000Y-82382333D01*
X106047333Y-82382333D01*
X106247333Y-82449000D01*
X111315619Y-77303380D02*
X111553714Y-78303380D01*
X111744190Y-77589095D01*
X111934666Y-78303380D01*
X112172761Y-77303380D01*
X112553714Y-78303380D02*
X112553714Y-77303380D01*
X112553714Y-77779571D02*
X113125142Y-77779571D01*
X113125142Y-78303380D02*
X113125142Y-77303380D01*
X139128619Y-67270380D02*
X139366714Y-68270380D01*
X139557190Y-67556095D01*
X139747666Y-68270380D01*
X139985761Y-67270380D01*
X140366714Y-68270380D02*
X140366714Y-67270380D01*
X140366714Y-67746571D02*
X140938142Y-67746571D01*
X140938142Y-68270380D02*
X140938142Y-67270380D01*
X143827619Y-84542380D02*
X144065714Y-85542380D01*
X144256190Y-84828095D01*
X144446666Y-85542380D01*
X144684761Y-84542380D01*
X145065714Y-85542380D02*
X145065714Y-84542380D01*
X145065714Y-85018571D02*
X145637142Y-85018571D01*
X145637142Y-85542380D02*
X145637142Y-84542380D01*
X137985619Y-100798380D02*
X138223714Y-101798380D01*
X138414190Y-101084095D01*
X138604666Y-101798380D01*
X138842761Y-100798380D01*
X139223714Y-101798380D02*
X139223714Y-100798380D01*
X139223714Y-101274571D02*
X139795142Y-101274571D01*
X139795142Y-101798380D02*
X139795142Y-100798380D01*
X93154619Y-100290380D02*
X93392714Y-101290380D01*
X93583190Y-100576095D01*
X93773666Y-101290380D01*
X94011761Y-100290380D01*
X94392714Y-101290380D02*
X94392714Y-100290380D01*
X94392714Y-100766571D02*
X94964142Y-100766571D01*
X94964142Y-101290380D02*
X94964142Y-100290380D01*
X81145142Y-82621380D02*
X80811809Y-82145190D01*
X80573714Y-82621380D02*
X80573714Y-81621380D01*
X80954666Y-81621380D01*
X81049904Y-81669000D01*
X81097523Y-81716619D01*
X81145142Y-81811857D01*
X81145142Y-81954714D01*
X81097523Y-82049952D01*
X81049904Y-82097571D01*
X80954666Y-82145190D01*
X80573714Y-82145190D01*
X81573714Y-82097571D02*
X81907047Y-82097571D01*
X82049904Y-82621380D02*
X81573714Y-82621380D01*
X81573714Y-81621380D01*
X82049904Y-81621380D01*
X82478476Y-82621380D02*
X82478476Y-81621380D01*
X82716571Y-81621380D01*
X82859428Y-81669000D01*
X82954666Y-81764238D01*
X83002285Y-81859476D01*
X83049904Y-82049952D01*
X83049904Y-82192809D01*
X83002285Y-82383285D01*
X82954666Y-82478523D01*
X82859428Y-82573761D01*
X82716571Y-82621380D01*
X82478476Y-82621380D01*
X124007571Y-85613714D02*
X124007571Y-85947047D01*
X124531380Y-85947047D02*
X123531380Y-85947047D01*
X123531380Y-85470857D01*
X124245666Y-85137523D02*
X124245666Y-84661333D01*
X124531380Y-85232761D02*
X123531380Y-84899428D01*
X124531380Y-84566095D01*
X124531380Y-84232761D02*
X123531380Y-84232761D01*
X124531380Y-83661333D01*
X123531380Y-83661333D01*
X123531380Y-82994666D02*
X123531380Y-82899428D01*
X123579000Y-82804190D01*
X123626619Y-82756571D01*
X123721857Y-82708952D01*
X123912333Y-82661333D01*
X124150428Y-82661333D01*
X124340904Y-82708952D01*
X124436142Y-82756571D01*
X124483761Y-82804190D01*
X124531380Y-82899428D01*
X124531380Y-82994666D01*
X124483761Y-83089904D01*
X124436142Y-83137523D01*
X124340904Y-83185142D01*
X124150428Y-83232761D01*
X123912333Y-83232761D01*
X123721857Y-83185142D01*
X123626619Y-83137523D01*
X123579000Y-83089904D01*
X123531380Y-82994666D01*
X126039571Y-85613714D02*
X126039571Y-85947047D01*
X126563380Y-85947047D02*
X125563380Y-85947047D01*
X125563380Y-85470857D01*
X126277666Y-85137523D02*
X126277666Y-84661333D01*
X126563380Y-85232761D02*
X125563380Y-84899428D01*
X126563380Y-84566095D01*
X126563380Y-84232761D02*
X125563380Y-84232761D01*
X126563380Y-83661333D01*
X125563380Y-83661333D01*
X126563380Y-82661333D02*
X126563380Y-83232761D01*
X126563380Y-82947047D02*
X125563380Y-82947047D01*
X125706238Y-83042285D01*
X125801476Y-83137523D01*
X125849095Y-83232761D01*
X128071571Y-85613714D02*
X128071571Y-85947047D01*
X128595380Y-85947047D02*
X127595380Y-85947047D01*
X127595380Y-85470857D01*
X128309666Y-85137523D02*
X128309666Y-84661333D01*
X128595380Y-85232761D02*
X127595380Y-84899428D01*
X128595380Y-84566095D01*
X128595380Y-84232761D02*
X127595380Y-84232761D01*
X128595380Y-83661333D01*
X127595380Y-83661333D01*
X127690619Y-83232761D02*
X127643000Y-83185142D01*
X127595380Y-83089904D01*
X127595380Y-82851809D01*
X127643000Y-82756571D01*
X127690619Y-82708952D01*
X127785857Y-82661333D01*
X127881095Y-82661333D01*
X128023952Y-82708952D01*
X128595380Y-83280380D01*
X128595380Y-82661333D01*
X130103571Y-85613714D02*
X130103571Y-85947047D01*
X130627380Y-85947047D02*
X129627380Y-85947047D01*
X129627380Y-85470857D01*
X130341666Y-85137523D02*
X130341666Y-84661333D01*
X130627380Y-85232761D02*
X129627380Y-84899428D01*
X130627380Y-84566095D01*
X130627380Y-84232761D02*
X129627380Y-84232761D01*
X130627380Y-83661333D01*
X129627380Y-83661333D01*
X129627380Y-83280380D02*
X129627380Y-82661333D01*
X130008333Y-82994666D01*
X130008333Y-82851809D01*
X130055952Y-82756571D01*
X130103571Y-82708952D01*
X130198809Y-82661333D01*
X130436904Y-82661333D01*
X130532142Y-82708952D01*
X130579761Y-82756571D01*
X130627380Y-82851809D01*
X130627380Y-83137523D01*
X130579761Y-83232761D01*
X130532142Y-83280380D01*
X131707000Y-85470904D02*
X131659380Y-85566142D01*
X131659380Y-85709000D01*
X131707000Y-85851857D01*
X131802238Y-85947095D01*
X131897476Y-85994714D01*
X132087952Y-86042333D01*
X132230809Y-86042333D01*
X132421285Y-85994714D01*
X132516523Y-85947095D01*
X132611761Y-85851857D01*
X132659380Y-85709000D01*
X132659380Y-85613761D01*
X132611761Y-85470904D01*
X132564142Y-85423285D01*
X132230809Y-85423285D01*
X132230809Y-85613761D01*
X132659380Y-84994714D02*
X131659380Y-84994714D01*
X132659380Y-84423285D01*
X131659380Y-84423285D01*
X132659380Y-83947095D02*
X131659380Y-83947095D01*
X131659380Y-83709000D01*
X131707000Y-83566142D01*
X131802238Y-83470904D01*
X131897476Y-83423285D01*
X132087952Y-83375666D01*
X132230809Y-83375666D01*
X132421285Y-83423285D01*
X132516523Y-83470904D01*
X132611761Y-83566142D01*
X132659380Y-83709000D01*
X132659380Y-83947095D01*
X133615180Y-86042333D02*
X134615180Y-85709000D01*
X133615180Y-85375666D01*
X134519942Y-84470904D02*
X134567561Y-84518523D01*
X134615180Y-84661380D01*
X134615180Y-84756619D01*
X134567561Y-84899476D01*
X134472323Y-84994714D01*
X134377085Y-85042333D01*
X134186609Y-85089952D01*
X134043752Y-85089952D01*
X133853276Y-85042333D01*
X133758038Y-84994714D01*
X133662800Y-84899476D01*
X133615180Y-84756619D01*
X133615180Y-84661380D01*
X133662800Y-84518523D01*
X133710419Y-84470904D01*
X134519942Y-83470904D02*
X134567561Y-83518523D01*
X134615180Y-83661380D01*
X134615180Y-83756619D01*
X134567561Y-83899476D01*
X134472323Y-83994714D01*
X134377085Y-84042333D01*
X134186609Y-84089952D01*
X134043752Y-84089952D01*
X133853276Y-84042333D01*
X133758038Y-83994714D01*
X133662800Y-83899476D01*
X133615180Y-83756619D01*
X133615180Y-83661380D01*
X133662800Y-83518523D01*
X133710419Y-83470904D01*
D11*
X95652215Y-68977267D02*
G75*
G02*
X93497400Y-59817000I-3958215J3902467D01*
G01*
D10*
X84065828Y-58345911D02*
X83985015Y-58803847D01*
X84389076Y-58669160D02*
X83823391Y-59234845D01*
X83607892Y-59019346D01*
X83580954Y-58938534D01*
X83580954Y-58884659D01*
X83607892Y-58803847D01*
X83688704Y-58723035D01*
X83769516Y-58696097D01*
X83823391Y-58696097D01*
X83904203Y-58723035D01*
X84119702Y-58938534D01*
X83527080Y-58399786D02*
X83338518Y-58211224D01*
X83554017Y-57834100D02*
X83823391Y-58103474D01*
X83257706Y-58669160D01*
X82988332Y-58399786D01*
X83311580Y-57645538D02*
X83257706Y-57537789D01*
X83123019Y-57403102D01*
X83042206Y-57376164D01*
X82988332Y-57376164D01*
X82907519Y-57403102D01*
X82853644Y-57456977D01*
X82826707Y-57537789D01*
X82826707Y-57591664D01*
X82853644Y-57672476D01*
X82934457Y-57807163D01*
X82961394Y-57887975D01*
X82961394Y-57941850D01*
X82934457Y-58022662D01*
X82880582Y-58076537D01*
X82799770Y-58103474D01*
X82745895Y-58103474D01*
X82665083Y-58076537D01*
X82530396Y-57941850D01*
X82476521Y-57834100D01*
X82476521Y-57349227D02*
X82287959Y-57160665D01*
X82503458Y-56783542D02*
X82772832Y-57052916D01*
X82207147Y-57618601D01*
X81937773Y-57349227D01*
X81776148Y-57187603D02*
X81452900Y-56864354D01*
X82180209Y-56460293D02*
X81614524Y-57025978D01*
X90989648Y-51314340D02*
X90935774Y-51206590D01*
X90935774Y-51152715D01*
X90962711Y-51071903D01*
X91043523Y-50991091D01*
X91124335Y-50964153D01*
X91178210Y-50964153D01*
X91259022Y-50991091D01*
X91474522Y-51206590D01*
X90908836Y-51772275D01*
X90720274Y-51583714D01*
X90693337Y-51502901D01*
X90693337Y-51449027D01*
X90720274Y-51368214D01*
X90774149Y-51314340D01*
X90854961Y-51287402D01*
X90908836Y-51287402D01*
X90989648Y-51314340D01*
X91178210Y-51502901D01*
X90235401Y-51098840D02*
X90127651Y-50991091D01*
X90100714Y-50910279D01*
X90100714Y-50802529D01*
X90181526Y-50667842D01*
X90370088Y-50479280D01*
X90504775Y-50398468D01*
X90612525Y-50398468D01*
X90693337Y-50425405D01*
X90801087Y-50533155D01*
X90828024Y-50613967D01*
X90828024Y-50721717D01*
X90747212Y-50856404D01*
X90558650Y-51044966D01*
X90423963Y-51125778D01*
X90316213Y-51125778D01*
X90235401Y-51098840D01*
X89642778Y-50506218D02*
X89535029Y-50398468D01*
X89508091Y-50317656D01*
X89508091Y-50209906D01*
X89588903Y-50075219D01*
X89777465Y-49886657D01*
X89912152Y-49805845D01*
X90019902Y-49805845D01*
X90100714Y-49832782D01*
X90208464Y-49940532D01*
X90235401Y-50021344D01*
X90235401Y-50129094D01*
X90154589Y-50263781D01*
X89966027Y-50452343D01*
X89831340Y-50533155D01*
X89723590Y-50533155D01*
X89642778Y-50506218D01*
X89238717Y-50102156D02*
X88915468Y-49778908D01*
X89642778Y-49374847D02*
X89077093Y-49940532D01*
X98704616Y-61583885D02*
X98586332Y-62605011D01*
X99009621Y-61998949D01*
X98944310Y-62735304D01*
X99510066Y-61877045D01*
X99526024Y-62947031D02*
X99754038Y-62320569D01*
X99868045Y-62007339D02*
X99807011Y-62035799D01*
X99835471Y-62096833D01*
X99896505Y-62068372D01*
X99868045Y-62007339D01*
X99835471Y-62096833D01*
X100103790Y-62751920D02*
X100819747Y-63012507D01*
X101629310Y-63155138D02*
X101316079Y-63041131D01*
X101136926Y-63533351D02*
X101478946Y-62593659D01*
X101926419Y-62756526D01*
X101942377Y-63826512D02*
X102170390Y-63200050D01*
X102284397Y-62886819D02*
X102223363Y-62915280D01*
X102251824Y-62976313D01*
X102312858Y-62947853D01*
X102284397Y-62886819D01*
X102251824Y-62976313D01*
X103105806Y-64249965D02*
X103447826Y-63310272D01*
X103642773Y-64445405D02*
X103435488Y-63761858D01*
X103984793Y-63505713D02*
X103252386Y-63847240D01*
X104224652Y-64099765D02*
X104537883Y-64213772D01*
X104492971Y-64754852D02*
X104045498Y-64591985D01*
X104387519Y-63652293D01*
X104834991Y-63815159D01*
X105074850Y-64409212D02*
X105388081Y-64523219D01*
X105343169Y-65064299D02*
X104895697Y-64901432D01*
X105237717Y-63961739D01*
X105685189Y-64124606D01*
X105745895Y-65210879D02*
X106087915Y-64271186D01*
X106445893Y-64401480D01*
X106519101Y-64478800D01*
X106547561Y-64539834D01*
X106559735Y-64645615D01*
X106510875Y-64779857D01*
X106433555Y-64853065D01*
X106372521Y-64881526D01*
X106266739Y-64893699D01*
X105908761Y-64763406D01*
X106815881Y-65194921D02*
X107531837Y-65455508D01*
X108370025Y-65101807D02*
X108549014Y-65166953D01*
X108622222Y-65244274D01*
X108679144Y-65366342D01*
X108658744Y-65561617D01*
X108544737Y-65874848D01*
X108434843Y-66037551D01*
X108312776Y-66094472D01*
X108206994Y-66106646D01*
X108028005Y-66041499D01*
X107954797Y-65964179D01*
X107897876Y-65842111D01*
X107918276Y-65646835D01*
X108032282Y-65333604D01*
X108142176Y-65170902D01*
X108264244Y-65113980D01*
X108370025Y-65101807D01*
X109175476Y-65394967D02*
X108898603Y-66155670D01*
X108910777Y-66261451D01*
X108939237Y-66322485D01*
X109012445Y-66399806D01*
X109191434Y-66464953D01*
X109297215Y-66452779D01*
X109358249Y-66424318D01*
X109435570Y-66351110D01*
X109712443Y-65590407D01*
X110025674Y-65704413D02*
X110562642Y-65899854D01*
X109952138Y-66741826D02*
X110294158Y-65802133D01*
X111302781Y-66929369D02*
X111750254Y-67092236D01*
X111115567Y-67165280D02*
X111770818Y-66339594D01*
X111742028Y-67393293D01*
X112592227Y-67702740D02*
X112441862Y-67141260D01*
X112055259Y-67507300D02*
X112397280Y-66567607D01*
X112755258Y-66697901D01*
X112828466Y-66775221D01*
X112856926Y-66836255D01*
X112869100Y-66942036D01*
X112820240Y-67076278D01*
X112742919Y-67149486D01*
X112681885Y-67177947D01*
X112576104Y-67190120D01*
X112218126Y-67059827D01*
X113174105Y-67357100D02*
X113487336Y-67471107D01*
X113442425Y-68012187D02*
X112994952Y-67849320D01*
X113336972Y-66909627D01*
X113784445Y-67072494D01*
X113898123Y-67873996D02*
X114345596Y-68036863D01*
X113710908Y-68109907D02*
X114366159Y-67284221D01*
X114337370Y-68337920D01*
X94263228Y-62787423D02*
X94442382Y-62295204D01*
X94430208Y-62189422D01*
X94357000Y-62112102D01*
X94178011Y-62046955D01*
X94072230Y-62059129D01*
X94279515Y-62742676D02*
X94173734Y-62754850D01*
X93949997Y-62673417D01*
X93876790Y-62596096D01*
X93864616Y-62490315D01*
X93897189Y-62400820D01*
X93974510Y-62327613D01*
X94080291Y-62315439D01*
X94304027Y-62396872D01*
X94409808Y-62384698D01*
X94743274Y-62860796D02*
X94771735Y-62921830D01*
X94710701Y-62950290D01*
X94682240Y-62889256D01*
X94743274Y-62860796D01*
X94710701Y-62950290D01*
X95158174Y-63113157D02*
X95500194Y-62173464D01*
X95377962Y-62787752D02*
X95516152Y-63243450D01*
X95744165Y-62616989D02*
X95255894Y-62844673D01*
X95951451Y-63300536D02*
X95979911Y-63361570D01*
X95918877Y-63390030D01*
X95890417Y-63328996D01*
X95951451Y-63300536D01*
X95918877Y-63390030D01*
X96769075Y-63699477D02*
X96948229Y-63207257D01*
X96936055Y-63101476D01*
X96862847Y-63024155D01*
X96683858Y-62959009D01*
X96578077Y-62971183D01*
X96785362Y-63654730D02*
X96679581Y-63666904D01*
X96455844Y-63585470D01*
X96382637Y-63508150D01*
X96370463Y-63402369D01*
X96403036Y-63312874D01*
X96480357Y-63239666D01*
X96586138Y-63227492D01*
X96809874Y-63308926D01*
X96915655Y-63296752D01*
X97249121Y-63772849D02*
X97277582Y-63833883D01*
X97216548Y-63862344D01*
X97188087Y-63801310D01*
X97249121Y-63772849D01*
X97216548Y-63862344D01*
X98432950Y-64001027D02*
X98880422Y-64163894D01*
X98245735Y-64236937D02*
X98900986Y-63411251D01*
X98872197Y-64464951D01*
X99722395Y-64774398D02*
X99572031Y-64212918D01*
X99185428Y-64578958D02*
X99527448Y-63639265D01*
X99885426Y-63769558D01*
X99958634Y-63846879D01*
X99987094Y-63907913D01*
X99999268Y-64013694D01*
X99950408Y-64147936D01*
X99873088Y-64221144D01*
X99812054Y-64249604D01*
X99706273Y-64261778D01*
X99348294Y-64131485D01*
X100304274Y-64428758D02*
X100617505Y-64542764D01*
X100572593Y-65083844D02*
X100125120Y-64920978D01*
X100467141Y-63981285D01*
X100914613Y-64144152D01*
X101028291Y-64945654D02*
X101475764Y-65108521D01*
X100841077Y-65181564D02*
X101496328Y-64355879D01*
X101467538Y-65409578D01*
X102899451Y-65930751D02*
X103241471Y-64991059D01*
X102915738Y-65886004D02*
X102809956Y-65898178D01*
X102630967Y-65833031D01*
X102557760Y-65755711D01*
X102529299Y-65694677D01*
X102517125Y-65588896D01*
X102614845Y-65320412D01*
X102692166Y-65247204D01*
X102753200Y-65218744D01*
X102858981Y-65206570D01*
X103037970Y-65271716D01*
X103111178Y-65349037D01*
X103346924Y-66093618D02*
X103574937Y-65467156D01*
X103688944Y-65153926D02*
X103627910Y-65182386D01*
X103656370Y-65243420D01*
X103717404Y-65214959D01*
X103688944Y-65153926D01*
X103656370Y-65243420D01*
X105328306Y-65801280D02*
X105255098Y-65723959D01*
X105120856Y-65675099D01*
X104970328Y-65670986D01*
X104848260Y-65727908D01*
X104770939Y-65801115D01*
X104661045Y-65963818D01*
X104612185Y-66098060D01*
X104591786Y-66293335D01*
X104603960Y-66399117D01*
X104660881Y-66521184D01*
X104778836Y-66614792D01*
X104868331Y-66647365D01*
X105018859Y-66651478D01*
X105079893Y-66623017D01*
X105193900Y-66309786D01*
X105014911Y-66244640D01*
X105629199Y-66366872D02*
X105942430Y-66480879D01*
X105897518Y-67021959D02*
X105450045Y-66859092D01*
X105792065Y-65919399D01*
X106239538Y-66082266D01*
X106837211Y-67363979D02*
X106686846Y-66802499D01*
X106300243Y-67168539D02*
X106642263Y-66228846D01*
X107000242Y-66359139D01*
X107073449Y-66436460D01*
X107101910Y-66497494D01*
X107114084Y-66603275D01*
X107065224Y-66737517D01*
X106987903Y-66810725D01*
X106926869Y-66839185D01*
X106821088Y-66851359D01*
X106463110Y-66721066D01*
X107239936Y-67510559D02*
X107581956Y-66570866D01*
X107650887Y-67356082D01*
X108208418Y-66798880D01*
X107866398Y-67738572D01*
X108366843Y-67616669D02*
X108814316Y-67779535D01*
X108179629Y-67852579D02*
X108834880Y-67026893D01*
X108806090Y-68080592D01*
X109119321Y-68194599D02*
X109461341Y-67254906D01*
X109656288Y-68390039D01*
X109998309Y-67450347D01*
X110624770Y-67678360D02*
X110803759Y-67743507D01*
X110876967Y-67820827D01*
X110933888Y-67942895D01*
X110913489Y-68138171D01*
X110799482Y-68451402D01*
X110689588Y-68614104D01*
X110567520Y-68671025D01*
X110461739Y-68683199D01*
X110282750Y-68618053D01*
X110209542Y-68540732D01*
X110152621Y-68418664D01*
X110173021Y-68223388D01*
X110287027Y-67910157D01*
X110396921Y-67747455D01*
X110518989Y-67690534D01*
X110624770Y-67678360D01*
X111804157Y-69171799D02*
X112146177Y-68232107D01*
X112215108Y-69017323D01*
X112772639Y-68460120D01*
X112430619Y-69399813D01*
X113399101Y-68688134D02*
X113578090Y-68753280D01*
X113651298Y-68830601D01*
X113708219Y-68952669D01*
X113687820Y-69147945D01*
X113573813Y-69461176D01*
X113463919Y-69623878D01*
X113341851Y-69680799D01*
X113236070Y-69692973D01*
X113057081Y-69627826D01*
X112983873Y-69550506D01*
X112926952Y-69428438D01*
X112947351Y-69233162D01*
X113061358Y-68919931D01*
X113171252Y-68757229D01*
X113293320Y-68700308D01*
X113399101Y-68688134D01*
X113834071Y-69859953D02*
X113952026Y-69953560D01*
X114175762Y-70034993D01*
X114281544Y-70022819D01*
X114342578Y-69994359D01*
X114419898Y-69921151D01*
X114452472Y-69831656D01*
X114440298Y-69725875D01*
X114411837Y-69664841D01*
X114338629Y-69587520D01*
X114175927Y-69477627D01*
X114102719Y-69400306D01*
X114074258Y-69339272D01*
X114062084Y-69233491D01*
X114094658Y-69143996D01*
X114171978Y-69070788D01*
X114233012Y-69042328D01*
X114338793Y-69030154D01*
X114562530Y-69111587D01*
X114680485Y-69205195D01*
X115327017Y-70352665D02*
X115265984Y-70381126D01*
X115115455Y-70377013D01*
X115025961Y-70344440D01*
X114908005Y-70250833D01*
X114851084Y-70128765D01*
X114838910Y-70022984D01*
X114859310Y-69827708D01*
X114908170Y-69693466D01*
X115018064Y-69530764D01*
X115095384Y-69457556D01*
X115217452Y-69400635D01*
X115367981Y-69404747D01*
X115457475Y-69437321D01*
X115575430Y-69530928D01*
X115603891Y-69591962D01*
X116218179Y-69714194D02*
X116397168Y-69779341D01*
X116470376Y-69856661D01*
X116527297Y-69978729D01*
X116506897Y-70174005D01*
X116392891Y-70487236D01*
X116282997Y-70649938D01*
X116160929Y-70706860D01*
X116055148Y-70719033D01*
X115876159Y-70653887D01*
X115802951Y-70576566D01*
X115746030Y-70454498D01*
X115766429Y-70259223D01*
X115880436Y-69945992D01*
X115990330Y-69783289D01*
X116112398Y-69726368D01*
X116218179Y-69714194D01*
X116681609Y-70947047D02*
X117023630Y-70007354D01*
X117218577Y-71142487D01*
X117560597Y-70202794D01*
X117666049Y-71305354D02*
X118008069Y-70365661D01*
X96991768Y-65941825D02*
X96963307Y-65880791D01*
X96922673Y-65713976D01*
X96910499Y-65608195D01*
X96914612Y-65457666D01*
X96951298Y-65217643D01*
X97016444Y-65038654D01*
X97142625Y-64831205D01*
X97236232Y-64713249D01*
X97313553Y-64640042D01*
X97451908Y-64538373D01*
X97512941Y-64509913D01*
X97480039Y-65714140D02*
X97708053Y-65087679D01*
X97642906Y-65266668D02*
X97720227Y-65193460D01*
X97781261Y-65164999D01*
X97887042Y-65152825D01*
X97976536Y-65185399D01*
X98061754Y-65925867D02*
X98289767Y-65299405D01*
X98403774Y-64986175D02*
X98342740Y-65014635D01*
X98371201Y-65075669D01*
X98432235Y-65047208D01*
X98403774Y-64986175D01*
X98371201Y-65075669D01*
X98737240Y-65462272D02*
X98395220Y-66401965D01*
X98720953Y-65507019D02*
X98826735Y-65494845D01*
X99005724Y-65559992D01*
X99078931Y-65637313D01*
X99107392Y-65698347D01*
X99119566Y-65804128D01*
X99021846Y-66072612D01*
X98944525Y-66145819D01*
X98883491Y-66174280D01*
X98777710Y-66186454D01*
X98598721Y-66121307D01*
X98525513Y-66043987D01*
X100169153Y-65983446D02*
X100527131Y-66113739D01*
X100417401Y-65719075D02*
X100124241Y-66524526D01*
X100136415Y-66630307D01*
X100209623Y-66707627D01*
X100299117Y-66740201D01*
X100746590Y-66903068D02*
X100673382Y-66825747D01*
X100644922Y-66764713D01*
X100632748Y-66658932D01*
X100730468Y-66390448D01*
X100807788Y-66317240D01*
X100868822Y-66288780D01*
X100974603Y-66276606D01*
X101108845Y-66325466D01*
X101182053Y-66402786D01*
X101210514Y-66463820D01*
X101222688Y-66569602D01*
X101124968Y-66838085D01*
X101047647Y-66911293D01*
X100986613Y-66939754D01*
X100880832Y-66951928D01*
X100746590Y-66903068D01*
X102093285Y-66683773D02*
X101865272Y-67310234D01*
X101690560Y-66537193D02*
X101511406Y-67029413D01*
X101523580Y-67135194D01*
X101596788Y-67212514D01*
X101731030Y-67261374D01*
X101836811Y-67249200D01*
X101897845Y-67220740D01*
X102731756Y-67574934D02*
X102625975Y-67587108D01*
X102446986Y-67521961D01*
X102373778Y-67444641D01*
X102345318Y-67383607D01*
X102333144Y-67277825D01*
X102430864Y-67009342D01*
X102508184Y-66936134D01*
X102569218Y-66907673D01*
X102675000Y-66895499D01*
X102853989Y-66960646D01*
X102927197Y-67037967D01*
X103118195Y-67766261D02*
X103460215Y-66826569D01*
X103520921Y-67912841D02*
X103700074Y-67420621D01*
X103687900Y-67314840D01*
X103614692Y-67237520D01*
X103480450Y-67188659D01*
X103374669Y-67200833D01*
X103313635Y-67229294D01*
X104912363Y-67709833D02*
X104570343Y-68649526D01*
X104896076Y-67754580D02*
X105001857Y-67742406D01*
X105180847Y-67807553D01*
X105254054Y-67884874D01*
X105282515Y-67945908D01*
X105294689Y-68051689D01*
X105196969Y-68320172D01*
X105119648Y-68393380D01*
X105058614Y-68421841D01*
X104952833Y-68434015D01*
X104773844Y-68368868D01*
X104700636Y-68291548D01*
X105937273Y-68792322D02*
X106116426Y-68300102D01*
X106104253Y-68194321D01*
X106031045Y-68117000D01*
X105852056Y-68051853D01*
X105746274Y-68064027D01*
X105953560Y-68747574D02*
X105847778Y-68759748D01*
X105624042Y-68678315D01*
X105550834Y-68600994D01*
X105538660Y-68495213D01*
X105571234Y-68405719D01*
X105648554Y-68332511D01*
X105754336Y-68320337D01*
X105978072Y-68401770D01*
X106083853Y-68389596D01*
X106787471Y-69101768D02*
X107129491Y-68162076D01*
X106803758Y-69057021D02*
X106697977Y-69069195D01*
X106518987Y-69004048D01*
X106445780Y-68926728D01*
X106417319Y-68865694D01*
X106405145Y-68759913D01*
X106502865Y-68491429D01*
X106580186Y-68418221D01*
X106641220Y-68389761D01*
X106747001Y-68377587D01*
X106925990Y-68442733D01*
X106999198Y-68520054D01*
X108353625Y-69671802D02*
X108532779Y-69179582D01*
X108520605Y-69073801D01*
X108447397Y-68996480D01*
X108268408Y-68931334D01*
X108162627Y-68943507D01*
X108369912Y-69627055D02*
X108264131Y-69639229D01*
X108040395Y-69557795D01*
X107967187Y-69480475D01*
X107955013Y-69374693D01*
X107987586Y-69285199D01*
X108064907Y-69211991D01*
X108170688Y-69199817D01*
X108394424Y-69281251D01*
X108500206Y-69269077D01*
X109029112Y-69208207D02*
X108801098Y-69834669D01*
X108996538Y-69297702D02*
X109057572Y-69269241D01*
X109163353Y-69257067D01*
X109297595Y-69305927D01*
X109370803Y-69383248D01*
X109382977Y-69489029D01*
X109203824Y-69981249D01*
X110054022Y-70290696D02*
X110396042Y-69351003D01*
X110070308Y-70245948D02*
X109964527Y-70258122D01*
X109785538Y-70192976D01*
X109712330Y-70115655D01*
X109683870Y-70054621D01*
X109671696Y-69948840D01*
X109769416Y-69680356D01*
X109846736Y-69607148D01*
X109907770Y-69578688D01*
X110013551Y-69566514D01*
X110192541Y-69631661D01*
X110265748Y-69708981D01*
X111351692Y-70763009D02*
X111278485Y-70685689D01*
X111266311Y-70579907D01*
X111559471Y-69774457D01*
X112083935Y-70978849D02*
X111978154Y-70991023D01*
X111799165Y-70925876D01*
X111725957Y-70848555D01*
X111713783Y-70742774D01*
X111844077Y-70384796D01*
X111921397Y-70311588D01*
X112027179Y-70299414D01*
X112206168Y-70364561D01*
X112279375Y-70441881D01*
X112291549Y-70547663D01*
X112258976Y-70637157D01*
X111778930Y-70563785D01*
X112917847Y-71333043D02*
X113259867Y-70393350D01*
X112934133Y-71288295D02*
X112828352Y-71300469D01*
X112649363Y-71235323D01*
X112576155Y-71158002D01*
X112547695Y-71096968D01*
X112535521Y-70991187D01*
X112633241Y-70722703D01*
X112710561Y-70649495D01*
X112771595Y-70621035D01*
X112877377Y-70608861D01*
X113056366Y-70674008D01*
X113129574Y-70751328D01*
X113145532Y-71821314D02*
X113206565Y-71792854D01*
X113344920Y-71691185D01*
X113422241Y-71617977D01*
X113515848Y-71500022D01*
X113642029Y-71292573D01*
X113707175Y-71113583D01*
X113743861Y-70873560D01*
X113747974Y-70723032D01*
X113735800Y-70617251D01*
X113695166Y-70450436D01*
X113666705Y-70389402D01*
D11*
X117348000Y-76454000D02*
X94996000Y-68580000D01*
X121158000Y-66294000D02*
X117348000Y-76454000D01*
X94742000Y-56642000D02*
X121158000Y-66294000D01*
X90678000Y-67056000D02*
X94742000Y-56642000D01*
X94996000Y-68580000D02*
X90678000Y-67056000D01*
%TO.C,D1*%
X111594169Y-83386182D02*
X114497819Y-84443025D01*
X116421565Y-81508990D02*
G75*
G03*
X116421565Y-81508990I-2499999J0D01*
G01*
X114943773Y-78699151D02*
G75*
G02*
X114497659Y-84442966I-1022207J-2809839D01*
G01*
X114944640Y-78699466D02*
G75*
G03*
X111594329Y-83386241I-1023074J-2809524D01*
G01*
%TO.C,D2*%
X144384400Y-81737200D02*
G75*
G03*
X144384400Y-81737200I-2500000J0D01*
G01*
X143429400Y-79177200D02*
X140339400Y-79177200D01*
X141883938Y-84727200D02*
G75*
G03*
X143429230Y-79177200I462J2990000D01*
G01*
X141884862Y-84727200D02*
G75*
G02*
X140339570Y-79177200I-462J2990000D01*
G01*
%TO.C,D3*%
X92731000Y-95077600D02*
X89641000Y-95077600D01*
X93686000Y-97637600D02*
G75*
G03*
X93686000Y-97637600I-2500000J0D01*
G01*
X91186462Y-100627600D02*
G75*
G02*
X89641170Y-95077600I-462J2990000D01*
G01*
X91185538Y-100627600D02*
G75*
G03*
X92730830Y-95077600I462J2990000D01*
G01*
%TO.C,D4*%
X139050400Y-65633600D02*
G75*
G03*
X139050400Y-65633600I-2500000J0D01*
G01*
X138095400Y-63073600D02*
X135005400Y-63073600D01*
X136549938Y-68623600D02*
G75*
G03*
X138095230Y-63073600I462J2990000D01*
G01*
X136550862Y-68623600D02*
G75*
G02*
X135005570Y-63073600I-462J2990000D01*
G01*
%TO.C,D5*%
X127264800Y-106984800D02*
G75*
G03*
X127264800Y-106984800I-2500000J0D01*
G01*
X122204800Y-105439800D02*
X122204800Y-108529800D01*
X127754800Y-106985262D02*
G75*
G03*
X122204800Y-105439970I-2990000J462D01*
G01*
X127754800Y-106984338D02*
G75*
G02*
X122204800Y-108529630I-2990000J-462D01*
G01*
%TO.C,D6*%
X106660000Y-52658600D02*
X106660000Y-55748600D01*
X111720000Y-54203600D02*
G75*
G03*
X111720000Y-54203600I-2500000J0D01*
G01*
X112210000Y-54203138D02*
G75*
G02*
X106660000Y-55748430I-2990000J-462D01*
G01*
X112210000Y-54204062D02*
G75*
G03*
X106660000Y-52658770I-2990000J462D01*
G01*
%TO.C,D7*%
X111079600Y-107827400D02*
X111079600Y-110917400D01*
X116139600Y-109372400D02*
G75*
G03*
X116139600Y-109372400I-2500000J0D01*
G01*
X116629600Y-109371938D02*
G75*
G02*
X111079600Y-110917230I-2990000J-462D01*
G01*
X116629600Y-109372862D02*
G75*
G03*
X111079600Y-107827570I-2990000J462D01*
G01*
%TO.C,D8*%
X104760400Y-106730800D02*
G75*
G03*
X104760400Y-106730800I-2500000J0D01*
G01*
X99700400Y-105185800D02*
X99700400Y-108275800D01*
X105250400Y-106731262D02*
G75*
G03*
X99700400Y-105185970I-2990000J462D01*
G01*
X105250400Y-106730338D02*
G75*
G02*
X99700400Y-108275630I-2990000J-462D01*
G01*
%TO.C,D9*%
X102651809Y-57381166D02*
G75*
G03*
X102651809Y-57381166I-2499999J0D01*
G01*
X98274618Y-55053769D02*
X97217775Y-57957419D01*
X102961334Y-58404240D02*
G75*
G03*
X98274559Y-55053929I-2809524J1023074D01*
G01*
X102961649Y-58403373D02*
G75*
G02*
X97217834Y-57957259I-2809839J1022207D01*
G01*
%TO.C,D10*%
X130668400Y-57454800D02*
G75*
G03*
X130668400Y-57454800I-2500000J0D01*
G01*
X125608400Y-55909800D02*
X125608400Y-58999800D01*
X131158400Y-57455262D02*
G75*
G03*
X125608400Y-55909970I-2990000J462D01*
G01*
X131158400Y-57454338D02*
G75*
G02*
X125608400Y-58999630I-2990000J-462D01*
G01*
%TO.C,D11*%
X83241200Y-79938200D02*
X83241200Y-83028200D01*
X88301200Y-81483200D02*
G75*
G03*
X88301200Y-81483200I-2500000J0D01*
G01*
X88791200Y-81482738D02*
G75*
G02*
X83241200Y-83028030I-2990000J-462D01*
G01*
X88791200Y-81483662D02*
G75*
G03*
X83241200Y-79938370I-2990000J462D01*
G01*
%TO.C,D12*%
X116566000Y-52607800D02*
X116566000Y-55697800D01*
X121626000Y-54152800D02*
G75*
G03*
X121626000Y-54152800I-2500000J0D01*
G01*
X122116000Y-54152338D02*
G75*
G02*
X116566000Y-55697630I-2990000J-462D01*
G01*
X122116000Y-54153262D02*
G75*
G03*
X116566000Y-52607970I-2990000J462D01*
G01*
%TO.C,U2*%
X124968000Y-68131000D02*
X122768000Y-68131000D01*
X124968000Y-68131000D02*
X127168000Y-68131000D01*
X124968000Y-73601000D02*
X122768000Y-73601000D01*
X124968000Y-73601000D02*
X128568000Y-73601000D01*
%TO.C,U3*%
X127000000Y-74227000D02*
X123400000Y-74227000D01*
X127000000Y-74227000D02*
X129200000Y-74227000D01*
X127000000Y-79697000D02*
X124800000Y-79697000D01*
X127000000Y-79697000D02*
X129200000Y-79697000D01*
%TO.C,SW3*%
X119342800Y-81483200D02*
G75*
G03*
X119342800Y-81483200I-5500000J0D01*
G01*
%TO.C,SW4*%
X141868800Y-97942400D02*
G75*
G03*
X141868800Y-97942400I-5500000J0D01*
G01*
%TO.C,SW5*%
X147413600Y-81838800D02*
G75*
G03*
X147413600Y-81838800I-5500000J0D01*
G01*
%TO.C,SW6*%
X142253600Y-65481200D02*
G75*
G03*
X142253600Y-65481200I-5500000J0D01*
G01*
%TO.C,SW7*%
X91221200Y-81432400D02*
G75*
G03*
X91221200Y-81432400I-5500000J0D01*
G01*
%TO.C,SW9*%
X96584400Y-97485200D02*
G75*
G03*
X96584400Y-97485200I-5500000J0D01*
G01*
%TO.C,D13*%
X137993800Y-95484000D02*
X134903800Y-95484000D01*
X138948800Y-98044000D02*
G75*
G03*
X138948800Y-98044000I-2500000J0D01*
G01*
X136448338Y-101034000D02*
G75*
G03*
X137993630Y-95484000I462J2990000D01*
G01*
X136449262Y-101034000D02*
G75*
G02*
X134903970Y-95484000I-462J2990000D01*
G01*
%TO.C,J2*%
X134675727Y-103301951D02*
X135404169Y-104342274D01*
X133635404Y-104030393D02*
X134675727Y-103301951D01*
X128408829Y-110513645D02*
X128636580Y-110838906D01*
X129031385Y-110077727D02*
X129259135Y-110402988D01*
X133603752Y-117932763D02*
X130162293Y-113017851D01*
X134226307Y-117496845D02*
X133603752Y-117932763D01*
X130784849Y-112581933D02*
X134226307Y-117496845D01*
X129988181Y-109892505D02*
X131513894Y-112071450D01*
X130489475Y-109056761D02*
X130717226Y-109382022D01*
X131112031Y-108620843D02*
X131339781Y-108946104D01*
X135684398Y-116475879D02*
X132242939Y-111560967D01*
X136306953Y-116039961D02*
X135684398Y-116475879D01*
X132865495Y-111125049D02*
X136306953Y-116039961D01*
X132068827Y-108435621D02*
X133594540Y-110614566D01*
X132570122Y-107599877D02*
X132797872Y-107925138D01*
X133192677Y-107163959D02*
X133420428Y-107489220D01*
X137765044Y-115018995D02*
X134323585Y-110104083D01*
X138387600Y-114583077D02*
X137765044Y-115018995D01*
X134946141Y-109668164D02*
X138387600Y-114583077D01*
X134149473Y-106978737D02*
X135675186Y-109157681D01*
X134689238Y-106197934D02*
X134878518Y-106468254D01*
X135311794Y-105762016D02*
X135501074Y-106032336D01*
X136486147Y-108589841D02*
X139927605Y-113504753D01*
X136584445Y-108521012D02*
X140025904Y-113435924D01*
X136682743Y-108452182D02*
X140124202Y-113367095D01*
X136781042Y-108383353D02*
X140222500Y-113298266D01*
X136879340Y-108314524D02*
X140320798Y-113229436D01*
X136977638Y-108245695D02*
X140419097Y-113160607D01*
X139845690Y-113562111D02*
X136404232Y-108647198D01*
X140468246Y-113126193D02*
X139845690Y-113562111D01*
X137026787Y-108211280D02*
X140468246Y-113126193D01*
X137804982Y-107666383D02*
X136279268Y-105487438D01*
X129384099Y-113562748D02*
X137804982Y-107666383D01*
X127858385Y-111383804D02*
X129384099Y-113562748D01*
X136279268Y-105487438D02*
X127858385Y-111383804D01*
%TO.C,J4*%
X143646271Y-67599700D02*
X146293506Y-74872921D01*
X146293506Y-74872921D02*
X148793089Y-73963147D01*
X148793089Y-73963147D02*
X146145853Y-66689926D01*
X146145853Y-66689926D02*
X143646271Y-67599700D01*
X146470772Y-67582634D02*
X152108928Y-65530513D01*
X152108928Y-65530513D02*
X152368863Y-66244680D01*
X152368863Y-66244680D02*
X146730707Y-68296801D01*
X146491293Y-67639016D02*
X152129449Y-65586895D01*
X146532336Y-67751779D02*
X152170491Y-65699658D01*
X146573378Y-67864542D02*
X152211534Y-65812421D01*
X146614421Y-67977305D02*
X152252576Y-65925184D01*
X146655463Y-68090068D02*
X152293619Y-66037947D01*
X146696505Y-68202831D02*
X152334661Y-66150710D01*
X143661091Y-68605274D02*
X143971190Y-68492408D01*
X143921026Y-69319441D02*
X144231125Y-69206574D01*
X144535523Y-70042901D02*
X147035105Y-69133127D01*
X147339503Y-69969453D02*
X152977659Y-67917333D01*
X152977659Y-67917333D02*
X153237594Y-68631499D01*
X153237594Y-68631499D02*
X147599439Y-70683620D01*
X144466796Y-71015033D02*
X144839921Y-70879227D01*
X144726732Y-71729200D02*
X145099856Y-71593393D01*
X145404254Y-72429720D02*
X147903836Y-71519946D01*
X148208234Y-72356273D02*
X153846390Y-70304152D01*
X153846390Y-70304152D02*
X154106325Y-71018318D01*
X154106325Y-71018318D02*
X148468170Y-73070439D01*
X145335527Y-73401853D02*
X145708652Y-73266046D01*
X145595463Y-74116019D02*
X145968587Y-73980213D01*
X141554590Y-69776366D02*
X141120225Y-68582956D01*
X141120225Y-68582956D02*
X142313634Y-68148590D01*
D10*
%TO.C,SW10*%
X79848778Y-53585668D02*
X81970098Y-55706988D01*
X84091418Y-53585668D02*
X81970098Y-51464348D01*
X79848778Y-53585668D02*
X81970098Y-51464348D01*
X81970098Y-55706988D02*
X84091418Y-53585668D01*
%TO.C,SW11*%
X86212739Y-51464348D02*
X88334059Y-49343028D01*
X84091419Y-49343028D02*
X86212739Y-47221708D01*
X88334059Y-49343028D02*
X86212739Y-47221708D01*
X84091419Y-49343028D02*
X86212739Y-51464348D01*
%TO.C,SW8*%
X86566047Y-64250486D02*
X86549170Y-64400122D01*
X86598673Y-64633015D01*
X86665053Y-64716271D01*
X86721532Y-64752949D01*
X86824589Y-64779726D01*
X86917746Y-64759925D01*
X87001002Y-64693546D01*
X87037680Y-64637067D01*
X87064458Y-64534009D01*
X87071434Y-64337795D01*
X87098211Y-64234737D01*
X87134889Y-64178258D01*
X87218145Y-64111879D01*
X87311302Y-64092078D01*
X87414360Y-64118855D01*
X87470839Y-64155533D01*
X87537218Y-64238789D01*
X87586721Y-64471681D01*
X87569844Y-64621317D01*
X87685727Y-64937466D02*
X86757082Y-65378270D01*
X87495361Y-65416075D01*
X86836286Y-65750898D01*
X87863937Y-65775878D01*
X87553637Y-66377346D02*
X87580414Y-66274289D01*
X87617092Y-66217810D01*
X87700348Y-66151430D01*
X87746927Y-66141530D01*
X87849984Y-66168307D01*
X87906463Y-66204985D01*
X87972843Y-66288241D01*
X88012445Y-66474555D01*
X87985668Y-66577613D01*
X87948990Y-66634092D01*
X87865734Y-66700471D01*
X87819155Y-66710372D01*
X87716098Y-66683594D01*
X87659619Y-66646916D01*
X87593239Y-66563660D01*
X87553637Y-66377346D01*
X87487257Y-66294090D01*
X87430778Y-66257412D01*
X87327721Y-66230635D01*
X87141407Y-66270237D01*
X87058151Y-66336616D01*
X87021473Y-66393095D01*
X86994695Y-66496153D01*
X87034298Y-66682467D01*
X87100677Y-66765723D01*
X87157156Y-66802401D01*
X87260214Y-66829178D01*
X87446527Y-66789576D01*
X87529784Y-66723197D01*
X87566462Y-66666718D01*
X87593239Y-66563660D01*
X88131270Y-61994814D02*
X88114393Y-62144450D01*
X88163896Y-62377342D01*
X88230276Y-62460598D01*
X88286755Y-62497276D01*
X88389812Y-62524053D01*
X88482969Y-62504252D01*
X88566226Y-62437873D01*
X88602903Y-62381394D01*
X88629681Y-62278336D01*
X88636657Y-62082122D01*
X88663434Y-61979064D01*
X88700112Y-61922585D01*
X88783369Y-61856206D01*
X88876526Y-61836405D01*
X88979583Y-61863182D01*
X89036062Y-61899860D01*
X89102442Y-61983116D01*
X89151944Y-62216009D01*
X89135068Y-62365644D01*
X88292603Y-62982862D02*
X89270751Y-62774950D01*
X89349955Y-63147578D01*
X89323178Y-63250635D01*
X89286500Y-63307114D01*
X89203244Y-63373494D01*
X89063509Y-63403195D01*
X88960451Y-63376418D01*
X88903972Y-63339740D01*
X88837592Y-63256484D01*
X88758388Y-62883856D01*
X88619322Y-64519951D02*
X89015802Y-64094896D01*
X88500515Y-63961009D02*
X89478663Y-63753098D01*
X89557867Y-64125725D01*
X89531090Y-64228783D01*
X89494412Y-64285262D01*
X89411156Y-64351641D01*
X89271420Y-64381343D01*
X89168363Y-64354566D01*
X89111884Y-64317888D01*
X89045504Y-64234631D01*
X88966300Y-63862004D01*
X88565767Y-64726066D02*
X88724176Y-65471321D01*
X88965841Y-66150197D02*
X88866836Y-65684412D01*
X89844983Y-65476501D01*
X89035145Y-66476246D02*
X90013293Y-66268334D01*
X90174626Y-67256382D02*
X90201403Y-67153325D01*
X90171702Y-67013590D01*
X90095422Y-66883755D01*
X89982464Y-66810399D01*
X89879406Y-66783622D01*
X89683192Y-66776645D01*
X89543456Y-66806347D01*
X89367043Y-66892528D01*
X89283787Y-66958907D01*
X89210431Y-67071865D01*
X89193554Y-67221501D01*
X89213355Y-67314658D01*
X89289635Y-67444493D01*
X89346114Y-67481171D01*
X89672164Y-67411867D01*
X89632561Y-67225553D01*
X89342062Y-67920178D02*
X90320210Y-67712266D01*
X89854425Y-67811272D02*
X89973232Y-68370214D01*
X89460869Y-68479120D02*
X90439017Y-68271208D01*
X90508321Y-68597257D02*
X90627127Y-69156199D01*
X89589576Y-69084640D02*
X90567724Y-68876728D01*
%TO.C,D1*%
X110373038Y-81002897D02*
X109433345Y-80660876D01*
X109514779Y-80437140D01*
X109608386Y-80319185D01*
X109730454Y-80262264D01*
X109836235Y-80250090D01*
X110031511Y-80270489D01*
X110165753Y-80319349D01*
X110328455Y-80429243D01*
X110401663Y-80506564D01*
X110458584Y-80628632D01*
X110454471Y-80779160D01*
X110373038Y-81002897D01*
X110894212Y-79570984D02*
X110698772Y-80107951D01*
X110796492Y-79839468D02*
X109856799Y-79497447D01*
X109958467Y-79635802D01*
X110015389Y-79757870D01*
X110027563Y-79863651D01*
%TO.C,D2*%
X141095504Y-78633580D02*
X141095504Y-77633580D01*
X141333600Y-77633580D01*
X141476457Y-77681200D01*
X141571695Y-77776438D01*
X141619314Y-77871676D01*
X141666933Y-78062152D01*
X141666933Y-78205009D01*
X141619314Y-78395485D01*
X141571695Y-78490723D01*
X141476457Y-78585961D01*
X141333600Y-78633580D01*
X141095504Y-78633580D01*
X142047885Y-77728819D02*
X142095504Y-77681200D01*
X142190742Y-77633580D01*
X142428838Y-77633580D01*
X142524076Y-77681200D01*
X142571695Y-77728819D01*
X142619314Y-77824057D01*
X142619314Y-77919295D01*
X142571695Y-78062152D01*
X142000266Y-78633580D01*
X142619314Y-78633580D01*
%TO.C,D3*%
X90346304Y-101950780D02*
X90346304Y-100950780D01*
X90584400Y-100950780D01*
X90727257Y-100998400D01*
X90822495Y-101093638D01*
X90870114Y-101188876D01*
X90917733Y-101379352D01*
X90917733Y-101522209D01*
X90870114Y-101712685D01*
X90822495Y-101807923D01*
X90727257Y-101903161D01*
X90584400Y-101950780D01*
X90346304Y-101950780D01*
X91251066Y-100950780D02*
X91870114Y-100950780D01*
X91536780Y-101331733D01*
X91679638Y-101331733D01*
X91774876Y-101379352D01*
X91822495Y-101426971D01*
X91870114Y-101522209D01*
X91870114Y-101760304D01*
X91822495Y-101855542D01*
X91774876Y-101903161D01*
X91679638Y-101950780D01*
X91393923Y-101950780D01*
X91298685Y-101903161D01*
X91251066Y-101855542D01*
%TO.C,D4*%
X135964704Y-70099180D02*
X135964704Y-69099180D01*
X136202800Y-69099180D01*
X136345657Y-69146800D01*
X136440895Y-69242038D01*
X136488514Y-69337276D01*
X136536133Y-69527752D01*
X136536133Y-69670609D01*
X136488514Y-69861085D01*
X136440895Y-69956323D01*
X136345657Y-70051561D01*
X136202800Y-70099180D01*
X135964704Y-70099180D01*
X137393276Y-69432514D02*
X137393276Y-70099180D01*
X137155180Y-69051561D02*
X136917085Y-69765847D01*
X137536133Y-69765847D01*
%TO.C,D5*%
X124026704Y-103477180D02*
X124026704Y-102477180D01*
X124264800Y-102477180D01*
X124407657Y-102524800D01*
X124502895Y-102620038D01*
X124550514Y-102715276D01*
X124598133Y-102905752D01*
X124598133Y-103048609D01*
X124550514Y-103239085D01*
X124502895Y-103334323D01*
X124407657Y-103429561D01*
X124264800Y-103477180D01*
X124026704Y-103477180D01*
X125502895Y-102477180D02*
X125026704Y-102477180D01*
X124979085Y-102953371D01*
X125026704Y-102905752D01*
X125121942Y-102858133D01*
X125360038Y-102858133D01*
X125455276Y-102905752D01*
X125502895Y-102953371D01*
X125550514Y-103048609D01*
X125550514Y-103286704D01*
X125502895Y-103381942D01*
X125455276Y-103429561D01*
X125360038Y-103477180D01*
X125121942Y-103477180D01*
X125026704Y-103429561D01*
X124979085Y-103381942D01*
X120634476Y-111577380D02*
X120158285Y-111577380D01*
X120158285Y-110577380D01*
X120967809Y-111053571D02*
X121301142Y-111053571D01*
X121444000Y-111577380D02*
X120967809Y-111577380D01*
X120967809Y-110577380D01*
X121444000Y-110577380D01*
X121872571Y-111577380D02*
X121872571Y-110577380D01*
X122110666Y-110577380D01*
X122253523Y-110625000D01*
X122348761Y-110720238D01*
X122396380Y-110815476D01*
X122444000Y-111005952D01*
X122444000Y-111148809D01*
X122396380Y-111339285D01*
X122348761Y-111434523D01*
X122253523Y-111529761D01*
X122110666Y-111577380D01*
X121872571Y-111577380D01*
X122634476Y-111672619D02*
X123396380Y-111672619D01*
X123967809Y-111053571D02*
X124110666Y-111101190D01*
X124158285Y-111148809D01*
X124205904Y-111244047D01*
X124205904Y-111386904D01*
X124158285Y-111482142D01*
X124110666Y-111529761D01*
X124015428Y-111577380D01*
X123634476Y-111577380D01*
X123634476Y-110577380D01*
X123967809Y-110577380D01*
X124063047Y-110625000D01*
X124110666Y-110672619D01*
X124158285Y-110767857D01*
X124158285Y-110863095D01*
X124110666Y-110958333D01*
X124063047Y-111005952D01*
X123967809Y-111053571D01*
X123634476Y-111053571D01*
X124396380Y-111672619D02*
X125158285Y-111672619D01*
X125253523Y-110577380D02*
X125586857Y-111577380D01*
X125920190Y-110577380D01*
X126777333Y-111577380D02*
X126205904Y-111577380D01*
X126491619Y-111577380D02*
X126491619Y-110577380D01*
X126396380Y-110720238D01*
X126301142Y-110815476D01*
X126205904Y-110863095D01*
%TO.C,D6*%
X108481904Y-50695980D02*
X108481904Y-49695980D01*
X108720000Y-49695980D01*
X108862857Y-49743600D01*
X108958095Y-49838838D01*
X109005714Y-49934076D01*
X109053333Y-50124552D01*
X109053333Y-50267409D01*
X109005714Y-50457885D01*
X108958095Y-50553123D01*
X108862857Y-50648361D01*
X108720000Y-50695980D01*
X108481904Y-50695980D01*
X109910476Y-49695980D02*
X109720000Y-49695980D01*
X109624761Y-49743600D01*
X109577142Y-49791219D01*
X109481904Y-49934076D01*
X109434285Y-50124552D01*
X109434285Y-50505504D01*
X109481904Y-50600742D01*
X109529523Y-50648361D01*
X109624761Y-50695980D01*
X109815238Y-50695980D01*
X109910476Y-50648361D01*
X109958095Y-50600742D01*
X110005714Y-50505504D01*
X110005714Y-50267409D01*
X109958095Y-50172171D01*
X109910476Y-50124552D01*
X109815238Y-50076933D01*
X109624761Y-50076933D01*
X109529523Y-50124552D01*
X109481904Y-50172171D01*
X109434285Y-50267409D01*
X106188238Y-49093380D02*
X105712047Y-49093380D01*
X105712047Y-48093380D01*
X106521571Y-48569571D02*
X106854904Y-48569571D01*
X106997761Y-49093380D02*
X106521571Y-49093380D01*
X106521571Y-48093380D01*
X106997761Y-48093380D01*
X107426333Y-49093380D02*
X107426333Y-48093380D01*
X107664428Y-48093380D01*
X107807285Y-48141000D01*
X107902523Y-48236238D01*
X107950142Y-48331476D01*
X107997761Y-48521952D01*
X107997761Y-48664809D01*
X107950142Y-48855285D01*
X107902523Y-48950523D01*
X107807285Y-49045761D01*
X107664428Y-49093380D01*
X107426333Y-49093380D01*
X108188238Y-49188619D02*
X108950142Y-49188619D01*
X109521571Y-48569571D02*
X109664428Y-48617190D01*
X109712047Y-48664809D01*
X109759666Y-48760047D01*
X109759666Y-48902904D01*
X109712047Y-48998142D01*
X109664428Y-49045761D01*
X109569190Y-49093380D01*
X109188238Y-49093380D01*
X109188238Y-48093380D01*
X109521571Y-48093380D01*
X109616809Y-48141000D01*
X109664428Y-48188619D01*
X109712047Y-48283857D01*
X109712047Y-48379095D01*
X109664428Y-48474333D01*
X109616809Y-48521952D01*
X109521571Y-48569571D01*
X109188238Y-48569571D01*
X109950142Y-49188619D02*
X110712047Y-49188619D01*
X111378714Y-48093380D02*
X111188238Y-48093380D01*
X111093000Y-48141000D01*
X111045380Y-48188619D01*
X110950142Y-48331476D01*
X110902523Y-48521952D01*
X110902523Y-48902904D01*
X110950142Y-48998142D01*
X110997761Y-49045761D01*
X111093000Y-49093380D01*
X111283476Y-49093380D01*
X111378714Y-49045761D01*
X111426333Y-48998142D01*
X111473952Y-48902904D01*
X111473952Y-48664809D01*
X111426333Y-48569571D01*
X111378714Y-48521952D01*
X111283476Y-48474333D01*
X111093000Y-48474333D01*
X110997761Y-48521952D01*
X110950142Y-48569571D01*
X110902523Y-48664809D01*
X111902523Y-49093380D02*
X111902523Y-48093380D01*
X111902523Y-48569571D02*
X112473952Y-48569571D01*
X112473952Y-49093380D02*
X112473952Y-48093380D01*
%TO.C,D7*%
X112901504Y-105864780D02*
X112901504Y-104864780D01*
X113139600Y-104864780D01*
X113282457Y-104912400D01*
X113377695Y-105007638D01*
X113425314Y-105102876D01*
X113472933Y-105293352D01*
X113472933Y-105436209D01*
X113425314Y-105626685D01*
X113377695Y-105721923D01*
X113282457Y-105817161D01*
X113139600Y-105864780D01*
X112901504Y-105864780D01*
X113806266Y-104864780D02*
X114472933Y-104864780D01*
X114044361Y-105864780D01*
X110830076Y-113784780D02*
X110353885Y-113784780D01*
X110353885Y-112784780D01*
X111163409Y-113260971D02*
X111496742Y-113260971D01*
X111639600Y-113784780D02*
X111163409Y-113784780D01*
X111163409Y-112784780D01*
X111639600Y-112784780D01*
X112068171Y-113784780D02*
X112068171Y-112784780D01*
X112306266Y-112784780D01*
X112449123Y-112832400D01*
X112544361Y-112927638D01*
X112591980Y-113022876D01*
X112639600Y-113213352D01*
X112639600Y-113356209D01*
X112591980Y-113546685D01*
X112544361Y-113641923D01*
X112449123Y-113737161D01*
X112306266Y-113784780D01*
X112068171Y-113784780D01*
X112830076Y-113880019D02*
X113591980Y-113880019D01*
X114163409Y-113260971D02*
X114306266Y-113308590D01*
X114353885Y-113356209D01*
X114401504Y-113451447D01*
X114401504Y-113594304D01*
X114353885Y-113689542D01*
X114306266Y-113737161D01*
X114211028Y-113784780D01*
X113830076Y-113784780D01*
X113830076Y-112784780D01*
X114163409Y-112784780D01*
X114258647Y-112832400D01*
X114306266Y-112880019D01*
X114353885Y-112975257D01*
X114353885Y-113070495D01*
X114306266Y-113165733D01*
X114258647Y-113213352D01*
X114163409Y-113260971D01*
X113830076Y-113260971D01*
X114591980Y-113880019D02*
X115353885Y-113880019D01*
X115449123Y-112784780D02*
X115782457Y-113784780D01*
X116115790Y-112784780D01*
X116401504Y-112880019D02*
X116449123Y-112832400D01*
X116544361Y-112784780D01*
X116782457Y-112784780D01*
X116877695Y-112832400D01*
X116925314Y-112880019D01*
X116972933Y-112975257D01*
X116972933Y-113070495D01*
X116925314Y-113213352D01*
X116353885Y-113784780D01*
X116972933Y-113784780D01*
%TO.C,D8*%
X101522304Y-103223180D02*
X101522304Y-102223180D01*
X101760400Y-102223180D01*
X101903257Y-102270800D01*
X101998495Y-102366038D01*
X102046114Y-102461276D01*
X102093733Y-102651752D01*
X102093733Y-102794609D01*
X102046114Y-102985085D01*
X101998495Y-103080323D01*
X101903257Y-103175561D01*
X101760400Y-103223180D01*
X101522304Y-103223180D01*
X102665161Y-102651752D02*
X102569923Y-102604133D01*
X102522304Y-102556514D01*
X102474685Y-102461276D01*
X102474685Y-102413657D01*
X102522304Y-102318419D01*
X102569923Y-102270800D01*
X102665161Y-102223180D01*
X102855638Y-102223180D01*
X102950876Y-102270800D01*
X102998495Y-102318419D01*
X103046114Y-102413657D01*
X103046114Y-102461276D01*
X102998495Y-102556514D01*
X102950876Y-102604133D01*
X102855638Y-102651752D01*
X102665161Y-102651752D01*
X102569923Y-102699371D01*
X102522304Y-102746990D01*
X102474685Y-102842228D01*
X102474685Y-103032704D01*
X102522304Y-103127942D01*
X102569923Y-103175561D01*
X102665161Y-103223180D01*
X102855638Y-103223180D01*
X102950876Y-103175561D01*
X102998495Y-103127942D01*
X103046114Y-103032704D01*
X103046114Y-102842228D01*
X102998495Y-102746990D01*
X102950876Y-102699371D01*
X102855638Y-102651752D01*
X99450876Y-111143180D02*
X98974685Y-111143180D01*
X98974685Y-110143180D01*
X99784209Y-110619371D02*
X100117542Y-110619371D01*
X100260400Y-111143180D02*
X99784209Y-111143180D01*
X99784209Y-110143180D01*
X100260400Y-110143180D01*
X100688971Y-111143180D02*
X100688971Y-110143180D01*
X100927066Y-110143180D01*
X101069923Y-110190800D01*
X101165161Y-110286038D01*
X101212780Y-110381276D01*
X101260400Y-110571752D01*
X101260400Y-110714609D01*
X101212780Y-110905085D01*
X101165161Y-111000323D01*
X101069923Y-111095561D01*
X100927066Y-111143180D01*
X100688971Y-111143180D01*
X101450876Y-111238419D02*
X102212780Y-111238419D01*
X102784209Y-110619371D02*
X102927066Y-110666990D01*
X102974685Y-110714609D01*
X103022304Y-110809847D01*
X103022304Y-110952704D01*
X102974685Y-111047942D01*
X102927066Y-111095561D01*
X102831828Y-111143180D01*
X102450876Y-111143180D01*
X102450876Y-110143180D01*
X102784209Y-110143180D01*
X102879447Y-110190800D01*
X102927066Y-110238419D01*
X102974685Y-110333657D01*
X102974685Y-110428895D01*
X102927066Y-110524133D01*
X102879447Y-110571752D01*
X102784209Y-110619371D01*
X102450876Y-110619371D01*
X103212780Y-111238419D02*
X103974685Y-111238419D01*
X104069923Y-110143180D02*
X104403257Y-111143180D01*
X104736590Y-110143180D01*
X104974685Y-110143180D02*
X105593733Y-110143180D01*
X105260400Y-110524133D01*
X105403257Y-110524133D01*
X105498495Y-110571752D01*
X105546114Y-110619371D01*
X105593733Y-110714609D01*
X105593733Y-110952704D01*
X105546114Y-111047942D01*
X105498495Y-111095561D01*
X105403257Y-111143180D01*
X105117542Y-111143180D01*
X105022304Y-111095561D01*
X104974685Y-111047942D01*
%TO.C,D9*%
X99490304Y-53893980D02*
X99490304Y-52893980D01*
X99728400Y-52893980D01*
X99871257Y-52941600D01*
X99966495Y-53036838D01*
X100014114Y-53132076D01*
X100061733Y-53322552D01*
X100061733Y-53465409D01*
X100014114Y-53655885D01*
X99966495Y-53751123D01*
X99871257Y-53846361D01*
X99728400Y-53893980D01*
X99490304Y-53893980D01*
X100537923Y-53893980D02*
X100728400Y-53893980D01*
X100823638Y-53846361D01*
X100871257Y-53798742D01*
X100966495Y-53655885D01*
X101014114Y-53465409D01*
X101014114Y-53084457D01*
X100966495Y-52989219D01*
X100918876Y-52941600D01*
X100823638Y-52893980D01*
X100633161Y-52893980D01*
X100537923Y-52941600D01*
X100490304Y-52989219D01*
X100442685Y-53084457D01*
X100442685Y-53322552D01*
X100490304Y-53417790D01*
X100537923Y-53465409D01*
X100633161Y-53513028D01*
X100823638Y-53513028D01*
X100918876Y-53465409D01*
X100966495Y-53417790D01*
X101014114Y-53322552D01*
X97298238Y-52395380D02*
X96822047Y-52395380D01*
X96822047Y-51395380D01*
X97631571Y-51871571D02*
X97964904Y-51871571D01*
X98107761Y-52395380D02*
X97631571Y-52395380D01*
X97631571Y-51395380D01*
X98107761Y-51395380D01*
X98536333Y-52395380D02*
X98536333Y-51395380D01*
X98774428Y-51395380D01*
X98917285Y-51443000D01*
X99012523Y-51538238D01*
X99060142Y-51633476D01*
X99107761Y-51823952D01*
X99107761Y-51966809D01*
X99060142Y-52157285D01*
X99012523Y-52252523D01*
X98917285Y-52347761D01*
X98774428Y-52395380D01*
X98536333Y-52395380D01*
X99298238Y-52490619D02*
X100060142Y-52490619D01*
X100631571Y-51871571D02*
X100774428Y-51919190D01*
X100822047Y-51966809D01*
X100869666Y-52062047D01*
X100869666Y-52204904D01*
X100822047Y-52300142D01*
X100774428Y-52347761D01*
X100679190Y-52395380D01*
X100298238Y-52395380D01*
X100298238Y-51395380D01*
X100631571Y-51395380D01*
X100726809Y-51443000D01*
X100774428Y-51490619D01*
X100822047Y-51585857D01*
X100822047Y-51681095D01*
X100774428Y-51776333D01*
X100726809Y-51823952D01*
X100631571Y-51871571D01*
X100298238Y-51871571D01*
X101060142Y-52490619D02*
X101822047Y-52490619D01*
X102203000Y-51823952D02*
X102107761Y-51776333D01*
X102060142Y-51728714D01*
X102012523Y-51633476D01*
X102012523Y-51585857D01*
X102060142Y-51490619D01*
X102107761Y-51443000D01*
X102203000Y-51395380D01*
X102393476Y-51395380D01*
X102488714Y-51443000D01*
X102536333Y-51490619D01*
X102583952Y-51585857D01*
X102583952Y-51633476D01*
X102536333Y-51728714D01*
X102488714Y-51776333D01*
X102393476Y-51823952D01*
X102203000Y-51823952D01*
X102107761Y-51871571D01*
X102060142Y-51919190D01*
X102012523Y-52014428D01*
X102012523Y-52204904D01*
X102060142Y-52300142D01*
X102107761Y-52347761D01*
X102203000Y-52395380D01*
X102393476Y-52395380D01*
X102488714Y-52347761D01*
X102536333Y-52300142D01*
X102583952Y-52204904D01*
X102583952Y-52014428D01*
X102536333Y-51919190D01*
X102488714Y-51871571D01*
X102393476Y-51823952D01*
X103012523Y-52395380D02*
X103012523Y-51395380D01*
X103012523Y-51871571D02*
X103583952Y-51871571D01*
X103583952Y-52395380D02*
X103583952Y-51395380D01*
%TO.C,D10*%
X126954114Y-53947180D02*
X126954114Y-52947180D01*
X127192209Y-52947180D01*
X127335066Y-52994800D01*
X127430304Y-53090038D01*
X127477923Y-53185276D01*
X127525542Y-53375752D01*
X127525542Y-53518609D01*
X127477923Y-53709085D01*
X127430304Y-53804323D01*
X127335066Y-53899561D01*
X127192209Y-53947180D01*
X126954114Y-53947180D01*
X128477923Y-53947180D02*
X127906495Y-53947180D01*
X128192209Y-53947180D02*
X128192209Y-52947180D01*
X128096971Y-53090038D01*
X128001733Y-53185276D01*
X127906495Y-53232895D01*
X129096971Y-52947180D02*
X129192209Y-52947180D01*
X129287447Y-52994800D01*
X129335066Y-53042419D01*
X129382685Y-53137657D01*
X129430304Y-53328133D01*
X129430304Y-53566228D01*
X129382685Y-53756704D01*
X129335066Y-53851942D01*
X129287447Y-53899561D01*
X129192209Y-53947180D01*
X129096971Y-53947180D01*
X129001733Y-53899561D01*
X128954114Y-53851942D01*
X128906495Y-53756704D01*
X128858876Y-53566228D01*
X128858876Y-53328133D01*
X128906495Y-53137657D01*
X128954114Y-53042419D01*
X129001733Y-52994800D01*
X129096971Y-52947180D01*
X125263638Y-52395380D02*
X124787447Y-52395380D01*
X124787447Y-51395380D01*
X125596971Y-51871571D02*
X125930304Y-51871571D01*
X126073161Y-52395380D02*
X125596971Y-52395380D01*
X125596971Y-51395380D01*
X126073161Y-51395380D01*
X126501733Y-52395380D02*
X126501733Y-51395380D01*
X126739828Y-51395380D01*
X126882685Y-51443000D01*
X126977923Y-51538238D01*
X127025542Y-51633476D01*
X127073161Y-51823952D01*
X127073161Y-51966809D01*
X127025542Y-52157285D01*
X126977923Y-52252523D01*
X126882685Y-52347761D01*
X126739828Y-52395380D01*
X126501733Y-52395380D01*
X127263638Y-52490619D02*
X128025542Y-52490619D01*
X128596971Y-51871571D02*
X128739828Y-51919190D01*
X128787447Y-51966809D01*
X128835066Y-52062047D01*
X128835066Y-52204904D01*
X128787447Y-52300142D01*
X128739828Y-52347761D01*
X128644590Y-52395380D01*
X128263638Y-52395380D01*
X128263638Y-51395380D01*
X128596971Y-51395380D01*
X128692209Y-51443000D01*
X128739828Y-51490619D01*
X128787447Y-51585857D01*
X128787447Y-51681095D01*
X128739828Y-51776333D01*
X128692209Y-51823952D01*
X128596971Y-51871571D01*
X128263638Y-51871571D01*
X129025542Y-52490619D02*
X129787447Y-52490619D01*
X129977923Y-51490619D02*
X130025542Y-51443000D01*
X130120780Y-51395380D01*
X130358876Y-51395380D01*
X130454114Y-51443000D01*
X130501733Y-51490619D01*
X130549352Y-51585857D01*
X130549352Y-51681095D01*
X130501733Y-51823952D01*
X129930304Y-52395380D01*
X130549352Y-52395380D01*
X130977923Y-52395380D02*
X130977923Y-51395380D01*
X130977923Y-51871571D02*
X131549352Y-51871571D01*
X131549352Y-52395380D02*
X131549352Y-51395380D01*
%TO.C,D11*%
X88092114Y-79598780D02*
X88092114Y-78598780D01*
X88330209Y-78598780D01*
X88473066Y-78646400D01*
X88568304Y-78741638D01*
X88615923Y-78836876D01*
X88663542Y-79027352D01*
X88663542Y-79170209D01*
X88615923Y-79360685D01*
X88568304Y-79455923D01*
X88473066Y-79551161D01*
X88330209Y-79598780D01*
X88092114Y-79598780D01*
X89615923Y-79598780D02*
X89044495Y-79598780D01*
X89330209Y-79598780D02*
X89330209Y-78598780D01*
X89234971Y-78741638D01*
X89139733Y-78836876D01*
X89044495Y-78884495D01*
X90568304Y-79598780D02*
X89996876Y-79598780D01*
X90282590Y-79598780D02*
X90282590Y-78598780D01*
X90187352Y-78741638D01*
X90092114Y-78836876D01*
X89996876Y-78884495D01*
%TO.C,D12*%
X117911714Y-50645180D02*
X117911714Y-49645180D01*
X118149809Y-49645180D01*
X118292666Y-49692800D01*
X118387904Y-49788038D01*
X118435523Y-49883276D01*
X118483142Y-50073752D01*
X118483142Y-50216609D01*
X118435523Y-50407085D01*
X118387904Y-50502323D01*
X118292666Y-50597561D01*
X118149809Y-50645180D01*
X117911714Y-50645180D01*
X119435523Y-50645180D02*
X118864095Y-50645180D01*
X119149809Y-50645180D02*
X119149809Y-49645180D01*
X119054571Y-49788038D01*
X118959333Y-49883276D01*
X118864095Y-49930895D01*
X119816476Y-49740419D02*
X119864095Y-49692800D01*
X119959333Y-49645180D01*
X120197428Y-49645180D01*
X120292666Y-49692800D01*
X120340285Y-49740419D01*
X120387904Y-49835657D01*
X120387904Y-49930895D01*
X120340285Y-50073752D01*
X119768857Y-50645180D01*
X120387904Y-50645180D01*
X116348238Y-48966380D02*
X115872047Y-48966380D01*
X115872047Y-47966380D01*
X116681571Y-48442571D02*
X117014904Y-48442571D01*
X117157761Y-48966380D02*
X116681571Y-48966380D01*
X116681571Y-47966380D01*
X117157761Y-47966380D01*
X117586333Y-48966380D02*
X117586333Y-47966380D01*
X117824428Y-47966380D01*
X117967285Y-48014000D01*
X118062523Y-48109238D01*
X118110142Y-48204476D01*
X118157761Y-48394952D01*
X118157761Y-48537809D01*
X118110142Y-48728285D01*
X118062523Y-48823523D01*
X117967285Y-48918761D01*
X117824428Y-48966380D01*
X117586333Y-48966380D01*
X118348238Y-49061619D02*
X119110142Y-49061619D01*
X119681571Y-48442571D02*
X119824428Y-48490190D01*
X119872047Y-48537809D01*
X119919666Y-48633047D01*
X119919666Y-48775904D01*
X119872047Y-48871142D01*
X119824428Y-48918761D01*
X119729190Y-48966380D01*
X119348238Y-48966380D01*
X119348238Y-47966380D01*
X119681571Y-47966380D01*
X119776809Y-48014000D01*
X119824428Y-48061619D01*
X119872047Y-48156857D01*
X119872047Y-48252095D01*
X119824428Y-48347333D01*
X119776809Y-48394952D01*
X119681571Y-48442571D01*
X119348238Y-48442571D01*
X120110142Y-49061619D02*
X120872047Y-49061619D01*
X121538714Y-48299714D02*
X121538714Y-48966380D01*
X121300619Y-47918761D02*
X121062523Y-48633047D01*
X121681571Y-48633047D01*
X122062523Y-48966380D02*
X122062523Y-47966380D01*
X122062523Y-48442571D02*
X122633952Y-48442571D01*
X122633952Y-48966380D02*
X122633952Y-47966380D01*
%TO.C,U2*%
X129235295Y-70419980D02*
X129235295Y-71229504D01*
X129282914Y-71324742D01*
X129330533Y-71372361D01*
X129425771Y-71419980D01*
X129616247Y-71419980D01*
X129711485Y-71372361D01*
X129759104Y-71324742D01*
X129806723Y-71229504D01*
X129806723Y-70419980D01*
X130235295Y-70515219D02*
X130282914Y-70467600D01*
X130378152Y-70419980D01*
X130616247Y-70419980D01*
X130711485Y-70467600D01*
X130759104Y-70515219D01*
X130806723Y-70610457D01*
X130806723Y-70705695D01*
X130759104Y-70848552D01*
X130187676Y-71419980D01*
X130806723Y-71419980D01*
%TO.C,U3*%
X121158095Y-74991980D02*
X121158095Y-75801504D01*
X121205714Y-75896742D01*
X121253333Y-75944361D01*
X121348571Y-75991980D01*
X121539047Y-75991980D01*
X121634285Y-75944361D01*
X121681904Y-75896742D01*
X121729523Y-75801504D01*
X121729523Y-74991980D01*
X122110476Y-74991980D02*
X122729523Y-74991980D01*
X122396190Y-75372933D01*
X122539047Y-75372933D01*
X122634285Y-75420552D01*
X122681904Y-75468171D01*
X122729523Y-75563409D01*
X122729523Y-75801504D01*
X122681904Y-75896742D01*
X122634285Y-75944361D01*
X122539047Y-75991980D01*
X122253333Y-75991980D01*
X122158095Y-75944361D01*
X122110476Y-75896742D01*
%TO.C,SW3*%
X117824731Y-84883497D02*
X117918339Y-84765542D01*
X117999772Y-84541805D01*
X117987598Y-84436024D01*
X117959138Y-84374990D01*
X117885930Y-84297669D01*
X117796435Y-84265096D01*
X117690654Y-84277270D01*
X117629620Y-84305731D01*
X117552299Y-84378939D01*
X117442405Y-84541641D01*
X117365085Y-84614849D01*
X117304051Y-84643309D01*
X117198270Y-84655483D01*
X117108775Y-84622910D01*
X117035567Y-84545589D01*
X117007107Y-84484555D01*
X116994933Y-84378774D01*
X117076366Y-84155038D01*
X117169973Y-84037083D01*
X117239233Y-83707565D02*
X118260359Y-83825849D01*
X117654297Y-83402560D01*
X118390652Y-83467871D01*
X117532393Y-82902114D01*
X117630113Y-82633631D02*
X117841840Y-82051916D01*
X118085811Y-82495441D01*
X118134671Y-82361199D01*
X118211992Y-82287991D01*
X118273026Y-82259530D01*
X118378807Y-82247356D01*
X118602543Y-82328790D01*
X118675751Y-82406110D01*
X118704212Y-82467144D01*
X118716386Y-82572925D01*
X118618666Y-82841409D01*
X118541345Y-82914617D01*
X118480311Y-82943078D01*
X109780914Y-89050761D02*
X109923771Y-89098380D01*
X110161866Y-89098380D01*
X110257104Y-89050761D01*
X110304723Y-89003142D01*
X110352342Y-88907904D01*
X110352342Y-88812666D01*
X110304723Y-88717428D01*
X110257104Y-88669809D01*
X110161866Y-88622190D01*
X109971390Y-88574571D01*
X109876152Y-88526952D01*
X109828533Y-88479333D01*
X109780914Y-88384095D01*
X109780914Y-88288857D01*
X109828533Y-88193619D01*
X109876152Y-88146000D01*
X109971390Y-88098380D01*
X110209485Y-88098380D01*
X110352342Y-88146000D01*
X110780914Y-89098380D02*
X110780914Y-88098380D01*
X111161866Y-88098380D01*
X111257104Y-88146000D01*
X111304723Y-88193619D01*
X111352342Y-88288857D01*
X111352342Y-88431714D01*
X111304723Y-88526952D01*
X111257104Y-88574571D01*
X111161866Y-88622190D01*
X110780914Y-88622190D01*
X112352342Y-89098380D02*
X112019009Y-88622190D01*
X111780914Y-89098380D02*
X111780914Y-88098380D01*
X112161866Y-88098380D01*
X112257104Y-88146000D01*
X112304723Y-88193619D01*
X112352342Y-88288857D01*
X112352342Y-88431714D01*
X112304723Y-88526952D01*
X112257104Y-88574571D01*
X112161866Y-88622190D01*
X111780914Y-88622190D01*
X112542819Y-89193619D02*
X113304723Y-89193619D01*
X113542819Y-89098380D02*
X113542819Y-88098380D01*
X113923771Y-88098380D01*
X114019009Y-88146000D01*
X114066628Y-88193619D01*
X114114247Y-88288857D01*
X114114247Y-88431714D01*
X114066628Y-88526952D01*
X114019009Y-88574571D01*
X113923771Y-88622190D01*
X113542819Y-88622190D01*
X114733295Y-88098380D02*
X114923771Y-88098380D01*
X115019009Y-88146000D01*
X115114247Y-88241238D01*
X115161866Y-88431714D01*
X115161866Y-88765047D01*
X115114247Y-88955523D01*
X115019009Y-89050761D01*
X114923771Y-89098380D01*
X114733295Y-89098380D01*
X114638057Y-89050761D01*
X114542819Y-88955523D01*
X114495200Y-88765047D01*
X114495200Y-88431714D01*
X114542819Y-88241238D01*
X114638057Y-88146000D01*
X114733295Y-88098380D01*
X115495200Y-88098380D02*
X115733295Y-89098380D01*
X115923771Y-88384095D01*
X116114247Y-89098380D01*
X116352342Y-88098380D01*
X116733295Y-88574571D02*
X117066628Y-88574571D01*
X117209485Y-89098380D02*
X116733295Y-89098380D01*
X116733295Y-88098380D01*
X117209485Y-88098380D01*
X118209485Y-89098380D02*
X117876152Y-88622190D01*
X117638057Y-89098380D02*
X117638057Y-88098380D01*
X118019009Y-88098380D01*
X118114247Y-88146000D01*
X118161866Y-88193619D01*
X118209485Y-88288857D01*
X118209485Y-88431714D01*
X118161866Y-88526952D01*
X118114247Y-88574571D01*
X118019009Y-88622190D01*
X117638057Y-88622190D01*
%TO.C,SW4*%
X134535466Y-102847161D02*
X134678323Y-102894780D01*
X134916419Y-102894780D01*
X135011657Y-102847161D01*
X135059276Y-102799542D01*
X135106895Y-102704304D01*
X135106895Y-102609066D01*
X135059276Y-102513828D01*
X135011657Y-102466209D01*
X134916419Y-102418590D01*
X134725942Y-102370971D01*
X134630704Y-102323352D01*
X134583085Y-102275733D01*
X134535466Y-102180495D01*
X134535466Y-102085257D01*
X134583085Y-101990019D01*
X134630704Y-101942400D01*
X134725942Y-101894780D01*
X134964038Y-101894780D01*
X135106895Y-101942400D01*
X135440228Y-101894780D02*
X135678323Y-102894780D01*
X135868800Y-102180495D01*
X136059276Y-102894780D01*
X136297371Y-101894780D01*
X137106895Y-102228114D02*
X137106895Y-102894780D01*
X136868800Y-101847161D02*
X136630704Y-102561447D01*
X137249752Y-102561447D01*
X133299580Y-92098761D02*
X133442438Y-92146380D01*
X133680533Y-92146380D01*
X133775771Y-92098761D01*
X133823390Y-92051142D01*
X133871009Y-91955904D01*
X133871009Y-91860666D01*
X133823390Y-91765428D01*
X133775771Y-91717809D01*
X133680533Y-91670190D01*
X133490057Y-91622571D01*
X133394819Y-91574952D01*
X133347200Y-91527333D01*
X133299580Y-91432095D01*
X133299580Y-91336857D01*
X133347200Y-91241619D01*
X133394819Y-91194000D01*
X133490057Y-91146380D01*
X133728152Y-91146380D01*
X133871009Y-91194000D01*
X134299580Y-92146380D02*
X134299580Y-91146380D01*
X134680533Y-91146380D01*
X134775771Y-91194000D01*
X134823390Y-91241619D01*
X134871009Y-91336857D01*
X134871009Y-91479714D01*
X134823390Y-91574952D01*
X134775771Y-91622571D01*
X134680533Y-91670190D01*
X134299580Y-91670190D01*
X135871009Y-92146380D02*
X135537676Y-91670190D01*
X135299580Y-92146380D02*
X135299580Y-91146380D01*
X135680533Y-91146380D01*
X135775771Y-91194000D01*
X135823390Y-91241619D01*
X135871009Y-91336857D01*
X135871009Y-91479714D01*
X135823390Y-91574952D01*
X135775771Y-91622571D01*
X135680533Y-91670190D01*
X135299580Y-91670190D01*
X136061485Y-92241619D02*
X136823390Y-92241619D01*
X137394819Y-91622571D02*
X137061485Y-91622571D01*
X137061485Y-92146380D02*
X137061485Y-91146380D01*
X137537676Y-91146380D01*
X137871009Y-91860666D02*
X138347200Y-91860666D01*
X137775771Y-92146380D02*
X138109104Y-91146380D01*
X138442438Y-92146380D01*
X138775771Y-92146380D02*
X138775771Y-91146380D01*
X139347200Y-92146380D01*
X139347200Y-91146380D01*
%TO.C,SW5*%
X140080266Y-86743561D02*
X140223123Y-86791180D01*
X140461219Y-86791180D01*
X140556457Y-86743561D01*
X140604076Y-86695942D01*
X140651695Y-86600704D01*
X140651695Y-86505466D01*
X140604076Y-86410228D01*
X140556457Y-86362609D01*
X140461219Y-86314990D01*
X140270742Y-86267371D01*
X140175504Y-86219752D01*
X140127885Y-86172133D01*
X140080266Y-86076895D01*
X140080266Y-85981657D01*
X140127885Y-85886419D01*
X140175504Y-85838800D01*
X140270742Y-85791180D01*
X140508838Y-85791180D01*
X140651695Y-85838800D01*
X140985028Y-85791180D02*
X141223123Y-86791180D01*
X141413600Y-86076895D01*
X141604076Y-86791180D01*
X141842171Y-85791180D01*
X142699314Y-85791180D02*
X142223123Y-85791180D01*
X142175504Y-86267371D01*
X142223123Y-86219752D01*
X142318361Y-86172133D01*
X142556457Y-86172133D01*
X142651695Y-86219752D01*
X142699314Y-86267371D01*
X142746933Y-86362609D01*
X142746933Y-86600704D01*
X142699314Y-86695942D01*
X142651695Y-86743561D01*
X142556457Y-86791180D01*
X142318361Y-86791180D01*
X142223123Y-86743561D01*
X142175504Y-86695942D01*
X138203466Y-88796761D02*
X138346323Y-88844380D01*
X138584419Y-88844380D01*
X138679657Y-88796761D01*
X138727276Y-88749142D01*
X138774895Y-88653904D01*
X138774895Y-88558666D01*
X138727276Y-88463428D01*
X138679657Y-88415809D01*
X138584419Y-88368190D01*
X138393942Y-88320571D01*
X138298704Y-88272952D01*
X138251085Y-88225333D01*
X138203466Y-88130095D01*
X138203466Y-88034857D01*
X138251085Y-87939619D01*
X138298704Y-87892000D01*
X138393942Y-87844380D01*
X138632038Y-87844380D01*
X138774895Y-87892000D01*
X139203466Y-88844380D02*
X139203466Y-87844380D01*
X139584419Y-87844380D01*
X139679657Y-87892000D01*
X139727276Y-87939619D01*
X139774895Y-88034857D01*
X139774895Y-88177714D01*
X139727276Y-88272952D01*
X139679657Y-88320571D01*
X139584419Y-88368190D01*
X139203466Y-88368190D01*
X140774895Y-88844380D02*
X140441561Y-88368190D01*
X140203466Y-88844380D02*
X140203466Y-87844380D01*
X140584419Y-87844380D01*
X140679657Y-87892000D01*
X140727276Y-87939619D01*
X140774895Y-88034857D01*
X140774895Y-88177714D01*
X140727276Y-88272952D01*
X140679657Y-88320571D01*
X140584419Y-88368190D01*
X140203466Y-88368190D01*
X140965371Y-88939619D02*
X141727276Y-88939619D01*
X141965371Y-88844380D02*
X141965371Y-87844380D01*
X142536800Y-88844380D01*
X142536800Y-87844380D01*
X143012990Y-88844380D02*
X143012990Y-87844380D01*
X144012990Y-87892000D02*
X143917752Y-87844380D01*
X143774895Y-87844380D01*
X143632038Y-87892000D01*
X143536800Y-87987238D01*
X143489180Y-88082476D01*
X143441561Y-88272952D01*
X143441561Y-88415809D01*
X143489180Y-88606285D01*
X143536800Y-88701523D01*
X143632038Y-88796761D01*
X143774895Y-88844380D01*
X143870133Y-88844380D01*
X144012990Y-88796761D01*
X144060609Y-88749142D01*
X144060609Y-88415809D01*
X143870133Y-88415809D01*
X144489180Y-88844380D02*
X144489180Y-87844380D01*
X144489180Y-88320571D02*
X145060609Y-88320571D01*
X145060609Y-88844380D02*
X145060609Y-87844380D01*
X145393942Y-87844380D02*
X145965371Y-87844380D01*
X145679657Y-88844380D02*
X145679657Y-87844380D01*
%TO.C,SW6*%
X134810666Y-62126761D02*
X134953523Y-62174380D01*
X135191619Y-62174380D01*
X135286857Y-62126761D01*
X135334476Y-62079142D01*
X135382095Y-61983904D01*
X135382095Y-61888666D01*
X135334476Y-61793428D01*
X135286857Y-61745809D01*
X135191619Y-61698190D01*
X135001142Y-61650571D01*
X134905904Y-61602952D01*
X134858285Y-61555333D01*
X134810666Y-61460095D01*
X134810666Y-61364857D01*
X134858285Y-61269619D01*
X134905904Y-61222000D01*
X135001142Y-61174380D01*
X135239238Y-61174380D01*
X135382095Y-61222000D01*
X135715428Y-61174380D02*
X135953523Y-62174380D01*
X136144000Y-61460095D01*
X136334476Y-62174380D01*
X136572571Y-61174380D01*
X137382095Y-61174380D02*
X137191619Y-61174380D01*
X137096380Y-61222000D01*
X137048761Y-61269619D01*
X136953523Y-61412476D01*
X136905904Y-61602952D01*
X136905904Y-61983904D01*
X136953523Y-62079142D01*
X137001142Y-62126761D01*
X137096380Y-62174380D01*
X137286857Y-62174380D01*
X137382095Y-62126761D01*
X137429714Y-62079142D01*
X137477333Y-61983904D01*
X137477333Y-61745809D01*
X137429714Y-61650571D01*
X137382095Y-61602952D01*
X137286857Y-61555333D01*
X137096380Y-61555333D01*
X137001142Y-61602952D01*
X136953523Y-61650571D01*
X136905904Y-61745809D01*
X132994876Y-72185161D02*
X133137733Y-72232780D01*
X133375828Y-72232780D01*
X133471066Y-72185161D01*
X133518685Y-72137542D01*
X133566304Y-72042304D01*
X133566304Y-71947066D01*
X133518685Y-71851828D01*
X133471066Y-71804209D01*
X133375828Y-71756590D01*
X133185352Y-71708971D01*
X133090114Y-71661352D01*
X133042495Y-71613733D01*
X132994876Y-71518495D01*
X132994876Y-71423257D01*
X133042495Y-71328019D01*
X133090114Y-71280400D01*
X133185352Y-71232780D01*
X133423447Y-71232780D01*
X133566304Y-71280400D01*
X133994876Y-72232780D02*
X133994876Y-71232780D01*
X134375828Y-71232780D01*
X134471066Y-71280400D01*
X134518685Y-71328019D01*
X134566304Y-71423257D01*
X134566304Y-71566114D01*
X134518685Y-71661352D01*
X134471066Y-71708971D01*
X134375828Y-71756590D01*
X133994876Y-71756590D01*
X135566304Y-72232780D02*
X135232971Y-71756590D01*
X134994876Y-72232780D02*
X134994876Y-71232780D01*
X135375828Y-71232780D01*
X135471066Y-71280400D01*
X135518685Y-71328019D01*
X135566304Y-71423257D01*
X135566304Y-71566114D01*
X135518685Y-71661352D01*
X135471066Y-71708971D01*
X135375828Y-71756590D01*
X134994876Y-71756590D01*
X135756780Y-72328019D02*
X136518685Y-72328019D01*
X136613923Y-71232780D02*
X137185352Y-71232780D01*
X136899638Y-72232780D02*
X136899638Y-71232780D01*
X137518685Y-72232780D02*
X137518685Y-71232780D01*
X137994876Y-72232780D02*
X137994876Y-71232780D01*
X138328209Y-71947066D01*
X138661542Y-71232780D01*
X138661542Y-72232780D01*
X139137733Y-71708971D02*
X139471066Y-71708971D01*
X139613923Y-72232780D02*
X139137733Y-72232780D01*
X139137733Y-71232780D01*
X139613923Y-71232780D01*
X140613923Y-72232780D02*
X140280590Y-71756590D01*
X140042495Y-72232780D02*
X140042495Y-71232780D01*
X140423447Y-71232780D01*
X140518685Y-71280400D01*
X140566304Y-71328019D01*
X140613923Y-71423257D01*
X140613923Y-71566114D01*
X140566304Y-71661352D01*
X140518685Y-71708971D01*
X140423447Y-71756590D01*
X140042495Y-71756590D01*
%TO.C,SW7*%
X81587917Y-80814823D02*
X81681525Y-80696868D01*
X81762958Y-80473131D01*
X81750784Y-80367350D01*
X81722324Y-80306316D01*
X81649116Y-80228995D01*
X81559621Y-80196422D01*
X81453840Y-80208596D01*
X81392806Y-80237057D01*
X81315485Y-80310265D01*
X81205591Y-80472967D01*
X81128271Y-80546175D01*
X81067237Y-80574635D01*
X80961456Y-80586809D01*
X80871961Y-80554236D01*
X80798753Y-80476915D01*
X80770293Y-80415881D01*
X80758119Y-80310100D01*
X80839552Y-80086364D01*
X80933159Y-79968409D01*
X81002419Y-79638891D02*
X82023545Y-79757175D01*
X81417483Y-79333886D01*
X82153838Y-79399197D01*
X81295579Y-78833440D01*
X81393299Y-78564957D02*
X81621312Y-77938495D01*
X82414425Y-78683241D01*
X81678971Y-89355561D02*
X81821828Y-89403180D01*
X82059923Y-89403180D01*
X82155161Y-89355561D01*
X82202780Y-89307942D01*
X82250400Y-89212704D01*
X82250400Y-89117466D01*
X82202780Y-89022228D01*
X82155161Y-88974609D01*
X82059923Y-88926990D01*
X81869447Y-88879371D01*
X81774209Y-88831752D01*
X81726590Y-88784133D01*
X81678971Y-88688895D01*
X81678971Y-88593657D01*
X81726590Y-88498419D01*
X81774209Y-88450800D01*
X81869447Y-88403180D01*
X82107542Y-88403180D01*
X82250400Y-88450800D01*
X82678971Y-89403180D02*
X82678971Y-88403180D01*
X83059923Y-88403180D01*
X83155161Y-88450800D01*
X83202780Y-88498419D01*
X83250400Y-88593657D01*
X83250400Y-88736514D01*
X83202780Y-88831752D01*
X83155161Y-88879371D01*
X83059923Y-88926990D01*
X82678971Y-88926990D01*
X84250400Y-89403180D02*
X83917066Y-88926990D01*
X83678971Y-89403180D02*
X83678971Y-88403180D01*
X84059923Y-88403180D01*
X84155161Y-88450800D01*
X84202780Y-88498419D01*
X84250400Y-88593657D01*
X84250400Y-88736514D01*
X84202780Y-88831752D01*
X84155161Y-88879371D01*
X84059923Y-88926990D01*
X83678971Y-88926990D01*
X84440876Y-89498419D02*
X85202780Y-89498419D01*
X85774209Y-88879371D02*
X85440876Y-88879371D01*
X85440876Y-89403180D02*
X85440876Y-88403180D01*
X85917066Y-88403180D01*
X86298019Y-89403180D02*
X86298019Y-88403180D01*
X87250400Y-89403180D02*
X86774209Y-89403180D01*
X86774209Y-88403180D01*
X87440876Y-88403180D02*
X88012304Y-88403180D01*
X87726590Y-89403180D02*
X87726590Y-88403180D01*
X88345638Y-88879371D02*
X88678971Y-88879371D01*
X88821828Y-89403180D02*
X88345638Y-89403180D01*
X88345638Y-88403180D01*
X88821828Y-88403180D01*
X89821828Y-89403180D02*
X89488495Y-88926990D01*
X89250400Y-89403180D02*
X89250400Y-88403180D01*
X89631352Y-88403180D01*
X89726590Y-88450800D01*
X89774209Y-88498419D01*
X89821828Y-88593657D01*
X89821828Y-88736514D01*
X89774209Y-88831752D01*
X89726590Y-88879371D01*
X89631352Y-88926990D01*
X89250400Y-88926990D01*
%TO.C,SW9*%
X90251066Y-93389961D02*
X90393923Y-93437580D01*
X90632019Y-93437580D01*
X90727257Y-93389961D01*
X90774876Y-93342342D01*
X90822495Y-93247104D01*
X90822495Y-93151866D01*
X90774876Y-93056628D01*
X90727257Y-93009009D01*
X90632019Y-92961390D01*
X90441542Y-92913771D01*
X90346304Y-92866152D01*
X90298685Y-92818533D01*
X90251066Y-92723295D01*
X90251066Y-92628057D01*
X90298685Y-92532819D01*
X90346304Y-92485200D01*
X90441542Y-92437580D01*
X90679638Y-92437580D01*
X90822495Y-92485200D01*
X91155828Y-92437580D02*
X91393923Y-93437580D01*
X91584400Y-92723295D01*
X91774876Y-93437580D01*
X92012971Y-92437580D01*
X92441542Y-93437580D02*
X92632019Y-93437580D01*
X92727257Y-93389961D01*
X92774876Y-93342342D01*
X92870114Y-93199485D01*
X92917733Y-93009009D01*
X92917733Y-92628057D01*
X92870114Y-92532819D01*
X92822495Y-92485200D01*
X92727257Y-92437580D01*
X92536780Y-92437580D01*
X92441542Y-92485200D01*
X92393923Y-92532819D01*
X92346304Y-92628057D01*
X92346304Y-92866152D01*
X92393923Y-92961390D01*
X92441542Y-93009009D01*
X92536780Y-93056628D01*
X92727257Y-93056628D01*
X92822495Y-93009009D01*
X92870114Y-92961390D01*
X92917733Y-92866152D01*
X87489161Y-104239961D02*
X87632019Y-104287580D01*
X87870114Y-104287580D01*
X87965352Y-104239961D01*
X88012971Y-104192342D01*
X88060590Y-104097104D01*
X88060590Y-104001866D01*
X88012971Y-103906628D01*
X87965352Y-103859009D01*
X87870114Y-103811390D01*
X87679638Y-103763771D01*
X87584400Y-103716152D01*
X87536780Y-103668533D01*
X87489161Y-103573295D01*
X87489161Y-103478057D01*
X87536780Y-103382819D01*
X87584400Y-103335200D01*
X87679638Y-103287580D01*
X87917733Y-103287580D01*
X88060590Y-103335200D01*
X88489161Y-104287580D02*
X88489161Y-103287580D01*
X88870114Y-103287580D01*
X88965352Y-103335200D01*
X89012971Y-103382819D01*
X89060590Y-103478057D01*
X89060590Y-103620914D01*
X89012971Y-103716152D01*
X88965352Y-103763771D01*
X88870114Y-103811390D01*
X88489161Y-103811390D01*
X90060590Y-104287580D02*
X89727257Y-103811390D01*
X89489161Y-104287580D02*
X89489161Y-103287580D01*
X89870114Y-103287580D01*
X89965352Y-103335200D01*
X90012971Y-103382819D01*
X90060590Y-103478057D01*
X90060590Y-103620914D01*
X90012971Y-103716152D01*
X89965352Y-103763771D01*
X89870114Y-103811390D01*
X89489161Y-103811390D01*
X90251066Y-104382819D02*
X91012971Y-104382819D01*
X91727257Y-104287580D02*
X91251066Y-104287580D01*
X91251066Y-103287580D01*
X92251066Y-103287580D02*
X92441542Y-103287580D01*
X92536780Y-103335200D01*
X92632019Y-103430438D01*
X92679638Y-103620914D01*
X92679638Y-103954247D01*
X92632019Y-104144723D01*
X92536780Y-104239961D01*
X92441542Y-104287580D01*
X92251066Y-104287580D01*
X92155828Y-104239961D01*
X92060590Y-104144723D01*
X92012971Y-103954247D01*
X92012971Y-103620914D01*
X92060590Y-103430438D01*
X92155828Y-103335200D01*
X92251066Y-103287580D01*
X93679638Y-104192342D02*
X93632019Y-104239961D01*
X93489161Y-104287580D01*
X93393923Y-104287580D01*
X93251066Y-104239961D01*
X93155828Y-104144723D01*
X93108209Y-104049485D01*
X93060590Y-103859009D01*
X93060590Y-103716152D01*
X93108209Y-103525676D01*
X93155828Y-103430438D01*
X93251066Y-103335200D01*
X93393923Y-103287580D01*
X93489161Y-103287580D01*
X93632019Y-103335200D01*
X93679638Y-103382819D01*
X94108209Y-104287580D02*
X94108209Y-103287580D01*
X94679638Y-104287580D02*
X94251066Y-103716152D01*
X94679638Y-103287580D02*
X94108209Y-103859009D01*
%TO.C,D13*%
X135183714Y-94889580D02*
X135183714Y-93889580D01*
X135421809Y-93889580D01*
X135564666Y-93937200D01*
X135659904Y-94032438D01*
X135707523Y-94127676D01*
X135755142Y-94318152D01*
X135755142Y-94461009D01*
X135707523Y-94651485D01*
X135659904Y-94746723D01*
X135564666Y-94841961D01*
X135421809Y-94889580D01*
X135183714Y-94889580D01*
X136707523Y-94889580D02*
X136136095Y-94889580D01*
X136421809Y-94889580D02*
X136421809Y-93889580D01*
X136326571Y-94032438D01*
X136231333Y-94127676D01*
X136136095Y-94175295D01*
X137040857Y-93889580D02*
X137659904Y-93889580D01*
X137326571Y-94270533D01*
X137469428Y-94270533D01*
X137564666Y-94318152D01*
X137612285Y-94365771D01*
X137659904Y-94461009D01*
X137659904Y-94699104D01*
X137612285Y-94794342D01*
X137564666Y-94841961D01*
X137469428Y-94889580D01*
X137183714Y-94889580D01*
X137088476Y-94841961D01*
X137040857Y-94794342D01*
%TO.C,J2*%
X138306391Y-105330847D02*
X137721282Y-105740545D01*
X137576947Y-105783477D01*
X137444306Y-105760089D01*
X137323360Y-105670380D01*
X137268733Y-105592366D01*
X138474195Y-105736539D02*
X138540515Y-105748233D01*
X138634149Y-105798934D01*
X138770714Y-105993971D01*
X138786333Y-106099298D01*
X138774639Y-106165619D01*
X138723938Y-106259252D01*
X138645924Y-106313878D01*
X138501589Y-106356811D01*
X137705744Y-106216482D01*
X138060815Y-106723576D01*
%TO.C,J4*%
X144152472Y-65385413D02*
X144396772Y-66056622D01*
X144400885Y-66207150D01*
X144343964Y-66329218D01*
X144226008Y-66422825D01*
X144136514Y-66455399D01*
X145116677Y-65389197D02*
X145344690Y-66015658D01*
X144762647Y-65112652D02*
X144783211Y-65865294D01*
X145364925Y-65653568D01*
%TD*%
M02*
