%TF.GenerationSoftware,KiCad,Pcbnew,5.1.9*%
%TF.CreationDate,2021-04-14T19:17:29+02:00*%
%TF.ProjectId,custom-pcb,63757374-6f6d-42d7-9063-622e6b696361,rev?*%
%TF.SameCoordinates,Original*%
%TF.FileFunction,Profile,NP*%
%FSLAX46Y46*%
G04 Gerber Fmt 4.6, Leading zero omitted, Abs format (unit mm)*
G04 Created by KiCad (PCBNEW 5.1.9) date 2021-04-14 19:17:29*
%MOMM*%
%LPD*%
G01*
G04 APERTURE LIST*
%TA.AperFunction,Profile*%
%ADD10C,0.050000*%
%TD*%
G04 APERTURE END LIST*
D10*
X90728800Y-53365400D02*
X90726958Y-53357848D01*
X90728800Y-53365400D02*
G75*
G02*
X90322400Y-52959000I25400J431800D01*
G01*
X85725137Y-57554199D02*
G75*
G02*
X86108097Y-57989944I-25537J-408601D01*
G01*
X90195400Y-53873400D02*
G75*
G03*
X90195400Y-53873400I-338878J0D01*
G01*
X89408000Y-54660800D02*
G75*
G03*
X89408000Y-54660800I-338878J0D01*
G01*
X88578478Y-55482278D02*
G75*
G03*
X88578478Y-55482278I-338878J0D01*
G01*
X87816478Y-56235600D02*
G75*
G03*
X87816478Y-56235600I-338878J0D01*
G01*
X87079878Y-57023000D02*
G75*
G03*
X87079878Y-57023000I-338878J0D01*
G01*
X92148193Y-51134836D02*
X90322400Y-52959000D01*
X83706752Y-59576277D02*
X85725000Y-57556400D01*
X81661715Y-64744962D02*
G75*
G02*
X86108098Y-57989945I32358885J-16458838D01*
G01*
X148742400Y-88315800D02*
X149656799Y-88010999D01*
X146050000Y-96342200D02*
X148742400Y-88315800D01*
X146467035Y-97097997D02*
X146050000Y-96342200D01*
X146467035Y-97097997D02*
G75*
G02*
X96545401Y-112826799I-32446435J15894197D01*
G01*
X96545400Y-111912400D02*
X96545400Y-112826800D01*
X89763600Y-106807000D02*
X96545400Y-111912400D01*
X88921833Y-107117133D02*
X89763600Y-106807000D01*
X88921833Y-107117133D02*
G75*
G02*
X78689201Y-73914001I25098767J25913333D01*
G01*
X79375000Y-74015600D02*
X78689200Y-73914000D01*
X82270600Y-65735200D02*
X79375000Y-74015600D01*
X81661714Y-64744962D02*
X82270600Y-65735200D01*
X90726958Y-53357848D02*
G75*
G02*
X121208799Y-45618401I23293642J-27845952D01*
G01*
X121310400Y-46431200D02*
X121208800Y-45618400D01*
X129413000Y-49250600D02*
X121310400Y-46431200D01*
X130255890Y-48758585D02*
X129413000Y-49250600D01*
X130255890Y-48758585D02*
G75*
G02*
X149656799Y-88010999I-16235290J-32445215D01*
G01*
X92148193Y-51134836D02*
X86760039Y-45746683D01*
X78318599Y-54188123D02*
X83706752Y-59576277D01*
X78318599Y-54188123D02*
X86760039Y-45746683D01*
X106591068Y-96266000D02*
G75*
G03*
X106591068Y-96266000I-2552668J0D01*
G01*
M02*
