%TF.GenerationSoftware,KiCad,Pcbnew,(5.99.0-10634-g5f56117be9)*%
%TF.CreationDate,2021-05-24T23:14:31+02:00*%
%TF.ProjectId,custom-pcb,63757374-6f6d-42d7-9063-622e6b696361,rev?*%
%TF.SameCoordinates,Original*%
%TF.FileFunction,Legend,Top*%
%TF.FilePolarity,Positive*%
%FSLAX46Y46*%
G04 Gerber Fmt 4.6, Leading zero omitted, Abs format (unit mm)*
G04 Created by KiCad (PCBNEW (5.99.0-10634-g5f56117be9)) date 2021-05-24 23:14:31*
%MOMM*%
%LPD*%
G01*
G04 APERTURE LIST*
%ADD10C,0.120000*%
%ADD11C,0.150000*%
%ADD12C,0.300000*%
%ADD13C,0.010000*%
G04 APERTURE END LIST*
D10*
X122262900Y-46736000D02*
X122389900Y-47498000D01*
X112395000Y-51879500D02*
X113157000Y-51752500D01*
X122783600Y-49720500D02*
X122834400Y-49999900D01*
X131397192Y-108184578D02*
G75*
G03*
X132334000Y-109601000I1317808J-146423D01*
G01*
X120142000Y-50990500D02*
G75*
G03*
X120142000Y-50990500I-254000J0D01*
G01*
X117856000Y-50482500D02*
X119634000Y-50863500D01*
X115570000Y-51295300D02*
X116332000Y-51168300D01*
X129666998Y-111379000D02*
G75*
G03*
X128730192Y-109824443I-1324819J261185D01*
G01*
X94488000Y-52044600D02*
X94361000Y-51282600D01*
X122491500Y-48158400D02*
X122618500Y-48920400D01*
X109143800Y-52463700D02*
X109905800Y-52336700D01*
X134032808Y-108477424D02*
G75*
G03*
X133096000Y-107061002I-1317808J146423D01*
G01*
X120026707Y-50355500D02*
G75*
G03*
X120026707Y-50355500I-265707J0D01*
G01*
X100990400Y-53936900D02*
X101752400Y-53809900D01*
X97459800Y-54571900D02*
X98221800Y-54444900D01*
X94742000Y-53467000D02*
X94615000Y-52705000D01*
X122783600Y-50012600D02*
X122402600Y-50088800D01*
X127017360Y-110856630D02*
G75*
G03*
X127954166Y-112411187I1324819J-261185D01*
G01*
X119507000Y-50482500D02*
X117983000Y-51498500D01*
X107391200Y-52781200D02*
X108153200Y-52654200D01*
X99314000Y-54241700D02*
X100076000Y-54114700D01*
X113969800Y-51600100D02*
X114731800Y-51473100D01*
X94996000Y-54965600D02*
X94869000Y-54203600D01*
X95859600Y-54851300D02*
X96621600Y-54724300D01*
X117195600Y-51015900D02*
X117957600Y-50888900D01*
X110744000Y-52184300D02*
X111506000Y-52057300D01*
X105791000Y-53073300D02*
X106553000Y-52946300D01*
X120827800Y-50380900D02*
X121589800Y-50253900D01*
X102590600Y-53657500D02*
X103352600Y-53530500D01*
X104216200Y-53378100D02*
X104978200Y-53251100D01*
D11*
X91374496Y-50984685D02*
X91293683Y-51442621D01*
X91697744Y-51307934D02*
X91132059Y-51873619D01*
X90916560Y-51658120D01*
X90889622Y-51577308D01*
X90889622Y-51523433D01*
X90916560Y-51442621D01*
X90997372Y-51361809D01*
X91078184Y-51334871D01*
X91132059Y-51334871D01*
X91212871Y-51361809D01*
X91428370Y-51577308D01*
X90835748Y-51038560D02*
X90647186Y-50849998D01*
X90862685Y-50472874D02*
X91132059Y-50742248D01*
X90566374Y-51307934D01*
X90297000Y-51038560D01*
X90620248Y-50284312D02*
X90566374Y-50176563D01*
X90431687Y-50041876D01*
X90350874Y-50014938D01*
X90297000Y-50014938D01*
X90216187Y-50041876D01*
X90162312Y-50095751D01*
X90135375Y-50176563D01*
X90135375Y-50230438D01*
X90162312Y-50311250D01*
X90243125Y-50445937D01*
X90270062Y-50526749D01*
X90270062Y-50580624D01*
X90243125Y-50661436D01*
X90189250Y-50715311D01*
X90108438Y-50742248D01*
X90054563Y-50742248D01*
X89973751Y-50715311D01*
X89839064Y-50580624D01*
X89785189Y-50472874D01*
X89785189Y-49988001D02*
X89596627Y-49799439D01*
X89812126Y-49422316D02*
X90081500Y-49691690D01*
X89515815Y-50257375D01*
X89246441Y-49988001D01*
X89084816Y-49826377D02*
X88761568Y-49503128D01*
X89488877Y-49099067D02*
X88923192Y-49664752D01*
X83785309Y-58466122D02*
X83731435Y-58358372D01*
X83731435Y-58304497D01*
X83758372Y-58223685D01*
X83839184Y-58142873D01*
X83919996Y-58115935D01*
X83973871Y-58115935D01*
X84054683Y-58142873D01*
X84270183Y-58358372D01*
X83704497Y-58924057D01*
X83515935Y-58735496D01*
X83488998Y-58654683D01*
X83488998Y-58600809D01*
X83515935Y-58519996D01*
X83569810Y-58466122D01*
X83650622Y-58439184D01*
X83704497Y-58439184D01*
X83785309Y-58466122D01*
X83973871Y-58654683D01*
X83031062Y-58250622D02*
X82923312Y-58142873D01*
X82896375Y-58062061D01*
X82896375Y-57954311D01*
X82977187Y-57819624D01*
X83165749Y-57631062D01*
X83300436Y-57550250D01*
X83408186Y-57550250D01*
X83488998Y-57577187D01*
X83596748Y-57684937D01*
X83623685Y-57765749D01*
X83623685Y-57873499D01*
X83542873Y-58008186D01*
X83354311Y-58196748D01*
X83219624Y-58277560D01*
X83111874Y-58277560D01*
X83031062Y-58250622D01*
X82438439Y-57658000D02*
X82330690Y-57550250D01*
X82303752Y-57469438D01*
X82303752Y-57361688D01*
X82384564Y-57227001D01*
X82573126Y-57038439D01*
X82707813Y-56957627D01*
X82815563Y-56957627D01*
X82896375Y-56984564D01*
X83004125Y-57092314D01*
X83031062Y-57173126D01*
X83031062Y-57280876D01*
X82950250Y-57415563D01*
X82761688Y-57604125D01*
X82627001Y-57684937D01*
X82519251Y-57684937D01*
X82438439Y-57658000D01*
X82034378Y-57253938D02*
X81711129Y-56930690D01*
X82438439Y-56526629D02*
X81872754Y-57092314D01*
X118085571Y-94969714D02*
X118085571Y-95303047D01*
X118609380Y-95303047D02*
X117609380Y-95303047D01*
X117609380Y-94826857D01*
X118323666Y-94493523D02*
X118323666Y-94017333D01*
X118609380Y-94588761D02*
X117609380Y-94255428D01*
X118609380Y-93922095D01*
X118609380Y-93588761D02*
X117609380Y-93588761D01*
X118609380Y-93017333D01*
X117609380Y-93017333D01*
X117609380Y-92636380D02*
X117609380Y-92017333D01*
X117990333Y-92350666D01*
X117990333Y-92207809D01*
X118037952Y-92112571D01*
X118085571Y-92064952D01*
X118180809Y-92017333D01*
X118418904Y-92017333D01*
X118514142Y-92064952D01*
X118561761Y-92112571D01*
X118609380Y-92207809D01*
X118609380Y-92493523D01*
X118561761Y-92588761D01*
X118514142Y-92636380D01*
X110165416Y-112275888D02*
X110225319Y-112905501D01*
X110555164Y-112365869D01*
X110961991Y-113016929D02*
X110927725Y-113038341D01*
X110837781Y-113046899D01*
X110782102Y-113034044D01*
X110705012Y-112986924D01*
X110662188Y-112918391D01*
X110647203Y-112856285D01*
X110645073Y-112738502D01*
X110664354Y-112654984D01*
X110717902Y-112550055D01*
X110758596Y-112500804D01*
X110827128Y-112457980D01*
X110917073Y-112449422D01*
X110972751Y-112462277D01*
X111049841Y-112509397D01*
X111071253Y-112543663D01*
X111546613Y-113151900D02*
X111512347Y-113173312D01*
X111422403Y-113181869D01*
X111366724Y-113169015D01*
X111289634Y-113121894D01*
X111246810Y-113053362D01*
X111231825Y-112991256D01*
X111229695Y-112873472D01*
X111248976Y-112789955D01*
X111302524Y-112685025D01*
X111343218Y-112635774D01*
X111411750Y-112592950D01*
X111501695Y-112584393D01*
X111557373Y-112597247D01*
X111634463Y-112644368D01*
X111655875Y-112678634D01*
X114971580Y-82486380D02*
X115971580Y-82248285D01*
X115257295Y-82057809D01*
X115971580Y-81867333D01*
X114971580Y-81629238D01*
X115971580Y-81248285D02*
X114971580Y-81248285D01*
X115447771Y-81248285D02*
X115447771Y-80676857D01*
X115971580Y-80676857D02*
X114971580Y-80676857D01*
X92416380Y-98996380D02*
X93416380Y-98758285D01*
X92702095Y-98567809D01*
X93416380Y-98377333D01*
X92416380Y-98139238D01*
X93416380Y-97758285D02*
X92416380Y-97758285D01*
X92892571Y-97758285D02*
X92892571Y-97186857D01*
X93416380Y-97186857D02*
X92416380Y-97186857D01*
X126111047Y-56840428D02*
X126872952Y-56840428D01*
X126492000Y-57221380D02*
X126492000Y-56459476D01*
X116053571Y-94969714D02*
X116053571Y-95303047D01*
X116577380Y-95303047D02*
X115577380Y-95303047D01*
X115577380Y-94826857D01*
X116291666Y-94493523D02*
X116291666Y-94017333D01*
X116577380Y-94588761D02*
X115577380Y-94255428D01*
X116577380Y-93922095D01*
X116577380Y-93588761D02*
X115577380Y-93588761D01*
X116577380Y-93017333D01*
X115577380Y-93017333D01*
X115672619Y-92588761D02*
X115625000Y-92541142D01*
X115577380Y-92445904D01*
X115577380Y-92207809D01*
X115625000Y-92112571D01*
X115672619Y-92064952D01*
X115767857Y-92017333D01*
X115863095Y-92017333D01*
X116005952Y-92064952D01*
X116577380Y-92636380D01*
X116577380Y-92017333D01*
X114021571Y-94969714D02*
X114021571Y-95303047D01*
X114545380Y-95303047D02*
X113545380Y-95303047D01*
X113545380Y-94826857D01*
X114259666Y-94493523D02*
X114259666Y-94017333D01*
X114545380Y-94588761D02*
X113545380Y-94255428D01*
X114545380Y-93922095D01*
X114545380Y-93588761D02*
X113545380Y-93588761D01*
X114545380Y-93017333D01*
X113545380Y-93017333D01*
X114545380Y-92017333D02*
X114545380Y-92588761D01*
X114545380Y-92303047D02*
X113545380Y-92303047D01*
X113688238Y-92398285D01*
X113783476Y-92493523D01*
X113831095Y-92588761D01*
D12*
X107208714Y-59223571D02*
X106494428Y-59223571D01*
X106494428Y-57723571D01*
X108280142Y-59152142D02*
X108137285Y-59223571D01*
X107851571Y-59223571D01*
X107708714Y-59152142D01*
X107637285Y-59009285D01*
X107637285Y-58437857D01*
X107708714Y-58295000D01*
X107851571Y-58223571D01*
X108137285Y-58223571D01*
X108280142Y-58295000D01*
X108351571Y-58437857D01*
X108351571Y-58580714D01*
X107637285Y-58723571D01*
X108851571Y-58223571D02*
X109208714Y-59223571D01*
X109565857Y-58223571D01*
X110137285Y-59223571D02*
X110137285Y-57723571D01*
X111065857Y-59223571D02*
X110923000Y-59152142D01*
X110851571Y-59080714D01*
X110780142Y-58937857D01*
X110780142Y-58509285D01*
X110851571Y-58366428D01*
X110923000Y-58295000D01*
X111065857Y-58223571D01*
X111280142Y-58223571D01*
X111423000Y-58295000D01*
X111494428Y-58366428D01*
X111565857Y-58509285D01*
X111565857Y-58937857D01*
X111494428Y-59080714D01*
X111423000Y-59152142D01*
X111280142Y-59223571D01*
X111065857Y-59223571D01*
X111994428Y-57723571D02*
X112851571Y-57723571D01*
X112423000Y-59223571D02*
X112423000Y-57723571D01*
X114494428Y-59223571D02*
X114494428Y-58223571D01*
X114494428Y-58509285D02*
X114565857Y-58366428D01*
X114637285Y-58295000D01*
X114780142Y-58223571D01*
X114923000Y-58223571D01*
X115994428Y-59152142D02*
X115851571Y-59223571D01*
X115565857Y-59223571D01*
X115423000Y-59152142D01*
X115351571Y-59009285D01*
X115351571Y-58437857D01*
X115423000Y-58295000D01*
X115565857Y-58223571D01*
X115851571Y-58223571D01*
X115994428Y-58295000D01*
X116065857Y-58437857D01*
X116065857Y-58580714D01*
X115351571Y-58723571D01*
X116565857Y-58223571D02*
X116923000Y-59223571D01*
X117280142Y-58223571D01*
X119280142Y-57723571D02*
X119423000Y-57723571D01*
X119565857Y-57795000D01*
X119637285Y-57866428D01*
X119708714Y-58009285D01*
X119780142Y-58295000D01*
X119780142Y-58652142D01*
X119708714Y-58937857D01*
X119637285Y-59080714D01*
X119565857Y-59152142D01*
X119423000Y-59223571D01*
X119280142Y-59223571D01*
X119137285Y-59152142D01*
X119065857Y-59080714D01*
X118994428Y-58937857D01*
X118923000Y-58652142D01*
X118923000Y-58295000D01*
X118994428Y-58009285D01*
X119065857Y-57866428D01*
X119137285Y-57795000D01*
X119280142Y-57723571D01*
X120423000Y-59080714D02*
X120494428Y-59152142D01*
X120423000Y-59223571D01*
X120351571Y-59152142D01*
X120423000Y-59080714D01*
X120423000Y-59223571D01*
X121065857Y-57866428D02*
X121137285Y-57795000D01*
X121280142Y-57723571D01*
X121637285Y-57723571D01*
X121780142Y-57795000D01*
X121851571Y-57866428D01*
X121923000Y-58009285D01*
X121923000Y-58152142D01*
X121851571Y-58366428D01*
X120994428Y-59223571D01*
X121923000Y-59223571D01*
X110137285Y-61638571D02*
X110137285Y-60138571D01*
X110137285Y-61567142D02*
X109994428Y-61638571D01*
X109708714Y-61638571D01*
X109565857Y-61567142D01*
X109494428Y-61495714D01*
X109423000Y-61352857D01*
X109423000Y-60924285D01*
X109494428Y-60781428D01*
X109565857Y-60710000D01*
X109708714Y-60638571D01*
X109994428Y-60638571D01*
X110137285Y-60710000D01*
X111423000Y-61567142D02*
X111280142Y-61638571D01*
X110994428Y-61638571D01*
X110851571Y-61567142D01*
X110780142Y-61424285D01*
X110780142Y-60852857D01*
X110851571Y-60710000D01*
X110994428Y-60638571D01*
X111280142Y-60638571D01*
X111423000Y-60710000D01*
X111494428Y-60852857D01*
X111494428Y-60995714D01*
X110780142Y-61138571D01*
X112137285Y-60638571D02*
X112137285Y-62138571D01*
X112137285Y-60710000D02*
X112280142Y-60638571D01*
X112565857Y-60638571D01*
X112708714Y-60710000D01*
X112780142Y-60781428D01*
X112851571Y-60924285D01*
X112851571Y-61352857D01*
X112780142Y-61495714D01*
X112708714Y-61567142D01*
X112565857Y-61638571D01*
X112280142Y-61638571D01*
X112137285Y-61567142D01*
X114137285Y-61638571D02*
X114137285Y-60852857D01*
X114065857Y-60710000D01*
X113923000Y-60638571D01*
X113637285Y-60638571D01*
X113494428Y-60710000D01*
X114137285Y-61567142D02*
X113994428Y-61638571D01*
X113637285Y-61638571D01*
X113494428Y-61567142D01*
X113423000Y-61424285D01*
X113423000Y-61281428D01*
X113494428Y-61138571D01*
X113637285Y-61067142D01*
X113994428Y-61067142D01*
X114137285Y-60995714D01*
X115494428Y-60638571D02*
X115494428Y-61638571D01*
X114851571Y-60638571D02*
X114851571Y-61424285D01*
X114923000Y-61567142D01*
X115065857Y-61638571D01*
X115280142Y-61638571D01*
X115423000Y-61567142D01*
X115494428Y-61495714D01*
X116208714Y-61495714D02*
X116280142Y-61567142D01*
X116208714Y-61638571D01*
X116137285Y-61567142D01*
X116208714Y-61495714D01*
X116208714Y-61638571D01*
X117494428Y-61567142D02*
X117351571Y-61638571D01*
X117065857Y-61638571D01*
X116923000Y-61567142D01*
X116851571Y-61424285D01*
X116851571Y-60852857D01*
X116923000Y-60710000D01*
X117065857Y-60638571D01*
X117351571Y-60638571D01*
X117494428Y-60710000D01*
X117565857Y-60852857D01*
X117565857Y-60995714D01*
X116851571Y-61138571D01*
X118851571Y-60638571D02*
X118851571Y-61638571D01*
X118208714Y-60638571D02*
X118208714Y-61424285D01*
X118280142Y-61567142D01*
X118423000Y-61638571D01*
X118637285Y-61638571D01*
X118780142Y-61567142D01*
X118851571Y-61495714D01*
X107673000Y-63910714D02*
X107601571Y-63982142D01*
X107387285Y-64053571D01*
X107244428Y-64053571D01*
X107030142Y-63982142D01*
X106887285Y-63839285D01*
X106815857Y-63696428D01*
X106744428Y-63410714D01*
X106744428Y-63196428D01*
X106815857Y-62910714D01*
X106887285Y-62767857D01*
X107030142Y-62625000D01*
X107244428Y-62553571D01*
X107387285Y-62553571D01*
X107601571Y-62625000D01*
X107673000Y-62696428D01*
X108315857Y-63267857D02*
X108815857Y-63267857D01*
X109030142Y-64053571D02*
X108315857Y-64053571D01*
X108315857Y-62553571D01*
X109030142Y-62553571D01*
X110530142Y-64053571D02*
X110030142Y-63339285D01*
X109673000Y-64053571D02*
X109673000Y-62553571D01*
X110244428Y-62553571D01*
X110387285Y-62625000D01*
X110458714Y-62696428D01*
X110530142Y-62839285D01*
X110530142Y-63053571D01*
X110458714Y-63196428D01*
X110387285Y-63267857D01*
X110244428Y-63339285D01*
X109673000Y-63339285D01*
X111173000Y-64053571D02*
X111173000Y-62553571D01*
X112030142Y-64053571D01*
X112030142Y-62553571D01*
X112744428Y-63482142D02*
X113887285Y-63482142D01*
X114887285Y-62553571D02*
X115173000Y-62553571D01*
X115315857Y-62625000D01*
X115458714Y-62767857D01*
X115530142Y-63053571D01*
X115530142Y-63553571D01*
X115458714Y-63839285D01*
X115315857Y-63982142D01*
X115173000Y-64053571D01*
X114887285Y-64053571D01*
X114744428Y-63982142D01*
X114601571Y-63839285D01*
X114530142Y-63553571D01*
X114530142Y-63053571D01*
X114601571Y-62767857D01*
X114744428Y-62625000D01*
X114887285Y-62553571D01*
X116173000Y-64053571D02*
X116173000Y-62553571D01*
X116173000Y-63267857D02*
X117030142Y-63267857D01*
X117030142Y-64053571D02*
X117030142Y-62553571D01*
X118458714Y-64053571D02*
X117744428Y-64053571D01*
X117744428Y-62553571D01*
X118958714Y-63482142D02*
X120101571Y-63482142D01*
X120744428Y-63982142D02*
X120958714Y-64053571D01*
X121315857Y-64053571D01*
X121458714Y-63982142D01*
X121530142Y-63910714D01*
X121601571Y-63767857D01*
X121601571Y-63625000D01*
X121530142Y-63482142D01*
X121458714Y-63410714D01*
X121315857Y-63339285D01*
X121030142Y-63267857D01*
X120887285Y-63196428D01*
X120815857Y-63125000D01*
X120744428Y-62982142D01*
X120744428Y-62839285D01*
X120815857Y-62696428D01*
X120887285Y-62625000D01*
X121030142Y-62553571D01*
X121387285Y-62553571D01*
X121601571Y-62625000D01*
D11*
X114935047Y-110104228D02*
X115696952Y-110104228D01*
X115316000Y-110485180D02*
X115316000Y-109723276D01*
X110490047Y-53538428D02*
X111251952Y-53538428D01*
X110871000Y-53919380D02*
X110871000Y-53157476D01*
X127653287Y-109913965D02*
X127683476Y-110061492D01*
X127666047Y-110126541D01*
X127607377Y-110215400D01*
X127483660Y-110286828D01*
X127377371Y-110293208D01*
X127312323Y-110275778D01*
X127223464Y-110217109D01*
X127032988Y-109887195D01*
X127899013Y-109387195D01*
X128065680Y-109675870D01*
X128072060Y-109782158D01*
X128054630Y-109847207D01*
X127995961Y-109936065D01*
X127913482Y-109983684D01*
X127807194Y-109990064D01*
X127742145Y-109972634D01*
X127653287Y-109913965D01*
X127486620Y-109625290D01*
X128494252Y-110418177D02*
X128589490Y-110583134D01*
X128595869Y-110689423D01*
X128561010Y-110819520D01*
X128419862Y-110955998D01*
X128131187Y-111122664D01*
X127942420Y-111176663D01*
X127812323Y-111141804D01*
X127723464Y-111083134D01*
X127628226Y-110918177D01*
X127621846Y-110811889D01*
X127656706Y-110681791D01*
X127797854Y-110545314D01*
X128086529Y-110378647D01*
X128275295Y-110324649D01*
X128405393Y-110359508D01*
X128494252Y-110418177D01*
X129018061Y-111325442D02*
X129113299Y-111490399D01*
X129119679Y-111596687D01*
X129084819Y-111726785D01*
X128943672Y-111863262D01*
X128654996Y-112029929D01*
X128466230Y-112083928D01*
X128336132Y-112049068D01*
X128247274Y-111990399D01*
X128152036Y-111825442D01*
X128145656Y-111719154D01*
X128180515Y-111589056D01*
X128321663Y-111452579D01*
X128610338Y-111285912D01*
X128799105Y-111231913D01*
X128929203Y-111266773D01*
X129018061Y-111325442D01*
X129375204Y-111944032D02*
X129660918Y-112438903D01*
X128652036Y-112691467D02*
X129518061Y-112191467D01*
X137628380Y-99250380D02*
X138628380Y-99012285D01*
X137914095Y-98821809D01*
X138628380Y-98631333D01*
X137628380Y-98393238D01*
X138628380Y-98012285D02*
X137628380Y-98012285D01*
X138104571Y-98012285D02*
X138104571Y-97440857D01*
X138628380Y-97440857D02*
X137628380Y-97440857D01*
X85209142Y-83764380D02*
X84875809Y-83288190D01*
X84637714Y-83764380D02*
X84637714Y-82764380D01*
X85018666Y-82764380D01*
X85113904Y-82812000D01*
X85161523Y-82859619D01*
X85209142Y-82954857D01*
X85209142Y-83097714D01*
X85161523Y-83192952D01*
X85113904Y-83240571D01*
X85018666Y-83288190D01*
X84637714Y-83288190D01*
X85637714Y-83240571D02*
X85971047Y-83240571D01*
X86113904Y-83764380D02*
X85637714Y-83764380D01*
X85637714Y-82764380D01*
X86113904Y-82764380D01*
X86542476Y-83764380D02*
X86542476Y-82764380D01*
X86780571Y-82764380D01*
X86923428Y-82812000D01*
X87018666Y-82907238D01*
X87066285Y-83002476D01*
X87113904Y-83192952D01*
X87113904Y-83335809D01*
X87066285Y-83526285D01*
X87018666Y-83621523D01*
X86923428Y-83716761D01*
X86780571Y-83764380D01*
X86542476Y-83764380D01*
X131511379Y-107527754D02*
X131710259Y-106981571D01*
X131183621Y-107059667D02*
X132002773Y-106486090D01*
X132221279Y-106798148D01*
X132236898Y-106903476D01*
X132225204Y-106969796D01*
X132174502Y-107063430D01*
X132057481Y-107145369D01*
X131952153Y-107160989D01*
X131885833Y-107149294D01*
X131792199Y-107098593D01*
X131573694Y-106786535D01*
X132186277Y-107578374D02*
X132377469Y-107851425D01*
X132030329Y-108268891D02*
X131757198Y-107878819D01*
X132576350Y-107305242D01*
X132849481Y-107695315D01*
X132287842Y-108553636D02*
X132330774Y-108697971D01*
X132467340Y-108893007D01*
X132560974Y-108943708D01*
X132627294Y-108955403D01*
X132732622Y-108939783D01*
X132810636Y-108885157D01*
X132861337Y-108791524D01*
X132873031Y-108725203D01*
X132857412Y-108619875D01*
X132787167Y-108436533D01*
X132771548Y-108331206D01*
X132783242Y-108264885D01*
X132833943Y-108171252D01*
X132911958Y-108116625D01*
X133017285Y-108101006D01*
X133083606Y-108112700D01*
X133177239Y-108163402D01*
X133313805Y-108358438D01*
X133356737Y-108502773D01*
X133251491Y-109099656D02*
X133442683Y-109372707D01*
X133095543Y-109790174D02*
X132822411Y-109400101D01*
X133641563Y-108826525D01*
X133914695Y-109216597D01*
X134078574Y-109450641D02*
X134406332Y-109918728D01*
X133423301Y-110258261D02*
X134242453Y-109684684D01*
X111989571Y-94969714D02*
X111989571Y-95303047D01*
X112513380Y-95303047D02*
X111513380Y-95303047D01*
X111513380Y-94826857D01*
X112227666Y-94493523D02*
X112227666Y-94017333D01*
X112513380Y-94588761D02*
X111513380Y-94255428D01*
X112513380Y-93922095D01*
X112513380Y-93588761D02*
X111513380Y-93588761D01*
X112513380Y-93017333D01*
X111513380Y-93017333D01*
X111513380Y-92350666D02*
X111513380Y-92255428D01*
X111561000Y-92160190D01*
X111608619Y-92112571D01*
X111703857Y-92064952D01*
X111894333Y-92017333D01*
X112132428Y-92017333D01*
X112322904Y-92064952D01*
X112418142Y-92112571D01*
X112465761Y-92160190D01*
X112513380Y-92255428D01*
X112513380Y-92350666D01*
X112465761Y-92445904D01*
X112418142Y-92493523D01*
X112322904Y-92541142D01*
X112132428Y-92588761D01*
X111894333Y-92588761D01*
X111703857Y-92541142D01*
X111608619Y-92493523D01*
X111561000Y-92445904D01*
X111513380Y-92350666D01*
X120396047Y-53538428D02*
X121157952Y-53538428D01*
X120777000Y-53919380D02*
X120777000Y-53157476D01*
X88614666Y-64524000D02*
X89090857Y-64524000D01*
X89043238Y-64381142D02*
X89900380Y-65666857D01*
X89805142Y-65571619D02*
X90567047Y-65571619D01*
X91090857Y-65857333D02*
X91043238Y-65809714D01*
X90948000Y-65666857D01*
X90900380Y-65571619D01*
X90852761Y-65428761D01*
X90805142Y-65190666D01*
X90805142Y-65000190D01*
X90852761Y-64762095D01*
X90900380Y-64619238D01*
X90948000Y-64524000D01*
X91043238Y-64381142D01*
X91090857Y-64333523D01*
X91471809Y-64524000D02*
X91567047Y-64857333D01*
X91662285Y-64476380D02*
X91757523Y-64762095D01*
X91995619Y-64524000D02*
X91995619Y-64809714D01*
X91948000Y-65000190D01*
X91852761Y-65190666D01*
X91757523Y-65285904D01*
X91614666Y-65381142D01*
X92424190Y-65857333D02*
X92471809Y-65809714D01*
X92567047Y-65666857D01*
X92614666Y-65571619D01*
X92662285Y-65428761D01*
X92709904Y-65190666D01*
X92709904Y-65000190D01*
X92662285Y-64762095D01*
X92614666Y-64619238D01*
X92567047Y-64524000D01*
X92471809Y-64381142D01*
X92424190Y-64333523D01*
X92948000Y-65571619D02*
X93709904Y-65571619D01*
X94662285Y-64428761D02*
X93805142Y-65714476D01*
X94805142Y-64524000D02*
X95281333Y-64524000D01*
X101473047Y-56713428D02*
X102234952Y-56713428D01*
X101854000Y-57094380D02*
X101854000Y-56332476D01*
X135699619Y-67016380D02*
X135937714Y-68016380D01*
X136128190Y-67302095D01*
X136318666Y-68016380D01*
X136556761Y-67016380D01*
X136937714Y-68016380D02*
X136937714Y-67016380D01*
X136937714Y-67492571D02*
X137509142Y-67492571D01*
X137509142Y-68016380D02*
X137509142Y-67016380D01*
X126111047Y-107767428D02*
X126872952Y-107767428D01*
X126492000Y-108148380D02*
X126492000Y-107386476D01*
X107794175Y-111777529D02*
X108128244Y-111854655D01*
X107826239Y-112400714D02*
X107961210Y-111816092D01*
X108267440Y-111886791D02*
X108522218Y-112561394D01*
X108657188Y-111976772D02*
X108132469Y-112471413D01*
X108744931Y-112612811D02*
X108879901Y-112028189D01*
X109019097Y-112060325D01*
X109096187Y-112107446D01*
X109139011Y-112175978D01*
X109153996Y-112238084D01*
X109156126Y-112355867D01*
X109136845Y-112439385D01*
X109083297Y-112544314D01*
X109042604Y-112593565D01*
X108974071Y-112636389D01*
X108884126Y-112644947D01*
X108744931Y-112612811D01*
X105467193Y-111807491D02*
X105336591Y-111484109D01*
X105133124Y-111730365D02*
X105268094Y-111145743D01*
X105490807Y-111197160D01*
X105540059Y-111237854D01*
X105561470Y-111272120D01*
X105576455Y-111334225D01*
X105557174Y-111417743D01*
X105516480Y-111466994D01*
X105482214Y-111488406D01*
X105420108Y-111503391D01*
X105197395Y-111451973D01*
X105797038Y-111267859D02*
X106051815Y-111942462D01*
X106186786Y-111357840D02*
X105662067Y-111852481D01*
X106274529Y-111993879D02*
X106409499Y-111409257D01*
X106548695Y-111441393D01*
X106625785Y-111488513D01*
X106668609Y-111557046D01*
X106683594Y-111619152D01*
X106685724Y-111736935D01*
X106666443Y-111820453D01*
X106612895Y-111925382D01*
X106572201Y-111974633D01*
X106503669Y-112017457D01*
X106413724Y-112026015D01*
X106274529Y-111993879D01*
X116842013Y-112695738D02*
X116780468Y-112678595D01*
X116696329Y-112694950D01*
X116617641Y-112739352D01*
X116572451Y-112806348D01*
X116555308Y-112867893D01*
X116549069Y-112985530D01*
X116565424Y-113069670D01*
X116615277Y-113176404D01*
X116654227Y-113227046D01*
X116721223Y-113272235D01*
X116810814Y-113283927D01*
X116866907Y-113273023D01*
X116945595Y-113228622D01*
X116968190Y-113195123D01*
X116930028Y-112998798D01*
X116817842Y-113020605D01*
X117231512Y-113202151D02*
X117117026Y-112613175D01*
X117568069Y-113136731D01*
X117453584Y-112547755D01*
X117848534Y-113082214D02*
X117734049Y-112493238D01*
X117874281Y-112465979D01*
X117963873Y-112477671D01*
X118030869Y-112522861D01*
X118069819Y-112573502D01*
X118119672Y-112680236D01*
X118136027Y-112764376D01*
X118129787Y-112882013D01*
X118112644Y-112943558D01*
X118067455Y-113010554D01*
X117988767Y-113054956D01*
X117848534Y-113082214D01*
X103127059Y-110729854D02*
X103077807Y-110689160D01*
X102994290Y-110669879D01*
X102904345Y-110678436D01*
X102835813Y-110721260D01*
X102795119Y-110770511D01*
X102741571Y-110875441D01*
X102722290Y-110958958D01*
X102724420Y-111076742D01*
X102739405Y-111138847D01*
X102782229Y-111207380D01*
X102859319Y-111254501D01*
X102914998Y-111267355D01*
X103004942Y-111258797D01*
X103039209Y-111237385D01*
X103084199Y-111042511D01*
X102972842Y-111016803D01*
X103276906Y-111350908D02*
X103411877Y-110766286D01*
X103610976Y-111428034D01*
X103745947Y-110843412D01*
X103889368Y-111492306D02*
X104024338Y-110907684D01*
X104163534Y-110939820D01*
X104240624Y-110986941D01*
X104283448Y-111055473D01*
X104298433Y-111117579D01*
X104300563Y-111235362D01*
X104281282Y-111318880D01*
X104227734Y-111423809D01*
X104187041Y-111473060D01*
X104118508Y-111515884D01*
X104028563Y-111524442D01*
X103889368Y-111492306D01*
X103505047Y-107564228D02*
X104266952Y-107564228D01*
X103886000Y-107945180D02*
X103886000Y-107183276D01*
X119689000Y-94826904D02*
X119641380Y-94922142D01*
X119641380Y-95065000D01*
X119689000Y-95207857D01*
X119784238Y-95303095D01*
X119879476Y-95350714D01*
X120069952Y-95398333D01*
X120212809Y-95398333D01*
X120403285Y-95350714D01*
X120498523Y-95303095D01*
X120593761Y-95207857D01*
X120641380Y-95065000D01*
X120641380Y-94969761D01*
X120593761Y-94826904D01*
X120546142Y-94779285D01*
X120212809Y-94779285D01*
X120212809Y-94969761D01*
X120641380Y-94350714D02*
X119641380Y-94350714D01*
X120641380Y-93779285D01*
X119641380Y-93779285D01*
X120641380Y-93303095D02*
X119641380Y-93303095D01*
X119641380Y-93065000D01*
X119689000Y-92922142D01*
X119784238Y-92826904D01*
X119879476Y-92779285D01*
X120069952Y-92731666D01*
X120212809Y-92731666D01*
X120403285Y-92779285D01*
X120498523Y-92826904D01*
X120593761Y-92922142D01*
X120641380Y-93065000D01*
X120641380Y-93303095D01*
X140881219Y-82815180D02*
X141119314Y-83815180D01*
X141309790Y-83100895D01*
X141500266Y-83815180D01*
X141738361Y-82815180D01*
X142119314Y-83815180D02*
X142119314Y-82815180D01*
X142119314Y-83291371D02*
X142690742Y-83291371D01*
X142690742Y-83815180D02*
X142690742Y-82815180D01*
X119350814Y-112775927D02*
X119236329Y-112186950D01*
X119628980Y-112110627D02*
X119741166Y-112088820D01*
X119802710Y-112105963D01*
X119869707Y-112151153D01*
X119919560Y-112257887D01*
X119957722Y-112454212D01*
X119951482Y-112571850D01*
X119906292Y-112638846D01*
X119855651Y-112677796D01*
X119743465Y-112699603D01*
X119681920Y-112682460D01*
X119614924Y-112637270D01*
X119565071Y-112530536D01*
X119526909Y-112334211D01*
X119533149Y-112216573D01*
X119578338Y-112149577D01*
X119628980Y-112110627D01*
X120246002Y-111990690D02*
X120302095Y-111979786D01*
X120363640Y-111996929D01*
X120397138Y-112019524D01*
X120436088Y-112070165D01*
X120485941Y-112176900D01*
X120513200Y-112317132D01*
X120506960Y-112434770D01*
X120489817Y-112496314D01*
X120467222Y-112529813D01*
X120416581Y-112568763D01*
X120360488Y-112579666D01*
X120298943Y-112562523D01*
X120265445Y-112539928D01*
X120226495Y-112489287D01*
X120176642Y-112382552D01*
X120149384Y-112242320D01*
X120155623Y-112124682D01*
X120172766Y-112063138D01*
X120195361Y-112029639D01*
X120246002Y-111990690D01*
X121597180Y-95398333D02*
X122597180Y-95065000D01*
X121597180Y-94731666D01*
X122501942Y-93826904D02*
X122549561Y-93874523D01*
X122597180Y-94017380D01*
X122597180Y-94112619D01*
X122549561Y-94255476D01*
X122454323Y-94350714D01*
X122359085Y-94398333D01*
X122168609Y-94445952D01*
X122025752Y-94445952D01*
X121835276Y-94398333D01*
X121740038Y-94350714D01*
X121644800Y-94255476D01*
X121597180Y-94112619D01*
X121597180Y-94017380D01*
X121644800Y-93874523D01*
X121692419Y-93826904D01*
X122501942Y-92826904D02*
X122549561Y-92874523D01*
X122597180Y-93017380D01*
X122597180Y-93112619D01*
X122549561Y-93255476D01*
X122454323Y-93350714D01*
X122359085Y-93398333D01*
X122168609Y-93445952D01*
X122025752Y-93445952D01*
X121835276Y-93398333D01*
X121740038Y-93350714D01*
X121644800Y-93255476D01*
X121597180Y-93112619D01*
X121597180Y-93017380D01*
X121644800Y-92874523D01*
X121692419Y-92826904D01*
X121858101Y-111929431D02*
X122054427Y-111891269D01*
X122198535Y-112183425D02*
X121918070Y-112237942D01*
X121803585Y-111648966D01*
X122084049Y-111594449D01*
X122450953Y-112134360D02*
X122336468Y-111545384D01*
X122787511Y-112068940D01*
X122673026Y-111479964D01*
%TO.C,D1*%
X111726933Y-88352380D02*
X111917409Y-88352380D01*
X112012647Y-88400000D01*
X112107885Y-88495238D01*
X112155504Y-88685714D01*
X112155504Y-89019047D01*
X112107885Y-89209523D01*
X112012647Y-89304761D01*
X111917409Y-89352380D01*
X111726933Y-89352380D01*
X111631695Y-89304761D01*
X111536457Y-89209523D01*
X111488838Y-89019047D01*
X111488838Y-88685714D01*
X111536457Y-88495238D01*
X111631695Y-88400000D01*
X111726933Y-88352380D01*
X112584076Y-88685714D02*
X112584076Y-89352380D01*
X112584076Y-88780952D02*
X112631695Y-88733333D01*
X112726933Y-88685714D01*
X112869790Y-88685714D01*
X112965028Y-88733333D01*
X113012647Y-88828571D01*
X113012647Y-89352380D01*
X114203123Y-88304761D02*
X113345980Y-89590476D01*
X114726933Y-88352380D02*
X114917409Y-88352380D01*
X115012647Y-88400000D01*
X115107885Y-88495238D01*
X115155504Y-88685714D01*
X115155504Y-89019047D01*
X115107885Y-89209523D01*
X115012647Y-89304761D01*
X114917409Y-89352380D01*
X114726933Y-89352380D01*
X114631695Y-89304761D01*
X114536457Y-89209523D01*
X114488838Y-89019047D01*
X114488838Y-88685714D01*
X114536457Y-88495238D01*
X114631695Y-88400000D01*
X114726933Y-88352380D01*
X115441219Y-88685714D02*
X115822171Y-88685714D01*
X115584076Y-89352380D02*
X115584076Y-88495238D01*
X115631695Y-88400000D01*
X115726933Y-88352380D01*
X115822171Y-88352380D01*
X116012647Y-88685714D02*
X116393600Y-88685714D01*
X116155504Y-89352380D02*
X116155504Y-88495238D01*
X116203123Y-88400000D01*
X116298361Y-88352380D01*
X116393600Y-88352380D01*
%TO.C,D5*%
X124855000Y-109418380D02*
X124855000Y-108418380D01*
%TO.C,D6*%
X108886666Y-55332380D02*
X108696190Y-55332380D01*
X108600952Y-55380000D01*
X108553333Y-55427619D01*
X108458095Y-55570476D01*
X108410476Y-55760952D01*
X108410476Y-56141904D01*
X108458095Y-56237142D01*
X108505714Y-56284761D01*
X108600952Y-56332380D01*
X108791428Y-56332380D01*
X108886666Y-56284761D01*
X108934285Y-56237142D01*
X108981904Y-56141904D01*
X108981904Y-55903809D01*
X108934285Y-55808571D01*
X108886666Y-55760952D01*
X108791428Y-55713333D01*
X108600952Y-55713333D01*
X108505714Y-55760952D01*
X108458095Y-55808571D01*
X108410476Y-55903809D01*
X109410476Y-56332380D02*
X109410476Y-55332380D01*
X109410476Y-55808571D02*
X109981904Y-55808571D01*
X109981904Y-56332380D02*
X109981904Y-55332380D01*
%TO.C,D7*%
X113426904Y-111704380D02*
X113426904Y-110704380D01*
X113903095Y-111704380D02*
X113903095Y-110704380D01*
%TO.C,D8*%
X101631809Y-109164380D02*
X101631809Y-108164380D01*
X102108000Y-109164380D02*
X102108000Y-108164380D01*
X102584190Y-109164380D02*
X102584190Y-108164380D01*
%TO.C,D9*%
X99583952Y-59062952D02*
X99488714Y-59015333D01*
X99441095Y-58967714D01*
X99393476Y-58872476D01*
X99393476Y-58824857D01*
X99441095Y-58729619D01*
X99488714Y-58682000D01*
X99583952Y-58634380D01*
X99774428Y-58634380D01*
X99869666Y-58682000D01*
X99917285Y-58729619D01*
X99964904Y-58824857D01*
X99964904Y-58872476D01*
X99917285Y-58967714D01*
X99869666Y-59015333D01*
X99774428Y-59062952D01*
X99583952Y-59062952D01*
X99488714Y-59110571D01*
X99441095Y-59158190D01*
X99393476Y-59253428D01*
X99393476Y-59443904D01*
X99441095Y-59539142D01*
X99488714Y-59586761D01*
X99583952Y-59634380D01*
X99774428Y-59634380D01*
X99869666Y-59586761D01*
X99917285Y-59539142D01*
X99964904Y-59443904D01*
X99964904Y-59253428D01*
X99917285Y-59158190D01*
X99869666Y-59110571D01*
X99774428Y-59062952D01*
X100393476Y-59634380D02*
X100393476Y-58634380D01*
X100393476Y-59110571D02*
X100964904Y-59110571D01*
X100964904Y-59634380D02*
X100964904Y-58634380D01*
%TO.C,D10*%
X127460476Y-58729619D02*
X127508095Y-58682000D01*
X127603333Y-58634380D01*
X127841428Y-58634380D01*
X127936666Y-58682000D01*
X127984285Y-58729619D01*
X128031904Y-58824857D01*
X128031904Y-58920095D01*
X127984285Y-59062952D01*
X127412857Y-59634380D01*
X128031904Y-59634380D01*
X128460476Y-59634380D02*
X128460476Y-58634380D01*
X128460476Y-59110571D02*
X129031904Y-59110571D01*
X129031904Y-59634380D02*
X129031904Y-58634380D01*
%TO.C,D12*%
X118792666Y-55665714D02*
X118792666Y-56332380D01*
X118554571Y-55284761D02*
X118316476Y-55999047D01*
X118935523Y-55999047D01*
X119316476Y-56332380D02*
X119316476Y-55332380D01*
X119316476Y-55808571D02*
X119887904Y-55808571D01*
X119887904Y-56332380D02*
X119887904Y-55332380D01*
%TO.C,SW4*%
X132961476Y-105084571D02*
X132628142Y-105084571D01*
X132628142Y-105608380D02*
X132628142Y-104608380D01*
X133104333Y-104608380D01*
X133913857Y-105608380D02*
X133913857Y-105084571D01*
X133866238Y-104989333D01*
X133771000Y-104941714D01*
X133580523Y-104941714D01*
X133485285Y-104989333D01*
X133913857Y-105560761D02*
X133818619Y-105608380D01*
X133580523Y-105608380D01*
X133485285Y-105560761D01*
X133437666Y-105465523D01*
X133437666Y-105370285D01*
X133485285Y-105275047D01*
X133580523Y-105227428D01*
X133818619Y-105227428D01*
X133913857Y-105179809D01*
X134390047Y-104941714D02*
X134390047Y-105608380D01*
X134390047Y-105036952D02*
X134437666Y-104989333D01*
X134532904Y-104941714D01*
X134675761Y-104941714D01*
X134771000Y-104989333D01*
X134818619Y-105084571D01*
X134818619Y-105608380D01*
X136009095Y-105560761D02*
X136104333Y-105608380D01*
X136294809Y-105608380D01*
X136390047Y-105560761D01*
X136437666Y-105465523D01*
X136437666Y-105417904D01*
X136390047Y-105322666D01*
X136294809Y-105275047D01*
X136151952Y-105275047D01*
X136056714Y-105227428D01*
X136009095Y-105132190D01*
X136009095Y-105084571D01*
X136056714Y-104989333D01*
X136151952Y-104941714D01*
X136294809Y-104941714D01*
X136390047Y-104989333D01*
X136866238Y-104941714D02*
X136866238Y-105941714D01*
X136866238Y-104989333D02*
X136961476Y-104941714D01*
X137151952Y-104941714D01*
X137247190Y-104989333D01*
X137294809Y-105036952D01*
X137342428Y-105132190D01*
X137342428Y-105417904D01*
X137294809Y-105513142D01*
X137247190Y-105560761D01*
X137151952Y-105608380D01*
X136961476Y-105608380D01*
X136866238Y-105560761D01*
X138151952Y-105560761D02*
X138056714Y-105608380D01*
X137866238Y-105608380D01*
X137771000Y-105560761D01*
X137723380Y-105465523D01*
X137723380Y-105084571D01*
X137771000Y-104989333D01*
X137866238Y-104941714D01*
X138056714Y-104941714D01*
X138151952Y-104989333D01*
X138199571Y-105084571D01*
X138199571Y-105179809D01*
X137723380Y-105275047D01*
X139009095Y-105560761D02*
X138913857Y-105608380D01*
X138723380Y-105608380D01*
X138628142Y-105560761D01*
X138580523Y-105465523D01*
X138580523Y-105084571D01*
X138628142Y-104989333D01*
X138723380Y-104941714D01*
X138913857Y-104941714D01*
X139009095Y-104989333D01*
X139056714Y-105084571D01*
X139056714Y-105179809D01*
X138580523Y-105275047D01*
X139913857Y-105608380D02*
X139913857Y-104608380D01*
X139913857Y-105560761D02*
X139818619Y-105608380D01*
X139628142Y-105608380D01*
X139532904Y-105560761D01*
X139485285Y-105513142D01*
X139437666Y-105417904D01*
X139437666Y-105132190D01*
X139485285Y-105036952D01*
X139532904Y-104989333D01*
X139628142Y-104941714D01*
X139818619Y-104941714D01*
X139913857Y-104989333D01*
%TO.C,SW5*%
X137890761Y-90114380D02*
X137890761Y-89114380D01*
X138462190Y-90114380D01*
X138462190Y-89114380D01*
X138938380Y-90114380D02*
X138938380Y-89447714D01*
X138938380Y-89114380D02*
X138890761Y-89162000D01*
X138938380Y-89209619D01*
X138986000Y-89162000D01*
X138938380Y-89114380D01*
X138938380Y-89209619D01*
X139843142Y-89447714D02*
X139843142Y-90257238D01*
X139795523Y-90352476D01*
X139747904Y-90400095D01*
X139652666Y-90447714D01*
X139509809Y-90447714D01*
X139414571Y-90400095D01*
X139843142Y-90066761D02*
X139747904Y-90114380D01*
X139557428Y-90114380D01*
X139462190Y-90066761D01*
X139414571Y-90019142D01*
X139366952Y-89923904D01*
X139366952Y-89638190D01*
X139414571Y-89542952D01*
X139462190Y-89495333D01*
X139557428Y-89447714D01*
X139747904Y-89447714D01*
X139843142Y-89495333D01*
X140319333Y-90114380D02*
X140319333Y-89114380D01*
X140747904Y-90114380D02*
X140747904Y-89590571D01*
X140700285Y-89495333D01*
X140605047Y-89447714D01*
X140462190Y-89447714D01*
X140366952Y-89495333D01*
X140319333Y-89542952D01*
X141081238Y-89447714D02*
X141462190Y-89447714D01*
X141224095Y-89114380D02*
X141224095Y-89971523D01*
X141271714Y-90066761D01*
X141366952Y-90114380D01*
X141462190Y-90114380D01*
X142557428Y-90114380D02*
X142557428Y-89447714D01*
X142557428Y-89542952D02*
X142605047Y-89495333D01*
X142700285Y-89447714D01*
X142843142Y-89447714D01*
X142938380Y-89495333D01*
X142986000Y-89590571D01*
X142986000Y-90114380D01*
X142986000Y-89590571D02*
X143033619Y-89495333D01*
X143128857Y-89447714D01*
X143271714Y-89447714D01*
X143366952Y-89495333D01*
X143414571Y-89590571D01*
X143414571Y-90114380D01*
X144033619Y-90114380D02*
X143938380Y-90066761D01*
X143890761Y-90019142D01*
X143843142Y-89923904D01*
X143843142Y-89638190D01*
X143890761Y-89542952D01*
X143938380Y-89495333D01*
X144033619Y-89447714D01*
X144176476Y-89447714D01*
X144271714Y-89495333D01*
X144319333Y-89542952D01*
X144366952Y-89638190D01*
X144366952Y-89923904D01*
X144319333Y-90019142D01*
X144271714Y-90066761D01*
X144176476Y-90114380D01*
X144033619Y-90114380D01*
X145224095Y-90114380D02*
X145224095Y-89114380D01*
X145224095Y-90066761D02*
X145128857Y-90114380D01*
X144938380Y-90114380D01*
X144843142Y-90066761D01*
X144795523Y-90019142D01*
X144747904Y-89923904D01*
X144747904Y-89638190D01*
X144795523Y-89542952D01*
X144843142Y-89495333D01*
X144938380Y-89447714D01*
X145128857Y-89447714D01*
X145224095Y-89495333D01*
X146081238Y-90066761D02*
X145986000Y-90114380D01*
X145795523Y-90114380D01*
X145700285Y-90066761D01*
X145652666Y-89971523D01*
X145652666Y-89590571D01*
X145700285Y-89495333D01*
X145795523Y-89447714D01*
X145986000Y-89447714D01*
X146081238Y-89495333D01*
X146128857Y-89590571D01*
X146128857Y-89685809D01*
X145652666Y-89781047D01*
%TO.C,SW6*%
X134875828Y-72604380D02*
X135447257Y-72604380D01*
X135161542Y-73604380D02*
X135161542Y-72604380D01*
X135780590Y-73604380D02*
X135780590Y-72937714D01*
X135780590Y-72604380D02*
X135732971Y-72652000D01*
X135780590Y-72699619D01*
X135828209Y-72652000D01*
X135780590Y-72604380D01*
X135780590Y-72699619D01*
X136256780Y-73604380D02*
X136256780Y-72937714D01*
X136256780Y-73032952D02*
X136304400Y-72985333D01*
X136399638Y-72937714D01*
X136542495Y-72937714D01*
X136637733Y-72985333D01*
X136685352Y-73080571D01*
X136685352Y-73604380D01*
X136685352Y-73080571D02*
X136732971Y-72985333D01*
X136828209Y-72937714D01*
X136971066Y-72937714D01*
X137066304Y-72985333D01*
X137113923Y-73080571D01*
X137113923Y-73604380D01*
X137971066Y-73556761D02*
X137875828Y-73604380D01*
X137685352Y-73604380D01*
X137590114Y-73556761D01*
X137542495Y-73461523D01*
X137542495Y-73080571D01*
X137590114Y-72985333D01*
X137685352Y-72937714D01*
X137875828Y-72937714D01*
X137971066Y-72985333D01*
X138018685Y-73080571D01*
X138018685Y-73175809D01*
X137542495Y-73271047D01*
X138447257Y-73604380D02*
X138447257Y-72937714D01*
X138447257Y-73128190D02*
X138494876Y-73032952D01*
X138542495Y-72985333D01*
X138637733Y-72937714D01*
X138732971Y-72937714D01*
%TO.C,SW7*%
X84344047Y-88828571D02*
X84010714Y-88828571D01*
X84010714Y-89352380D02*
X84010714Y-88352380D01*
X84486904Y-88352380D01*
X84867857Y-89352380D02*
X84867857Y-88685714D01*
X84867857Y-88352380D02*
X84820238Y-88400000D01*
X84867857Y-88447619D01*
X84915476Y-88400000D01*
X84867857Y-88352380D01*
X84867857Y-88447619D01*
X85486904Y-89352380D02*
X85391666Y-89304761D01*
X85344047Y-89209523D01*
X85344047Y-88352380D01*
X85725000Y-88685714D02*
X86105952Y-88685714D01*
X85867857Y-88352380D02*
X85867857Y-89209523D01*
X85915476Y-89304761D01*
X86010714Y-89352380D01*
X86105952Y-89352380D01*
X86820238Y-89304761D02*
X86725000Y-89352380D01*
X86534523Y-89352380D01*
X86439285Y-89304761D01*
X86391666Y-89209523D01*
X86391666Y-88828571D01*
X86439285Y-88733333D01*
X86534523Y-88685714D01*
X86725000Y-88685714D01*
X86820238Y-88733333D01*
X86867857Y-88828571D01*
X86867857Y-88923809D01*
X86391666Y-89019047D01*
X87296428Y-89352380D02*
X87296428Y-88685714D01*
X87296428Y-88876190D02*
X87344047Y-88780952D01*
X87391666Y-88733333D01*
X87486904Y-88685714D01*
X87582142Y-88685714D01*
%TO.C,SW9*%
X89955809Y-105608380D02*
X89479619Y-105608380D01*
X89479619Y-104608380D01*
X90432000Y-105608380D02*
X90336761Y-105560761D01*
X90289142Y-105513142D01*
X90241523Y-105417904D01*
X90241523Y-105132190D01*
X90289142Y-105036952D01*
X90336761Y-104989333D01*
X90432000Y-104941714D01*
X90574857Y-104941714D01*
X90670095Y-104989333D01*
X90717714Y-105036952D01*
X90765333Y-105132190D01*
X90765333Y-105417904D01*
X90717714Y-105513142D01*
X90670095Y-105560761D01*
X90574857Y-105608380D01*
X90432000Y-105608380D01*
X91622476Y-105560761D02*
X91527238Y-105608380D01*
X91336761Y-105608380D01*
X91241523Y-105560761D01*
X91193904Y-105513142D01*
X91146285Y-105417904D01*
X91146285Y-105132190D01*
X91193904Y-105036952D01*
X91241523Y-104989333D01*
X91336761Y-104941714D01*
X91527238Y-104941714D01*
X91622476Y-104989333D01*
X92051047Y-105608380D02*
X92051047Y-104608380D01*
X92146285Y-105227428D02*
X92432000Y-105608380D01*
X92432000Y-104941714D02*
X92051047Y-105322666D01*
%TO.C,SW8*%
X90574952Y-72969380D02*
X90098761Y-72969380D01*
X90098761Y-71969380D01*
X90908285Y-72969380D02*
X90908285Y-72302714D01*
X90908285Y-71969380D02*
X90860666Y-72017000D01*
X90908285Y-72064619D01*
X90955904Y-72017000D01*
X90908285Y-71969380D01*
X90908285Y-72064619D01*
X91813047Y-72302714D02*
X91813047Y-73112238D01*
X91765428Y-73207476D01*
X91717809Y-73255095D01*
X91622571Y-73302714D01*
X91479714Y-73302714D01*
X91384476Y-73255095D01*
X91813047Y-72921761D02*
X91717809Y-72969380D01*
X91527333Y-72969380D01*
X91432095Y-72921761D01*
X91384476Y-72874142D01*
X91336857Y-72778904D01*
X91336857Y-72493190D01*
X91384476Y-72397952D01*
X91432095Y-72350333D01*
X91527333Y-72302714D01*
X91717809Y-72302714D01*
X91813047Y-72350333D01*
X92289238Y-72969380D02*
X92289238Y-71969380D01*
X92717809Y-72969380D02*
X92717809Y-72445571D01*
X92670190Y-72350333D01*
X92574952Y-72302714D01*
X92432095Y-72302714D01*
X92336857Y-72350333D01*
X92289238Y-72397952D01*
X93051142Y-72302714D02*
X93432095Y-72302714D01*
X93194000Y-71969380D02*
X93194000Y-72826523D01*
X93241619Y-72921761D01*
X93336857Y-72969380D01*
X93432095Y-72969380D01*
%TO.C,*%
D10*
%TO.C,D1*%
X115387800Y-78943200D02*
X112297800Y-78943200D01*
X113842338Y-84493200D02*
G75*
G03*
X115387630Y-78943200I462J2990000D01*
G01*
X113843262Y-84493200D02*
G75*
G02*
X112297970Y-78943200I-462J2990000D01*
G01*
X116342800Y-81503200D02*
G75*
G03*
X116342800Y-81503200I-2500000J0D01*
G01*
%TO.C,D2*%
X144424400Y-83206000D02*
X144424400Y-80116000D01*
X138874400Y-81660538D02*
G75*
G03*
X144424400Y-83205830I2990000J-462D01*
G01*
X138874400Y-81661462D02*
G75*
G02*
X144424400Y-80116170I2990000J462D01*
G01*
X144364400Y-81661000D02*
G75*
G03*
X144364400Y-81661000I-2500000J0D01*
G01*
%TO.C,D3*%
X92731000Y-95123000D02*
X89641000Y-95123000D01*
X91186462Y-100673000D02*
G75*
G02*
X89641170Y-95123000I-462J2990000D01*
G01*
X91185538Y-100673000D02*
G75*
G03*
X92730830Y-95123000I462J2990000D01*
G01*
X93686000Y-97683000D02*
G75*
G03*
X93686000Y-97683000I-2500000J0D01*
G01*
%TO.C,D4*%
X139065000Y-67204000D02*
X139065000Y-64114000D01*
X133515000Y-65658538D02*
G75*
G03*
X139065000Y-67203830I2990000J-462D01*
G01*
X133515000Y-65659462D02*
G75*
G02*
X139065000Y-64114170I2990000J462D01*
G01*
X139005000Y-65659000D02*
G75*
G03*
X139005000Y-65659000I-2500000J0D01*
G01*
%TO.C,D5*%
X125655000Y-106326000D02*
X123195000Y-106326000D01*
X123195000Y-107796000D02*
X125655000Y-107796000D01*
X123195000Y-106326000D02*
X123195000Y-107796000D01*
%TO.C,D6*%
X107560000Y-54938600D02*
X110020000Y-54938600D01*
X107560000Y-53468600D02*
X107560000Y-54938600D01*
X110020000Y-53468600D02*
X107560000Y-53468600D01*
%TO.C,D7*%
X114465000Y-108637400D02*
X112005000Y-108637400D01*
X112005000Y-108637400D02*
X112005000Y-110107400D01*
X112005000Y-110107400D02*
X114465000Y-110107400D01*
%TO.C,D8*%
X103049000Y-106072000D02*
X100589000Y-106072000D01*
X100589000Y-106072000D02*
X100589000Y-107542000D01*
X100589000Y-107542000D02*
X103049000Y-107542000D01*
%TO.C,D9*%
X98543000Y-58139000D02*
X101003000Y-58139000D01*
X98543000Y-56669000D02*
X98543000Y-58139000D01*
X101003000Y-56669000D02*
X98543000Y-56669000D01*
%TO.C,D10*%
X129930000Y-56796000D02*
X127470000Y-56796000D01*
X129930000Y-58266000D02*
X129930000Y-56796000D01*
X127470000Y-58266000D02*
X129930000Y-58266000D01*
%TO.C,D11*%
X88261200Y-82977400D02*
X88261200Y-79887400D01*
X82711200Y-81432862D02*
G75*
G02*
X88261200Y-79887570I2990000J462D01*
G01*
X82711200Y-81431938D02*
G75*
G03*
X88261200Y-82977230I2990000J-462D01*
G01*
X88201200Y-81432400D02*
G75*
G03*
X88201200Y-81432400I-2500000J0D01*
G01*
%TO.C,D12*%
X117466000Y-54964000D02*
X119926000Y-54964000D01*
X119926000Y-53494000D02*
X117466000Y-53494000D01*
X117466000Y-53494000D02*
X117466000Y-54964000D01*
%TO.C,SW3*%
X119342800Y-81483200D02*
G75*
G03*
X119342800Y-81483200I-5500000J0D01*
G01*
%TO.C,SW4*%
X141868800Y-97942400D02*
G75*
G03*
X141868800Y-97942400I-5500000J0D01*
G01*
%TO.C,SW5*%
X147413600Y-81838800D02*
G75*
G03*
X147413600Y-81838800I-5500000J0D01*
G01*
%TO.C,SW6*%
X142253600Y-65481200D02*
G75*
G03*
X142253600Y-65481200I-5500000J0D01*
G01*
%TO.C,SW7*%
X91221200Y-81432400D02*
G75*
G03*
X91221200Y-81432400I-5500000J0D01*
G01*
%TO.C,SW9*%
X96584400Y-97485200D02*
G75*
G03*
X96584400Y-97485200I-5500000J0D01*
G01*
%TO.C,D13*%
X134823800Y-100711000D02*
X137913800Y-100711000D01*
X136369262Y-95161000D02*
G75*
G03*
X134823970Y-100711000I-462J-2990000D01*
G01*
X136368338Y-95161000D02*
G75*
G02*
X137913630Y-100711000I462J-2990000D01*
G01*
X138868800Y-98151000D02*
G75*
G03*
X138868800Y-98151000I-2500000J0D01*
G01*
%TO.C,J2*%
X110650768Y-113578461D02*
X111946680Y-113877646D01*
X101930156Y-111565149D02*
X101331786Y-114156973D01*
X108814948Y-115884597D02*
X101331786Y-114156973D01*
X111946680Y-113877646D02*
X111647495Y-115173558D01*
X109413318Y-113292773D02*
X101930156Y-111565149D01*
X109413318Y-113292773D02*
X108814948Y-115884597D01*
%TO.C,J4*%
X122555224Y-112740436D02*
X123860788Y-112486660D01*
X123860788Y-112486660D02*
X124114564Y-113792224D01*
X121816109Y-115593892D02*
X116770546Y-116574650D01*
X116262994Y-113963522D02*
X116770546Y-116574650D01*
X121308558Y-112982763D02*
X121816109Y-115593892D01*
X121308558Y-112982763D02*
X116262994Y-113963522D01*
D11*
%TO.C,SW10*%
X83857680Y-49149000D02*
X85979000Y-47027680D01*
X88100320Y-49149000D02*
X85979000Y-47027680D01*
X83857680Y-49149000D02*
X85979000Y-51270320D01*
X85979000Y-51270320D02*
X88100320Y-49149000D01*
%TO.C,SW11*%
X84163320Y-53086000D02*
X82042000Y-50964680D01*
X79920680Y-53086000D02*
X82042000Y-50964680D01*
X79920680Y-53086000D02*
X82042000Y-55207320D01*
X82042000Y-55207320D02*
X84163320Y-53086000D01*
D10*
%TO.C,SW8*%
X97244800Y-65024000D02*
G75*
G03*
X97244800Y-65024000I-5500000J0D01*
G01*
D13*
%TO.C,*%
X100487480Y-83756500D02*
X100667820Y-83672680D01*
X100667820Y-83672680D02*
X100843080Y-83573620D01*
X100843080Y-83573620D02*
X101721920Y-84289900D01*
X101721920Y-84289900D02*
X102323900Y-83687920D01*
X102323900Y-83687920D02*
X101607620Y-82809080D01*
X101607620Y-82809080D02*
X101734620Y-82575400D01*
X101734620Y-82575400D02*
X101836220Y-82329020D01*
X101836220Y-82329020D02*
X101912420Y-82075020D01*
X101912420Y-82075020D02*
X103040180Y-81958180D01*
X103040180Y-81958180D02*
X103040180Y-81109820D01*
X103040180Y-81109820D02*
X101912420Y-80992980D01*
X101912420Y-80992980D02*
X101836220Y-80738980D01*
X101836220Y-80738980D02*
X101734620Y-80492600D01*
X101734620Y-80492600D02*
X101607620Y-80258920D01*
X101607620Y-80258920D02*
X102323900Y-79380080D01*
X102323900Y-79380080D02*
X101721920Y-78778100D01*
X101721920Y-78778100D02*
X100843080Y-79494380D01*
X100843080Y-79494380D02*
X100609400Y-79367380D01*
X100609400Y-79367380D02*
X100363020Y-79265780D01*
X100363020Y-79265780D02*
X100109020Y-79189580D01*
X100109020Y-79189580D02*
X99992180Y-78061820D01*
X99992180Y-78061820D02*
X99143820Y-78061820D01*
X99143820Y-78061820D02*
X99026980Y-79189580D01*
X99026980Y-79189580D02*
X98772980Y-79265780D01*
X98772980Y-79265780D02*
X98526600Y-79367380D01*
X98526600Y-79367380D02*
X98292920Y-79494380D01*
X98292920Y-79494380D02*
X97414080Y-78778100D01*
X97414080Y-78778100D02*
X96812100Y-79380080D01*
X96812100Y-79380080D02*
X97528380Y-80258920D01*
X97528380Y-80258920D02*
X97401380Y-80492600D01*
X97401380Y-80492600D02*
X97299780Y-80738980D01*
X97299780Y-80738980D02*
X97223580Y-80992980D01*
X97223580Y-80992980D02*
X96095820Y-81109820D01*
X96095820Y-81109820D02*
X96095820Y-81958180D01*
X96095820Y-81958180D02*
X97223580Y-82075020D01*
X97223580Y-82075020D02*
X97299780Y-82329020D01*
X97299780Y-82329020D02*
X97401380Y-82575400D01*
X97401380Y-82575400D02*
X97528380Y-82809080D01*
X97528380Y-82809080D02*
X96812100Y-83687920D01*
X96812100Y-83687920D02*
X97414080Y-84289900D01*
X97414080Y-84289900D02*
X98292920Y-83573620D01*
X98292920Y-83573620D02*
X98468180Y-83672680D01*
X98468180Y-83672680D02*
X98648520Y-83756500D01*
X98648520Y-83756500D02*
X99151440Y-82542380D01*
X99151440Y-82542380D02*
X98986340Y-82458560D01*
X98986340Y-82458560D02*
X98841560Y-82349340D01*
X98841560Y-82349340D02*
X98714560Y-82214720D01*
X98714560Y-82214720D02*
X98612960Y-82062320D01*
X98612960Y-82062320D02*
X98536760Y-81894680D01*
X98536760Y-81894680D02*
X98491040Y-81716880D01*
X98491040Y-81716880D02*
X98475800Y-81534000D01*
X98475800Y-81534000D02*
X98493580Y-81330800D01*
X98493580Y-81330800D02*
X98552000Y-81135220D01*
X98552000Y-81135220D02*
X98643440Y-80952340D01*
X98643440Y-80952340D02*
X98770440Y-80789780D01*
X98770440Y-80789780D02*
X98922840Y-80652620D01*
X98922840Y-80652620D02*
X99100640Y-80548480D01*
X99100640Y-80548480D02*
X99291140Y-80477360D01*
X99291140Y-80477360D02*
X99494340Y-80444340D01*
X99494340Y-80444340D02*
X99697540Y-80449420D01*
X99697540Y-80449420D02*
X99898200Y-80492600D01*
X99898200Y-80492600D02*
X100086160Y-80573880D01*
X100086160Y-80573880D02*
X100256340Y-80685640D01*
X100256340Y-80685640D02*
X100403660Y-80830420D01*
X100403660Y-80830420D02*
X100520500Y-80998060D01*
X100520500Y-80998060D02*
X100604320Y-81186020D01*
X100604320Y-81186020D02*
X100650040Y-81386680D01*
X100650040Y-81386680D02*
X100660200Y-81589880D01*
X100660200Y-81589880D02*
X100629720Y-81790540D01*
X100629720Y-81790540D02*
X100561140Y-81986120D01*
X100561140Y-81986120D02*
X100459540Y-82163920D01*
X100459540Y-82163920D02*
X100327460Y-82318860D01*
X100327460Y-82318860D02*
X100167440Y-82448400D01*
X100167440Y-82448400D02*
X99984560Y-82542380D01*
X99984560Y-82542380D02*
X100487480Y-83756500D01*
G36*
X100109020Y-79189580D02*
G01*
X100363020Y-79265780D01*
X100609400Y-79367380D01*
X100843080Y-79494380D01*
X101721920Y-78778100D01*
X102323900Y-79380080D01*
X101607620Y-80258920D01*
X101734620Y-80492600D01*
X101836220Y-80738980D01*
X101912420Y-80992980D01*
X103040180Y-81109820D01*
X103040180Y-81958180D01*
X101912420Y-82075020D01*
X101836220Y-82329020D01*
X101734620Y-82575400D01*
X101607620Y-82809080D01*
X102323900Y-83687920D01*
X101721920Y-84289900D01*
X100843080Y-83573620D01*
X100667820Y-83672680D01*
X100487480Y-83756500D01*
X99984560Y-82542380D01*
X100167440Y-82448400D01*
X100327460Y-82318860D01*
X100459540Y-82163920D01*
X100561140Y-81986120D01*
X100629720Y-81790540D01*
X100660200Y-81589880D01*
X100650040Y-81386680D01*
X100604320Y-81186020D01*
X100520500Y-80998060D01*
X100403660Y-80830420D01*
X100256340Y-80685640D01*
X100086160Y-80573880D01*
X99898200Y-80492600D01*
X99697540Y-80449420D01*
X99494340Y-80444340D01*
X99291140Y-80477360D01*
X99100640Y-80548480D01*
X98922840Y-80652620D01*
X98770440Y-80789780D01*
X98643440Y-80952340D01*
X98552000Y-81135220D01*
X98493580Y-81330800D01*
X98475800Y-81534000D01*
X98491040Y-81716880D01*
X98536760Y-81894680D01*
X98612960Y-82062320D01*
X98714560Y-82214720D01*
X98841560Y-82349340D01*
X98986340Y-82458560D01*
X99151440Y-82542380D01*
X98648520Y-83756500D01*
X98468180Y-83672680D01*
X98292920Y-83573620D01*
X97414080Y-84289900D01*
X96812100Y-83687920D01*
X97528380Y-82809080D01*
X97401380Y-82575400D01*
X97299780Y-82329020D01*
X97223580Y-82075020D01*
X96095820Y-81958180D01*
X96095820Y-81109820D01*
X97223580Y-80992980D01*
X97299780Y-80738980D01*
X97401380Y-80492600D01*
X97528380Y-80258920D01*
X96812100Y-79380080D01*
X97414080Y-78778100D01*
X98292920Y-79494380D01*
X98526600Y-79367380D01*
X98772980Y-79265780D01*
X99026980Y-79189580D01*
X99143820Y-78061820D01*
X99992180Y-78061820D01*
X100109020Y-79189580D01*
G37*
X100109020Y-79189580D02*
X100363020Y-79265780D01*
X100609400Y-79367380D01*
X100843080Y-79494380D01*
X101721920Y-78778100D01*
X102323900Y-79380080D01*
X101607620Y-80258920D01*
X101734620Y-80492600D01*
X101836220Y-80738980D01*
X101912420Y-80992980D01*
X103040180Y-81109820D01*
X103040180Y-81958180D01*
X101912420Y-82075020D01*
X101836220Y-82329020D01*
X101734620Y-82575400D01*
X101607620Y-82809080D01*
X102323900Y-83687920D01*
X101721920Y-84289900D01*
X100843080Y-83573620D01*
X100667820Y-83672680D01*
X100487480Y-83756500D01*
X99984560Y-82542380D01*
X100167440Y-82448400D01*
X100327460Y-82318860D01*
X100459540Y-82163920D01*
X100561140Y-81986120D01*
X100629720Y-81790540D01*
X100660200Y-81589880D01*
X100650040Y-81386680D01*
X100604320Y-81186020D01*
X100520500Y-80998060D01*
X100403660Y-80830420D01*
X100256340Y-80685640D01*
X100086160Y-80573880D01*
X99898200Y-80492600D01*
X99697540Y-80449420D01*
X99494340Y-80444340D01*
X99291140Y-80477360D01*
X99100640Y-80548480D01*
X98922840Y-80652620D01*
X98770440Y-80789780D01*
X98643440Y-80952340D01*
X98552000Y-81135220D01*
X98493580Y-81330800D01*
X98475800Y-81534000D01*
X98491040Y-81716880D01*
X98536760Y-81894680D01*
X98612960Y-82062320D01*
X98714560Y-82214720D01*
X98841560Y-82349340D01*
X98986340Y-82458560D01*
X99151440Y-82542380D01*
X98648520Y-83756500D01*
X98468180Y-83672680D01*
X98292920Y-83573620D01*
X97414080Y-84289900D01*
X96812100Y-83687920D01*
X97528380Y-82809080D01*
X97401380Y-82575400D01*
X97299780Y-82329020D01*
X97223580Y-82075020D01*
X96095820Y-81958180D01*
X96095820Y-81109820D01*
X97223580Y-80992980D01*
X97299780Y-80738980D01*
X97401380Y-80492600D01*
X97528380Y-80258920D01*
X96812100Y-79380080D01*
X97414080Y-78778100D01*
X98292920Y-79494380D01*
X98526600Y-79367380D01*
X98772980Y-79265780D01*
X99026980Y-79189580D01*
X99143820Y-78061820D01*
X99992180Y-78061820D01*
X100109020Y-79189580D01*
%TD*%
M02*
