%TF.GenerationSoftware,KiCad,Pcbnew,5.1.9*%
%TF.CreationDate,2021-04-14T19:17:29+02:00*%
%TF.ProjectId,custom-pcb,63757374-6f6d-42d7-9063-622e6b696361,rev?*%
%TF.SameCoordinates,Original*%
%TF.FileFunction,Paste,Top*%
%TF.FilePolarity,Positive*%
%FSLAX46Y46*%
G04 Gerber Fmt 4.6, Leading zero omitted, Abs format (unit mm)*
G04 Created by KiCad (PCBNEW 5.1.9) date 2021-04-14 19:17:29*
%MOMM*%
%LPD*%
G01*
G04 APERTURE LIST*
%ADD10C,0.100000*%
G04 APERTURE END LIST*
%TO.C,U2*%
G36*
G01*
X128568000Y-73041000D02*
X128568000Y-73241000D01*
G75*
G02*
X128468000Y-73341000I-100000J0D01*
G01*
X127193000Y-73341000D01*
G75*
G02*
X127093000Y-73241000I0J100000D01*
G01*
X127093000Y-73041000D01*
G75*
G02*
X127193000Y-72941000I100000J0D01*
G01*
X128468000Y-72941000D01*
G75*
G02*
X128568000Y-73041000I0J-100000D01*
G01*
G37*
G36*
G01*
X128568000Y-72391000D02*
X128568000Y-72591000D01*
G75*
G02*
X128468000Y-72691000I-100000J0D01*
G01*
X127193000Y-72691000D01*
G75*
G02*
X127093000Y-72591000I0J100000D01*
G01*
X127093000Y-72391000D01*
G75*
G02*
X127193000Y-72291000I100000J0D01*
G01*
X128468000Y-72291000D01*
G75*
G02*
X128568000Y-72391000I0J-100000D01*
G01*
G37*
G36*
G01*
X128568000Y-71741000D02*
X128568000Y-71941000D01*
G75*
G02*
X128468000Y-72041000I-100000J0D01*
G01*
X127193000Y-72041000D01*
G75*
G02*
X127093000Y-71941000I0J100000D01*
G01*
X127093000Y-71741000D01*
G75*
G02*
X127193000Y-71641000I100000J0D01*
G01*
X128468000Y-71641000D01*
G75*
G02*
X128568000Y-71741000I0J-100000D01*
G01*
G37*
G36*
G01*
X128568000Y-71091000D02*
X128568000Y-71291000D01*
G75*
G02*
X128468000Y-71391000I-100000J0D01*
G01*
X127193000Y-71391000D01*
G75*
G02*
X127093000Y-71291000I0J100000D01*
G01*
X127093000Y-71091000D01*
G75*
G02*
X127193000Y-70991000I100000J0D01*
G01*
X128468000Y-70991000D01*
G75*
G02*
X128568000Y-71091000I0J-100000D01*
G01*
G37*
G36*
G01*
X128568000Y-70441000D02*
X128568000Y-70641000D01*
G75*
G02*
X128468000Y-70741000I-100000J0D01*
G01*
X127193000Y-70741000D01*
G75*
G02*
X127093000Y-70641000I0J100000D01*
G01*
X127093000Y-70441000D01*
G75*
G02*
X127193000Y-70341000I100000J0D01*
G01*
X128468000Y-70341000D01*
G75*
G02*
X128568000Y-70441000I0J-100000D01*
G01*
G37*
G36*
G01*
X128568000Y-69791000D02*
X128568000Y-69991000D01*
G75*
G02*
X128468000Y-70091000I-100000J0D01*
G01*
X127193000Y-70091000D01*
G75*
G02*
X127093000Y-69991000I0J100000D01*
G01*
X127093000Y-69791000D01*
G75*
G02*
X127193000Y-69691000I100000J0D01*
G01*
X128468000Y-69691000D01*
G75*
G02*
X128568000Y-69791000I0J-100000D01*
G01*
G37*
G36*
G01*
X128568000Y-69141000D02*
X128568000Y-69341000D01*
G75*
G02*
X128468000Y-69441000I-100000J0D01*
G01*
X127193000Y-69441000D01*
G75*
G02*
X127093000Y-69341000I0J100000D01*
G01*
X127093000Y-69141000D01*
G75*
G02*
X127193000Y-69041000I100000J0D01*
G01*
X128468000Y-69041000D01*
G75*
G02*
X128568000Y-69141000I0J-100000D01*
G01*
G37*
G36*
G01*
X128568000Y-68491000D02*
X128568000Y-68691000D01*
G75*
G02*
X128468000Y-68791000I-100000J0D01*
G01*
X127193000Y-68791000D01*
G75*
G02*
X127093000Y-68691000I0J100000D01*
G01*
X127093000Y-68491000D01*
G75*
G02*
X127193000Y-68391000I100000J0D01*
G01*
X128468000Y-68391000D01*
G75*
G02*
X128568000Y-68491000I0J-100000D01*
G01*
G37*
G36*
G01*
X122843000Y-68491000D02*
X122843000Y-68691000D01*
G75*
G02*
X122743000Y-68791000I-100000J0D01*
G01*
X121468000Y-68791000D01*
G75*
G02*
X121368000Y-68691000I0J100000D01*
G01*
X121368000Y-68491000D01*
G75*
G02*
X121468000Y-68391000I100000J0D01*
G01*
X122743000Y-68391000D01*
G75*
G02*
X122843000Y-68491000I0J-100000D01*
G01*
G37*
G36*
G01*
X122843000Y-69141000D02*
X122843000Y-69341000D01*
G75*
G02*
X122743000Y-69441000I-100000J0D01*
G01*
X121468000Y-69441000D01*
G75*
G02*
X121368000Y-69341000I0J100000D01*
G01*
X121368000Y-69141000D01*
G75*
G02*
X121468000Y-69041000I100000J0D01*
G01*
X122743000Y-69041000D01*
G75*
G02*
X122843000Y-69141000I0J-100000D01*
G01*
G37*
G36*
G01*
X122843000Y-69791000D02*
X122843000Y-69991000D01*
G75*
G02*
X122743000Y-70091000I-100000J0D01*
G01*
X121468000Y-70091000D01*
G75*
G02*
X121368000Y-69991000I0J100000D01*
G01*
X121368000Y-69791000D01*
G75*
G02*
X121468000Y-69691000I100000J0D01*
G01*
X122743000Y-69691000D01*
G75*
G02*
X122843000Y-69791000I0J-100000D01*
G01*
G37*
G36*
G01*
X122843000Y-70441000D02*
X122843000Y-70641000D01*
G75*
G02*
X122743000Y-70741000I-100000J0D01*
G01*
X121468000Y-70741000D01*
G75*
G02*
X121368000Y-70641000I0J100000D01*
G01*
X121368000Y-70441000D01*
G75*
G02*
X121468000Y-70341000I100000J0D01*
G01*
X122743000Y-70341000D01*
G75*
G02*
X122843000Y-70441000I0J-100000D01*
G01*
G37*
G36*
G01*
X122843000Y-71091000D02*
X122843000Y-71291000D01*
G75*
G02*
X122743000Y-71391000I-100000J0D01*
G01*
X121468000Y-71391000D01*
G75*
G02*
X121368000Y-71291000I0J100000D01*
G01*
X121368000Y-71091000D01*
G75*
G02*
X121468000Y-70991000I100000J0D01*
G01*
X122743000Y-70991000D01*
G75*
G02*
X122843000Y-71091000I0J-100000D01*
G01*
G37*
G36*
G01*
X122843000Y-71741000D02*
X122843000Y-71941000D01*
G75*
G02*
X122743000Y-72041000I-100000J0D01*
G01*
X121468000Y-72041000D01*
G75*
G02*
X121368000Y-71941000I0J100000D01*
G01*
X121368000Y-71741000D01*
G75*
G02*
X121468000Y-71641000I100000J0D01*
G01*
X122743000Y-71641000D01*
G75*
G02*
X122843000Y-71741000I0J-100000D01*
G01*
G37*
G36*
G01*
X122843000Y-72391000D02*
X122843000Y-72591000D01*
G75*
G02*
X122743000Y-72691000I-100000J0D01*
G01*
X121468000Y-72691000D01*
G75*
G02*
X121368000Y-72591000I0J100000D01*
G01*
X121368000Y-72391000D01*
G75*
G02*
X121468000Y-72291000I100000J0D01*
G01*
X122743000Y-72291000D01*
G75*
G02*
X122843000Y-72391000I0J-100000D01*
G01*
G37*
G36*
G01*
X122843000Y-73041000D02*
X122843000Y-73241000D01*
G75*
G02*
X122743000Y-73341000I-100000J0D01*
G01*
X121468000Y-73341000D01*
G75*
G02*
X121368000Y-73241000I0J100000D01*
G01*
X121368000Y-73041000D01*
G75*
G02*
X121468000Y-72941000I100000J0D01*
G01*
X122743000Y-72941000D01*
G75*
G02*
X122843000Y-73041000I0J-100000D01*
G01*
G37*
%TD*%
%TO.C,U3*%
G36*
G01*
X129125000Y-74787000D02*
X129125000Y-74587000D01*
G75*
G02*
X129225000Y-74487000I100000J0D01*
G01*
X130500000Y-74487000D01*
G75*
G02*
X130600000Y-74587000I0J-100000D01*
G01*
X130600000Y-74787000D01*
G75*
G02*
X130500000Y-74887000I-100000J0D01*
G01*
X129225000Y-74887000D01*
G75*
G02*
X129125000Y-74787000I0J100000D01*
G01*
G37*
G36*
G01*
X129125000Y-75437000D02*
X129125000Y-75237000D01*
G75*
G02*
X129225000Y-75137000I100000J0D01*
G01*
X130500000Y-75137000D01*
G75*
G02*
X130600000Y-75237000I0J-100000D01*
G01*
X130600000Y-75437000D01*
G75*
G02*
X130500000Y-75537000I-100000J0D01*
G01*
X129225000Y-75537000D01*
G75*
G02*
X129125000Y-75437000I0J100000D01*
G01*
G37*
G36*
G01*
X129125000Y-76087000D02*
X129125000Y-75887000D01*
G75*
G02*
X129225000Y-75787000I100000J0D01*
G01*
X130500000Y-75787000D01*
G75*
G02*
X130600000Y-75887000I0J-100000D01*
G01*
X130600000Y-76087000D01*
G75*
G02*
X130500000Y-76187000I-100000J0D01*
G01*
X129225000Y-76187000D01*
G75*
G02*
X129125000Y-76087000I0J100000D01*
G01*
G37*
G36*
G01*
X129125000Y-76737000D02*
X129125000Y-76537000D01*
G75*
G02*
X129225000Y-76437000I100000J0D01*
G01*
X130500000Y-76437000D01*
G75*
G02*
X130600000Y-76537000I0J-100000D01*
G01*
X130600000Y-76737000D01*
G75*
G02*
X130500000Y-76837000I-100000J0D01*
G01*
X129225000Y-76837000D01*
G75*
G02*
X129125000Y-76737000I0J100000D01*
G01*
G37*
G36*
G01*
X129125000Y-77387000D02*
X129125000Y-77187000D01*
G75*
G02*
X129225000Y-77087000I100000J0D01*
G01*
X130500000Y-77087000D01*
G75*
G02*
X130600000Y-77187000I0J-100000D01*
G01*
X130600000Y-77387000D01*
G75*
G02*
X130500000Y-77487000I-100000J0D01*
G01*
X129225000Y-77487000D01*
G75*
G02*
X129125000Y-77387000I0J100000D01*
G01*
G37*
G36*
G01*
X129125000Y-78037000D02*
X129125000Y-77837000D01*
G75*
G02*
X129225000Y-77737000I100000J0D01*
G01*
X130500000Y-77737000D01*
G75*
G02*
X130600000Y-77837000I0J-100000D01*
G01*
X130600000Y-78037000D01*
G75*
G02*
X130500000Y-78137000I-100000J0D01*
G01*
X129225000Y-78137000D01*
G75*
G02*
X129125000Y-78037000I0J100000D01*
G01*
G37*
G36*
G01*
X129125000Y-78687000D02*
X129125000Y-78487000D01*
G75*
G02*
X129225000Y-78387000I100000J0D01*
G01*
X130500000Y-78387000D01*
G75*
G02*
X130600000Y-78487000I0J-100000D01*
G01*
X130600000Y-78687000D01*
G75*
G02*
X130500000Y-78787000I-100000J0D01*
G01*
X129225000Y-78787000D01*
G75*
G02*
X129125000Y-78687000I0J100000D01*
G01*
G37*
G36*
G01*
X129125000Y-79337000D02*
X129125000Y-79137000D01*
G75*
G02*
X129225000Y-79037000I100000J0D01*
G01*
X130500000Y-79037000D01*
G75*
G02*
X130600000Y-79137000I0J-100000D01*
G01*
X130600000Y-79337000D01*
G75*
G02*
X130500000Y-79437000I-100000J0D01*
G01*
X129225000Y-79437000D01*
G75*
G02*
X129125000Y-79337000I0J100000D01*
G01*
G37*
G36*
G01*
X123400000Y-79337000D02*
X123400000Y-79137000D01*
G75*
G02*
X123500000Y-79037000I100000J0D01*
G01*
X124775000Y-79037000D01*
G75*
G02*
X124875000Y-79137000I0J-100000D01*
G01*
X124875000Y-79337000D01*
G75*
G02*
X124775000Y-79437000I-100000J0D01*
G01*
X123500000Y-79437000D01*
G75*
G02*
X123400000Y-79337000I0J100000D01*
G01*
G37*
G36*
G01*
X123400000Y-78687000D02*
X123400000Y-78487000D01*
G75*
G02*
X123500000Y-78387000I100000J0D01*
G01*
X124775000Y-78387000D01*
G75*
G02*
X124875000Y-78487000I0J-100000D01*
G01*
X124875000Y-78687000D01*
G75*
G02*
X124775000Y-78787000I-100000J0D01*
G01*
X123500000Y-78787000D01*
G75*
G02*
X123400000Y-78687000I0J100000D01*
G01*
G37*
G36*
G01*
X123400000Y-78037000D02*
X123400000Y-77837000D01*
G75*
G02*
X123500000Y-77737000I100000J0D01*
G01*
X124775000Y-77737000D01*
G75*
G02*
X124875000Y-77837000I0J-100000D01*
G01*
X124875000Y-78037000D01*
G75*
G02*
X124775000Y-78137000I-100000J0D01*
G01*
X123500000Y-78137000D01*
G75*
G02*
X123400000Y-78037000I0J100000D01*
G01*
G37*
G36*
G01*
X123400000Y-77387000D02*
X123400000Y-77187000D01*
G75*
G02*
X123500000Y-77087000I100000J0D01*
G01*
X124775000Y-77087000D01*
G75*
G02*
X124875000Y-77187000I0J-100000D01*
G01*
X124875000Y-77387000D01*
G75*
G02*
X124775000Y-77487000I-100000J0D01*
G01*
X123500000Y-77487000D01*
G75*
G02*
X123400000Y-77387000I0J100000D01*
G01*
G37*
G36*
G01*
X123400000Y-76737000D02*
X123400000Y-76537000D01*
G75*
G02*
X123500000Y-76437000I100000J0D01*
G01*
X124775000Y-76437000D01*
G75*
G02*
X124875000Y-76537000I0J-100000D01*
G01*
X124875000Y-76737000D01*
G75*
G02*
X124775000Y-76837000I-100000J0D01*
G01*
X123500000Y-76837000D01*
G75*
G02*
X123400000Y-76737000I0J100000D01*
G01*
G37*
G36*
G01*
X123400000Y-76087000D02*
X123400000Y-75887000D01*
G75*
G02*
X123500000Y-75787000I100000J0D01*
G01*
X124775000Y-75787000D01*
G75*
G02*
X124875000Y-75887000I0J-100000D01*
G01*
X124875000Y-76087000D01*
G75*
G02*
X124775000Y-76187000I-100000J0D01*
G01*
X123500000Y-76187000D01*
G75*
G02*
X123400000Y-76087000I0J100000D01*
G01*
G37*
G36*
G01*
X123400000Y-75437000D02*
X123400000Y-75237000D01*
G75*
G02*
X123500000Y-75137000I100000J0D01*
G01*
X124775000Y-75137000D01*
G75*
G02*
X124875000Y-75237000I0J-100000D01*
G01*
X124875000Y-75437000D01*
G75*
G02*
X124775000Y-75537000I-100000J0D01*
G01*
X123500000Y-75537000D01*
G75*
G02*
X123400000Y-75437000I0J100000D01*
G01*
G37*
G36*
G01*
X123400000Y-74787000D02*
X123400000Y-74587000D01*
G75*
G02*
X123500000Y-74487000I100000J0D01*
G01*
X124775000Y-74487000D01*
G75*
G02*
X124875000Y-74587000I0J-100000D01*
G01*
X124875000Y-74787000D01*
G75*
G02*
X124775000Y-74887000I-100000J0D01*
G01*
X123500000Y-74887000D01*
G75*
G02*
X123400000Y-74787000I0J100000D01*
G01*
G37*
%TD*%
D10*
%TO.C,SW10*%
G36*
X79778067Y-54929170D02*
G01*
X79070961Y-54222064D01*
X80131621Y-53161404D01*
X80838727Y-53868510D01*
X79778067Y-54929170D01*
G37*
G36*
X81333702Y-56484805D02*
G01*
X80626596Y-55777699D01*
X81687256Y-54717039D01*
X82394362Y-55424145D01*
X81333702Y-56484805D01*
G37*
G36*
X83808575Y-54009932D02*
G01*
X83101469Y-53302826D01*
X84162129Y-52242166D01*
X84869235Y-52949272D01*
X83808575Y-54009932D01*
G37*
G36*
X82252940Y-52454297D02*
G01*
X81545834Y-51747191D01*
X82606494Y-50686531D01*
X83313600Y-51393637D01*
X82252940Y-52454297D01*
G37*
%TD*%
%TO.C,SW11*%
G36*
X86495581Y-48211657D02*
G01*
X85788475Y-47504551D01*
X86849135Y-46443891D01*
X87556241Y-47150997D01*
X86495581Y-48211657D01*
G37*
G36*
X88051216Y-49767292D02*
G01*
X87344110Y-49060186D01*
X88404770Y-47999526D01*
X89111876Y-48706632D01*
X88051216Y-49767292D01*
G37*
G36*
X85576343Y-52242165D02*
G01*
X84869237Y-51535059D01*
X85929897Y-50474399D01*
X86637003Y-51181505D01*
X85576343Y-52242165D01*
G37*
G36*
X84020708Y-50686530D02*
G01*
X83313602Y-49979424D01*
X84374262Y-48918764D01*
X85081368Y-49625870D01*
X84020708Y-50686530D01*
G37*
%TD*%
M02*
