%TF.GenerationSoftware,KiCad,Pcbnew,5.1.9*%
%TF.CreationDate,2021-04-14T19:17:29+02:00*%
%TF.ProjectId,custom-pcb,63757374-6f6d-42d7-9063-622e6b696361,rev?*%
%TF.SameCoordinates,Original*%
%TF.FileFunction,Paste,Bot*%
%TF.FilePolarity,Positive*%
%FSLAX46Y46*%
G04 Gerber Fmt 4.6, Leading zero omitted, Abs format (unit mm)*
G04 Created by KiCad (PCBNEW 5.1.9) date 2021-04-14 19:17:29*
%MOMM*%
%LPD*%
G01*
G04 APERTURE LIST*
%ADD10C,0.100000*%
%ADD11R,1.500000X1.000000*%
%ADD12R,2.000000X3.800000*%
%ADD13R,2.000000X1.500000*%
G04 APERTURE END LIST*
%TO.C,C2*%
G36*
G01*
X127836000Y-75659000D02*
X127836000Y-74709000D01*
G75*
G02*
X128086000Y-74459000I250000J0D01*
G01*
X128586000Y-74459000D01*
G75*
G02*
X128836000Y-74709000I0J-250000D01*
G01*
X128836000Y-75659000D01*
G75*
G02*
X128586000Y-75909000I-250000J0D01*
G01*
X128086000Y-75909000D01*
G75*
G02*
X127836000Y-75659000I0J250000D01*
G01*
G37*
G36*
G01*
X129736000Y-75659000D02*
X129736000Y-74709000D01*
G75*
G02*
X129986000Y-74459000I250000J0D01*
G01*
X130486000Y-74459000D01*
G75*
G02*
X130736000Y-74709000I0J-250000D01*
G01*
X130736000Y-75659000D01*
G75*
G02*
X130486000Y-75909000I-250000J0D01*
G01*
X129986000Y-75909000D01*
G75*
G02*
X129736000Y-75659000I0J250000D01*
G01*
G37*
%TD*%
%TO.C,C3*%
G36*
G01*
X123665000Y-76192000D02*
X122715000Y-76192000D01*
G75*
G02*
X122465000Y-75942000I0J250000D01*
G01*
X122465000Y-75442000D01*
G75*
G02*
X122715000Y-75192000I250000J0D01*
G01*
X123665000Y-75192000D01*
G75*
G02*
X123915000Y-75442000I0J-250000D01*
G01*
X123915000Y-75942000D01*
G75*
G02*
X123665000Y-76192000I-250000J0D01*
G01*
G37*
G36*
G01*
X123665000Y-74292000D02*
X122715000Y-74292000D01*
G75*
G02*
X122465000Y-74042000I0J250000D01*
G01*
X122465000Y-73542000D01*
G75*
G02*
X122715000Y-73292000I250000J0D01*
G01*
X123665000Y-73292000D01*
G75*
G02*
X123915000Y-73542000I0J-250000D01*
G01*
X123915000Y-74042000D01*
G75*
G02*
X123665000Y-74292000I-250000J0D01*
G01*
G37*
%TD*%
%TO.C,C5*%
G36*
G01*
X131118000Y-53678000D02*
X131118000Y-54018000D01*
G75*
G02*
X130978000Y-54158000I-140000J0D01*
G01*
X130698000Y-54158000D01*
G75*
G02*
X130558000Y-54018000I0J140000D01*
G01*
X130558000Y-53678000D01*
G75*
G02*
X130698000Y-53538000I140000J0D01*
G01*
X130978000Y-53538000D01*
G75*
G02*
X131118000Y-53678000I0J-140000D01*
G01*
G37*
G36*
G01*
X132078000Y-53678000D02*
X132078000Y-54018000D01*
G75*
G02*
X131938000Y-54158000I-140000J0D01*
G01*
X131658000Y-54158000D01*
G75*
G02*
X131518000Y-54018000I0J140000D01*
G01*
X131518000Y-53678000D01*
G75*
G02*
X131658000Y-53538000I140000J0D01*
G01*
X131938000Y-53538000D01*
G75*
G02*
X132078000Y-53678000I0J-140000D01*
G01*
G37*
%TD*%
%TO.C,C6*%
G36*
G01*
X108882000Y-49528000D02*
X108542000Y-49528000D01*
G75*
G02*
X108402000Y-49388000I0J140000D01*
G01*
X108402000Y-49108000D01*
G75*
G02*
X108542000Y-48968000I140000J0D01*
G01*
X108882000Y-48968000D01*
G75*
G02*
X109022000Y-49108000I0J-140000D01*
G01*
X109022000Y-49388000D01*
G75*
G02*
X108882000Y-49528000I-140000J0D01*
G01*
G37*
G36*
G01*
X108882000Y-48568000D02*
X108542000Y-48568000D01*
G75*
G02*
X108402000Y-48428000I0J140000D01*
G01*
X108402000Y-48148000D01*
G75*
G02*
X108542000Y-48008000I140000J0D01*
G01*
X108882000Y-48008000D01*
G75*
G02*
X109022000Y-48148000I0J-140000D01*
G01*
X109022000Y-48428000D01*
G75*
G02*
X108882000Y-48568000I-140000J0D01*
G01*
G37*
%TD*%
%TO.C,C8*%
G36*
G01*
X119093000Y-77528000D02*
X118143000Y-77528000D01*
G75*
G02*
X117893000Y-77278000I0J250000D01*
G01*
X117893000Y-76778000D01*
G75*
G02*
X118143000Y-76528000I250000J0D01*
G01*
X119093000Y-76528000D01*
G75*
G02*
X119343000Y-76778000I0J-250000D01*
G01*
X119343000Y-77278000D01*
G75*
G02*
X119093000Y-77528000I-250000J0D01*
G01*
G37*
G36*
G01*
X119093000Y-79428000D02*
X118143000Y-79428000D01*
G75*
G02*
X117893000Y-79178000I0J250000D01*
G01*
X117893000Y-78678000D01*
G75*
G02*
X118143000Y-78428000I250000J0D01*
G01*
X119093000Y-78428000D01*
G75*
G02*
X119343000Y-78678000I0J-250000D01*
G01*
X119343000Y-79178000D01*
G75*
G02*
X119093000Y-79428000I-250000J0D01*
G01*
G37*
%TD*%
%TO.C,R1*%
G36*
G01*
X115361000Y-85365000D02*
X115361000Y-84815000D01*
G75*
G02*
X115561000Y-84615000I200000J0D01*
G01*
X115961000Y-84615000D01*
G75*
G02*
X116161000Y-84815000I0J-200000D01*
G01*
X116161000Y-85365000D01*
G75*
G02*
X115961000Y-85565000I-200000J0D01*
G01*
X115561000Y-85565000D01*
G75*
G02*
X115361000Y-85365000I0J200000D01*
G01*
G37*
G36*
G01*
X117011000Y-85365000D02*
X117011000Y-84815000D01*
G75*
G02*
X117211000Y-84615000I200000J0D01*
G01*
X117611000Y-84615000D01*
G75*
G02*
X117811000Y-84815000I0J-200000D01*
G01*
X117811000Y-85365000D01*
G75*
G02*
X117611000Y-85565000I-200000J0D01*
G01*
X117211000Y-85565000D01*
G75*
G02*
X117011000Y-85365000I0J200000D01*
G01*
G37*
%TD*%
%TO.C,R2*%
G36*
G01*
X133027000Y-77230000D02*
X132657000Y-77230000D01*
G75*
G02*
X132522000Y-77095000I0J135000D01*
G01*
X132522000Y-76825000D01*
G75*
G02*
X132657000Y-76690000I135000J0D01*
G01*
X133027000Y-76690000D01*
G75*
G02*
X133162000Y-76825000I0J-135000D01*
G01*
X133162000Y-77095000D01*
G75*
G02*
X133027000Y-77230000I-135000J0D01*
G01*
G37*
G36*
G01*
X133027000Y-78250000D02*
X132657000Y-78250000D01*
G75*
G02*
X132522000Y-78115000I0J135000D01*
G01*
X132522000Y-77845000D01*
G75*
G02*
X132657000Y-77710000I135000J0D01*
G01*
X133027000Y-77710000D01*
G75*
G02*
X133162000Y-77845000I0J-135000D01*
G01*
X133162000Y-78115000D01*
G75*
G02*
X133027000Y-78250000I-135000J0D01*
G01*
G37*
%TD*%
%TO.C,R3*%
G36*
G01*
X122664000Y-67749000D02*
X122664000Y-67379000D01*
G75*
G02*
X122799000Y-67244000I135000J0D01*
G01*
X123069000Y-67244000D01*
G75*
G02*
X123204000Y-67379000I0J-135000D01*
G01*
X123204000Y-67749000D01*
G75*
G02*
X123069000Y-67884000I-135000J0D01*
G01*
X122799000Y-67884000D01*
G75*
G02*
X122664000Y-67749000I0J135000D01*
G01*
G37*
G36*
G01*
X123684000Y-67749000D02*
X123684000Y-67379000D01*
G75*
G02*
X123819000Y-67244000I135000J0D01*
G01*
X124089000Y-67244000D01*
G75*
G02*
X124224000Y-67379000I0J-135000D01*
G01*
X124224000Y-67749000D01*
G75*
G02*
X124089000Y-67884000I-135000J0D01*
G01*
X123819000Y-67884000D01*
G75*
G02*
X123684000Y-67749000I0J135000D01*
G01*
G37*
%TD*%
%TO.C,R4*%
G36*
G01*
X144290600Y-78100600D02*
X144290600Y-77550600D01*
G75*
G02*
X144490600Y-77350600I200000J0D01*
G01*
X144890600Y-77350600D01*
G75*
G02*
X145090600Y-77550600I0J-200000D01*
G01*
X145090600Y-78100600D01*
G75*
G02*
X144890600Y-78300600I-200000J0D01*
G01*
X144490600Y-78300600D01*
G75*
G02*
X144290600Y-78100600I0J200000D01*
G01*
G37*
G36*
G01*
X142640600Y-78100600D02*
X142640600Y-77550600D01*
G75*
G02*
X142840600Y-77350600I200000J0D01*
G01*
X143240600Y-77350600D01*
G75*
G02*
X143440600Y-77550600I0J-200000D01*
G01*
X143440600Y-78100600D01*
G75*
G02*
X143240600Y-78300600I-200000J0D01*
G01*
X142840600Y-78300600D01*
G75*
G02*
X142640600Y-78100600I0J200000D01*
G01*
G37*
%TD*%
%TO.C,R5*%
G36*
G01*
X88921000Y-94634000D02*
X88371000Y-94634000D01*
G75*
G02*
X88171000Y-94434000I0J200000D01*
G01*
X88171000Y-94034000D01*
G75*
G02*
X88371000Y-93834000I200000J0D01*
G01*
X88921000Y-93834000D01*
G75*
G02*
X89121000Y-94034000I0J-200000D01*
G01*
X89121000Y-94434000D01*
G75*
G02*
X88921000Y-94634000I-200000J0D01*
G01*
G37*
G36*
G01*
X88921000Y-92984000D02*
X88371000Y-92984000D01*
G75*
G02*
X88171000Y-92784000I0J200000D01*
G01*
X88171000Y-92384000D01*
G75*
G02*
X88371000Y-92184000I200000J0D01*
G01*
X88921000Y-92184000D01*
G75*
G02*
X89121000Y-92384000I0J-200000D01*
G01*
X89121000Y-92784000D01*
G75*
G02*
X88921000Y-92984000I-200000J0D01*
G01*
G37*
%TD*%
%TO.C,R6*%
G36*
G01*
X139975000Y-61106000D02*
X139425000Y-61106000D01*
G75*
G02*
X139225000Y-60906000I0J200000D01*
G01*
X139225000Y-60506000D01*
G75*
G02*
X139425000Y-60306000I200000J0D01*
G01*
X139975000Y-60306000D01*
G75*
G02*
X140175000Y-60506000I0J-200000D01*
G01*
X140175000Y-60906000D01*
G75*
G02*
X139975000Y-61106000I-200000J0D01*
G01*
G37*
G36*
G01*
X139975000Y-62756000D02*
X139425000Y-62756000D01*
G75*
G02*
X139225000Y-62556000I0J200000D01*
G01*
X139225000Y-62156000D01*
G75*
G02*
X139425000Y-61956000I200000J0D01*
G01*
X139975000Y-61956000D01*
G75*
G02*
X140175000Y-62156000I0J-200000D01*
G01*
X140175000Y-62556000D01*
G75*
G02*
X139975000Y-62756000I-200000J0D01*
G01*
G37*
%TD*%
%TO.C,R7*%
G36*
G01*
X120465000Y-106922000D02*
X120835000Y-106922000D01*
G75*
G02*
X120970000Y-107057000I0J-135000D01*
G01*
X120970000Y-107327000D01*
G75*
G02*
X120835000Y-107462000I-135000J0D01*
G01*
X120465000Y-107462000D01*
G75*
G02*
X120330000Y-107327000I0J135000D01*
G01*
X120330000Y-107057000D01*
G75*
G02*
X120465000Y-106922000I135000J0D01*
G01*
G37*
G36*
G01*
X120465000Y-105902000D02*
X120835000Y-105902000D01*
G75*
G02*
X120970000Y-106037000I0J-135000D01*
G01*
X120970000Y-106307000D01*
G75*
G02*
X120835000Y-106442000I-135000J0D01*
G01*
X120465000Y-106442000D01*
G75*
G02*
X120330000Y-106307000I0J135000D01*
G01*
X120330000Y-106037000D01*
G75*
G02*
X120465000Y-105902000I135000J0D01*
G01*
G37*
%TD*%
%TO.C,R8*%
G36*
G01*
X110726000Y-52509000D02*
X110726000Y-52139000D01*
G75*
G02*
X110861000Y-52004000I135000J0D01*
G01*
X111131000Y-52004000D01*
G75*
G02*
X111266000Y-52139000I0J-135000D01*
G01*
X111266000Y-52509000D01*
G75*
G02*
X111131000Y-52644000I-135000J0D01*
G01*
X110861000Y-52644000D01*
G75*
G02*
X110726000Y-52509000I0J135000D01*
G01*
G37*
G36*
G01*
X111746000Y-52509000D02*
X111746000Y-52139000D01*
G75*
G02*
X111881000Y-52004000I135000J0D01*
G01*
X112151000Y-52004000D01*
G75*
G02*
X112286000Y-52139000I0J-135000D01*
G01*
X112286000Y-52509000D01*
G75*
G02*
X112151000Y-52644000I-135000J0D01*
G01*
X111881000Y-52644000D01*
G75*
G02*
X111746000Y-52509000I0J135000D01*
G01*
G37*
%TD*%
%TO.C,R9*%
G36*
G01*
X114032000Y-111691000D02*
X114032000Y-111321000D01*
G75*
G02*
X114167000Y-111186000I135000J0D01*
G01*
X114437000Y-111186000D01*
G75*
G02*
X114572000Y-111321000I0J-135000D01*
G01*
X114572000Y-111691000D01*
G75*
G02*
X114437000Y-111826000I-135000J0D01*
G01*
X114167000Y-111826000D01*
G75*
G02*
X114032000Y-111691000I0J135000D01*
G01*
G37*
G36*
G01*
X113012000Y-111691000D02*
X113012000Y-111321000D01*
G75*
G02*
X113147000Y-111186000I135000J0D01*
G01*
X113417000Y-111186000D01*
G75*
G02*
X113552000Y-111321000I0J-135000D01*
G01*
X113552000Y-111691000D01*
G75*
G02*
X113417000Y-111826000I-135000J0D01*
G01*
X113147000Y-111826000D01*
G75*
G02*
X113012000Y-111691000I0J135000D01*
G01*
G37*
%TD*%
%TO.C,R10*%
G36*
G01*
X98229000Y-105932000D02*
X97859000Y-105932000D01*
G75*
G02*
X97724000Y-105797000I0J135000D01*
G01*
X97724000Y-105527000D01*
G75*
G02*
X97859000Y-105392000I135000J0D01*
G01*
X98229000Y-105392000D01*
G75*
G02*
X98364000Y-105527000I0J-135000D01*
G01*
X98364000Y-105797000D01*
G75*
G02*
X98229000Y-105932000I-135000J0D01*
G01*
G37*
G36*
G01*
X98229000Y-106952000D02*
X97859000Y-106952000D01*
G75*
G02*
X97724000Y-106817000I0J135000D01*
G01*
X97724000Y-106547000D01*
G75*
G02*
X97859000Y-106412000I135000J0D01*
G01*
X98229000Y-106412000D01*
G75*
G02*
X98364000Y-106547000I0J-135000D01*
G01*
X98364000Y-106817000D01*
G75*
G02*
X98229000Y-106952000I-135000J0D01*
G01*
G37*
%TD*%
%TO.C,R11*%
G36*
G01*
X130036000Y-52763000D02*
X130036000Y-52393000D01*
G75*
G02*
X130171000Y-52258000I135000J0D01*
G01*
X130441000Y-52258000D01*
G75*
G02*
X130576000Y-52393000I0J-135000D01*
G01*
X130576000Y-52763000D01*
G75*
G02*
X130441000Y-52898000I-135000J0D01*
G01*
X130171000Y-52898000D01*
G75*
G02*
X130036000Y-52763000I0J135000D01*
G01*
G37*
G36*
G01*
X129016000Y-52763000D02*
X129016000Y-52393000D01*
G75*
G02*
X129151000Y-52258000I135000J0D01*
G01*
X129421000Y-52258000D01*
G75*
G02*
X129556000Y-52393000I0J-135000D01*
G01*
X129556000Y-52763000D01*
G75*
G02*
X129421000Y-52898000I-135000J0D01*
G01*
X129151000Y-52898000D01*
G75*
G02*
X129016000Y-52763000I0J135000D01*
G01*
G37*
%TD*%
%TO.C,R12*%
G36*
G01*
X96792000Y-55695000D02*
X96792000Y-56065000D01*
G75*
G02*
X96657000Y-56200000I-135000J0D01*
G01*
X96387000Y-56200000D01*
G75*
G02*
X96252000Y-56065000I0J135000D01*
G01*
X96252000Y-55695000D01*
G75*
G02*
X96387000Y-55560000I135000J0D01*
G01*
X96657000Y-55560000D01*
G75*
G02*
X96792000Y-55695000I0J-135000D01*
G01*
G37*
G36*
G01*
X95772000Y-55695000D02*
X95772000Y-56065000D01*
G75*
G02*
X95637000Y-56200000I-135000J0D01*
G01*
X95367000Y-56200000D01*
G75*
G02*
X95232000Y-56065000I0J135000D01*
G01*
X95232000Y-55695000D01*
G75*
G02*
X95367000Y-55560000I135000J0D01*
G01*
X95637000Y-55560000D01*
G75*
G02*
X95772000Y-55695000I0J-135000D01*
G01*
G37*
%TD*%
%TO.C,R13*%
G36*
G01*
X127744000Y-55557000D02*
X127744000Y-55187000D01*
G75*
G02*
X127879000Y-55052000I135000J0D01*
G01*
X128149000Y-55052000D01*
G75*
G02*
X128284000Y-55187000I0J-135000D01*
G01*
X128284000Y-55557000D01*
G75*
G02*
X128149000Y-55692000I-135000J0D01*
G01*
X127879000Y-55692000D01*
G75*
G02*
X127744000Y-55557000I0J135000D01*
G01*
G37*
G36*
G01*
X128764000Y-55557000D02*
X128764000Y-55187000D01*
G75*
G02*
X128899000Y-55052000I135000J0D01*
G01*
X129169000Y-55052000D01*
G75*
G02*
X129304000Y-55187000I0J-135000D01*
G01*
X129304000Y-55557000D01*
G75*
G02*
X129169000Y-55692000I-135000J0D01*
G01*
X128899000Y-55692000D01*
G75*
G02*
X128764000Y-55557000I0J135000D01*
G01*
G37*
%TD*%
%TO.C,R14*%
G36*
G01*
X84259000Y-74690000D02*
X83889000Y-74690000D01*
G75*
G02*
X83754000Y-74555000I0J135000D01*
G01*
X83754000Y-74285000D01*
G75*
G02*
X83889000Y-74150000I135000J0D01*
G01*
X84259000Y-74150000D01*
G75*
G02*
X84394000Y-74285000I0J-135000D01*
G01*
X84394000Y-74555000D01*
G75*
G02*
X84259000Y-74690000I-135000J0D01*
G01*
G37*
G36*
G01*
X84259000Y-75710000D02*
X83889000Y-75710000D01*
G75*
G02*
X83754000Y-75575000I0J135000D01*
G01*
X83754000Y-75305000D01*
G75*
G02*
X83889000Y-75170000I135000J0D01*
G01*
X84259000Y-75170000D01*
G75*
G02*
X84394000Y-75305000I0J-135000D01*
G01*
X84394000Y-75575000D01*
G75*
G02*
X84259000Y-75710000I-135000J0D01*
G01*
G37*
%TD*%
%TO.C,R15*%
G36*
G01*
X105479000Y-47990000D02*
X105849000Y-47990000D01*
G75*
G02*
X105984000Y-48125000I0J-135000D01*
G01*
X105984000Y-48395000D01*
G75*
G02*
X105849000Y-48530000I-135000J0D01*
G01*
X105479000Y-48530000D01*
G75*
G02*
X105344000Y-48395000I0J135000D01*
G01*
X105344000Y-48125000D01*
G75*
G02*
X105479000Y-47990000I135000J0D01*
G01*
G37*
G36*
G01*
X105479000Y-49010000D02*
X105849000Y-49010000D01*
G75*
G02*
X105984000Y-49145000I0J-135000D01*
G01*
X105984000Y-49415000D01*
G75*
G02*
X105849000Y-49550000I-135000J0D01*
G01*
X105479000Y-49550000D01*
G75*
G02*
X105344000Y-49415000I0J135000D01*
G01*
X105344000Y-49145000D01*
G75*
G02*
X105479000Y-49010000I135000J0D01*
G01*
G37*
%TD*%
%TO.C,R16*%
G36*
G01*
X119057000Y-49548000D02*
X118687000Y-49548000D01*
G75*
G02*
X118552000Y-49413000I0J135000D01*
G01*
X118552000Y-49143000D01*
G75*
G02*
X118687000Y-49008000I135000J0D01*
G01*
X119057000Y-49008000D01*
G75*
G02*
X119192000Y-49143000I0J-135000D01*
G01*
X119192000Y-49413000D01*
G75*
G02*
X119057000Y-49548000I-135000J0D01*
G01*
G37*
G36*
G01*
X119057000Y-48528000D02*
X118687000Y-48528000D01*
G75*
G02*
X118552000Y-48393000I0J135000D01*
G01*
X118552000Y-48123000D01*
G75*
G02*
X118687000Y-47988000I135000J0D01*
G01*
X119057000Y-47988000D01*
G75*
G02*
X119192000Y-48123000I0J-135000D01*
G01*
X119192000Y-48393000D01*
G75*
G02*
X119057000Y-48528000I-135000J0D01*
G01*
G37*
%TD*%
%TO.C,R17*%
G36*
G01*
X128002000Y-51747000D02*
X128002000Y-51377000D01*
G75*
G02*
X128137000Y-51242000I135000J0D01*
G01*
X128407000Y-51242000D01*
G75*
G02*
X128542000Y-51377000I0J-135000D01*
G01*
X128542000Y-51747000D01*
G75*
G02*
X128407000Y-51882000I-135000J0D01*
G01*
X128137000Y-51882000D01*
G75*
G02*
X128002000Y-51747000I0J135000D01*
G01*
G37*
G36*
G01*
X126982000Y-51747000D02*
X126982000Y-51377000D01*
G75*
G02*
X127117000Y-51242000I135000J0D01*
G01*
X127387000Y-51242000D01*
G75*
G02*
X127522000Y-51377000I0J-135000D01*
G01*
X127522000Y-51747000D01*
G75*
G02*
X127387000Y-51882000I-135000J0D01*
G01*
X127117000Y-51882000D01*
G75*
G02*
X126982000Y-51747000I0J135000D01*
G01*
G37*
%TD*%
%TO.C,R18*%
G36*
G01*
X124391000Y-82562000D02*
X124021000Y-82562000D01*
G75*
G02*
X123886000Y-82427000I0J135000D01*
G01*
X123886000Y-82157000D01*
G75*
G02*
X124021000Y-82022000I135000J0D01*
G01*
X124391000Y-82022000D01*
G75*
G02*
X124526000Y-82157000I0J-135000D01*
G01*
X124526000Y-82427000D01*
G75*
G02*
X124391000Y-82562000I-135000J0D01*
G01*
G37*
G36*
G01*
X124391000Y-83582000D02*
X124021000Y-83582000D01*
G75*
G02*
X123886000Y-83447000I0J135000D01*
G01*
X123886000Y-83177000D01*
G75*
G02*
X124021000Y-83042000I135000J0D01*
G01*
X124391000Y-83042000D01*
G75*
G02*
X124526000Y-83177000I0J-135000D01*
G01*
X124526000Y-83447000D01*
G75*
G02*
X124391000Y-83582000I-135000J0D01*
G01*
G37*
%TD*%
%TO.C,R19*%
G36*
G01*
X126423000Y-83584000D02*
X126053000Y-83584000D01*
G75*
G02*
X125918000Y-83449000I0J135000D01*
G01*
X125918000Y-83179000D01*
G75*
G02*
X126053000Y-83044000I135000J0D01*
G01*
X126423000Y-83044000D01*
G75*
G02*
X126558000Y-83179000I0J-135000D01*
G01*
X126558000Y-83449000D01*
G75*
G02*
X126423000Y-83584000I-135000J0D01*
G01*
G37*
G36*
G01*
X126423000Y-82564000D02*
X126053000Y-82564000D01*
G75*
G02*
X125918000Y-82429000I0J135000D01*
G01*
X125918000Y-82159000D01*
G75*
G02*
X126053000Y-82024000I135000J0D01*
G01*
X126423000Y-82024000D01*
G75*
G02*
X126558000Y-82159000I0J-135000D01*
G01*
X126558000Y-82429000D01*
G75*
G02*
X126423000Y-82564000I-135000J0D01*
G01*
G37*
%TD*%
%TO.C,R20*%
G36*
G01*
X128455000Y-82562000D02*
X128085000Y-82562000D01*
G75*
G02*
X127950000Y-82427000I0J135000D01*
G01*
X127950000Y-82157000D01*
G75*
G02*
X128085000Y-82022000I135000J0D01*
G01*
X128455000Y-82022000D01*
G75*
G02*
X128590000Y-82157000I0J-135000D01*
G01*
X128590000Y-82427000D01*
G75*
G02*
X128455000Y-82562000I-135000J0D01*
G01*
G37*
G36*
G01*
X128455000Y-83582000D02*
X128085000Y-83582000D01*
G75*
G02*
X127950000Y-83447000I0J135000D01*
G01*
X127950000Y-83177000D01*
G75*
G02*
X128085000Y-83042000I135000J0D01*
G01*
X128455000Y-83042000D01*
G75*
G02*
X128590000Y-83177000I0J-135000D01*
G01*
X128590000Y-83447000D01*
G75*
G02*
X128455000Y-83582000I-135000J0D01*
G01*
G37*
%TD*%
%TO.C,R21*%
G36*
G01*
X107373000Y-49548000D02*
X107003000Y-49548000D01*
G75*
G02*
X106868000Y-49413000I0J135000D01*
G01*
X106868000Y-49143000D01*
G75*
G02*
X107003000Y-49008000I135000J0D01*
G01*
X107373000Y-49008000D01*
G75*
G02*
X107508000Y-49143000I0J-135000D01*
G01*
X107508000Y-49413000D01*
G75*
G02*
X107373000Y-49548000I-135000J0D01*
G01*
G37*
G36*
G01*
X107373000Y-48528000D02*
X107003000Y-48528000D01*
G75*
G02*
X106868000Y-48393000I0J135000D01*
G01*
X106868000Y-48123000D01*
G75*
G02*
X107003000Y-47988000I135000J0D01*
G01*
X107373000Y-47988000D01*
G75*
G02*
X107508000Y-48123000I0J-135000D01*
G01*
X107508000Y-48393000D01*
G75*
G02*
X107373000Y-48528000I-135000J0D01*
G01*
G37*
%TD*%
%TO.C,R22*%
G36*
G01*
X130233000Y-83584000D02*
X129863000Y-83584000D01*
G75*
G02*
X129728000Y-83449000I0J135000D01*
G01*
X129728000Y-83179000D01*
G75*
G02*
X129863000Y-83044000I135000J0D01*
G01*
X130233000Y-83044000D01*
G75*
G02*
X130368000Y-83179000I0J-135000D01*
G01*
X130368000Y-83449000D01*
G75*
G02*
X130233000Y-83584000I-135000J0D01*
G01*
G37*
G36*
G01*
X130233000Y-82564000D02*
X129863000Y-82564000D01*
G75*
G02*
X129728000Y-82429000I0J135000D01*
G01*
X129728000Y-82159000D01*
G75*
G02*
X129863000Y-82024000I135000J0D01*
G01*
X130233000Y-82024000D01*
G75*
G02*
X130368000Y-82159000I0J-135000D01*
G01*
X130368000Y-82429000D01*
G75*
G02*
X130233000Y-82564000I-135000J0D01*
G01*
G37*
%TD*%
%TO.C,R23*%
G36*
G01*
X130823885Y-103837292D02*
X130520799Y-104049515D01*
G75*
G02*
X130332780Y-104016362I-77433J110586D01*
G01*
X130177914Y-103795191D01*
G75*
G02*
X130211067Y-103607172I110586J77433D01*
G01*
X130514153Y-103394949D01*
G75*
G02*
X130702172Y-103428102I77433J-110586D01*
G01*
X130857038Y-103649273D01*
G75*
G02*
X130823885Y-103837292I-110586J-77433D01*
G01*
G37*
G36*
G01*
X131408933Y-104672828D02*
X131105847Y-104885051D01*
G75*
G02*
X130917828Y-104851898I-77433J110586D01*
G01*
X130762962Y-104630727D01*
G75*
G02*
X130796115Y-104442708I110586J77433D01*
G01*
X131099201Y-104230485D01*
G75*
G02*
X131287220Y-104263638I77433J-110586D01*
G01*
X131442086Y-104484809D01*
G75*
G02*
X131408933Y-104672828I-110586J-77433D01*
G01*
G37*
%TD*%
%TO.C,R24*%
G36*
G01*
X129376933Y-106196828D02*
X129073847Y-106409051D01*
G75*
G02*
X128885828Y-106375898I-77433J110586D01*
G01*
X128730962Y-106154727D01*
G75*
G02*
X128764115Y-105966708I110586J77433D01*
G01*
X129067201Y-105754485D01*
G75*
G02*
X129255220Y-105787638I77433J-110586D01*
G01*
X129410086Y-106008809D01*
G75*
G02*
X129376933Y-106196828I-110586J-77433D01*
G01*
G37*
G36*
G01*
X128791885Y-105361292D02*
X128488799Y-105573515D01*
G75*
G02*
X128300780Y-105540362I-77433J110586D01*
G01*
X128145914Y-105319191D01*
G75*
G02*
X128179067Y-105131172I110586J77433D01*
G01*
X128482153Y-104918949D01*
G75*
G02*
X128670172Y-104952102I77433J-110586D01*
G01*
X128825038Y-105173273D01*
G75*
G02*
X128791885Y-105361292I-110586J-77433D01*
G01*
G37*
%TD*%
%TO.C,R25*%
G36*
G01*
X127947000Y-78250000D02*
X127577000Y-78250000D01*
G75*
G02*
X127442000Y-78115000I0J135000D01*
G01*
X127442000Y-77845000D01*
G75*
G02*
X127577000Y-77710000I135000J0D01*
G01*
X127947000Y-77710000D01*
G75*
G02*
X128082000Y-77845000I0J-135000D01*
G01*
X128082000Y-78115000D01*
G75*
G02*
X127947000Y-78250000I-135000J0D01*
G01*
G37*
G36*
G01*
X127947000Y-77230000D02*
X127577000Y-77230000D01*
G75*
G02*
X127442000Y-77095000I0J135000D01*
G01*
X127442000Y-76825000D01*
G75*
G02*
X127577000Y-76690000I135000J0D01*
G01*
X127947000Y-76690000D01*
G75*
G02*
X128082000Y-76825000I0J-135000D01*
G01*
X128082000Y-77095000D01*
G75*
G02*
X127947000Y-77230000I-135000J0D01*
G01*
G37*
%TD*%
%TO.C,R26*%
G36*
G01*
X125204000Y-77147000D02*
X125204000Y-76777000D01*
G75*
G02*
X125339000Y-76642000I135000J0D01*
G01*
X125609000Y-76642000D01*
G75*
G02*
X125744000Y-76777000I0J-135000D01*
G01*
X125744000Y-77147000D01*
G75*
G02*
X125609000Y-77282000I-135000J0D01*
G01*
X125339000Y-77282000D01*
G75*
G02*
X125204000Y-77147000I0J135000D01*
G01*
G37*
G36*
G01*
X126224000Y-77147000D02*
X126224000Y-76777000D01*
G75*
G02*
X126359000Y-76642000I135000J0D01*
G01*
X126629000Y-76642000D01*
G75*
G02*
X126764000Y-76777000I0J-135000D01*
G01*
X126764000Y-77147000D01*
G75*
G02*
X126629000Y-77282000I-135000J0D01*
G01*
X126359000Y-77282000D01*
G75*
G02*
X126224000Y-77147000I0J135000D01*
G01*
G37*
%TD*%
D10*
%TO.C,SW1*%
G36*
X132381263Y-56310404D02*
G01*
X133088369Y-55603298D01*
X134149029Y-56663958D01*
X133441923Y-57371064D01*
X132381263Y-56310404D01*
G37*
G36*
X133936898Y-54754769D02*
G01*
X134644004Y-54047663D01*
X135704664Y-55108323D01*
X134997558Y-55815429D01*
X133936898Y-54754769D01*
G37*
G36*
X136411771Y-57229642D02*
G01*
X137118877Y-56522536D01*
X138179537Y-57583196D01*
X137472431Y-58290302D01*
X136411771Y-57229642D01*
G37*
G36*
X134856136Y-58785277D02*
G01*
X135563242Y-58078171D01*
X136623902Y-59138831D01*
X135916796Y-59845937D01*
X134856136Y-58785277D01*
G37*
%TD*%
D11*
%TO.C,SW2*%
X115796000Y-49868000D03*
X115796000Y-47668000D03*
X112296000Y-47668000D03*
X112296000Y-49868000D03*
%TD*%
D12*
%TO.C,U1*%
X112369200Y-96215200D03*
D13*
X118669200Y-96215200D03*
X118669200Y-98515200D03*
X118669200Y-93915200D03*
%TD*%
D10*
%TO.C,U4*%
G36*
X105087800Y-79113571D02*
G01*
X103377699Y-83812034D01*
X98679236Y-82101933D01*
X100389337Y-77403470D01*
X105087800Y-79113571D01*
G37*
G36*
X112589966Y-76044367D02*
G01*
X112282148Y-76890091D01*
X110402762Y-76206051D01*
X110710580Y-75360327D01*
X112589966Y-76044367D01*
G37*
G36*
X112155600Y-77237776D02*
G01*
X111847782Y-78083500D01*
X109968396Y-77399460D01*
X110276214Y-76553736D01*
X112155600Y-77237776D01*
G37*
G36*
X111721234Y-78431186D02*
G01*
X111413416Y-79276910D01*
X109534030Y-78592870D01*
X109841848Y-77747146D01*
X111721234Y-78431186D01*
G37*
G36*
X111286869Y-79624596D02*
G01*
X110979051Y-80470320D01*
X109099665Y-79786280D01*
X109407483Y-78940556D01*
X111286869Y-79624596D01*
G37*
G36*
X110852503Y-80818005D02*
G01*
X110544685Y-81663729D01*
X108665299Y-80979689D01*
X108973117Y-80133965D01*
X110852503Y-80818005D01*
G37*
G36*
X110418138Y-82011415D02*
G01*
X110110320Y-82857139D01*
X108230934Y-82173099D01*
X108538752Y-81327375D01*
X110418138Y-82011415D01*
G37*
G36*
X109983772Y-83204824D02*
G01*
X109675954Y-84050548D01*
X107796568Y-83366508D01*
X108104386Y-82520784D01*
X109983772Y-83204824D01*
G37*
G36*
X109549406Y-84398234D02*
G01*
X109241588Y-85243958D01*
X107362202Y-84559918D01*
X107670020Y-83714194D01*
X109549406Y-84398234D01*
G37*
G36*
X109115041Y-85591644D02*
G01*
X108807223Y-86437368D01*
X106927837Y-85753328D01*
X107235655Y-84907604D01*
X109115041Y-85591644D01*
G37*
G36*
X108680675Y-86785053D02*
G01*
X108372857Y-87630777D01*
X106493471Y-86946737D01*
X106801289Y-86101013D01*
X108680675Y-86785053D01*
G37*
G36*
X108246310Y-87978463D02*
G01*
X107938492Y-88824187D01*
X106059106Y-88140147D01*
X106366924Y-87294423D01*
X108246310Y-87978463D01*
G37*
G36*
X107811944Y-89171873D02*
G01*
X107504126Y-90017597D01*
X105624740Y-89333557D01*
X105932558Y-88487833D01*
X107811944Y-89171873D01*
G37*
G36*
X107377579Y-90365282D02*
G01*
X107069761Y-91211006D01*
X105190375Y-90526966D01*
X105498193Y-89681242D01*
X107377579Y-90365282D01*
G37*
G36*
X106943213Y-91558692D02*
G01*
X106635395Y-92404416D01*
X104756009Y-91720376D01*
X105063827Y-90874652D01*
X106943213Y-91558692D01*
G37*
G36*
X102971389Y-92720302D02*
G01*
X102125665Y-92412484D01*
X102809705Y-90533098D01*
X103655429Y-90840916D01*
X102971389Y-92720302D01*
G37*
G36*
X101777979Y-92285937D02*
G01*
X100932255Y-91978119D01*
X101616295Y-90098733D01*
X102462019Y-90406551D01*
X101777979Y-92285937D01*
G37*
G36*
X100584570Y-91851571D02*
G01*
X99738846Y-91543753D01*
X100422886Y-89664367D01*
X101268610Y-89972185D01*
X100584570Y-91851571D01*
G37*
G36*
X99391160Y-91417206D02*
G01*
X98545436Y-91109388D01*
X99229476Y-89230002D01*
X100075200Y-89537820D01*
X99391160Y-91417206D01*
G37*
G36*
X98197750Y-90982840D02*
G01*
X97352026Y-90675022D01*
X98036066Y-88795636D01*
X98881790Y-89103454D01*
X98197750Y-90982840D01*
G37*
G36*
X97004341Y-90548474D02*
G01*
X96158617Y-90240656D01*
X96842657Y-88361270D01*
X97688381Y-88669088D01*
X97004341Y-90548474D01*
G37*
G36*
X95810931Y-90114109D02*
G01*
X94965207Y-89806291D01*
X95649247Y-87926905D01*
X96494971Y-88234723D01*
X95810931Y-90114109D01*
G37*
G36*
X94617522Y-89679743D02*
G01*
X93771798Y-89371925D01*
X94455838Y-87492539D01*
X95301562Y-87800357D01*
X94617522Y-89679743D01*
G37*
G36*
X93424112Y-89245378D02*
G01*
X92578388Y-88937560D01*
X93262428Y-87058174D01*
X94108152Y-87365992D01*
X93424112Y-89245378D01*
G37*
G36*
X92230702Y-88811012D02*
G01*
X91384978Y-88503194D01*
X92069018Y-86623808D01*
X92914742Y-86931626D01*
X92230702Y-88811012D01*
G37*
G36*
X90968438Y-85744349D02*
G01*
X90660620Y-86590073D01*
X88781234Y-85906033D01*
X89089052Y-85060309D01*
X90968438Y-85744349D01*
G37*
G36*
X91402804Y-84550940D02*
G01*
X91094986Y-85396664D01*
X89215600Y-84712624D01*
X89523418Y-83866900D01*
X91402804Y-84550940D01*
G37*
G36*
X91837170Y-83357530D02*
G01*
X91529352Y-84203254D01*
X89649966Y-83519214D01*
X89957784Y-82673490D01*
X91837170Y-83357530D01*
G37*
G36*
X92271535Y-82164120D02*
G01*
X91963717Y-83009844D01*
X90084331Y-82325804D01*
X90392149Y-81480080D01*
X92271535Y-82164120D01*
G37*
G36*
X92705901Y-80970711D02*
G01*
X92398083Y-81816435D01*
X90518697Y-81132395D01*
X90826515Y-80286671D01*
X92705901Y-80970711D01*
G37*
G36*
X93140266Y-79777301D02*
G01*
X92832448Y-80623025D01*
X90953062Y-79938985D01*
X91260880Y-79093261D01*
X93140266Y-79777301D01*
G37*
G36*
X93574632Y-78583892D02*
G01*
X93266814Y-79429616D01*
X91387428Y-78745576D01*
X91695246Y-77899852D01*
X93574632Y-78583892D01*
G37*
G36*
X94008998Y-77390482D02*
G01*
X93701180Y-78236206D01*
X91821794Y-77552166D01*
X92129612Y-76706442D01*
X94008998Y-77390482D01*
G37*
G36*
X94443363Y-76197072D02*
G01*
X94135545Y-77042796D01*
X92256159Y-76358756D01*
X92563977Y-75513032D01*
X94443363Y-76197072D01*
G37*
G36*
X94877729Y-75003663D02*
G01*
X94569911Y-75849387D01*
X92690525Y-75165347D01*
X92998343Y-74319623D01*
X94877729Y-75003663D01*
G37*
G36*
X95312094Y-73810253D02*
G01*
X95004276Y-74655977D01*
X93124890Y-73971937D01*
X93432708Y-73126213D01*
X95312094Y-73810253D01*
G37*
G36*
X95746460Y-72616843D02*
G01*
X95438642Y-73462567D01*
X93559256Y-72778527D01*
X93867074Y-71932803D01*
X95746460Y-72616843D01*
G37*
G36*
X96180825Y-71423434D02*
G01*
X95873007Y-72269158D01*
X93993621Y-71585118D01*
X94301439Y-70739394D01*
X96180825Y-71423434D01*
G37*
G36*
X96615191Y-70230024D02*
G01*
X96307373Y-71075748D01*
X94427987Y-70391708D01*
X94735805Y-69545984D01*
X96615191Y-70230024D01*
G37*
%TD*%
%TO.C,R27*%
G36*
G01*
X138627400Y-94509000D02*
X138627400Y-93959000D01*
G75*
G02*
X138827400Y-93759000I200000J0D01*
G01*
X139227400Y-93759000D01*
G75*
G02*
X139427400Y-93959000I0J-200000D01*
G01*
X139427400Y-94509000D01*
G75*
G02*
X139227400Y-94709000I-200000J0D01*
G01*
X138827400Y-94709000D01*
G75*
G02*
X138627400Y-94509000I0J200000D01*
G01*
G37*
G36*
G01*
X140277400Y-94509000D02*
X140277400Y-93959000D01*
G75*
G02*
X140477400Y-93759000I200000J0D01*
G01*
X140877400Y-93759000D01*
G75*
G02*
X141077400Y-93959000I0J-200000D01*
G01*
X141077400Y-94509000D01*
G75*
G02*
X140877400Y-94709000I-200000J0D01*
G01*
X140477400Y-94709000D01*
G75*
G02*
X140277400Y-94509000I0J200000D01*
G01*
G37*
%TD*%
%TO.C,C1*%
G36*
G01*
X122649000Y-95816000D02*
X121699000Y-95816000D01*
G75*
G02*
X121449000Y-95566000I0J250000D01*
G01*
X121449000Y-95066000D01*
G75*
G02*
X121699000Y-94816000I250000J0D01*
G01*
X122649000Y-94816000D01*
G75*
G02*
X122899000Y-95066000I0J-250000D01*
G01*
X122899000Y-95566000D01*
G75*
G02*
X122649000Y-95816000I-250000J0D01*
G01*
G37*
G36*
G01*
X122649000Y-97716000D02*
X121699000Y-97716000D01*
G75*
G02*
X121449000Y-97466000I0J250000D01*
G01*
X121449000Y-96966000D01*
G75*
G02*
X121699000Y-96716000I250000J0D01*
G01*
X122649000Y-96716000D01*
G75*
G02*
X122899000Y-96966000I0J-250000D01*
G01*
X122899000Y-97466000D01*
G75*
G02*
X122649000Y-97716000I-250000J0D01*
G01*
G37*
%TD*%
%TO.C,C4*%
G36*
G01*
X112088000Y-101567000D02*
X112088000Y-100617000D01*
G75*
G02*
X112338000Y-100367000I250000J0D01*
G01*
X112838000Y-100367000D01*
G75*
G02*
X113088000Y-100617000I0J-250000D01*
G01*
X113088000Y-101567000D01*
G75*
G02*
X112838000Y-101817000I-250000J0D01*
G01*
X112338000Y-101817000D01*
G75*
G02*
X112088000Y-101567000I0J250000D01*
G01*
G37*
G36*
G01*
X113988000Y-101567000D02*
X113988000Y-100617000D01*
G75*
G02*
X114238000Y-100367000I250000J0D01*
G01*
X114738000Y-100367000D01*
G75*
G02*
X114988000Y-100617000I0J-250000D01*
G01*
X114988000Y-101567000D01*
G75*
G02*
X114738000Y-101817000I-250000J0D01*
G01*
X114238000Y-101817000D01*
G75*
G02*
X113988000Y-101567000I0J250000D01*
G01*
G37*
%TD*%
%TO.C,C7*%
G36*
G01*
X121379000Y-78920000D02*
X120429000Y-78920000D01*
G75*
G02*
X120179000Y-78670000I0J250000D01*
G01*
X120179000Y-78170000D01*
G75*
G02*
X120429000Y-77920000I250000J0D01*
G01*
X121379000Y-77920000D01*
G75*
G02*
X121629000Y-78170000I0J-250000D01*
G01*
X121629000Y-78670000D01*
G75*
G02*
X121379000Y-78920000I-250000J0D01*
G01*
G37*
G36*
G01*
X121379000Y-77020000D02*
X120429000Y-77020000D01*
G75*
G02*
X120179000Y-76770000I0J250000D01*
G01*
X120179000Y-76270000D01*
G75*
G02*
X120429000Y-76020000I250000J0D01*
G01*
X121379000Y-76020000D01*
G75*
G02*
X121629000Y-76270000I0J-250000D01*
G01*
X121629000Y-76770000D01*
G75*
G02*
X121379000Y-77020000I-250000J0D01*
G01*
G37*
%TD*%
M02*
