M48
; DRILL file {KiCad (5.99.0-10634-g5f56117be9)} date Mon May 24 23:14:35 2021
; FORMAT={3:3/ absolute / metric / suppress leading zeros}
; #@! TF.CreationDate,2021-05-24T23:14:35+02:00
; #@! TF.GenerationSoftware,Kicad,Pcbnew,(5.99.0-10634-g5f56117be9)
; #@! TF.FileFunction,MixedPlating,1,4
FMAT,2
METRIC,TZ
; #@! TA.AperFunction,Plated,PTH,ViaDrill
T1C0.300
; #@! TA.AperFunction,Plated,PTH,ViaDrill
T2C0.400
; #@! TA.AperFunction,Plated,PTH,ComponentDrill
T3C0.750
; #@! TA.AperFunction,Plated,PTH,ComponentDrill
T4C0.900
; #@! TA.AperFunction,Plated,PTH,ComponentDrill
T5C1.000
; #@! TA.AperFunction,NonPlated,NPTH,ComponentDrill
T6C1.152
%
G90
G05
T1
X81737Y-91618
X82296Y-70612
X86233Y-73533
X93599Y-56896
X95631Y-73177
X96266Y-83185
X97206Y-74854
X97663Y-56515
X97790Y-71120
X97790Y-84709
X98298Y-58547
X99187Y-72771
X100076Y-93980
X100127Y-77775
X100203Y-72644
X100319Y-106756
X100457Y-62865
X100573Y-104470
X101092Y-69342
X101346Y-98552
X102438Y-79934
X102605Y-105740
X103251Y-57404
X103327Y-76098
X103937Y-75590
X104902Y-64008
X105181Y-79273
X105410Y-67310
X105816Y-78740
X106553Y-64008
X106807Y-66929
X107163Y-63424
X107223Y-94565
X107315Y-96520
X107450Y-97925
X107507Y-66929
X107747Y-76784
X107830Y-95948
X108071Y-97355
X108458Y-102235
X108458Y-103632
X108680Y-96833
X109220Y-102235
X109220Y-103632
X112293Y-108712
X113665Y-64516
X113665Y-66421
X113817Y-106934
X114554Y-68326
X115253Y-68413
X115697Y-108712
X116078Y-64437
X116078Y-65659
X116364Y-104372
X117221Y-67437
X117538Y-104661
X117945Y-105880
X117983Y-87605
X118110Y-68326
X118439Y-105385
X118618Y-74625
X118676Y-73906
X119531Y-69938
X119761Y-87249
X120003Y-72021
X120396Y-69850
X120523Y-71553
X120904Y-77597
X121013Y-76192
X121031Y-70993
X121615Y-80416
X121624Y-86089
X121657Y-84947
X121864Y-69850
X122047Y-76200
X122056Y-78545
X122174Y-86638
X122606Y-54889
X122606Y-55880
X122606Y-56871
X122612Y-57727
X122733Y-68351
X123407Y-106248
X123927Y-66015
X123967Y-64516
X124358Y-62840
X124714Y-104775
X124968Y-78740
X125095Y-96774
X125146Y-68402
X125197Y-64465
X125476Y-76454
X125603Y-102743
X125730Y-87376
X125857Y-70231
X125882Y-64237
X126201Y-106248
X126238Y-78740
X126238Y-97917
X126365Y-55118
X126746Y-76708
X126900Y-101613
X127381Y-56642
X127406Y-80721
X127508Y-89789
X127762Y-93218
X127991Y-64465
X128016Y-66294
X128016Y-96774
X128308Y-70574
X128687Y-93218
X128905Y-104394
X129264Y-110468
X129636Y-82101
X129921Y-57404
X129972Y-68783
X130048Y-53086
X130048Y-54102
X130685Y-83566
X131191Y-76327
X131445Y-74041
X131759Y-76810
X131821Y-108971
X132284Y-75373
X132334Y-84709
X132594Y-84060
X133807Y-56007
X134569Y-73101
X136500Y-74879
X137414Y-72771
X145186Y-92177
X145288Y-72390
T2
X82169Y-54356
X83185Y-51816
X84709Y-50419
X87122Y-49657
X101600Y-87630
X101600Y-89154
X101600Y-90678
X104394Y-89154
X105368Y-86868
X106045Y-92837
X109728Y-60071
X112649Y-59563
X113157Y-62357
X116840Y-68834
X122555Y-79248
X123146Y-74101
X125488Y-83025
X125984Y-50546
X126238Y-52451
X126619Y-73152
X128143Y-79375
X128371Y-89001
T3
X112094Y-96732
X114094Y-96732
X116094Y-96732
X118094Y-96732
X120094Y-96732
X122094Y-96732
T4
X84431Y-81432
X86971Y-81432
X91186Y-96413
X91186Y-98953
X113843Y-80233
X113843Y-82773
X135235Y-65659
X136369Y-96881
X136369Y-99421
X137775Y-65659
X140594Y-81661
X143134Y-81661
T5
X81391Y-83932
X84800Y-55789
X86596Y-53993
X88392Y-52197
X88584Y-101815
X90705Y-60133
X102927Y-113160
X105402Y-113732
X107877Y-114303
X110352Y-114874
X112133Y-86182
X117822Y-115015
X120316Y-114531
X122809Y-114046
X138869Y-102273
X141754Y-65481
X146244Y-84339
T6
X98933Y-110109
X128016Y-50394
T5
G00X89551Y-78066
M15
G01X90551Y-79798
M16
G05
G00X93763Y-69707
M15
G01X91806Y-70123
M16
G05
G00X92718Y-92655
M15
G01X94450Y-93655
M16
G05
G00X114613Y-76443
M15
G01X116493Y-77127
M16
G05
G00X131754Y-66481
M15
G01X131754Y-64481
M16
G05
G00X133003Y-94112
M15
G01X134735Y-93112
M16
G05
G00X137083Y-80205
M15
G01X138083Y-78473
M16
G05
T0
M30
