%TF.GenerationSoftware,KiCad,Pcbnew,(5.99.0-10634-g5f56117be9)*%
%TF.CreationDate,2021-05-24T23:14:31+02:00*%
%TF.ProjectId,custom-pcb,63757374-6f6d-42d7-9063-622e6b696361,rev?*%
%TF.SameCoordinates,Original*%
%TF.FileFunction,Legend,Bot*%
%TF.FilePolarity,Positive*%
%FSLAX46Y46*%
G04 Gerber Fmt 4.6, Leading zero omitted, Abs format (unit mm)*
G04 Created by KiCad (PCBNEW (5.99.0-10634-g5f56117be9)) date 2021-05-24 23:14:31*
%MOMM*%
%LPD*%
G01*
G04 APERTURE LIST*
%ADD10C,0.120000*%
%ADD11C,0.222639*%
%ADD12C,0.340552*%
%ADD13C,0.150000*%
%ADD14C,0.300000*%
G04 APERTURE END LIST*
D10*
X122301000Y-57404000D02*
X123952000Y-57277000D01*
X123825000Y-55118000D02*
X123952000Y-55118000D01*
X122301000Y-55118000D02*
X123825000Y-55118000D01*
X122301000Y-56134000D02*
X123952000Y-56134000D01*
X91221384Y-81407000D02*
G75*
G03*
X91221384Y-81407000I-5478692J0D01*
G01*
D11*
X131226119Y-84099400D02*
G75*
G03*
X131226119Y-84099400I-111319J0D01*
G01*
X107985119Y-86324361D02*
G75*
G03*
X107985119Y-86324361I-111319J0D01*
G01*
D10*
X141859000Y-97917000D02*
G75*
G03*
X141859000Y-97917000I-5478692J0D01*
G01*
X97155000Y-65024000D02*
G75*
G03*
X97155000Y-65024000I-5478692J0D01*
G01*
D11*
X131165080Y-74904600D02*
G75*
G03*
X131165080Y-74904600I-111319J0D01*
G01*
D10*
X96520000Y-97536000D02*
G75*
G03*
X96520000Y-97536000I-5478692J0D01*
G01*
D12*
X119575676Y-52273200D02*
G75*
G03*
X119575676Y-52273200I-170276J0D01*
G01*
D10*
X147447000Y-81788000D02*
G75*
G03*
X147447000Y-81788000I-5478692J0D01*
G01*
X119301517Y-81407000D02*
G75*
G03*
X119301517Y-81407000I-5509517J0D01*
G01*
X142240000Y-65405000D02*
G75*
G03*
X142240000Y-65405000I-5478692J0D01*
G01*
D13*
X83521422Y-54014107D02*
X83622437Y-54047779D01*
X83723452Y-54148794D01*
X83790796Y-54283481D01*
X83790796Y-54418168D01*
X83757124Y-54519183D01*
X83656109Y-54687542D01*
X83555094Y-54788557D01*
X83386735Y-54889573D01*
X83285720Y-54923244D01*
X83151033Y-54923244D01*
X83016346Y-54855901D01*
X82949002Y-54788557D01*
X82881659Y-54653870D01*
X82881659Y-54586527D01*
X83117361Y-54350825D01*
X83252048Y-54485512D01*
X82511269Y-54350825D02*
X83218376Y-53643718D01*
X82107208Y-53946764D01*
X82814315Y-53239657D01*
X81770491Y-53610046D02*
X82477598Y-52902939D01*
X82309239Y-52734581D01*
X82174552Y-52667237D01*
X82039865Y-52667237D01*
X81938850Y-52700909D01*
X81770491Y-52801924D01*
X81669476Y-52902939D01*
X81568460Y-53071298D01*
X81534789Y-53172313D01*
X81534789Y-53307000D01*
X81602132Y-53441687D01*
X81770491Y-53610046D01*
X87152853Y-51067425D02*
X86917151Y-50831723D01*
X86445746Y-51101097D02*
X86782464Y-51437814D01*
X87489571Y-50730708D01*
X87152853Y-50393990D01*
X86142701Y-50798051D02*
X86849808Y-50090944D01*
X85738640Y-50393990D01*
X86445746Y-49686883D01*
X84992003Y-53239455D02*
X85699109Y-52532348D01*
X85227705Y-52060944D02*
X85093018Y-51926257D01*
X84992003Y-51892585D01*
X84857316Y-51892585D01*
X84688957Y-51993600D01*
X84453255Y-52229302D01*
X84352239Y-52397661D01*
X84352239Y-52532348D01*
X84385911Y-52633363D01*
X84520598Y-52768050D01*
X84621613Y-52801722D01*
X84756300Y-52801722D01*
X84924659Y-52700707D01*
X85160361Y-52465005D01*
X85261377Y-52296646D01*
X85261377Y-52161959D01*
X85227705Y-52060944D01*
X84486926Y-51320165D02*
X84419583Y-51252822D01*
X84318568Y-51219150D01*
X84251224Y-51219150D01*
X84150209Y-51252822D01*
X83981850Y-51353837D01*
X83813491Y-51522196D01*
X83712476Y-51690554D01*
X83678804Y-51791570D01*
X83678804Y-51858913D01*
X83712476Y-51959928D01*
X83779820Y-52027272D01*
X83880835Y-52060944D01*
X83948178Y-52060944D01*
X84049194Y-52027272D01*
X84217552Y-51926257D01*
X84385911Y-51757898D01*
X84486926Y-51589539D01*
X84520598Y-51488524D01*
X84520598Y-51421180D01*
X84486926Y-51320165D01*
X111989571Y-100780285D02*
X111989571Y-100446952D01*
X112513380Y-100446952D02*
X111513380Y-100446952D01*
X111513380Y-100923142D01*
X112227666Y-101256476D02*
X112227666Y-101732666D01*
X112513380Y-101161238D02*
X111513380Y-101494571D01*
X112513380Y-101827904D01*
X112513380Y-102161238D02*
X111513380Y-102161238D01*
X112513380Y-102732666D01*
X111513380Y-102732666D01*
X111513380Y-103399333D02*
X111513380Y-103494571D01*
X111561000Y-103589809D01*
X111608619Y-103637428D01*
X111703857Y-103685047D01*
X111894333Y-103732666D01*
X112132428Y-103732666D01*
X112322904Y-103685047D01*
X112418142Y-103637428D01*
X112465761Y-103589809D01*
X112513380Y-103494571D01*
X112513380Y-103399333D01*
X112465761Y-103304095D01*
X112418142Y-103256476D01*
X112322904Y-103208857D01*
X112132428Y-103161238D01*
X111894333Y-103161238D01*
X111703857Y-103208857D01*
X111608619Y-103256476D01*
X111561000Y-103304095D01*
X111513380Y-103399333D01*
X119689000Y-100923095D02*
X119641380Y-100827857D01*
X119641380Y-100685000D01*
X119689000Y-100542142D01*
X119784238Y-100446904D01*
X119879476Y-100399285D01*
X120069952Y-100351666D01*
X120212809Y-100351666D01*
X120403285Y-100399285D01*
X120498523Y-100446904D01*
X120593761Y-100542142D01*
X120641380Y-100685000D01*
X120641380Y-100780238D01*
X120593761Y-100923095D01*
X120546142Y-100970714D01*
X120212809Y-100970714D01*
X120212809Y-100780238D01*
X120641380Y-101399285D02*
X119641380Y-101399285D01*
X120641380Y-101970714D01*
X119641380Y-101970714D01*
X120641380Y-102446904D02*
X119641380Y-102446904D01*
X119641380Y-102685000D01*
X119689000Y-102827857D01*
X119784238Y-102923095D01*
X119879476Y-102970714D01*
X120069952Y-103018333D01*
X120212809Y-103018333D01*
X120403285Y-102970714D01*
X120498523Y-102923095D01*
X120593761Y-102827857D01*
X120641380Y-102685000D01*
X120641380Y-102446904D01*
X114021571Y-100780285D02*
X114021571Y-100446952D01*
X114545380Y-100446952D02*
X113545380Y-100446952D01*
X113545380Y-100923142D01*
X114259666Y-101256476D02*
X114259666Y-101732666D01*
X114545380Y-101161238D02*
X113545380Y-101494571D01*
X114545380Y-101827904D01*
X114545380Y-102161238D02*
X113545380Y-102161238D01*
X114545380Y-102732666D01*
X113545380Y-102732666D01*
X114545380Y-103732666D02*
X114545380Y-103161238D01*
X114545380Y-103446952D02*
X113545380Y-103446952D01*
X113688238Y-103351714D01*
X113783476Y-103256476D01*
X113831095Y-103161238D01*
X121597180Y-100351666D02*
X122597180Y-100685000D01*
X121597180Y-101018333D01*
X122501942Y-101923095D02*
X122549561Y-101875476D01*
X122597180Y-101732619D01*
X122597180Y-101637380D01*
X122549561Y-101494523D01*
X122454323Y-101399285D01*
X122359085Y-101351666D01*
X122168609Y-101304047D01*
X122025752Y-101304047D01*
X121835276Y-101351666D01*
X121740038Y-101399285D01*
X121644800Y-101494523D01*
X121597180Y-101637380D01*
X121597180Y-101732619D01*
X121644800Y-101875476D01*
X121692419Y-101923095D01*
X122501942Y-102923095D02*
X122549561Y-102875476D01*
X122597180Y-102732619D01*
X122597180Y-102637380D01*
X122549561Y-102494523D01*
X122454323Y-102399285D01*
X122359085Y-102351666D01*
X122168609Y-102304047D01*
X122025752Y-102304047D01*
X121835276Y-102351666D01*
X121740038Y-102399285D01*
X121644800Y-102494523D01*
X121597180Y-102637380D01*
X121597180Y-102732619D01*
X121644800Y-102875476D01*
X121692419Y-102923095D01*
X118085571Y-100780285D02*
X118085571Y-100446952D01*
X118609380Y-100446952D02*
X117609380Y-100446952D01*
X117609380Y-100923142D01*
X118323666Y-101256476D02*
X118323666Y-101732666D01*
X118609380Y-101161238D02*
X117609380Y-101494571D01*
X118609380Y-101827904D01*
X118609380Y-102161238D02*
X117609380Y-102161238D01*
X118609380Y-102732666D01*
X117609380Y-102732666D01*
X117609380Y-103113619D02*
X117609380Y-103732666D01*
X117990333Y-103399333D01*
X117990333Y-103542190D01*
X118037952Y-103637428D01*
X118085571Y-103685047D01*
X118180809Y-103732666D01*
X118418904Y-103732666D01*
X118514142Y-103685047D01*
X118561761Y-103637428D01*
X118609380Y-103542190D01*
X118609380Y-103256476D01*
X118561761Y-103161238D01*
X118514142Y-103113619D01*
X116053571Y-100780285D02*
X116053571Y-100446952D01*
X116577380Y-100446952D02*
X115577380Y-100446952D01*
X115577380Y-100923142D01*
X116291666Y-101256476D02*
X116291666Y-101732666D01*
X116577380Y-101161238D02*
X115577380Y-101494571D01*
X116577380Y-101827904D01*
X116577380Y-102161238D02*
X115577380Y-102161238D01*
X116577380Y-102732666D01*
X115577380Y-102732666D01*
X115672619Y-103161238D02*
X115625000Y-103208857D01*
X115577380Y-103304095D01*
X115577380Y-103542190D01*
X115625000Y-103637428D01*
X115672619Y-103685047D01*
X115767857Y-103732666D01*
X115863095Y-103732666D01*
X116005952Y-103685047D01*
X116577380Y-103113619D01*
X116577380Y-103732666D01*
X144430333Y-83399380D02*
X143858904Y-83399380D01*
X144144619Y-84399380D02*
X144144619Y-83399380D01*
X143525571Y-84399380D02*
X143525571Y-83399380D01*
X143144619Y-83399380D01*
X143049380Y-83447000D01*
X143001761Y-83494619D01*
X142954142Y-83589857D01*
X142954142Y-83732714D01*
X143001761Y-83827952D01*
X143049380Y-83875571D01*
X143144619Y-83923190D01*
X143525571Y-83923190D01*
X141763666Y-84399380D02*
X141763666Y-83399380D01*
X141192238Y-84399380D01*
X141192238Y-83399380D01*
X140716047Y-84399380D02*
X140716047Y-83399380D01*
X139716047Y-83447000D02*
X139811285Y-83399380D01*
X139954142Y-83399380D01*
X140097000Y-83447000D01*
X140192238Y-83542238D01*
X140239857Y-83637476D01*
X140287476Y-83827952D01*
X140287476Y-83970809D01*
X140239857Y-84161285D01*
X140192238Y-84256523D01*
X140097000Y-84351761D01*
X139954142Y-84399380D01*
X139858904Y-84399380D01*
X139716047Y-84351761D01*
X139668428Y-84304142D01*
X139668428Y-83970809D01*
X139858904Y-83970809D01*
X139239857Y-84399380D02*
X139239857Y-83399380D01*
X139239857Y-83875571D02*
X138668428Y-83875571D01*
X138668428Y-84399380D02*
X138668428Y-83399380D01*
X138335095Y-83399380D02*
X137763666Y-83399380D01*
X138049380Y-84399380D02*
X138049380Y-83399380D01*
X125027072Y-114595587D02*
X125812374Y-114442940D01*
X125776029Y-114255964D01*
X125716827Y-114151047D01*
X125627499Y-114090794D01*
X125545439Y-114067936D01*
X125388589Y-114059617D01*
X125276403Y-114081423D01*
X125134091Y-114147894D01*
X125066569Y-114199828D01*
X125006316Y-114289156D01*
X124990727Y-114408611D01*
X125027072Y-114595587D01*
X125234891Y-113468560D02*
X125175689Y-113363643D01*
X125131025Y-113333517D01*
X125048965Y-113310659D01*
X124936779Y-113332466D01*
X124869257Y-113384399D01*
X124839131Y-113429064D01*
X124816274Y-113511123D01*
X124874425Y-113810286D01*
X125659727Y-113657639D01*
X125608844Y-113395871D01*
X125556911Y-113328350D01*
X125512247Y-113298223D01*
X125430187Y-113275366D01*
X125355397Y-113289904D01*
X125287875Y-113341837D01*
X125257748Y-113386501D01*
X125234891Y-113468560D01*
X125285773Y-113730328D01*
X125478004Y-112722756D02*
X125448928Y-112573174D01*
X125396995Y-112505653D01*
X125307666Y-112445400D01*
X125150816Y-112437080D01*
X124889049Y-112487962D01*
X124746737Y-112554433D01*
X124686484Y-112643762D01*
X124663626Y-112725821D01*
X124692702Y-112875403D01*
X124744635Y-112942924D01*
X124833964Y-113003177D01*
X124990814Y-113011497D01*
X125252581Y-112960615D01*
X125394893Y-112894144D01*
X125455146Y-112804815D01*
X125478004Y-112722756D01*
X124793502Y-112196069D02*
X124720813Y-111822116D01*
X124583668Y-112314473D02*
X125318088Y-111900058D01*
X124481903Y-111790938D01*
X124343794Y-111080427D02*
X124768630Y-111269505D01*
X124431021Y-111529171D02*
X125216323Y-111376524D01*
X125158172Y-111077361D01*
X125106238Y-111009840D01*
X125061574Y-110979713D01*
X124979515Y-110956856D01*
X124867329Y-110978662D01*
X124799807Y-111030596D01*
X124769680Y-111075260D01*
X124746823Y-111157319D01*
X124804974Y-111456482D01*
X124278374Y-110743869D02*
X125063676Y-110591222D01*
X125027331Y-110404246D01*
X124968129Y-110299329D01*
X124878801Y-110239076D01*
X124796741Y-110216218D01*
X124639891Y-110207899D01*
X124527705Y-110229705D01*
X124385392Y-110296176D01*
X124317871Y-110348109D01*
X124257618Y-110437438D01*
X124242029Y-110556893D01*
X124278374Y-110743869D01*
X111231648Y-113563347D02*
X110332262Y-113013606D01*
X111381616Y-112913767D01*
X110703570Y-111828667D02*
X110646459Y-111864354D01*
X110567925Y-111992837D01*
X110546501Y-112085635D01*
X110560764Y-112235542D01*
X110632137Y-112349763D01*
X110714222Y-112417586D01*
X110889105Y-112506832D01*
X111028300Y-112538968D01*
X111224607Y-112535417D01*
X111328116Y-112510443D01*
X111442337Y-112439069D01*
X111520871Y-112310586D01*
X111542295Y-112217788D01*
X111528032Y-112067881D01*
X111492346Y-112010770D01*
X110928521Y-110854297D02*
X110871410Y-110889984D01*
X110792876Y-111018467D01*
X110771452Y-111111264D01*
X110785715Y-111261172D01*
X110857088Y-111375393D01*
X110939173Y-111443216D01*
X111114056Y-111532462D01*
X111253251Y-111564598D01*
X111449558Y-111561047D01*
X111553067Y-111536072D01*
X111667288Y-111464699D01*
X111745822Y-111336215D01*
X111767246Y-111243418D01*
X111752983Y-111093511D01*
X111717297Y-111036400D01*
X105454246Y-111545816D02*
X105843248Y-111977726D01*
X105325702Y-112102599D02*
X106300072Y-112327550D01*
X106385768Y-111956361D01*
X106360793Y-111852852D01*
X106325107Y-111795742D01*
X106243021Y-111727919D01*
X106103826Y-111695783D01*
X106000317Y-111720758D01*
X105943206Y-111756445D01*
X105875384Y-111838530D01*
X105789688Y-112209718D01*
X106503599Y-111445977D02*
X105679197Y-110571446D01*
X106653567Y-110796397D02*
X105529229Y-111221026D01*
X105764892Y-110200257D02*
X106739262Y-110425208D01*
X106792822Y-110193215D01*
X106778559Y-110043308D01*
X106707186Y-109929087D01*
X106625101Y-109861264D01*
X106450219Y-109772018D01*
X106311023Y-109739882D01*
X106114717Y-109743433D01*
X106011208Y-109768407D01*
X105896987Y-109839781D01*
X105818452Y-109968264D01*
X105764892Y-110200257D01*
X95035285Y-64476380D02*
X94463857Y-64476380D01*
X94749571Y-65476380D02*
X94749571Y-64476380D01*
X94130523Y-65476380D02*
X94130523Y-64476380D01*
X93749571Y-64476380D01*
X93654333Y-64524000D01*
X93606714Y-64571619D01*
X93559095Y-64666857D01*
X93559095Y-64809714D01*
X93606714Y-64904952D01*
X93654333Y-64952571D01*
X93749571Y-65000190D01*
X94130523Y-65000190D01*
X91892428Y-65476380D02*
X92368619Y-65476380D01*
X92368619Y-64476380D01*
X91559095Y-65476380D02*
X91559095Y-64476380D01*
X90559095Y-64524000D02*
X90654333Y-64476380D01*
X90797190Y-64476380D01*
X90940047Y-64524000D01*
X91035285Y-64619238D01*
X91082904Y-64714476D01*
X91130523Y-64904952D01*
X91130523Y-65047809D01*
X91082904Y-65238285D01*
X91035285Y-65333523D01*
X90940047Y-65428761D01*
X90797190Y-65476380D01*
X90701952Y-65476380D01*
X90559095Y-65428761D01*
X90511476Y-65381142D01*
X90511476Y-65047809D01*
X90701952Y-65047809D01*
X90082904Y-65476380D02*
X90082904Y-64476380D01*
X90082904Y-64952571D02*
X89511476Y-64952571D01*
X89511476Y-65476380D02*
X89511476Y-64476380D01*
X89178142Y-64476380D02*
X88606714Y-64476380D01*
X88892428Y-65476380D02*
X88892428Y-64476380D01*
D14*
X92133266Y-89965133D02*
X92133266Y-88565133D01*
X92133266Y-89898466D02*
X92266600Y-89965133D01*
X92533266Y-89965133D01*
X92666600Y-89898466D01*
X92733266Y-89831800D01*
X92799933Y-89698466D01*
X92799933Y-89298466D01*
X92733266Y-89165133D01*
X92666600Y-89098466D01*
X92533266Y-89031800D01*
X92266600Y-89031800D01*
X92133266Y-89098466D01*
X90933266Y-89898466D02*
X91066600Y-89965133D01*
X91333266Y-89965133D01*
X91466600Y-89898466D01*
X91533266Y-89765133D01*
X91533266Y-89231800D01*
X91466600Y-89098466D01*
X91333266Y-89031800D01*
X91066600Y-89031800D01*
X90933266Y-89098466D01*
X90866600Y-89231800D01*
X90866600Y-89365133D01*
X91533266Y-89498466D01*
X90266600Y-89031800D02*
X90266600Y-90431800D01*
X90266600Y-89098466D02*
X90133266Y-89031800D01*
X89866600Y-89031800D01*
X89733266Y-89098466D01*
X89666600Y-89165133D01*
X89599933Y-89298466D01*
X89599933Y-89698466D01*
X89666600Y-89831800D01*
X89733266Y-89898466D01*
X89866600Y-89965133D01*
X90133266Y-89965133D01*
X90266600Y-89898466D01*
X88399933Y-89965133D02*
X88399933Y-89231800D01*
X88466600Y-89098466D01*
X88599933Y-89031800D01*
X88866600Y-89031800D01*
X88999933Y-89098466D01*
X88399933Y-89898466D02*
X88533266Y-89965133D01*
X88866600Y-89965133D01*
X88999933Y-89898466D01*
X89066600Y-89765133D01*
X89066600Y-89631800D01*
X88999933Y-89498466D01*
X88866600Y-89431800D01*
X88533266Y-89431800D01*
X88399933Y-89365133D01*
X87133266Y-89031800D02*
X87133266Y-89965133D01*
X87733266Y-89031800D02*
X87733266Y-89765133D01*
X87666600Y-89898466D01*
X87533266Y-89965133D01*
X87333266Y-89965133D01*
X87199933Y-89898466D01*
X87133266Y-89831800D01*
X86466600Y-89831800D02*
X86399933Y-89898466D01*
X86466600Y-89965133D01*
X86533266Y-89898466D01*
X86466600Y-89831800D01*
X86466600Y-89965133D01*
X85266600Y-89898466D02*
X85399933Y-89965133D01*
X85666600Y-89965133D01*
X85799933Y-89898466D01*
X85866600Y-89765133D01*
X85866600Y-89231800D01*
X85799933Y-89098466D01*
X85666600Y-89031800D01*
X85399933Y-89031800D01*
X85266600Y-89098466D01*
X85199933Y-89231800D01*
X85199933Y-89365133D01*
X85866600Y-89498466D01*
X83999933Y-89031800D02*
X83999933Y-89965133D01*
X84599933Y-89031800D02*
X84599933Y-89765133D01*
X84533266Y-89898466D01*
X84399933Y-89965133D01*
X84199933Y-89965133D01*
X84066600Y-89898466D01*
X83999933Y-89831800D01*
D13*
X88280428Y-78700380D02*
X87709000Y-78700380D01*
X87994714Y-79700380D02*
X87994714Y-78700380D01*
X87375666Y-79700380D02*
X87375666Y-78700380D01*
X86994714Y-78700380D01*
X86899476Y-78748000D01*
X86851857Y-78795619D01*
X86804238Y-78890857D01*
X86804238Y-79033714D01*
X86851857Y-79128952D01*
X86899476Y-79176571D01*
X86994714Y-79224190D01*
X87375666Y-79224190D01*
X85280428Y-79176571D02*
X85613761Y-79176571D01*
X85613761Y-79700380D02*
X85613761Y-78700380D01*
X85137571Y-78700380D01*
X84756619Y-79700380D02*
X84756619Y-78700380D01*
X83804238Y-79700380D02*
X84280428Y-79700380D01*
X84280428Y-78700380D01*
X83613761Y-78700380D02*
X83042333Y-78700380D01*
X83328047Y-79700380D02*
X83328047Y-78700380D01*
X82709000Y-79176571D02*
X82375666Y-79176571D01*
X82232809Y-79700380D02*
X82709000Y-79700380D01*
X82709000Y-78700380D01*
X82232809Y-78700380D01*
X81232809Y-79700380D02*
X81566142Y-79224190D01*
X81804238Y-79700380D02*
X81804238Y-78700380D01*
X81423285Y-78700380D01*
X81328047Y-78748000D01*
X81280428Y-78795619D01*
X81232809Y-78890857D01*
X81232809Y-79033714D01*
X81280428Y-79128952D01*
X81328047Y-79176571D01*
X81423285Y-79224190D01*
X81804238Y-79224190D01*
X139834523Y-67905380D02*
X139263095Y-67905380D01*
X139548809Y-68905380D02*
X139548809Y-67905380D01*
X138929761Y-68905380D02*
X138929761Y-67905380D01*
X138548809Y-67905380D01*
X138453571Y-67953000D01*
X138405952Y-68000619D01*
X138358333Y-68095857D01*
X138358333Y-68238714D01*
X138405952Y-68333952D01*
X138453571Y-68381571D01*
X138548809Y-68429190D01*
X138929761Y-68429190D01*
X137310714Y-67905380D02*
X136739285Y-67905380D01*
X137025000Y-68905380D02*
X137025000Y-67905380D01*
X136405952Y-68905380D02*
X136405952Y-67905380D01*
X135929761Y-68905380D02*
X135929761Y-67905380D01*
X135596428Y-68619666D01*
X135263095Y-67905380D01*
X135263095Y-68905380D01*
X134786904Y-68381571D02*
X134453571Y-68381571D01*
X134310714Y-68905380D02*
X134786904Y-68905380D01*
X134786904Y-67905380D01*
X134310714Y-67905380D01*
X133310714Y-68905380D02*
X133644047Y-68429190D01*
X133882142Y-68905380D02*
X133882142Y-67905380D01*
X133501190Y-67905380D01*
X133405952Y-67953000D01*
X133358333Y-68000619D01*
X133310714Y-68095857D01*
X133310714Y-68238714D01*
X133358333Y-68333952D01*
X133405952Y-68381571D01*
X133501190Y-68429190D01*
X133882142Y-68429190D01*
X103820793Y-111217852D02*
X103845768Y-111321361D01*
X103813632Y-111460557D01*
X103735098Y-111589041D01*
X103620877Y-111660414D01*
X103517367Y-111685389D01*
X103321061Y-111688939D01*
X103181865Y-111656804D01*
X103006983Y-111567557D01*
X102924898Y-111499735D01*
X102853525Y-111385514D01*
X102839262Y-111235606D01*
X102860686Y-111142809D01*
X102939220Y-111014325D01*
X102996331Y-110978638D01*
X103321121Y-111053622D01*
X103278273Y-111239216D01*
X102999941Y-110539627D02*
X103974311Y-110764578D01*
X103128485Y-109982844D01*
X104102855Y-110207796D01*
X103235604Y-109518859D02*
X104209974Y-109743810D01*
X104263534Y-109511817D01*
X104249271Y-109361909D01*
X104177898Y-109247688D01*
X104095813Y-109179866D01*
X103920931Y-109090619D01*
X103781735Y-109058483D01*
X103585429Y-109062034D01*
X103481920Y-109087009D01*
X103367699Y-109158382D01*
X103289164Y-109286866D01*
X103235604Y-109518859D01*
X95297238Y-100036380D02*
X94725809Y-100036380D01*
X95011523Y-101036380D02*
X95011523Y-100036380D01*
X94392476Y-101036380D02*
X94392476Y-100036380D01*
X94011523Y-100036380D01*
X93916285Y-100084000D01*
X93868666Y-100131619D01*
X93821047Y-100226857D01*
X93821047Y-100369714D01*
X93868666Y-100464952D01*
X93916285Y-100512571D01*
X94011523Y-100560190D01*
X94392476Y-100560190D01*
X92154380Y-101036380D02*
X92630571Y-101036380D01*
X92630571Y-100036380D01*
X91630571Y-100036380D02*
X91440095Y-100036380D01*
X91344857Y-100084000D01*
X91249619Y-100179238D01*
X91202000Y-100369714D01*
X91202000Y-100703047D01*
X91249619Y-100893523D01*
X91344857Y-100988761D01*
X91440095Y-101036380D01*
X91630571Y-101036380D01*
X91725809Y-100988761D01*
X91821047Y-100893523D01*
X91868666Y-100703047D01*
X91868666Y-100369714D01*
X91821047Y-100179238D01*
X91725809Y-100084000D01*
X91630571Y-100036380D01*
X90202000Y-100941142D02*
X90249619Y-100988761D01*
X90392476Y-101036380D01*
X90487714Y-101036380D01*
X90630571Y-100988761D01*
X90725809Y-100893523D01*
X90773428Y-100798285D01*
X90821047Y-100607809D01*
X90821047Y-100464952D01*
X90773428Y-100274476D01*
X90725809Y-100179238D01*
X90630571Y-100084000D01*
X90487714Y-100036380D01*
X90392476Y-100036380D01*
X90249619Y-100084000D01*
X90202000Y-100131619D01*
X89773428Y-101036380D02*
X89773428Y-100036380D01*
X89202000Y-101036380D02*
X89630571Y-100464952D01*
X89202000Y-100036380D02*
X89773428Y-100607809D01*
X118485583Y-79495766D02*
X117948616Y-79300326D01*
X117875079Y-80337739D02*
X118217100Y-79398046D01*
X117293365Y-80126012D02*
X117635385Y-79186320D01*
X117277407Y-79056026D01*
X117171626Y-79068200D01*
X117110592Y-79096661D01*
X117033271Y-79169869D01*
X116984411Y-79304110D01*
X116996585Y-79409892D01*
X117025046Y-79470926D01*
X117098253Y-79548246D01*
X117456232Y-79678540D01*
X115637716Y-79523405D02*
X115979736Y-78583713D01*
X115621758Y-78453419D01*
X115515977Y-78465593D01*
X115454943Y-78494054D01*
X115377622Y-78567262D01*
X115328762Y-78701504D01*
X115340936Y-78807285D01*
X115369397Y-78868319D01*
X115442605Y-78945639D01*
X115800583Y-79075933D01*
X114861054Y-78176546D02*
X114682065Y-78111399D01*
X114576284Y-78123573D01*
X114454216Y-78180494D01*
X114344322Y-78343197D01*
X114230316Y-78656428D01*
X114209916Y-78851703D01*
X114266837Y-78973771D01*
X114340045Y-79051092D01*
X114519034Y-79116239D01*
X114624816Y-79104065D01*
X114746883Y-79047143D01*
X114856777Y-78884441D01*
X114970784Y-78571210D01*
X114991183Y-78375934D01*
X114934262Y-78253867D01*
X114861054Y-78176546D01*
X114145098Y-77915959D02*
X113579342Y-78774218D01*
X113644653Y-78037863D01*
X113221364Y-78643925D01*
X113339647Y-77622799D01*
X112818802Y-77939978D02*
X112505572Y-77825972D01*
X112192176Y-78269332D02*
X112639649Y-78432198D01*
X112981669Y-77492506D01*
X112534197Y-77329639D01*
X111252484Y-77927311D02*
X111728581Y-77593845D01*
X111789451Y-78122751D02*
X112131471Y-77183059D01*
X111773493Y-77052765D01*
X111667712Y-77064939D01*
X111606678Y-77093400D01*
X111529357Y-77166608D01*
X111480497Y-77300850D01*
X111492671Y-77406631D01*
X111521132Y-77467665D01*
X111594340Y-77544985D01*
X111952318Y-77675279D01*
X140088619Y-94575380D02*
X139517190Y-94575380D01*
X139802904Y-95575380D02*
X139802904Y-94575380D01*
X139183857Y-95575380D02*
X139183857Y-94575380D01*
X138802904Y-94575380D01*
X138707666Y-94623000D01*
X138660047Y-94670619D01*
X138612428Y-94765857D01*
X138612428Y-94908714D01*
X138660047Y-95003952D01*
X138707666Y-95051571D01*
X138802904Y-95099190D01*
X139183857Y-95099190D01*
X137088619Y-95051571D02*
X137421952Y-95051571D01*
X137421952Y-95575380D02*
X137421952Y-94575380D01*
X136945761Y-94575380D01*
X136612428Y-95289666D02*
X136136238Y-95289666D01*
X136707666Y-95575380D02*
X136374333Y-94575380D01*
X136041000Y-95575380D01*
X135707666Y-95575380D02*
X135707666Y-94575380D01*
X135136238Y-95575380D01*
X135136238Y-94575380D01*
X117730191Y-112666501D02*
X117795108Y-112750904D01*
X117822366Y-112891136D01*
X117802881Y-113040455D01*
X117727564Y-113152115D01*
X117643162Y-113217032D01*
X117465272Y-113300120D01*
X117325039Y-113327379D01*
X117128977Y-113316979D01*
X117026402Y-113288407D01*
X116914742Y-113213091D01*
X116840739Y-113081945D01*
X116822567Y-112988457D01*
X116842052Y-112839138D01*
X116879711Y-112783308D01*
X117206920Y-112719705D01*
X117243264Y-112906681D01*
X116704447Y-112380783D02*
X117686074Y-112189974D01*
X116595413Y-111819853D01*
X117577040Y-111629044D01*
X116504552Y-111352411D02*
X117486179Y-111161602D01*
X117440748Y-110927882D01*
X117366746Y-110796735D01*
X117255085Y-110721419D01*
X117152511Y-110692847D01*
X116956448Y-110682448D01*
X116816215Y-110709706D01*
X116638325Y-110792795D01*
X116553923Y-110857711D01*
X116478607Y-110969372D01*
X116459121Y-111118691D01*
X116504552Y-111352411D01*
X108707716Y-112985749D02*
X108836260Y-112428966D01*
X107797618Y-112482407D02*
X108771988Y-112707358D01*
X108889820Y-112196973D02*
X108065417Y-111322442D01*
X109039787Y-111547393D02*
X107915449Y-111972022D01*
X108151112Y-110951254D02*
X109125483Y-111176205D01*
X109179042Y-110944212D01*
X109164780Y-110794304D01*
X109093406Y-110680083D01*
X109011321Y-110612261D01*
X108836439Y-110523014D01*
X108697243Y-110490878D01*
X108500937Y-110494429D01*
X108397428Y-110519404D01*
X108283207Y-110590777D01*
X108204672Y-110719261D01*
X108151112Y-110951254D01*
X113331733Y-116104539D02*
X112542957Y-115922436D01*
X112460872Y-115854614D01*
X112425185Y-115797503D01*
X112400210Y-115693994D01*
X112443058Y-115508400D01*
X112510881Y-115426314D01*
X112567991Y-115390628D01*
X112671500Y-115365653D01*
X113460276Y-115547756D01*
X112860705Y-114969490D02*
X112967825Y-114505504D01*
X112560890Y-114998015D02*
X113610243Y-114898176D01*
X112710857Y-114348435D01*
X112914384Y-113466862D02*
X113303386Y-113898772D01*
X112785841Y-114023645D02*
X113760211Y-114248596D01*
X113845906Y-113877408D01*
X113820932Y-113773899D01*
X113785245Y-113716788D01*
X113703160Y-113648966D01*
X113563964Y-113616830D01*
X113460455Y-113641804D01*
X113403345Y-113677491D01*
X113335522Y-113759576D01*
X113249826Y-114130765D01*
X113953026Y-113413422D02*
X114081569Y-112856639D01*
X113042928Y-112910079D02*
X114017298Y-113135030D01*
X119380739Y-112954945D02*
X120362366Y-112764136D01*
X120235160Y-112109718D02*
X120198816Y-111922741D01*
X120133899Y-111838339D01*
X120022239Y-111763023D01*
X119826176Y-111752624D01*
X119498967Y-111816227D01*
X119321076Y-111899315D01*
X119245760Y-112010976D01*
X119217188Y-112113550D01*
X119253533Y-112300527D01*
X119318449Y-112384929D01*
X119430110Y-112460245D01*
X119626173Y-112470645D01*
X119953382Y-112407042D01*
X120131272Y-112323953D01*
X120206588Y-112212292D01*
X120235160Y-112109718D01*
X120035265Y-111081347D02*
X120017093Y-110987858D01*
X119952176Y-110903456D01*
X119896346Y-110865798D01*
X119793772Y-110837226D01*
X119597709Y-110826827D01*
X119363988Y-110872257D01*
X119186098Y-110955346D01*
X119101696Y-111020263D01*
X119064038Y-111076093D01*
X119035466Y-111178667D01*
X119053638Y-111272156D01*
X119118554Y-111356558D01*
X119174385Y-111394216D01*
X119276959Y-111422788D01*
X119473022Y-111433187D01*
X119706743Y-111387756D01*
X119884633Y-111304668D01*
X119969035Y-111239751D01*
X120006693Y-111183921D01*
X120035265Y-111081347D01*
X113622980Y-53243211D02*
X113747015Y-53946645D01*
X113818717Y-54079063D01*
X113929046Y-54156316D01*
X114078002Y-54178405D01*
X114171793Y-54161867D01*
X112858716Y-54393398D02*
X113327672Y-54310708D01*
X113154024Y-53325900D01*
X111951162Y-54456717D02*
X112006326Y-54495343D01*
X112155282Y-54517432D01*
X112249073Y-54500894D01*
X112381491Y-54429192D01*
X112458745Y-54318863D01*
X112489102Y-54216802D01*
X112502922Y-54020951D01*
X112478115Y-53880264D01*
X112398144Y-53700951D01*
X112334710Y-53615429D01*
X112224381Y-53538175D01*
X112075425Y-53516087D01*
X111981634Y-53532624D01*
X111849216Y-53604327D01*
X111810590Y-53659492D01*
X111090618Y-53689735D02*
X111214652Y-54393169D01*
X111286354Y-54525587D01*
X111396684Y-54602840D01*
X111545639Y-54624929D01*
X111639431Y-54608391D01*
X110326354Y-54839922D02*
X110795310Y-54757232D01*
X110621661Y-53772424D01*
X109418799Y-54903241D02*
X109473964Y-54941867D01*
X109622919Y-54963956D01*
X109716711Y-54947418D01*
X109849129Y-54875716D01*
X109926382Y-54765387D01*
X109956740Y-54663326D01*
X109970559Y-54467475D01*
X109945752Y-54326788D01*
X109865781Y-54147475D01*
X109802347Y-54061952D01*
X109692018Y-53984699D01*
X109543063Y-53962610D01*
X109449271Y-53979148D01*
X109316853Y-54050851D01*
X109278227Y-54106015D01*
X108558255Y-54136259D02*
X108682289Y-54839693D01*
X108753992Y-54972111D01*
X108864321Y-55049364D01*
X109013277Y-55071453D01*
X109107068Y-55054915D01*
X107793991Y-55286446D02*
X108262947Y-55203756D01*
X108089299Y-54218948D01*
X106886436Y-55349765D02*
X106941601Y-55388391D01*
X107090557Y-55410480D01*
X107184348Y-55393942D01*
X107316766Y-55322240D01*
X107394019Y-55211910D01*
X107424377Y-55109850D01*
X107438197Y-54913999D01*
X107413390Y-54773312D01*
X107333418Y-54593999D01*
X107269985Y-54508476D01*
X107159656Y-54431223D01*
X107010700Y-54409134D01*
X106916909Y-54425672D01*
X106784491Y-54497375D01*
X106745864Y-54552539D01*
X106025892Y-54582782D02*
X106149926Y-55286217D01*
X106221629Y-55418634D01*
X106331958Y-55495888D01*
X106480914Y-55517976D01*
X106574705Y-55501439D01*
X105261628Y-55732969D02*
X105730584Y-55650280D01*
X105556936Y-54665472D01*
X104354074Y-55796288D02*
X104409238Y-55834915D01*
X104558194Y-55857004D01*
X104651985Y-55840466D01*
X104784403Y-55768763D01*
X104861656Y-55658434D01*
X104892014Y-55556374D01*
X104905834Y-55360523D01*
X104881027Y-55219836D01*
X104801055Y-55040522D01*
X104737622Y-54955000D01*
X104627293Y-54877747D01*
X104478337Y-54855658D01*
X104384546Y-54872196D01*
X104252128Y-54943899D01*
X104213501Y-54999063D01*
X122511951Y-112343905D02*
X122448348Y-112016696D01*
X121906904Y-111976411D02*
X121997765Y-112443852D01*
X122979392Y-112253043D01*
X122888531Y-111785602D01*
X121825129Y-111555713D02*
X122806756Y-111364904D01*
X121716095Y-110994784D01*
X122697722Y-110803975D01*
%TO.C,C2*%
X122307333Y-73437714D02*
X122345428Y-73475809D01*
X122459714Y-73513904D01*
X122535904Y-73513904D01*
X122650190Y-73475809D01*
X122726380Y-73399619D01*
X122764476Y-73323428D01*
X122802571Y-73171047D01*
X122802571Y-73056761D01*
X122764476Y-72904380D01*
X122726380Y-72828190D01*
X122650190Y-72752000D01*
X122535904Y-72713904D01*
X122459714Y-72713904D01*
X122345428Y-72752000D01*
X122307333Y-72790095D01*
X122002571Y-72790095D02*
X121964476Y-72752000D01*
X121888285Y-72713904D01*
X121697809Y-72713904D01*
X121621619Y-72752000D01*
X121583523Y-72790095D01*
X121545428Y-72866285D01*
X121545428Y-72942476D01*
X121583523Y-73056761D01*
X122040666Y-73513904D01*
X121545428Y-73513904D01*
%TO.C,C3*%
X126168114Y-81680066D02*
X126206209Y-81641971D01*
X126244304Y-81527685D01*
X126244304Y-81451495D01*
X126206209Y-81337209D01*
X126130019Y-81261019D01*
X126053828Y-81222923D01*
X125901447Y-81184828D01*
X125787161Y-81184828D01*
X125634780Y-81222923D01*
X125558590Y-81261019D01*
X125482400Y-81337209D01*
X125444304Y-81451495D01*
X125444304Y-81527685D01*
X125482400Y-81641971D01*
X125520495Y-81680066D01*
X125444304Y-81946733D02*
X125444304Y-82441971D01*
X125749066Y-82175304D01*
X125749066Y-82289590D01*
X125787161Y-82365780D01*
X125825257Y-82403876D01*
X125901447Y-82441971D01*
X126091923Y-82441971D01*
X126168114Y-82403876D01*
X126206209Y-82365780D01*
X126244304Y-82289590D01*
X126244304Y-82061019D01*
X126206209Y-81984828D01*
X126168114Y-81946733D01*
%TO.C,C5*%
X133610333Y-53371714D02*
X133648428Y-53409809D01*
X133762714Y-53447904D01*
X133838904Y-53447904D01*
X133953190Y-53409809D01*
X134029380Y-53333619D01*
X134067476Y-53257428D01*
X134105571Y-53105047D01*
X134105571Y-52990761D01*
X134067476Y-52838380D01*
X134029380Y-52762190D01*
X133953190Y-52686000D01*
X133838904Y-52647904D01*
X133762714Y-52647904D01*
X133648428Y-52686000D01*
X133610333Y-52724095D01*
X132886523Y-52647904D02*
X133267476Y-52647904D01*
X133305571Y-53028857D01*
X133267476Y-52990761D01*
X133191285Y-52952666D01*
X133000809Y-52952666D01*
X132924619Y-52990761D01*
X132886523Y-53028857D01*
X132848428Y-53105047D01*
X132848428Y-53295523D01*
X132886523Y-53371714D01*
X132924619Y-53409809D01*
X133000809Y-53447904D01*
X133191285Y-53447904D01*
X133267476Y-53409809D01*
X133305571Y-53371714D01*
%TO.C,C6*%
X101046020Y-75892078D02*
X101076921Y-75847946D01*
X101094592Y-75728782D01*
X101081362Y-75653749D01*
X101024000Y-75547814D01*
X100935737Y-75486012D01*
X100854089Y-75461726D01*
X100697407Y-75450670D01*
X100584858Y-75470515D01*
X100441407Y-75534493D01*
X100372989Y-75585239D01*
X100311187Y-75673503D01*
X100293516Y-75792667D01*
X100306746Y-75867700D01*
X100364108Y-75973635D01*
X100408240Y-76004536D01*
X100452280Y-76693063D02*
X100425819Y-76542997D01*
X100450105Y-76461349D01*
X100481007Y-76417217D01*
X100580326Y-76322339D01*
X100723777Y-76258362D01*
X101023908Y-76205440D01*
X101105557Y-76229726D01*
X101149688Y-76260628D01*
X101200435Y-76329046D01*
X101226896Y-76479111D01*
X101202610Y-76560760D01*
X101171708Y-76604891D01*
X101103290Y-76655638D01*
X100915708Y-76688714D01*
X100834060Y-76664428D01*
X100789928Y-76633526D01*
X100739181Y-76565109D01*
X100712721Y-76415043D01*
X100737007Y-76333395D01*
X100767908Y-76289263D01*
X100836326Y-76238516D01*
%TO.C,C8*%
X121416220Y-52143078D02*
X121447121Y-52098946D01*
X121464792Y-51979782D01*
X121451562Y-51904749D01*
X121394200Y-51798814D01*
X121305937Y-51737012D01*
X121224289Y-51712726D01*
X121067607Y-51701670D01*
X120955058Y-51721515D01*
X120811607Y-51785493D01*
X120743189Y-51836239D01*
X120681387Y-51924503D01*
X120663716Y-52043667D01*
X120676946Y-52118700D01*
X120734308Y-52224635D01*
X120778440Y-52255536D01*
X121120437Y-52659428D02*
X121069690Y-52591010D01*
X121025559Y-52560108D01*
X120943911Y-52535822D01*
X120906394Y-52542437D01*
X120837976Y-52593184D01*
X120807075Y-52637316D01*
X120782789Y-52718964D01*
X120809250Y-52869030D01*
X120859996Y-52937448D01*
X120904128Y-52968349D01*
X120985776Y-52992635D01*
X121023293Y-52986020D01*
X121091710Y-52935273D01*
X121122612Y-52891142D01*
X121146898Y-52809493D01*
X121120437Y-52659428D01*
X121144723Y-52577779D01*
X121175625Y-52533648D01*
X121244042Y-52482901D01*
X121394108Y-52456440D01*
X121475757Y-52480726D01*
X121519888Y-52511628D01*
X121570635Y-52580046D01*
X121597096Y-52730111D01*
X121572810Y-52811760D01*
X121541908Y-52855891D01*
X121473490Y-52906638D01*
X121323425Y-52933099D01*
X121241776Y-52908813D01*
X121197645Y-52877911D01*
X121146898Y-52809493D01*
%TO.C,J1*%
X122681333Y-93136380D02*
X122681333Y-93850666D01*
X122728952Y-93993523D01*
X122824190Y-94088761D01*
X122967047Y-94136380D01*
X123062285Y-94136380D01*
X121681333Y-94136380D02*
X122252761Y-94136380D01*
X121967047Y-94136380D02*
X121967047Y-93136380D01*
X122062285Y-93279238D01*
X122157523Y-93374476D01*
X122252761Y-93422095D01*
%TO.C,R2*%
X120910333Y-87331504D02*
X121177000Y-86950552D01*
X121367476Y-87331504D02*
X121367476Y-86531504D01*
X121062714Y-86531504D01*
X120986523Y-86569600D01*
X120948428Y-86607695D01*
X120910333Y-86683885D01*
X120910333Y-86798171D01*
X120948428Y-86874361D01*
X120986523Y-86912457D01*
X121062714Y-86950552D01*
X121367476Y-86950552D01*
X120605571Y-86607695D02*
X120567476Y-86569600D01*
X120491285Y-86531504D01*
X120300809Y-86531504D01*
X120224619Y-86569600D01*
X120186523Y-86607695D01*
X120148428Y-86683885D01*
X120148428Y-86760076D01*
X120186523Y-86874361D01*
X120643666Y-87331504D01*
X120148428Y-87331504D01*
%TO.C,R3*%
X124341333Y-70819904D02*
X124608000Y-70438952D01*
X124798476Y-70819904D02*
X124798476Y-70019904D01*
X124493714Y-70019904D01*
X124417523Y-70058000D01*
X124379428Y-70096095D01*
X124341333Y-70172285D01*
X124341333Y-70286571D01*
X124379428Y-70362761D01*
X124417523Y-70400857D01*
X124493714Y-70438952D01*
X124798476Y-70438952D01*
X124074666Y-70019904D02*
X123579428Y-70019904D01*
X123846095Y-70324666D01*
X123731809Y-70324666D01*
X123655619Y-70362761D01*
X123617523Y-70400857D01*
X123579428Y-70477047D01*
X123579428Y-70667523D01*
X123617523Y-70743714D01*
X123655619Y-70781809D01*
X123731809Y-70819904D01*
X123960380Y-70819904D01*
X124036571Y-70781809D01*
X124074666Y-70743714D01*
%TO.C,R4*%
X145936904Y-73018666D02*
X145555952Y-72752000D01*
X145936904Y-72561523D02*
X145136904Y-72561523D01*
X145136904Y-72866285D01*
X145175000Y-72942476D01*
X145213095Y-72980571D01*
X145289285Y-73018666D01*
X145403571Y-73018666D01*
X145479761Y-72980571D01*
X145517857Y-72942476D01*
X145555952Y-72866285D01*
X145555952Y-72561523D01*
X145403571Y-73704380D02*
X145936904Y-73704380D01*
X145098809Y-73513904D02*
X145670238Y-73323428D01*
X145670238Y-73818666D01*
%TO.C,R5*%
X99294904Y-95497666D02*
X98913952Y-95231000D01*
X99294904Y-95040523D02*
X98494904Y-95040523D01*
X98494904Y-95345285D01*
X98533000Y-95421476D01*
X98571095Y-95459571D01*
X98647285Y-95497666D01*
X98761571Y-95497666D01*
X98837761Y-95459571D01*
X98875857Y-95421476D01*
X98913952Y-95345285D01*
X98913952Y-95040523D01*
X98494904Y-96221476D02*
X98494904Y-95840523D01*
X98875857Y-95802428D01*
X98837761Y-95840523D01*
X98799666Y-95916714D01*
X98799666Y-96107190D01*
X98837761Y-96183380D01*
X98875857Y-96221476D01*
X98952047Y-96259571D01*
X99142523Y-96259571D01*
X99218714Y-96221476D01*
X99256809Y-96183380D01*
X99294904Y-96107190D01*
X99294904Y-95916714D01*
X99256809Y-95840523D01*
X99218714Y-95802428D01*
%TO.C,R6*%
X138881333Y-73005904D02*
X139148000Y-72624952D01*
X139338476Y-73005904D02*
X139338476Y-72205904D01*
X139033714Y-72205904D01*
X138957523Y-72244000D01*
X138919428Y-72282095D01*
X138881333Y-72358285D01*
X138881333Y-72472571D01*
X138919428Y-72548761D01*
X138957523Y-72586857D01*
X139033714Y-72624952D01*
X139338476Y-72624952D01*
X138195619Y-72205904D02*
X138348000Y-72205904D01*
X138424190Y-72244000D01*
X138462285Y-72282095D01*
X138538476Y-72396380D01*
X138576571Y-72548761D01*
X138576571Y-72853523D01*
X138538476Y-72929714D01*
X138500380Y-72967809D01*
X138424190Y-73005904D01*
X138271809Y-73005904D01*
X138195619Y-72967809D01*
X138157523Y-72929714D01*
X138119428Y-72853523D01*
X138119428Y-72663047D01*
X138157523Y-72586857D01*
X138195619Y-72548761D01*
X138271809Y-72510666D01*
X138424190Y-72510666D01*
X138500380Y-72548761D01*
X138538476Y-72586857D01*
X138576571Y-72663047D01*
%TO.C,R7*%
X123602733Y-104857504D02*
X123869400Y-104476552D01*
X124059876Y-104857504D02*
X124059876Y-104057504D01*
X123755114Y-104057504D01*
X123678923Y-104095600D01*
X123640828Y-104133695D01*
X123602733Y-104209885D01*
X123602733Y-104324171D01*
X123640828Y-104400361D01*
X123678923Y-104438457D01*
X123755114Y-104476552D01*
X124059876Y-104476552D01*
X123336066Y-104057504D02*
X122802733Y-104057504D01*
X123145590Y-104857504D01*
%TO.C,R8*%
X125101333Y-59416904D02*
X125368000Y-59035952D01*
X125558476Y-59416904D02*
X125558476Y-58616904D01*
X125253714Y-58616904D01*
X125177523Y-58655000D01*
X125139428Y-58693095D01*
X125101333Y-58769285D01*
X125101333Y-58883571D01*
X125139428Y-58959761D01*
X125177523Y-58997857D01*
X125253714Y-59035952D01*
X125558476Y-59035952D01*
X124644190Y-58959761D02*
X124720380Y-58921666D01*
X124758476Y-58883571D01*
X124796571Y-58807380D01*
X124796571Y-58769285D01*
X124758476Y-58693095D01*
X124720380Y-58655000D01*
X124644190Y-58616904D01*
X124491809Y-58616904D01*
X124415619Y-58655000D01*
X124377523Y-58693095D01*
X124339428Y-58769285D01*
X124339428Y-58807380D01*
X124377523Y-58883571D01*
X124415619Y-58921666D01*
X124491809Y-58959761D01*
X124644190Y-58959761D01*
X124720380Y-58997857D01*
X124758476Y-59035952D01*
X124796571Y-59112142D01*
X124796571Y-59264523D01*
X124758476Y-59340714D01*
X124720380Y-59378809D01*
X124644190Y-59416904D01*
X124491809Y-59416904D01*
X124415619Y-59378809D01*
X124377523Y-59340714D01*
X124339428Y-59264523D01*
X124339428Y-59112142D01*
X124377523Y-59035952D01*
X124415619Y-58997857D01*
X124491809Y-58959761D01*
%TO.C,R9*%
X112401333Y-106787904D02*
X112668000Y-106406952D01*
X112858476Y-106787904D02*
X112858476Y-105987904D01*
X112553714Y-105987904D01*
X112477523Y-106026000D01*
X112439428Y-106064095D01*
X112401333Y-106140285D01*
X112401333Y-106254571D01*
X112439428Y-106330761D01*
X112477523Y-106368857D01*
X112553714Y-106406952D01*
X112858476Y-106406952D01*
X112020380Y-106787904D02*
X111868000Y-106787904D01*
X111791809Y-106749809D01*
X111753714Y-106711714D01*
X111677523Y-106597428D01*
X111639428Y-106445047D01*
X111639428Y-106140285D01*
X111677523Y-106064095D01*
X111715619Y-106026000D01*
X111791809Y-105987904D01*
X111944190Y-105987904D01*
X112020380Y-106026000D01*
X112058476Y-106064095D01*
X112096571Y-106140285D01*
X112096571Y-106330761D01*
X112058476Y-106406952D01*
X112020380Y-106445047D01*
X111944190Y-106483142D01*
X111791809Y-106483142D01*
X111715619Y-106445047D01*
X111677523Y-106406952D01*
X111639428Y-106330761D01*
%TO.C,R10*%
X98786904Y-105733914D02*
X98405952Y-105467247D01*
X98786904Y-105276771D02*
X97986904Y-105276771D01*
X97986904Y-105581533D01*
X98025000Y-105657723D01*
X98063095Y-105695819D01*
X98139285Y-105733914D01*
X98253571Y-105733914D01*
X98329761Y-105695819D01*
X98367857Y-105657723D01*
X98405952Y-105581533D01*
X98405952Y-105276771D01*
X98786904Y-106495819D02*
X98786904Y-106038676D01*
X98786904Y-106267247D02*
X97986904Y-106267247D01*
X98101190Y-106191057D01*
X98177380Y-106114866D01*
X98215476Y-106038676D01*
X97986904Y-106991057D02*
X97986904Y-107067247D01*
X98025000Y-107143438D01*
X98063095Y-107181533D01*
X98139285Y-107219628D01*
X98291666Y-107257723D01*
X98482142Y-107257723D01*
X98634523Y-107219628D01*
X98710714Y-107181533D01*
X98748809Y-107143438D01*
X98786904Y-107067247D01*
X98786904Y-106991057D01*
X98748809Y-106914866D01*
X98710714Y-106876771D01*
X98634523Y-106838676D01*
X98482142Y-106800580D01*
X98291666Y-106800580D01*
X98139285Y-106838676D01*
X98063095Y-106876771D01*
X98025000Y-106914866D01*
X97986904Y-106991057D01*
%TO.C,R11*%
X134245285Y-54590904D02*
X134511952Y-54209952D01*
X134702428Y-54590904D02*
X134702428Y-53790904D01*
X134397666Y-53790904D01*
X134321476Y-53829000D01*
X134283380Y-53867095D01*
X134245285Y-53943285D01*
X134245285Y-54057571D01*
X134283380Y-54133761D01*
X134321476Y-54171857D01*
X134397666Y-54209952D01*
X134702428Y-54209952D01*
X133483380Y-54590904D02*
X133940523Y-54590904D01*
X133711952Y-54590904D02*
X133711952Y-53790904D01*
X133788142Y-53905190D01*
X133864333Y-53981380D01*
X133940523Y-54019476D01*
X132721476Y-54590904D02*
X133178619Y-54590904D01*
X132950047Y-54590904D02*
X132950047Y-53790904D01*
X133026238Y-53905190D01*
X133102428Y-53981380D01*
X133178619Y-54019476D01*
%TO.C,R12*%
X95385285Y-56087904D02*
X95651952Y-55706952D01*
X95842428Y-56087904D02*
X95842428Y-55287904D01*
X95537666Y-55287904D01*
X95461476Y-55326000D01*
X95423380Y-55364095D01*
X95385285Y-55440285D01*
X95385285Y-55554571D01*
X95423380Y-55630761D01*
X95461476Y-55668857D01*
X95537666Y-55706952D01*
X95842428Y-55706952D01*
X94623380Y-56087904D02*
X95080523Y-56087904D01*
X94851952Y-56087904D02*
X94851952Y-55287904D01*
X94928142Y-55402190D01*
X95004333Y-55478380D01*
X95080523Y-55516476D01*
X94318619Y-55364095D02*
X94280523Y-55326000D01*
X94204333Y-55287904D01*
X94013857Y-55287904D01*
X93937666Y-55326000D01*
X93899571Y-55364095D01*
X93861476Y-55440285D01*
X93861476Y-55516476D01*
X93899571Y-55630761D01*
X94356714Y-56087904D01*
X93861476Y-56087904D01*
%TO.C,R13*%
X131933904Y-56381714D02*
X131552952Y-56115047D01*
X131933904Y-55924571D02*
X131133904Y-55924571D01*
X131133904Y-56229333D01*
X131172000Y-56305523D01*
X131210095Y-56343619D01*
X131286285Y-56381714D01*
X131400571Y-56381714D01*
X131476761Y-56343619D01*
X131514857Y-56305523D01*
X131552952Y-56229333D01*
X131552952Y-55924571D01*
X131933904Y-57143619D02*
X131933904Y-56686476D01*
X131933904Y-56915047D02*
X131133904Y-56915047D01*
X131248190Y-56838857D01*
X131324380Y-56762666D01*
X131362476Y-56686476D01*
X131133904Y-57410285D02*
X131133904Y-57905523D01*
X131438666Y-57638857D01*
X131438666Y-57753142D01*
X131476761Y-57829333D01*
X131514857Y-57867428D01*
X131591047Y-57905523D01*
X131781523Y-57905523D01*
X131857714Y-57867428D01*
X131895809Y-57829333D01*
X131933904Y-57753142D01*
X131933904Y-57524571D01*
X131895809Y-57448380D01*
X131857714Y-57410285D01*
%TO.C,R14*%
X87991885Y-72040704D02*
X88258552Y-71659752D01*
X88449028Y-72040704D02*
X88449028Y-71240704D01*
X88144266Y-71240704D01*
X88068076Y-71278800D01*
X88029980Y-71316895D01*
X87991885Y-71393085D01*
X87991885Y-71507371D01*
X88029980Y-71583561D01*
X88068076Y-71621657D01*
X88144266Y-71659752D01*
X88449028Y-71659752D01*
X87229980Y-72040704D02*
X87687123Y-72040704D01*
X87458552Y-72040704D02*
X87458552Y-71240704D01*
X87534742Y-71354990D01*
X87610933Y-71431180D01*
X87687123Y-71469276D01*
X86544266Y-71507371D02*
X86544266Y-72040704D01*
X86734742Y-71202609D02*
X86925219Y-71774038D01*
X86429980Y-71774038D01*
%TO.C,R15*%
X99962101Y-76011683D02*
X99540630Y-75815219D01*
X99882719Y-75561485D02*
X99094873Y-75700404D01*
X99147794Y-76000535D01*
X99198541Y-76068953D01*
X99242673Y-76099855D01*
X99324321Y-76124141D01*
X99436871Y-76104295D01*
X99505288Y-76053548D01*
X99536190Y-76009417D01*
X99560476Y-75927769D01*
X99507554Y-75627637D01*
X100094405Y-76762013D02*
X100015023Y-76311815D01*
X100054714Y-76536914D02*
X99266867Y-76675832D01*
X99366187Y-76580954D01*
X99427989Y-76492690D01*
X99452275Y-76411042D01*
X99432247Y-77613744D02*
X99366095Y-77238579D01*
X99734645Y-77134911D01*
X99703743Y-77179043D01*
X99679457Y-77260691D01*
X99712533Y-77448274D01*
X99763280Y-77516691D01*
X99807412Y-77547593D01*
X99889060Y-77571879D01*
X100076642Y-77538803D01*
X100145060Y-77488056D01*
X100175961Y-77443924D01*
X100200247Y-77362276D01*
X100167172Y-77174694D01*
X100116425Y-77106276D01*
X100072293Y-77075375D01*
%TO.C,R16*%
X121672285Y-55098904D02*
X121938952Y-54717952D01*
X122129428Y-55098904D02*
X122129428Y-54298904D01*
X121824666Y-54298904D01*
X121748476Y-54337000D01*
X121710380Y-54375095D01*
X121672285Y-54451285D01*
X121672285Y-54565571D01*
X121710380Y-54641761D01*
X121748476Y-54679857D01*
X121824666Y-54717952D01*
X122129428Y-54717952D01*
X120910380Y-55098904D02*
X121367523Y-55098904D01*
X121138952Y-55098904D02*
X121138952Y-54298904D01*
X121215142Y-54413190D01*
X121291333Y-54489380D01*
X121367523Y-54527476D01*
X120224666Y-54298904D02*
X120377047Y-54298904D01*
X120453238Y-54337000D01*
X120491333Y-54375095D01*
X120567523Y-54489380D01*
X120605619Y-54641761D01*
X120605619Y-54946523D01*
X120567523Y-55022714D01*
X120529428Y-55060809D01*
X120453238Y-55098904D01*
X120300857Y-55098904D01*
X120224666Y-55060809D01*
X120186571Y-55022714D01*
X120148476Y-54946523D01*
X120148476Y-54756047D01*
X120186571Y-54679857D01*
X120224666Y-54641761D01*
X120300857Y-54603666D01*
X120453238Y-54603666D01*
X120529428Y-54641761D01*
X120567523Y-54679857D01*
X120605619Y-54756047D01*
%TO.C,R17*%
X134118285Y-52304904D02*
X134384952Y-51923952D01*
X134575428Y-52304904D02*
X134575428Y-51504904D01*
X134270666Y-51504904D01*
X134194476Y-51543000D01*
X134156380Y-51581095D01*
X134118285Y-51657285D01*
X134118285Y-51771571D01*
X134156380Y-51847761D01*
X134194476Y-51885857D01*
X134270666Y-51923952D01*
X134575428Y-51923952D01*
X133356380Y-52304904D02*
X133813523Y-52304904D01*
X133584952Y-52304904D02*
X133584952Y-51504904D01*
X133661142Y-51619190D01*
X133737333Y-51695380D01*
X133813523Y-51733476D01*
X133089714Y-51504904D02*
X132556380Y-51504904D01*
X132899238Y-52304904D01*
%TO.C,R18*%
X113565904Y-91645714D02*
X113184952Y-91379047D01*
X113565904Y-91188571D02*
X112765904Y-91188571D01*
X112765904Y-91493333D01*
X112804000Y-91569523D01*
X112842095Y-91607619D01*
X112918285Y-91645714D01*
X113032571Y-91645714D01*
X113108761Y-91607619D01*
X113146857Y-91569523D01*
X113184952Y-91493333D01*
X113184952Y-91188571D01*
X113565904Y-92407619D02*
X113565904Y-91950476D01*
X113565904Y-92179047D02*
X112765904Y-92179047D01*
X112880190Y-92102857D01*
X112956380Y-92026666D01*
X112994476Y-91950476D01*
X113108761Y-92864761D02*
X113070666Y-92788571D01*
X113032571Y-92750476D01*
X112956380Y-92712380D01*
X112918285Y-92712380D01*
X112842095Y-92750476D01*
X112804000Y-92788571D01*
X112765904Y-92864761D01*
X112765904Y-93017142D01*
X112804000Y-93093333D01*
X112842095Y-93131428D01*
X112918285Y-93169523D01*
X112956380Y-93169523D01*
X113032571Y-93131428D01*
X113070666Y-93093333D01*
X113108761Y-93017142D01*
X113108761Y-92864761D01*
X113146857Y-92788571D01*
X113184952Y-92750476D01*
X113261142Y-92712380D01*
X113413523Y-92712380D01*
X113489714Y-92750476D01*
X113527809Y-92788571D01*
X113565904Y-92864761D01*
X113565904Y-93017142D01*
X113527809Y-93093333D01*
X113489714Y-93131428D01*
X113413523Y-93169523D01*
X113261142Y-93169523D01*
X113184952Y-93131428D01*
X113146857Y-93093333D01*
X113108761Y-93017142D01*
%TO.C,R19*%
X115597904Y-91645714D02*
X115216952Y-91379047D01*
X115597904Y-91188571D02*
X114797904Y-91188571D01*
X114797904Y-91493333D01*
X114836000Y-91569523D01*
X114874095Y-91607619D01*
X114950285Y-91645714D01*
X115064571Y-91645714D01*
X115140761Y-91607619D01*
X115178857Y-91569523D01*
X115216952Y-91493333D01*
X115216952Y-91188571D01*
X115597904Y-92407619D02*
X115597904Y-91950476D01*
X115597904Y-92179047D02*
X114797904Y-92179047D01*
X114912190Y-92102857D01*
X114988380Y-92026666D01*
X115026476Y-91950476D01*
X115597904Y-92788571D02*
X115597904Y-92940952D01*
X115559809Y-93017142D01*
X115521714Y-93055238D01*
X115407428Y-93131428D01*
X115255047Y-93169523D01*
X114950285Y-93169523D01*
X114874095Y-93131428D01*
X114836000Y-93093333D01*
X114797904Y-93017142D01*
X114797904Y-92864761D01*
X114836000Y-92788571D01*
X114874095Y-92750476D01*
X114950285Y-92712380D01*
X115140761Y-92712380D01*
X115216952Y-92750476D01*
X115255047Y-92788571D01*
X115293142Y-92864761D01*
X115293142Y-93017142D01*
X115255047Y-93093333D01*
X115216952Y-93131428D01*
X115140761Y-93169523D01*
%TO.C,R20*%
X117629904Y-91643714D02*
X117248952Y-91377047D01*
X117629904Y-91186571D02*
X116829904Y-91186571D01*
X116829904Y-91491333D01*
X116868000Y-91567523D01*
X116906095Y-91605619D01*
X116982285Y-91643714D01*
X117096571Y-91643714D01*
X117172761Y-91605619D01*
X117210857Y-91567523D01*
X117248952Y-91491333D01*
X117248952Y-91186571D01*
X116906095Y-91948476D02*
X116868000Y-91986571D01*
X116829904Y-92062761D01*
X116829904Y-92253238D01*
X116868000Y-92329428D01*
X116906095Y-92367523D01*
X116982285Y-92405619D01*
X117058476Y-92405619D01*
X117172761Y-92367523D01*
X117629904Y-91910380D01*
X117629904Y-92405619D01*
X116829904Y-92900857D02*
X116829904Y-92977047D01*
X116868000Y-93053238D01*
X116906095Y-93091333D01*
X116982285Y-93129428D01*
X117134666Y-93167523D01*
X117325142Y-93167523D01*
X117477523Y-93129428D01*
X117553714Y-93091333D01*
X117591809Y-93053238D01*
X117629904Y-92977047D01*
X117629904Y-92900857D01*
X117591809Y-92824666D01*
X117553714Y-92786571D01*
X117477523Y-92748476D01*
X117325142Y-92710380D01*
X117134666Y-92710380D01*
X116982285Y-92748476D01*
X116906095Y-92786571D01*
X116868000Y-92824666D01*
X116829904Y-92900857D01*
%TO.C,R21*%
X102248100Y-75630683D02*
X101826629Y-75434219D01*
X102168718Y-75180485D02*
X101380872Y-75319404D01*
X101433793Y-75619535D01*
X101484540Y-75687953D01*
X101528672Y-75718855D01*
X101610320Y-75743141D01*
X101722870Y-75723295D01*
X101791287Y-75672548D01*
X101822189Y-75628417D01*
X101846475Y-75546769D01*
X101793553Y-75246637D01*
X101588208Y-76056503D02*
X101557307Y-76100635D01*
X101533021Y-76182283D01*
X101566097Y-76369865D01*
X101616844Y-76438283D01*
X101660975Y-76469184D01*
X101742623Y-76493470D01*
X101817656Y-76480240D01*
X101923591Y-76422878D01*
X102294407Y-75893298D01*
X102380404Y-76381013D01*
X102512707Y-77131342D02*
X102433325Y-76681144D01*
X102473016Y-76906243D02*
X101685170Y-77045162D01*
X101784489Y-76950283D01*
X101846292Y-76862020D01*
X101870578Y-76780372D01*
%TO.C,R22*%
X119407904Y-91645714D02*
X119026952Y-91379047D01*
X119407904Y-91188571D02*
X118607904Y-91188571D01*
X118607904Y-91493333D01*
X118646000Y-91569523D01*
X118684095Y-91607619D01*
X118760285Y-91645714D01*
X118874571Y-91645714D01*
X118950761Y-91607619D01*
X118988857Y-91569523D01*
X119026952Y-91493333D01*
X119026952Y-91188571D01*
X118684095Y-91950476D02*
X118646000Y-91988571D01*
X118607904Y-92064761D01*
X118607904Y-92255238D01*
X118646000Y-92331428D01*
X118684095Y-92369523D01*
X118760285Y-92407619D01*
X118836476Y-92407619D01*
X118950761Y-92369523D01*
X119407904Y-91912380D01*
X119407904Y-92407619D01*
X118684095Y-92712380D02*
X118646000Y-92750476D01*
X118607904Y-92826666D01*
X118607904Y-93017142D01*
X118646000Y-93093333D01*
X118684095Y-93131428D01*
X118760285Y-93169523D01*
X118836476Y-93169523D01*
X118950761Y-93131428D01*
X119407904Y-92674285D01*
X119407904Y-93169523D01*
%TO.C,R23*%
X110704318Y-107403306D02*
X110393116Y-107057778D01*
X110807153Y-106957879D02*
X110027656Y-106777919D01*
X109959100Y-107074869D01*
X109979080Y-107157677D01*
X110007629Y-107203365D01*
X110073297Y-107257623D01*
X110184654Y-107283332D01*
X110267461Y-107263352D01*
X110313149Y-107234803D01*
X110367407Y-107169135D01*
X110435964Y-106872184D01*
X109930503Y-107537435D02*
X109884815Y-107565984D01*
X109830557Y-107631652D01*
X109787709Y-107817247D01*
X109807688Y-107900054D01*
X109836238Y-107945742D01*
X109901906Y-108000000D01*
X109976144Y-108017139D01*
X110096070Y-108005729D01*
X110644331Y-107663138D01*
X110532927Y-108145683D01*
X109693444Y-108225554D02*
X109582039Y-108708099D01*
X109938977Y-108516824D01*
X109913268Y-108628180D01*
X109933248Y-108710988D01*
X109961797Y-108756676D01*
X110027465Y-108810934D01*
X110213060Y-108853782D01*
X110295867Y-108833802D01*
X110341555Y-108805253D01*
X110395813Y-108739585D01*
X110447231Y-108516872D01*
X110427251Y-108434064D01*
X110398702Y-108388376D01*
%TO.C,R24*%
X107529318Y-106514306D02*
X107218116Y-106168778D01*
X107632153Y-106068879D02*
X106852656Y-105888919D01*
X106784100Y-106185869D01*
X106804080Y-106268677D01*
X106832629Y-106314365D01*
X106898297Y-106368623D01*
X107009654Y-106394332D01*
X107092461Y-106374352D01*
X107138149Y-106345803D01*
X107192407Y-106280135D01*
X107260964Y-105983184D01*
X106755503Y-106648435D02*
X106709815Y-106676984D01*
X106655557Y-106742652D01*
X106612709Y-106928247D01*
X106632688Y-107011054D01*
X106661238Y-107056742D01*
X106726906Y-107111000D01*
X106801144Y-107128139D01*
X106921070Y-107116729D01*
X107469331Y-106774138D01*
X107357927Y-107256683D01*
X106684010Y-107804849D02*
X107203674Y-107924822D01*
X106429907Y-107550698D02*
X107029538Y-107493647D01*
X106918134Y-107976192D01*
%TO.C,R25*%
X98505904Y-68319714D02*
X98124952Y-68053047D01*
X98505904Y-67862571D02*
X97705904Y-67862571D01*
X97705904Y-68167333D01*
X97744000Y-68243523D01*
X97782095Y-68281619D01*
X97858285Y-68319714D01*
X97972571Y-68319714D01*
X98048761Y-68281619D01*
X98086857Y-68243523D01*
X98124952Y-68167333D01*
X98124952Y-67862571D01*
X97782095Y-68624476D02*
X97744000Y-68662571D01*
X97705904Y-68738761D01*
X97705904Y-68929238D01*
X97744000Y-69005428D01*
X97782095Y-69043523D01*
X97858285Y-69081619D01*
X97934476Y-69081619D01*
X98048761Y-69043523D01*
X98505904Y-68586380D01*
X98505904Y-69081619D01*
X97705904Y-69805428D02*
X97705904Y-69424476D01*
X98086857Y-69386380D01*
X98048761Y-69424476D01*
X98010666Y-69500666D01*
X98010666Y-69691142D01*
X98048761Y-69767333D01*
X98086857Y-69805428D01*
X98163047Y-69843523D01*
X98353523Y-69843523D01*
X98429714Y-69805428D01*
X98467809Y-69767333D01*
X98505904Y-69691142D01*
X98505904Y-69500666D01*
X98467809Y-69424476D01*
X98429714Y-69386380D01*
%TO.C,R26*%
X129038304Y-81349914D02*
X128657352Y-81083247D01*
X129038304Y-80892771D02*
X128238304Y-80892771D01*
X128238304Y-81197533D01*
X128276400Y-81273723D01*
X128314495Y-81311819D01*
X128390685Y-81349914D01*
X128504971Y-81349914D01*
X128581161Y-81311819D01*
X128619257Y-81273723D01*
X128657352Y-81197533D01*
X128657352Y-80892771D01*
X128314495Y-81654676D02*
X128276400Y-81692771D01*
X128238304Y-81768961D01*
X128238304Y-81959438D01*
X128276400Y-82035628D01*
X128314495Y-82073723D01*
X128390685Y-82111819D01*
X128466876Y-82111819D01*
X128581161Y-82073723D01*
X129038304Y-81616580D01*
X129038304Y-82111819D01*
X128238304Y-82797533D02*
X128238304Y-82645152D01*
X128276400Y-82568961D01*
X128314495Y-82530866D01*
X128428780Y-82454676D01*
X128581161Y-82416580D01*
X128885923Y-82416580D01*
X128962114Y-82454676D01*
X129000209Y-82492771D01*
X129038304Y-82568961D01*
X129038304Y-82721342D01*
X129000209Y-82797533D01*
X128962114Y-82835628D01*
X128885923Y-82873723D01*
X128695447Y-82873723D01*
X128619257Y-82835628D01*
X128581161Y-82797533D01*
X128543066Y-82721342D01*
X128543066Y-82568961D01*
X128581161Y-82492771D01*
X128619257Y-82454676D01*
X128695447Y-82416580D01*
%TO.C,SW1*%
X132005195Y-104947516D02*
X132005114Y-104366251D01*
X132473282Y-104619758D02*
X131899706Y-103800606D01*
X131587648Y-104019111D01*
X131536947Y-104112745D01*
X131525253Y-104179065D01*
X131540872Y-104284393D01*
X131622811Y-104401414D01*
X131716445Y-104452116D01*
X131782765Y-104463810D01*
X131888093Y-104448191D01*
X132200151Y-104229685D01*
X131353685Y-104764255D02*
X131080635Y-104955447D01*
X131264058Y-105466466D02*
X131654130Y-105193334D01*
X131080554Y-104374182D01*
X130690481Y-104647314D01*
X130924687Y-105645964D02*
X130834978Y-105766911D01*
X130639942Y-105903477D01*
X130534614Y-105919096D01*
X130468294Y-105907402D01*
X130374660Y-105856700D01*
X130320034Y-105778686D01*
X130304415Y-105673358D01*
X130316109Y-105607038D01*
X130366810Y-105513404D01*
X130495526Y-105365144D01*
X130546227Y-105271511D01*
X130557922Y-105205190D01*
X130542302Y-105099863D01*
X130487676Y-105021848D01*
X130394043Y-104971147D01*
X130327722Y-104959453D01*
X130222394Y-104975072D01*
X130027358Y-105111638D01*
X129937650Y-105232584D01*
X129832403Y-105829468D02*
X129559352Y-106020660D01*
X129742775Y-106531679D02*
X130132848Y-106258548D01*
X129559271Y-105439396D01*
X129169199Y-105712527D01*
X128935156Y-105876406D02*
X128467069Y-106204164D01*
X129274689Y-106859437D02*
X128701112Y-106040285D01*
%TO.C,SW2*%
X127631605Y-107209570D02*
X127531697Y-107322238D01*
X127514267Y-107387287D01*
X127520647Y-107493575D01*
X127592076Y-107617293D01*
X127680934Y-107675962D01*
X127745983Y-107693392D01*
X127852271Y-107687012D01*
X128182185Y-107496536D01*
X127682185Y-106630510D01*
X127393510Y-106797177D01*
X127334841Y-106886035D01*
X127317411Y-106951084D01*
X127323791Y-107057372D01*
X127371410Y-107139851D01*
X127460268Y-107198520D01*
X127525317Y-107215950D01*
X127631605Y-107209570D01*
X127920281Y-107042903D01*
X126651203Y-107225748D02*
X126486245Y-107320987D01*
X126427576Y-107409845D01*
X126392717Y-107539943D01*
X126446716Y-107728709D01*
X126613382Y-108017384D01*
X126749860Y-108158532D01*
X126879957Y-108193392D01*
X126986245Y-108187012D01*
X127151203Y-108091774D01*
X127209872Y-108002916D01*
X127244731Y-107872818D01*
X127190733Y-107684051D01*
X127024066Y-107395376D01*
X126887588Y-107254228D01*
X126757491Y-107219369D01*
X126651203Y-107225748D01*
X125743938Y-107749558D02*
X125578981Y-107844796D01*
X125520312Y-107933654D01*
X125485452Y-108063752D01*
X125539451Y-108252519D01*
X125706118Y-108541194D01*
X125842595Y-108682342D01*
X125972693Y-108717201D01*
X126078981Y-108710822D01*
X126243938Y-108615583D01*
X126302607Y-108526725D01*
X126337467Y-108396627D01*
X126283468Y-108207861D01*
X126116801Y-107919186D01*
X125980324Y-107778038D01*
X125850226Y-107743178D01*
X125743938Y-107749558D01*
X125125348Y-108106701D02*
X124630477Y-108392415D01*
X125377913Y-109115583D02*
X124877913Y-108249558D01*
%TO.C,U1*%
X100329923Y-85820304D02*
X100329923Y-86467923D01*
X100291828Y-86544114D01*
X100253733Y-86582209D01*
X100177542Y-86620304D01*
X100025161Y-86620304D01*
X99948971Y-86582209D01*
X99910876Y-86544114D01*
X99872780Y-86467923D01*
X99872780Y-85820304D01*
X99072780Y-86620304D02*
X99529923Y-86620304D01*
X99301352Y-86620304D02*
X99301352Y-85820304D01*
X99377542Y-85934590D01*
X99453733Y-86010780D01*
X99529923Y-86048876D01*
%TO.C,U2*%
X132537104Y-76566780D02*
X132537104Y-77376304D01*
X132489485Y-77471542D01*
X132441866Y-77519161D01*
X132346628Y-77566780D01*
X132156152Y-77566780D01*
X132060914Y-77519161D01*
X132013295Y-77471542D01*
X131965676Y-77376304D01*
X131965676Y-76566780D01*
X131537104Y-76662019D02*
X131489485Y-76614400D01*
X131394247Y-76566780D01*
X131156152Y-76566780D01*
X131060914Y-76614400D01*
X131013295Y-76662019D01*
X130965676Y-76757257D01*
X130965676Y-76852495D01*
X131013295Y-76995352D01*
X131584723Y-77566780D01*
X130965676Y-77566780D01*
%TO.C,U3*%
X132587904Y-85812380D02*
X132587904Y-86621904D01*
X132540285Y-86717142D01*
X132492666Y-86764761D01*
X132397428Y-86812380D01*
X132206952Y-86812380D01*
X132111714Y-86764761D01*
X132064095Y-86717142D01*
X132016476Y-86621904D01*
X132016476Y-85812380D01*
X131635523Y-85812380D02*
X131016476Y-85812380D01*
X131349809Y-86193333D01*
X131206952Y-86193333D01*
X131111714Y-86240952D01*
X131064095Y-86288571D01*
X131016476Y-86383809D01*
X131016476Y-86621904D01*
X131064095Y-86717142D01*
X131111714Y-86764761D01*
X131206952Y-86812380D01*
X131492666Y-86812380D01*
X131587904Y-86764761D01*
X131635523Y-86717142D01*
%TO.C,U4*%
X115865394Y-60828240D02*
X116662619Y-60687667D01*
X116764679Y-60718025D01*
X116819844Y-60756652D01*
X116883277Y-60842174D01*
X116916353Y-61029757D01*
X116885995Y-61131817D01*
X116847369Y-61186981D01*
X116761846Y-61250415D01*
X115964621Y-61390987D01*
X116450001Y-62224121D02*
X117106539Y-62108355D01*
X116033491Y-62055795D02*
X116695580Y-61697282D01*
X116803077Y-62306925D01*
%TO.C,R27*%
X125964904Y-94354714D02*
X125583952Y-94088047D01*
X125964904Y-93897571D02*
X125164904Y-93897571D01*
X125164904Y-94202333D01*
X125203000Y-94278523D01*
X125241095Y-94316619D01*
X125317285Y-94354714D01*
X125431571Y-94354714D01*
X125507761Y-94316619D01*
X125545857Y-94278523D01*
X125583952Y-94202333D01*
X125583952Y-93897571D01*
X125241095Y-94659476D02*
X125203000Y-94697571D01*
X125164904Y-94773761D01*
X125164904Y-94964238D01*
X125203000Y-95040428D01*
X125241095Y-95078523D01*
X125317285Y-95116619D01*
X125393476Y-95116619D01*
X125507761Y-95078523D01*
X125964904Y-94621380D01*
X125964904Y-95116619D01*
X125164904Y-95383285D02*
X125164904Y-95916619D01*
X125964904Y-95573761D01*
%TO.C,R1*%
X120757933Y-80676704D02*
X121024600Y-80295752D01*
X121215076Y-80676704D02*
X121215076Y-79876704D01*
X120910314Y-79876704D01*
X120834123Y-79914800D01*
X120796028Y-79952895D01*
X120757933Y-80029085D01*
X120757933Y-80143371D01*
X120796028Y-80219561D01*
X120834123Y-80257657D01*
X120910314Y-80295752D01*
X121215076Y-80295752D01*
X119996028Y-80676704D02*
X120453171Y-80676704D01*
X120224600Y-80676704D02*
X120224600Y-79876704D01*
X120300790Y-79990990D01*
X120376980Y-80067180D01*
X120453171Y-80105276D01*
%TO.C,J3*%
X89416631Y-50700963D02*
X89921707Y-50195887D01*
X89989051Y-50061200D01*
X89989051Y-49926513D01*
X89921707Y-49791826D01*
X89854364Y-49724483D01*
X89686005Y-50970337D02*
X90123738Y-51408070D01*
X90157410Y-50902994D01*
X90258425Y-51004009D01*
X90359440Y-51037681D01*
X90426784Y-51037681D01*
X90527799Y-51004009D01*
X90696158Y-50835650D01*
X90729829Y-50734635D01*
X90729829Y-50667292D01*
X90696158Y-50566276D01*
X90494127Y-50364246D01*
X90393112Y-50330574D01*
X90325768Y-50330574D01*
%TO.C,C1*%
X110749142Y-90511333D02*
X110796761Y-90463714D01*
X110844380Y-90320857D01*
X110844380Y-90225619D01*
X110796761Y-90082761D01*
X110701523Y-89987523D01*
X110606285Y-89939904D01*
X110415809Y-89892285D01*
X110272952Y-89892285D01*
X110082476Y-89939904D01*
X109987238Y-89987523D01*
X109892000Y-90082761D01*
X109844380Y-90225619D01*
X109844380Y-90320857D01*
X109892000Y-90463714D01*
X109939619Y-90511333D01*
X110844380Y-91463714D02*
X110844380Y-90892285D01*
X110844380Y-91178000D02*
X109844380Y-91178000D01*
X109987238Y-91082761D01*
X110082476Y-90987523D01*
X110130095Y-90892285D01*
%TO.C,C4*%
X103206533Y-82988114D02*
X103244628Y-83026209D01*
X103358914Y-83064304D01*
X103435104Y-83064304D01*
X103549390Y-83026209D01*
X103625580Y-82950019D01*
X103663676Y-82873828D01*
X103701771Y-82721447D01*
X103701771Y-82607161D01*
X103663676Y-82454780D01*
X103625580Y-82378590D01*
X103549390Y-82302400D01*
X103435104Y-82264304D01*
X103358914Y-82264304D01*
X103244628Y-82302400D01*
X103206533Y-82340495D01*
X102520819Y-82530971D02*
X102520819Y-83064304D01*
X102711295Y-82226209D02*
X102901771Y-82797638D01*
X102406533Y-82797638D01*
%TO.C,C7*%
X124464220Y-49095078D02*
X124495121Y-49050946D01*
X124512792Y-48931782D01*
X124499562Y-48856749D01*
X124442200Y-48750814D01*
X124353937Y-48689012D01*
X124272289Y-48664726D01*
X124115607Y-48653670D01*
X124003058Y-48673515D01*
X123859607Y-48737493D01*
X123791189Y-48788239D01*
X123729387Y-48876503D01*
X123711716Y-48995667D01*
X123724946Y-49070700D01*
X123782308Y-49176635D01*
X123826440Y-49207536D01*
X123797713Y-49483382D02*
X123890325Y-50008612D01*
X124618635Y-49532046D01*
%TO.C,C10*%
X142000714Y-72637714D02*
X142038809Y-72599619D01*
X142076904Y-72485333D01*
X142076904Y-72409142D01*
X142038809Y-72294857D01*
X141962619Y-72218666D01*
X141886428Y-72180571D01*
X141734047Y-72142476D01*
X141619761Y-72142476D01*
X141467380Y-72180571D01*
X141391190Y-72218666D01*
X141315000Y-72294857D01*
X141276904Y-72409142D01*
X141276904Y-72485333D01*
X141315000Y-72599619D01*
X141353095Y-72637714D01*
X142076904Y-73399619D02*
X142076904Y-72942476D01*
X142076904Y-73171047D02*
X141276904Y-73171047D01*
X141391190Y-73094857D01*
X141467380Y-73018666D01*
X141505476Y-72942476D01*
X141276904Y-73894857D02*
X141276904Y-73971047D01*
X141315000Y-74047238D01*
X141353095Y-74085333D01*
X141429285Y-74123428D01*
X141581666Y-74161523D01*
X141772142Y-74161523D01*
X141924523Y-74123428D01*
X142000714Y-74085333D01*
X142038809Y-74047238D01*
X142076904Y-73971047D01*
X142076904Y-73894857D01*
X142038809Y-73818666D01*
X142000714Y-73780571D01*
X141924523Y-73742476D01*
X141772142Y-73704380D01*
X141581666Y-73704380D01*
X141429285Y-73742476D01*
X141353095Y-73780571D01*
X141315000Y-73818666D01*
X141276904Y-73894857D01*
%TO.C,R31*%
X129800285Y-64596904D02*
X130066952Y-64215952D01*
X130257428Y-64596904D02*
X130257428Y-63796904D01*
X129952666Y-63796904D01*
X129876476Y-63835000D01*
X129838380Y-63873095D01*
X129800285Y-63949285D01*
X129800285Y-64063571D01*
X129838380Y-64139761D01*
X129876476Y-64177857D01*
X129952666Y-64215952D01*
X130257428Y-64215952D01*
X129533619Y-63796904D02*
X129038380Y-63796904D01*
X129305047Y-64101666D01*
X129190761Y-64101666D01*
X129114571Y-64139761D01*
X129076476Y-64177857D01*
X129038380Y-64254047D01*
X129038380Y-64444523D01*
X129076476Y-64520714D01*
X129114571Y-64558809D01*
X129190761Y-64596904D01*
X129419333Y-64596904D01*
X129495523Y-64558809D01*
X129533619Y-64520714D01*
X128276476Y-64596904D02*
X128733619Y-64596904D01*
X128505047Y-64596904D02*
X128505047Y-63796904D01*
X128581238Y-63911190D01*
X128657428Y-63987380D01*
X128733619Y-64025476D01*
%TO.C,C16*%
X97288285Y-58849714D02*
X97326380Y-58887809D01*
X97440666Y-58925904D01*
X97516857Y-58925904D01*
X97631142Y-58887809D01*
X97707333Y-58811619D01*
X97745428Y-58735428D01*
X97783523Y-58583047D01*
X97783523Y-58468761D01*
X97745428Y-58316380D01*
X97707333Y-58240190D01*
X97631142Y-58164000D01*
X97516857Y-58125904D01*
X97440666Y-58125904D01*
X97326380Y-58164000D01*
X97288285Y-58202095D01*
X96526380Y-58925904D02*
X96983523Y-58925904D01*
X96754952Y-58925904D02*
X96754952Y-58125904D01*
X96831142Y-58240190D01*
X96907333Y-58316380D01*
X96983523Y-58354476D01*
X95840666Y-58125904D02*
X95993047Y-58125904D01*
X96069238Y-58164000D01*
X96107333Y-58202095D01*
X96183523Y-58316380D01*
X96221619Y-58468761D01*
X96221619Y-58773523D01*
X96183523Y-58849714D01*
X96145428Y-58887809D01*
X96069238Y-58925904D01*
X95916857Y-58925904D01*
X95840666Y-58887809D01*
X95802571Y-58849714D01*
X95764476Y-58773523D01*
X95764476Y-58583047D01*
X95802571Y-58506857D01*
X95840666Y-58468761D01*
X95916857Y-58430666D01*
X96069238Y-58430666D01*
X96145428Y-58468761D01*
X96183523Y-58506857D01*
X96221619Y-58583047D01*
%TO.C,C20*%
X121672285Y-56292714D02*
X121710380Y-56330809D01*
X121824666Y-56368904D01*
X121900857Y-56368904D01*
X122015142Y-56330809D01*
X122091333Y-56254619D01*
X122129428Y-56178428D01*
X122167523Y-56026047D01*
X122167523Y-55911761D01*
X122129428Y-55759380D01*
X122091333Y-55683190D01*
X122015142Y-55607000D01*
X121900857Y-55568904D01*
X121824666Y-55568904D01*
X121710380Y-55607000D01*
X121672285Y-55645095D01*
X121367523Y-55645095D02*
X121329428Y-55607000D01*
X121253238Y-55568904D01*
X121062761Y-55568904D01*
X120986571Y-55607000D01*
X120948476Y-55645095D01*
X120910380Y-55721285D01*
X120910380Y-55797476D01*
X120948476Y-55911761D01*
X121405619Y-56368904D01*
X120910380Y-56368904D01*
X120415142Y-55568904D02*
X120338952Y-55568904D01*
X120262761Y-55607000D01*
X120224666Y-55645095D01*
X120186571Y-55721285D01*
X120148476Y-55873666D01*
X120148476Y-56064142D01*
X120186571Y-56216523D01*
X120224666Y-56292714D01*
X120262761Y-56330809D01*
X120338952Y-56368904D01*
X120415142Y-56368904D01*
X120491333Y-56330809D01*
X120529428Y-56292714D01*
X120567523Y-56216523D01*
X120605619Y-56064142D01*
X120605619Y-55873666D01*
X120567523Y-55721285D01*
X120529428Y-55645095D01*
X120491333Y-55607000D01*
X120415142Y-55568904D01*
%TO.C,R29*%
X134673525Y-89593663D02*
X134210278Y-89553199D01*
X134444954Y-89197765D02*
X133752134Y-89597765D01*
X133904515Y-89861697D01*
X133975601Y-89908632D01*
X134027640Y-89922576D01*
X134112671Y-89917472D01*
X134211645Y-89860329D01*
X134258580Y-89789243D01*
X134272524Y-89737204D01*
X134267420Y-89652173D01*
X134115039Y-89388241D01*
X134199069Y-90219499D02*
X134185125Y-90271538D01*
X134190229Y-90356569D01*
X134285467Y-90521526D01*
X134356554Y-90568461D01*
X134408593Y-90582405D01*
X134493623Y-90577301D01*
X134559606Y-90539206D01*
X134639533Y-90449071D01*
X134806859Y-89824603D01*
X135054478Y-90253492D01*
X135244954Y-90583406D02*
X135321144Y-90715372D01*
X135326248Y-90800402D01*
X135312304Y-90852441D01*
X135251425Y-90975567D01*
X135138507Y-91084749D01*
X134874576Y-91237130D01*
X134789545Y-91242234D01*
X134737506Y-91228290D01*
X134666419Y-91181355D01*
X134590229Y-91049389D01*
X134585125Y-90964358D01*
X134599069Y-90912319D01*
X134646004Y-90841233D01*
X134810961Y-90745994D01*
X134895992Y-90740891D01*
X134948031Y-90754835D01*
X135019118Y-90801770D01*
X135095308Y-90933736D01*
X135100412Y-91018766D01*
X135086468Y-91070805D01*
X135039533Y-91141892D01*
%TO.C,C9*%
X121951733Y-84207314D02*
X121989828Y-84245409D01*
X122104114Y-84283504D01*
X122180304Y-84283504D01*
X122294590Y-84245409D01*
X122370780Y-84169219D01*
X122408876Y-84093028D01*
X122446971Y-83940647D01*
X122446971Y-83826361D01*
X122408876Y-83673980D01*
X122370780Y-83597790D01*
X122294590Y-83521600D01*
X122180304Y-83483504D01*
X122104114Y-83483504D01*
X121989828Y-83521600D01*
X121951733Y-83559695D01*
X121570780Y-84283504D02*
X121418400Y-84283504D01*
X121342209Y-84245409D01*
X121304114Y-84207314D01*
X121227923Y-84093028D01*
X121189828Y-83940647D01*
X121189828Y-83635885D01*
X121227923Y-83559695D01*
X121266019Y-83521600D01*
X121342209Y-83483504D01*
X121494590Y-83483504D01*
X121570780Y-83521600D01*
X121608876Y-83559695D01*
X121646971Y-83635885D01*
X121646971Y-83826361D01*
X121608876Y-83902552D01*
X121570780Y-83940647D01*
X121494590Y-83978742D01*
X121342209Y-83978742D01*
X121266019Y-83940647D01*
X121227923Y-83902552D01*
X121189828Y-83826361D01*
%TO.C,C21*%
X85350285Y-71964514D02*
X85388380Y-72002609D01*
X85502666Y-72040704D01*
X85578857Y-72040704D01*
X85693142Y-72002609D01*
X85769333Y-71926419D01*
X85807428Y-71850228D01*
X85845523Y-71697847D01*
X85845523Y-71583561D01*
X85807428Y-71431180D01*
X85769333Y-71354990D01*
X85693142Y-71278800D01*
X85578857Y-71240704D01*
X85502666Y-71240704D01*
X85388380Y-71278800D01*
X85350285Y-71316895D01*
X85045523Y-71316895D02*
X85007428Y-71278800D01*
X84931238Y-71240704D01*
X84740761Y-71240704D01*
X84664571Y-71278800D01*
X84626476Y-71316895D01*
X84588380Y-71393085D01*
X84588380Y-71469276D01*
X84626476Y-71583561D01*
X85083619Y-72040704D01*
X84588380Y-72040704D01*
X83826476Y-72040704D02*
X84283619Y-72040704D01*
X84055047Y-72040704D02*
X84055047Y-71240704D01*
X84131238Y-71354990D01*
X84207428Y-71431180D01*
X84283619Y-71469276D01*
%TO.C,C12*%
X136531285Y-73056714D02*
X136569380Y-73094809D01*
X136683666Y-73132904D01*
X136759857Y-73132904D01*
X136874142Y-73094809D01*
X136950333Y-73018619D01*
X136988428Y-72942428D01*
X137026523Y-72790047D01*
X137026523Y-72675761D01*
X136988428Y-72523380D01*
X136950333Y-72447190D01*
X136874142Y-72371000D01*
X136759857Y-72332904D01*
X136683666Y-72332904D01*
X136569380Y-72371000D01*
X136531285Y-72409095D01*
X135769380Y-73132904D02*
X136226523Y-73132904D01*
X135997952Y-73132904D02*
X135997952Y-72332904D01*
X136074142Y-72447190D01*
X136150333Y-72523380D01*
X136226523Y-72561476D01*
X135464619Y-72409095D02*
X135426523Y-72371000D01*
X135350333Y-72332904D01*
X135159857Y-72332904D01*
X135083666Y-72371000D01*
X135045571Y-72409095D01*
X135007476Y-72485285D01*
X135007476Y-72561476D01*
X135045571Y-72675761D01*
X135502714Y-73132904D01*
X135007476Y-73132904D01*
%TO.C,R30*%
X135509459Y-76251548D02*
X134982689Y-76497274D01*
X135014588Y-75965833D02*
X134514588Y-76831859D01*
X134844502Y-77022335D01*
X134950790Y-77028715D01*
X135015839Y-77011285D01*
X135104697Y-76952616D01*
X135176126Y-76828898D01*
X135182506Y-76722610D01*
X135165076Y-76657561D01*
X135106407Y-76568702D01*
X134776492Y-76378226D01*
X135298134Y-77284240D02*
X135834245Y-77593763D01*
X135736047Y-77097182D01*
X135859764Y-77168611D01*
X135966053Y-77174991D01*
X136031101Y-77157561D01*
X136119960Y-77098892D01*
X136239007Y-76892695D01*
X136245387Y-76786407D01*
X136227957Y-76721358D01*
X136169288Y-76632500D01*
X135921852Y-76489643D01*
X135815564Y-76483263D01*
X135750515Y-76500693D01*
X136370356Y-77903287D02*
X136452835Y-77950906D01*
X136559123Y-77957286D01*
X136624172Y-77939856D01*
X136713030Y-77881187D01*
X136849508Y-77740039D01*
X136968555Y-77533843D01*
X137022554Y-77345076D01*
X137028934Y-77238788D01*
X137011504Y-77173739D01*
X136952835Y-77084881D01*
X136870356Y-77037262D01*
X136764068Y-77030882D01*
X136699019Y-77048312D01*
X136610161Y-77106981D01*
X136473684Y-77248129D01*
X136354636Y-77454325D01*
X136300637Y-77643092D01*
X136294258Y-77749380D01*
X136311687Y-77814429D01*
X136370356Y-77903287D01*
%TO.C,R33*%
X94621285Y-73286904D02*
X94887952Y-72905952D01*
X95078428Y-73286904D02*
X95078428Y-72486904D01*
X94773666Y-72486904D01*
X94697476Y-72525000D01*
X94659380Y-72563095D01*
X94621285Y-72639285D01*
X94621285Y-72753571D01*
X94659380Y-72829761D01*
X94697476Y-72867857D01*
X94773666Y-72905952D01*
X95078428Y-72905952D01*
X94354619Y-72486904D02*
X93859380Y-72486904D01*
X94126047Y-72791666D01*
X94011761Y-72791666D01*
X93935571Y-72829761D01*
X93897476Y-72867857D01*
X93859380Y-72944047D01*
X93859380Y-73134523D01*
X93897476Y-73210714D01*
X93935571Y-73248809D01*
X94011761Y-73286904D01*
X94240333Y-73286904D01*
X94316523Y-73248809D01*
X94354619Y-73210714D01*
X93592714Y-72486904D02*
X93097476Y-72486904D01*
X93364142Y-72791666D01*
X93249857Y-72791666D01*
X93173666Y-72829761D01*
X93135571Y-72867857D01*
X93097476Y-72944047D01*
X93097476Y-73134523D01*
X93135571Y-73210714D01*
X93173666Y-73248809D01*
X93249857Y-73286904D01*
X93478428Y-73286904D01*
X93554619Y-73248809D01*
X93592714Y-73210714D01*
%TO.C,C15*%
X115830285Y-106711714D02*
X115868380Y-106749809D01*
X115982666Y-106787904D01*
X116058857Y-106787904D01*
X116173142Y-106749809D01*
X116249333Y-106673619D01*
X116287428Y-106597428D01*
X116325523Y-106445047D01*
X116325523Y-106330761D01*
X116287428Y-106178380D01*
X116249333Y-106102190D01*
X116173142Y-106026000D01*
X116058857Y-105987904D01*
X115982666Y-105987904D01*
X115868380Y-106026000D01*
X115830285Y-106064095D01*
X115068380Y-106787904D02*
X115525523Y-106787904D01*
X115296952Y-106787904D02*
X115296952Y-105987904D01*
X115373142Y-106102190D01*
X115449333Y-106178380D01*
X115525523Y-106216476D01*
X114344571Y-105987904D02*
X114725523Y-105987904D01*
X114763619Y-106368857D01*
X114725523Y-106330761D01*
X114649333Y-106292666D01*
X114458857Y-106292666D01*
X114382666Y-106330761D01*
X114344571Y-106368857D01*
X114306476Y-106445047D01*
X114306476Y-106635523D01*
X114344571Y-106711714D01*
X114382666Y-106749809D01*
X114458857Y-106787904D01*
X114649333Y-106787904D01*
X114725523Y-106749809D01*
X114763619Y-106711714D01*
%TO.C,C13*%
X127209485Y-104781314D02*
X127247580Y-104819409D01*
X127361866Y-104857504D01*
X127438057Y-104857504D01*
X127552342Y-104819409D01*
X127628533Y-104743219D01*
X127666628Y-104667028D01*
X127704723Y-104514647D01*
X127704723Y-104400361D01*
X127666628Y-104247980D01*
X127628533Y-104171790D01*
X127552342Y-104095600D01*
X127438057Y-104057504D01*
X127361866Y-104057504D01*
X127247580Y-104095600D01*
X127209485Y-104133695D01*
X126447580Y-104857504D02*
X126904723Y-104857504D01*
X126676152Y-104857504D02*
X126676152Y-104057504D01*
X126752342Y-104171790D01*
X126828533Y-104247980D01*
X126904723Y-104286076D01*
X126180914Y-104057504D02*
X125685676Y-104057504D01*
X125952342Y-104362266D01*
X125838057Y-104362266D01*
X125761866Y-104400361D01*
X125723771Y-104438457D01*
X125685676Y-104514647D01*
X125685676Y-104705123D01*
X125723771Y-104781314D01*
X125761866Y-104819409D01*
X125838057Y-104857504D01*
X126066628Y-104857504D01*
X126142819Y-104819409D01*
X126180914Y-104781314D01*
%TO.C,R34*%
X96836561Y-91379567D02*
X96639980Y-90958151D01*
X97065133Y-90983670D02*
X96372312Y-90583670D01*
X96219931Y-90847602D01*
X96214827Y-90932632D01*
X96228771Y-90984671D01*
X96275707Y-91055758D01*
X96374681Y-91112901D01*
X96459711Y-91118005D01*
X96511750Y-91104061D01*
X96582837Y-91057125D01*
X96735218Y-90793194D01*
X96010407Y-91210507D02*
X95762788Y-91639396D01*
X96160053Y-91560837D01*
X96102910Y-91659811D01*
X96097807Y-91744842D01*
X96111750Y-91796881D01*
X96158686Y-91867968D01*
X96323643Y-91963206D01*
X96408673Y-91968310D01*
X96460712Y-91954366D01*
X96531799Y-91907430D01*
X96646085Y-91709482D01*
X96651189Y-91624451D01*
X96637245Y-91572412D01*
X95650871Y-92366576D02*
X96112752Y-92633242D01*
X95482178Y-92049237D02*
X96072288Y-92169994D01*
X95824669Y-92598883D01*
%TO.C,C18*%
X129698714Y-94227714D02*
X129736809Y-94189619D01*
X129774904Y-94075333D01*
X129774904Y-93999142D01*
X129736809Y-93884857D01*
X129660619Y-93808666D01*
X129584428Y-93770571D01*
X129432047Y-93732476D01*
X129317761Y-93732476D01*
X129165380Y-93770571D01*
X129089190Y-93808666D01*
X129013000Y-93884857D01*
X128974904Y-93999142D01*
X128974904Y-94075333D01*
X129013000Y-94189619D01*
X129051095Y-94227714D01*
X129774904Y-94989619D02*
X129774904Y-94532476D01*
X129774904Y-94761047D02*
X128974904Y-94761047D01*
X129089190Y-94684857D01*
X129165380Y-94608666D01*
X129203476Y-94532476D01*
X129317761Y-95446761D02*
X129279666Y-95370571D01*
X129241571Y-95332476D01*
X129165380Y-95294380D01*
X129127285Y-95294380D01*
X129051095Y-95332476D01*
X129013000Y-95370571D01*
X128974904Y-95446761D01*
X128974904Y-95599142D01*
X129013000Y-95675333D01*
X129051095Y-95713428D01*
X129127285Y-95751523D01*
X129165380Y-95751523D01*
X129241571Y-95713428D01*
X129279666Y-95675333D01*
X129317761Y-95599142D01*
X129317761Y-95446761D01*
X129355857Y-95370571D01*
X129393952Y-95332476D01*
X129470142Y-95294380D01*
X129622523Y-95294380D01*
X129698714Y-95332476D01*
X129736809Y-95370571D01*
X129774904Y-95446761D01*
X129774904Y-95599142D01*
X129736809Y-95675333D01*
X129698714Y-95713428D01*
X129622523Y-95751523D01*
X129470142Y-95751523D01*
X129393952Y-95713428D01*
X129355857Y-95675333D01*
X129317761Y-95599142D01*
%TO.C,C19*%
X129419285Y-55132714D02*
X129457380Y-55170809D01*
X129571666Y-55208904D01*
X129647857Y-55208904D01*
X129762142Y-55170809D01*
X129838333Y-55094619D01*
X129876428Y-55018428D01*
X129914523Y-54866047D01*
X129914523Y-54751761D01*
X129876428Y-54599380D01*
X129838333Y-54523190D01*
X129762142Y-54447000D01*
X129647857Y-54408904D01*
X129571666Y-54408904D01*
X129457380Y-54447000D01*
X129419285Y-54485095D01*
X128657380Y-55208904D02*
X129114523Y-55208904D01*
X128885952Y-55208904D02*
X128885952Y-54408904D01*
X128962142Y-54523190D01*
X129038333Y-54599380D01*
X129114523Y-54637476D01*
X128276428Y-55208904D02*
X128124047Y-55208904D01*
X128047857Y-55170809D01*
X128009761Y-55132714D01*
X127933571Y-55018428D01*
X127895476Y-54866047D01*
X127895476Y-54561285D01*
X127933571Y-54485095D01*
X127971666Y-54447000D01*
X128047857Y-54408904D01*
X128200238Y-54408904D01*
X128276428Y-54447000D01*
X128314523Y-54485095D01*
X128352619Y-54561285D01*
X128352619Y-54751761D01*
X128314523Y-54827952D01*
X128276428Y-54866047D01*
X128200238Y-54904142D01*
X128047857Y-54904142D01*
X127971666Y-54866047D01*
X127933571Y-54827952D01*
X127895476Y-54751761D01*
%TO.C,C11*%
X100717285Y-99980714D02*
X100755380Y-100018809D01*
X100869666Y-100056904D01*
X100945857Y-100056904D01*
X101060142Y-100018809D01*
X101136333Y-99942619D01*
X101174428Y-99866428D01*
X101212523Y-99714047D01*
X101212523Y-99599761D01*
X101174428Y-99447380D01*
X101136333Y-99371190D01*
X101060142Y-99295000D01*
X100945857Y-99256904D01*
X100869666Y-99256904D01*
X100755380Y-99295000D01*
X100717285Y-99333095D01*
X99955380Y-100056904D02*
X100412523Y-100056904D01*
X100183952Y-100056904D02*
X100183952Y-99256904D01*
X100260142Y-99371190D01*
X100336333Y-99447380D01*
X100412523Y-99485476D01*
X99193476Y-100056904D02*
X99650619Y-100056904D01*
X99422047Y-100056904D02*
X99422047Y-99256904D01*
X99498238Y-99371190D01*
X99574428Y-99447380D01*
X99650619Y-99485476D01*
%TO.C,C14*%
X121672285Y-57435714D02*
X121710380Y-57473809D01*
X121824666Y-57511904D01*
X121900857Y-57511904D01*
X122015142Y-57473809D01*
X122091333Y-57397619D01*
X122129428Y-57321428D01*
X122167523Y-57169047D01*
X122167523Y-57054761D01*
X122129428Y-56902380D01*
X122091333Y-56826190D01*
X122015142Y-56750000D01*
X121900857Y-56711904D01*
X121824666Y-56711904D01*
X121710380Y-56750000D01*
X121672285Y-56788095D01*
X120910380Y-57511904D02*
X121367523Y-57511904D01*
X121138952Y-57511904D02*
X121138952Y-56711904D01*
X121215142Y-56826190D01*
X121291333Y-56902380D01*
X121367523Y-56940476D01*
X120224666Y-56978571D02*
X120224666Y-57511904D01*
X120415142Y-56673809D02*
X120605619Y-57245238D01*
X120110380Y-57245238D01*
%TO.C,R32*%
X93667336Y-78539525D02*
X93707800Y-78076278D01*
X94063234Y-78310954D02*
X93663234Y-77618134D01*
X93399302Y-77770515D01*
X93352367Y-77841601D01*
X93338423Y-77893640D01*
X93343527Y-77978671D01*
X93400670Y-78077645D01*
X93471756Y-78124580D01*
X93523795Y-78138524D01*
X93608826Y-78133420D01*
X93872758Y-77981039D01*
X93036396Y-77980038D02*
X92607507Y-78227657D01*
X92990829Y-78358256D01*
X92891854Y-78415398D01*
X92844919Y-78486485D01*
X92830975Y-78538524D01*
X92836079Y-78623555D01*
X92931317Y-78788512D01*
X93002404Y-78835447D01*
X93054443Y-78849391D01*
X93139473Y-78844287D01*
X93337422Y-78730002D01*
X93384357Y-78658915D01*
X93398301Y-78606876D01*
X92381671Y-78446021D02*
X92329632Y-78432077D01*
X92244602Y-78437181D01*
X92079644Y-78532419D01*
X92032709Y-78603506D01*
X92018765Y-78655545D01*
X92023869Y-78740576D01*
X92061964Y-78806558D01*
X92152099Y-78886485D01*
X92776567Y-79053811D01*
X92347679Y-79301430D01*
%TO.C,R28*%
X119387975Y-73554508D02*
X119121202Y-73173630D01*
X119544327Y-73124934D02*
X118792573Y-72851318D01*
X118688338Y-73137700D01*
X118698077Y-73222325D01*
X118720846Y-73271152D01*
X118779412Y-73333009D01*
X118886805Y-73372097D01*
X118971430Y-73362358D01*
X119020258Y-73339589D01*
X119082114Y-73281023D01*
X119186349Y-72994641D01*
X118603582Y-73593333D02*
X118554754Y-73616101D01*
X118492898Y-73674668D01*
X118427751Y-73853657D01*
X118437490Y-73938282D01*
X118460259Y-73987109D01*
X118518825Y-74048965D01*
X118590421Y-74075024D01*
X118710844Y-74078314D01*
X119296769Y-73805092D01*
X119127388Y-74270464D01*
X118541462Y-74543686D02*
X118531723Y-74459061D01*
X118508955Y-74410234D01*
X118450388Y-74348377D01*
X118414590Y-74335348D01*
X118329966Y-74345087D01*
X118281138Y-74367855D01*
X118219282Y-74426422D01*
X118167165Y-74569613D01*
X118176904Y-74654238D01*
X118199672Y-74703065D01*
X118258238Y-74764922D01*
X118294036Y-74777951D01*
X118378661Y-74768212D01*
X118427488Y-74745443D01*
X118489345Y-74686877D01*
X118541462Y-74543686D01*
X118603319Y-74485119D01*
X118652146Y-74462351D01*
X118736771Y-74452612D01*
X118879962Y-74504729D01*
X118938528Y-74566586D01*
X118961297Y-74615413D01*
X118971036Y-74700038D01*
X118918919Y-74843229D01*
X118857062Y-74901795D01*
X118808235Y-74924564D01*
X118723610Y-74934303D01*
X118580419Y-74882186D01*
X118521852Y-74820329D01*
X118499084Y-74771502D01*
X118489345Y-74686877D01*
%TO.C,C17*%
X102495285Y-104806714D02*
X102533380Y-104844809D01*
X102647666Y-104882904D01*
X102723857Y-104882904D01*
X102838142Y-104844809D01*
X102914333Y-104768619D01*
X102952428Y-104692428D01*
X102990523Y-104540047D01*
X102990523Y-104425761D01*
X102952428Y-104273380D01*
X102914333Y-104197190D01*
X102838142Y-104121000D01*
X102723857Y-104082904D01*
X102647666Y-104082904D01*
X102533380Y-104121000D01*
X102495285Y-104159095D01*
X101733380Y-104882904D02*
X102190523Y-104882904D01*
X101961952Y-104882904D02*
X101961952Y-104082904D01*
X102038142Y-104197190D01*
X102114333Y-104273380D01*
X102190523Y-104311476D01*
X101466714Y-104082904D02*
X100933380Y-104082904D01*
X101276238Y-104882904D01*
D10*
%TO.C,C2*%
X124975252Y-73887000D02*
X124452748Y-73887000D01*
X124975252Y-72417000D02*
X124452748Y-72417000D01*
%TO.C,C3*%
X124991800Y-81577548D02*
X124991800Y-82100052D01*
X123521800Y-81577548D02*
X123521800Y-82100052D01*
%TO.C,C5*%
X131425836Y-52726000D02*
X131210164Y-52726000D01*
X131425836Y-53446000D02*
X131210164Y-53446000D01*
%TO.C,C6*%
X100121195Y-74209711D02*
X100083744Y-73997316D01*
X100830256Y-74084684D02*
X100792805Y-73872289D01*
%TO.C,C8*%
X122003532Y-52454914D02*
X121912800Y-51940348D01*
X123451200Y-52199652D02*
X123360468Y-51685086D01*
%TO.C,J1*%
X122394000Y-94822000D02*
X122694000Y-94822000D01*
X123544000Y-95532000D02*
X123544000Y-99032000D01*
X112594000Y-95532000D02*
X112594000Y-94922000D01*
X121194000Y-98532000D02*
X120994000Y-98532000D01*
X110034000Y-94922000D02*
X124154000Y-94922000D01*
X110034000Y-99642000D02*
X110034000Y-94922000D01*
X122394000Y-94722000D02*
X122694000Y-94722000D01*
X121594000Y-95532000D02*
X123544000Y-95532000D01*
X115194000Y-98532000D02*
X114994000Y-98532000D01*
X110644000Y-99032000D02*
X110644000Y-95532000D01*
X115194000Y-99032000D02*
X115194000Y-98532000D01*
X117194000Y-99032000D02*
X117194000Y-98532000D01*
X113094000Y-99032000D02*
X113094000Y-98532000D01*
X113194000Y-99032000D02*
X113194000Y-98532000D01*
X119094000Y-99032000D02*
X119094000Y-98532000D01*
X119194000Y-98532000D02*
X118994000Y-98532000D01*
X120994000Y-98532000D02*
X120994000Y-99032000D01*
X113194000Y-98532000D02*
X112994000Y-98532000D01*
X124154000Y-97532000D02*
X123544000Y-97532000D01*
X122694000Y-94722000D02*
X122694000Y-94922000D01*
X112994000Y-98532000D02*
X112994000Y-99032000D01*
X115094000Y-99032000D02*
X115094000Y-98532000D01*
X110644000Y-95532000D02*
X112594000Y-95532000D01*
X121194000Y-99032000D02*
X121194000Y-98532000D01*
X117094000Y-99032000D02*
X117094000Y-98532000D01*
X117194000Y-98532000D02*
X116994000Y-98532000D01*
X124154000Y-96232000D02*
X123544000Y-96232000D01*
X124154000Y-94922000D02*
X124154000Y-99642000D01*
X122394000Y-94922000D02*
X122394000Y-94722000D01*
X121094000Y-99032000D02*
X121094000Y-98532000D01*
X116994000Y-98532000D02*
X116994000Y-99032000D01*
X110034000Y-97532000D02*
X110644000Y-97532000D01*
X114994000Y-98532000D02*
X114994000Y-99032000D01*
X119194000Y-99032000D02*
X119194000Y-98532000D01*
X124454000Y-94622000D02*
X124454000Y-95872000D01*
X124154000Y-99642000D02*
X110034000Y-99642000D01*
X123544000Y-99032000D02*
X110644000Y-99032000D01*
X123204000Y-94622000D02*
X124454000Y-94622000D01*
X121594000Y-94922000D02*
X121594000Y-95532000D01*
X110034000Y-96232000D02*
X110644000Y-96232000D01*
X118994000Y-98532000D02*
X118994000Y-99032000D01*
%TO.C,R2*%
X120295641Y-87631000D02*
X119988359Y-87631000D01*
X120295641Y-88391000D02*
X119988359Y-88391000D01*
%TO.C,R3*%
X124361641Y-72008000D02*
X124054359Y-72008000D01*
X124361641Y-71248000D02*
X124054359Y-71248000D01*
%TO.C,R4*%
X144667500Y-73389258D02*
X144667500Y-72914742D01*
X143622500Y-73389258D02*
X143622500Y-72914742D01*
%TO.C,R5*%
X100598500Y-95995258D02*
X100598500Y-95520742D01*
X99553500Y-95995258D02*
X99553500Y-95520742D01*
%TO.C,R6*%
X138985258Y-73391500D02*
X138510742Y-73391500D01*
X138985258Y-74436500D02*
X138510742Y-74436500D01*
%TO.C,R7*%
X123634559Y-105233200D02*
X123941841Y-105233200D01*
X123634559Y-105993200D02*
X123941841Y-105993200D01*
%TO.C,R8*%
X124814359Y-58292000D02*
X125121641Y-58292000D01*
X124814359Y-57532000D02*
X125121641Y-57532000D01*
%TO.C,R9*%
X112393759Y-108076000D02*
X112701041Y-108076000D01*
X112393759Y-107316000D02*
X112701041Y-107316000D01*
%TO.C,R10*%
X99936600Y-106401841D02*
X99936600Y-106094559D01*
X99176600Y-106401841D02*
X99176600Y-106094559D01*
%TO.C,R11*%
X131164359Y-54482000D02*
X131471641Y-54482000D01*
X131164359Y-53722000D02*
X131471641Y-53722000D01*
%TO.C,R12*%
X95024641Y-56516000D02*
X94717359Y-56516000D01*
X95024641Y-57276000D02*
X94717359Y-57276000D01*
%TO.C,R13*%
X130809000Y-56922641D02*
X130809000Y-56615359D01*
X130049000Y-56922641D02*
X130049000Y-56615359D01*
%TO.C,R14*%
X87275641Y-73151000D02*
X86968359Y-73151000D01*
X87275641Y-72391000D02*
X86968359Y-72391000D01*
%TO.C,R15*%
X99040094Y-74082679D02*
X99093453Y-74385293D01*
X99788547Y-73950707D02*
X99841906Y-74253321D01*
%TO.C,R16*%
X124812359Y-54482000D02*
X125119641Y-54482000D01*
X124812359Y-55242000D02*
X125119641Y-55242000D01*
%TO.C,R17*%
X131164359Y-52450000D02*
X131471641Y-52450000D01*
X131164359Y-51690000D02*
X131471641Y-51690000D01*
%TO.C,R18*%
X111808000Y-92311641D02*
X111808000Y-92004359D01*
X112568000Y-92311641D02*
X112568000Y-92004359D01*
%TO.C,R19*%
X114600000Y-92313641D02*
X114600000Y-92006359D01*
X113840000Y-92313641D02*
X113840000Y-92006359D01*
%TO.C,R20*%
X115872000Y-92311641D02*
X115872000Y-92004359D01*
X116632000Y-92311641D02*
X116632000Y-92004359D01*
%TO.C,R21*%
X101835467Y-73993573D02*
X101782108Y-73690959D01*
X101087014Y-74125545D02*
X101033655Y-73822931D01*
%TO.C,R22*%
X118410000Y-92313641D02*
X118410000Y-92006359D01*
X117650000Y-92313641D02*
X117650000Y-92006359D01*
%TO.C,R23*%
X108307178Y-109030222D02*
X108376301Y-108730815D01*
X109047699Y-109201185D02*
X109116822Y-108901778D01*
%TO.C,R24*%
X107291178Y-108776222D02*
X107360301Y-108476815D01*
X108031699Y-108947185D02*
X108100822Y-108647778D01*
%TO.C,R25*%
X99694000Y-68680359D02*
X99694000Y-68987641D01*
X98934000Y-68680359D02*
X98934000Y-68987641D01*
%TO.C,R26*%
X127026400Y-81837559D02*
X127026400Y-82144841D01*
X127786400Y-81837559D02*
X127786400Y-82144841D01*
D13*
%TO.C,SW1*%
X130625907Y-107962637D02*
X133083363Y-106241907D01*
X130625907Y-107962637D02*
X132346637Y-110420093D01*
X133083363Y-106241907D02*
X134804093Y-108699363D01*
X134804093Y-108699363D02*
X132346637Y-110420093D01*
%TO.C,SW2*%
X130368410Y-111580582D02*
X127770334Y-113080582D01*
X126270334Y-110482506D02*
X128868410Y-108982506D01*
X126270334Y-110482506D02*
X127770334Y-113080582D01*
X128868410Y-108982506D02*
X130368410Y-111580582D01*
D10*
%TO.C,U1*%
X106970000Y-85744000D02*
X100960000Y-85744000D01*
X104720000Y-92564000D02*
X100960000Y-92564000D01*
X100960000Y-92564000D02*
X100960000Y-91304000D01*
X100960000Y-85744000D02*
X100960000Y-87004000D01*
%TO.C,U2*%
X126746000Y-79951000D02*
X124546000Y-79951000D01*
X126746000Y-79951000D02*
X128946000Y-79951000D01*
X126746000Y-74481000D02*
X130346000Y-74481000D01*
X126746000Y-74481000D02*
X124546000Y-74481000D01*
%TO.C,U3*%
X126746000Y-83625000D02*
X124546000Y-83625000D01*
X126746000Y-83625000D02*
X130346000Y-83625000D01*
X126746000Y-89095000D02*
X128946000Y-89095000D01*
X126746000Y-89095000D02*
X124546000Y-89095000D01*
%TO.C,U4*%
X121178881Y-69581028D02*
X121314327Y-70349178D01*
X116843754Y-44995303D02*
X117958576Y-51317768D01*
X98880861Y-48162645D02*
X99995682Y-54485111D01*
X116843754Y-44995303D02*
X98880861Y-48162645D01*
X103215988Y-72748371D02*
X103351433Y-73516521D01*
X117958576Y-51317768D02*
X118332803Y-51251782D01*
X121314327Y-70349178D02*
X120329519Y-70522826D01*
X103351433Y-73516521D02*
X104336241Y-73342873D01*
%TO.C,R27*%
X127395500Y-95487258D02*
X127395500Y-95012742D01*
X126350500Y-95487258D02*
X126350500Y-95012742D01*
%TO.C,R1*%
X121073142Y-81062300D02*
X121547658Y-81062300D01*
X121073142Y-82107300D02*
X121547658Y-82107300D01*
%TO.C,J3*%
X88434426Y-54035478D02*
X86553522Y-52154574D01*
X90272904Y-52197000D02*
X89332452Y-51256548D01*
X86553522Y-52154574D02*
X82918994Y-55789102D01*
X88434426Y-54035478D02*
X84799898Y-57670006D01*
X89332452Y-53137452D02*
X90272904Y-52197000D01*
X84799898Y-57670006D02*
X82918994Y-55789102D01*
%TO.C,C1*%
X107977000Y-90939252D02*
X107977000Y-90416748D01*
X109447000Y-90939252D02*
X109447000Y-90416748D01*
%TO.C,C4*%
X102796748Y-83593000D02*
X103319252Y-83593000D01*
X102796748Y-85063000D02*
X103319252Y-85063000D01*
%TO.C,C7*%
X125483200Y-51945652D02*
X125392468Y-51431086D01*
X124035532Y-52200914D02*
X123944800Y-51686348D01*
%TO.C,C10*%
X143235000Y-73044164D02*
X143235000Y-73259836D01*
X142515000Y-73044164D02*
X142515000Y-73259836D01*
%TO.C,R31*%
X129439641Y-65025000D02*
X129132359Y-65025000D01*
X129439641Y-65785000D02*
X129132359Y-65785000D01*
%TO.C,C16*%
X96666164Y-57044000D02*
X96881836Y-57044000D01*
X96666164Y-57764000D02*
X96881836Y-57764000D01*
%TO.C,C20*%
X125075836Y-55520000D02*
X124860164Y-55520000D01*
X125075836Y-56240000D02*
X124860164Y-56240000D01*
%TO.C,R29*%
X133351731Y-91128057D02*
X133198090Y-90861943D01*
X134009910Y-90748057D02*
X133856269Y-90481943D01*
%TO.C,C9*%
X121954236Y-83214800D02*
X121738564Y-83214800D01*
X121954236Y-82494800D02*
X121738564Y-82494800D01*
%TO.C,C21*%
X85324836Y-72411000D02*
X85109164Y-72411000D01*
X85324836Y-73131000D02*
X85109164Y-73131000D01*
%TO.C,C12*%
X136279836Y-74274000D02*
X136064164Y-74274000D01*
X136279836Y-73554000D02*
X136064164Y-73554000D01*
%TO.C,R30*%
X135198057Y-78383910D02*
X134931943Y-78230269D01*
X135578057Y-77725731D02*
X135311943Y-77572090D01*
%TO.C,R33*%
X94080359Y-72135000D02*
X94387641Y-72135000D01*
X94080359Y-71375000D02*
X94387641Y-71375000D01*
%TO.C,C15*%
X114725564Y-107336000D02*
X114941236Y-107336000D01*
X114725564Y-108056000D02*
X114941236Y-108056000D01*
%TO.C,C13*%
X125712364Y-105253200D02*
X125928036Y-105253200D01*
X125712364Y-105973200D02*
X125928036Y-105973200D01*
%TO.C,R34*%
X95248269Y-91382057D02*
X95401910Y-91115943D01*
X94590090Y-91002057D02*
X94743731Y-90735943D01*
%TO.C,C18*%
X127783000Y-94662164D02*
X127783000Y-94877836D01*
X128503000Y-94662164D02*
X128503000Y-94877836D01*
%TO.C,C19*%
X129012836Y-55647000D02*
X128797164Y-55647000D01*
X129012836Y-56367000D02*
X128797164Y-56367000D01*
%TO.C,C11*%
X100183836Y-98192000D02*
X99968164Y-98192000D01*
X100183836Y-98912000D02*
X99968164Y-98912000D01*
%TO.C,C14*%
X125075836Y-56536000D02*
X124860164Y-56536000D01*
X125075836Y-57256000D02*
X124860164Y-57256000D01*
%TO.C,R32*%
X92512943Y-77875910D02*
X92779057Y-77722269D01*
X92132943Y-77217731D02*
X92399057Y-77064090D01*
%TO.C,R28*%
X117192368Y-73928408D02*
X117297465Y-73639657D01*
X117906535Y-74188343D02*
X118011632Y-73899592D01*
%TO.C,C17*%
X101000764Y-105846200D02*
X101216436Y-105846200D01*
X101000764Y-105126200D02*
X101216436Y-105126200D01*
%TD*%
M02*
