%TF.GenerationSoftware,KiCad,Pcbnew,(5.99.0-10634-g5f56117be9)*%
%TF.CreationDate,2021-05-24T23:14:30+02:00*%
%TF.ProjectId,custom-pcb,63757374-6f6d-42d7-9063-622e6b696361,rev?*%
%TF.SameCoordinates,Original*%
%TF.FileFunction,Copper,L2,Inr*%
%TF.FilePolarity,Positive*%
%FSLAX46Y46*%
G04 Gerber Fmt 4.6, Leading zero omitted, Abs format (unit mm)*
G04 Created by KiCad (PCBNEW (5.99.0-10634-g5f56117be9)) date 2021-05-24 23:14:30*
%MOMM*%
%LPD*%
G01*
G04 APERTURE LIST*
G04 Aperture macros list*
%AMRoundRect*
0 Rectangle with rounded corners*
0 $1 Rounding radius*
0 $2 $3 $4 $5 $6 $7 $8 $9 X,Y pos of 4 corners*
0 Add a 4 corners polygon primitive as box body*
4,1,4,$2,$3,$4,$5,$6,$7,$8,$9,$2,$3,0*
0 Add four circle primitives for the rounded corners*
1,1,$1+$1,$2,$3*
1,1,$1+$1,$4,$5*
1,1,$1+$1,$6,$7*
1,1,$1+$1,$8,$9*
0 Add four rect primitives between the rounded corners*
20,1,$1+$1,$2,$3,$4,$5,0*
20,1,$1+$1,$4,$5,$6,$7,0*
20,1,$1+$1,$6,$7,$8,$9,0*
20,1,$1+$1,$8,$9,$2,$3,0*%
%AMHorizOval*
0 Thick line with rounded ends*
0 $1 width*
0 $2 $3 position (X,Y) of the first rounded end (center of the circle)*
0 $4 $5 position (X,Y) of the second rounded end (center of the circle)*
0 Add line between two ends*
20,1,$1,$2,$3,$4,$5,0*
0 Add two circle primitives to create the rounded ends*
1,1,$1,$2,$3*
1,1,$1,$4,$5*%
%AMRotRect*
0 Rectangle, with rotation*
0 The origin of the aperture is its center*
0 $1 length*
0 $2 width*
0 $3 Rotation angle, in degrees counterclockwise*
0 Add horizontal line*
21,1,$1,$2,0,0,$3*%
G04 Aperture macros list end*
%TA.AperFunction,ComponentPad*%
%ADD10R,1.800000X1.800000*%
%TD*%
%TA.AperFunction,ComponentPad*%
%ADD11C,1.800000*%
%TD*%
%TA.AperFunction,ComponentPad*%
%ADD12RoundRect,0.500000X1.238529X-0.982877X1.580549X-0.043184X-1.238529X0.982877X-1.580549X0.043184X0*%
%TD*%
%TA.AperFunction,ComponentPad*%
%ADD13RoundRect,0.500000X1.549038X0.316987X1.049038X1.183013X-1.549038X-0.316987X-1.049038X-1.183013X0*%
%TD*%
%TA.AperFunction,ComponentPad*%
%ADD14RoundRect,0.500000X1.183013X1.049038X0.316987X1.549038X-1.183013X-1.049038X-0.316987X-1.549038X0*%
%TD*%
%TA.AperFunction,ComponentPad*%
%ADD15RoundRect,0.500000X0.500000X1.500000X-0.500000X1.500000X-0.500000X-1.500000X0.500000X-1.500000X0*%
%TD*%
%TA.AperFunction,ComponentPad*%
%ADD16RoundRect,0.500000X0.316987X-1.549038X1.183013X-1.049038X-0.316987X1.549038X-1.183013X1.049038X0*%
%TD*%
%TA.AperFunction,ComponentPad*%
%ADD17RoundRect,0.500000X1.049038X-1.183013X1.549038X-0.316987X-1.049038X1.183013X-1.549038X0.316987X0*%
%TD*%
%TA.AperFunction,ComponentPad*%
%ADD18C,1.700000*%
%TD*%
%TA.AperFunction,ComponentPad*%
%ADD19HorizOval,1.700000X0.000000X0.000000X0.000000X0.000000X0*%
%TD*%
%TA.AperFunction,ComponentPad*%
%ADD20RotRect,1.700000X1.700000X257.000000*%
%TD*%
%TA.AperFunction,ComponentPad*%
%ADD21HorizOval,1.700000X0.000000X0.000000X0.000000X0.000000X0*%
%TD*%
%TA.AperFunction,ComponentPad*%
%ADD22RotRect,1.700000X1.700000X281.000000*%
%TD*%
%TA.AperFunction,ComponentPad*%
%ADD23RoundRect,0.500000X-1.571177X0.177206X-1.363266X-0.800941X1.571177X-0.177206X1.363266X0.800941X0*%
%TD*%
%TA.AperFunction,ComponentPad*%
%ADD24RoundRect,0.250000X0.350000X0.625000X-0.350000X0.625000X-0.350000X-0.625000X0.350000X-0.625000X0*%
%TD*%
%TA.AperFunction,ComponentPad*%
%ADD25O,1.200000X1.750000*%
%TD*%
%TA.AperFunction,ComponentPad*%
%ADD26HorizOval,1.700000X0.000000X0.000000X0.000000X0.000000X0*%
%TD*%
%TA.AperFunction,ComponentPad*%
%ADD27RotRect,1.700000X1.700000X135.000000*%
%TD*%
%TA.AperFunction,ViaPad*%
%ADD28C,0.500000*%
%TD*%
%TA.AperFunction,ViaPad*%
%ADD29C,0.800000*%
%TD*%
%TA.AperFunction,Conductor*%
%ADD30C,0.750000*%
%TD*%
%TA.AperFunction,Conductor*%
%ADD31C,0.200000*%
%TD*%
%TA.AperFunction,Conductor*%
%ADD32C,0.400000*%
%TD*%
G04 APERTURE END LIST*
D10*
%TO.N,Net-(D1-Pad1)*%
%TO.C,D1*%
X113842800Y-80233200D03*
D11*
%TO.N,LED_WHITE_POWER*%
X113842800Y-82773200D03*
%TD*%
D10*
%TO.N,Net-(D2-Pad1)*%
%TO.C,D2*%
X143134400Y-81661000D03*
D11*
%TO.N,LED_WHITE_NIGHT*%
X140594400Y-81661000D03*
%TD*%
D10*
%TO.N,Net-(D3-Pad1)*%
%TO.C,D3*%
X91186000Y-96413000D03*
D11*
%TO.N,LED_WHITE_LOCK*%
X91186000Y-98953000D03*
%TD*%
D10*
%TO.N,Net-(D4-Pad1)*%
%TO.C,D4*%
X137775000Y-65659000D03*
D11*
%TO.N,LED_WHITE_TIMER*%
X135235000Y-65659000D03*
%TD*%
D10*
%TO.N,Net-(D11-Pad1)*%
%TO.C,D11*%
X86971200Y-81432400D03*
D11*
%TO.N,LED_RED_FILTER*%
X84431200Y-81432400D03*
%TD*%
D12*
%TO.N,Net-(R28-Pad1)*%
%TO.C,SW3*%
X115552901Y-76784737D03*
%TO.N,N/C*%
X112132699Y-86181663D03*
%TD*%
D13*
%TO.N,Net-(R29-Pad1)*%
%TO.C,SW4*%
X133868800Y-93612273D03*
%TO.N,N/C*%
X138868800Y-102272527D03*
%TD*%
D14*
%TO.N,Net-(R30-Pad1)*%
%TO.C,SW5*%
X137583473Y-79338800D03*
%TO.N,N/C*%
X146243727Y-84338800D03*
%TD*%
D15*
%TO.N,Net-(R31-Pad1)*%
%TO.C,SW6*%
X131753600Y-65481200D03*
%TO.N,N/C*%
X141753600Y-65481200D03*
%TD*%
D16*
%TO.N,Net-(R32-Pad1)*%
%TO.C,SW7*%
X90051327Y-78932400D03*
%TO.N,N/C*%
X81391073Y-83932400D03*
%TD*%
D17*
%TO.N,Net-(R34-Pad1)*%
%TO.C,SW9*%
X93584400Y-93155073D03*
%TO.N,N/C*%
X88584400Y-101815327D03*
%TD*%
D10*
%TO.N,Net-(D13-Pad1)*%
%TO.C,D13*%
X136368800Y-99421000D03*
D11*
%TO.N,LED_WHITE_FAN*%
X136368800Y-96881000D03*
%TD*%
D18*
%TO.N,VCC*%
%TO.C,J2*%
X110351583Y-114874373D03*
D19*
%TO.N,TXD*%
X107876683Y-114302997D03*
%TO.N,RXD*%
X105401783Y-113731622D03*
D20*
%TO.N,GND*%
X102926883Y-113160246D03*
%TD*%
D18*
%TO.N,EN*%
%TO.C,J4*%
X122809000Y-114046000D03*
D21*
%TO.N,IO0*%
X120315667Y-114530655D03*
D22*
%TO.N,GND*%
X117822334Y-115015310D03*
%TD*%
D23*
%TO.N,Net-(R33-Pad1)*%
%TO.C,SW8*%
X92784358Y-69914738D03*
%TO.N,N/C*%
X90705242Y-60133262D03*
%TD*%
D24*
%TO.N,VCC*%
%TO.C,J1*%
X122094000Y-96732000D03*
D25*
%TO.N,GND*%
X120094000Y-96732000D03*
%TO.N,Net-(J1-Pad3)*%
X118094000Y-96732000D03*
%TO.N,Net-(J1-Pad4)*%
X116094000Y-96732000D03*
%TO.N,Net-(J1-Pad5)*%
X114094000Y-96732000D03*
%TO.N,Net-(J1-Pad6)*%
X112094000Y-96732000D03*
%TD*%
D18*
%TO.N,EN_D*%
%TO.C,J3*%
X88392000Y-52197000D03*
D26*
%TO.N,IO0_D*%
X86595949Y-53993051D03*
D27*
%TO.N,GND1*%
X84799898Y-55789102D03*
%TD*%
D28*
%TO.N,VCC*%
X119761000Y-87249000D03*
D29*
X123146010Y-74101100D03*
X125487860Y-83024799D03*
X106045000Y-92837000D03*
D28*
%TO.N,GND*%
X97790000Y-71120000D03*
X127762000Y-93218000D03*
D29*
X109728000Y-60071000D03*
D28*
X86233000Y-73533000D03*
D29*
X128143000Y-79375000D03*
D28*
X130048000Y-53086000D03*
X121615200Y-80416400D03*
X93599000Y-56896000D03*
X100203000Y-72644000D03*
X100572600Y-104470200D03*
D29*
X112649000Y-59563000D03*
X128370610Y-89000610D03*
X113157000Y-62357000D03*
D28*
X81737200Y-91617800D03*
D29*
X122555000Y-79248000D03*
D28*
X107746800Y-76784200D03*
X145288000Y-72390000D03*
D29*
X116840000Y-68834000D03*
D28*
X82296000Y-70612000D03*
D29*
X105368500Y-86868000D03*
D28*
X129264427Y-110468427D03*
X124714000Y-104775000D03*
D29*
X126619000Y-73152000D03*
D28*
X133807200Y-56007000D03*
X131820577Y-108971423D03*
D29*
X125984000Y-50546000D03*
D28*
X113817400Y-106934000D03*
X101346000Y-98552000D03*
X126365000Y-55118000D03*
X128905000Y-104394000D03*
X117983000Y-87604600D03*
X145186400Y-92176600D03*
X137414000Y-72771000D03*
X100076000Y-93980000D03*
D29*
%TO.N,+3V3*%
X101600000Y-87630000D03*
X101600000Y-90678000D03*
D28*
X99187000Y-72771000D03*
D29*
X126238000Y-52451000D03*
X101600000Y-89154000D03*
D28*
X127406400Y-80721200D03*
X130048000Y-54102000D03*
D29*
X104394000Y-89154000D03*
D28*
%TO.N,IO0*%
X108679942Y-96833170D03*
X117944733Y-105879733D03*
X97790000Y-84709000D03*
X116363720Y-104372334D03*
X107223283Y-94564606D03*
X96266000Y-83185000D03*
%TO.N,LED_WHITE_NIGHT*%
X136499600Y-74879200D03*
X131759100Y-76809600D03*
%TO.N,LED_WHITE_TIMER*%
X132283904Y-75372793D03*
X134569200Y-73101200D03*
%TO.N,Net-(D5-Pad1)*%
X123407200Y-106248200D03*
%TO.N,LED_BLUE_V1*%
X126201200Y-106248200D03*
X126238000Y-97917000D03*
X125730000Y-87376000D03*
X127508000Y-89789000D03*
X126746000Y-76708000D03*
X125476000Y-76454000D03*
X125095000Y-96774000D03*
%TO.N,LED_BLUE_6H*%
X125857000Y-70231000D03*
X122605800Y-56870600D03*
X125882400Y-64236600D03*
%TO.N,Net-(D6-Pad1)*%
X122611613Y-57727137D03*
%TO.N,LED_BLUE_V2*%
X115697020Y-108712000D03*
%TO.N,Net-(D7-Pad1)*%
X112293400Y-108712000D03*
%TO.N,Net-(D8-Pad1)*%
X100318600Y-106756200D03*
%TO.N,LED_BLUE_V3*%
X128016000Y-96774000D03*
X117538342Y-104661192D03*
X128686500Y-93218000D03*
X132334000Y-84709000D03*
X126899700Y-101612544D03*
X102604600Y-105740200D03*
X130685488Y-83566000D03*
X118439356Y-105385110D03*
X125603000Y-102743000D03*
%TO.N,Net-(D9-Pad1)*%
X97663000Y-56515000D03*
%TO.N,LED_BLUE_8H*%
X116078000Y-65659000D03*
X119531134Y-69937754D03*
X121031000Y-70993000D03*
X116078000Y-64437479D03*
X103251000Y-57404000D03*
X98298000Y-58547000D03*
%TO.N,Net-(D10-Pad1)*%
X129921000Y-57404000D03*
%TO.N,LED_BLUE_2H*%
X127990600Y-64465200D03*
X128016000Y-66294000D03*
X131445000Y-74041000D03*
X127381000Y-56642000D03*
X129971800Y-68783200D03*
X131191000Y-76327000D03*
X128308267Y-70573733D03*
%TO.N,LED_RED_FILTER*%
X104902000Y-64008000D03*
X100457000Y-62865000D03*
%TO.N,LED_BLUE_4H*%
X125196600Y-64465200D03*
X125145800Y-68402200D03*
X122605800Y-55880000D03*
%TO.N,Net-(D12-Pad1)*%
X122605800Y-54889400D03*
%TO.N,Net-(R3-Pad1)*%
X124968000Y-78740000D03*
X126238000Y-78740000D03*
%TO.N,Net-(R23-Pad2)*%
X107506503Y-66929000D03*
X107162600Y-63423800D03*
X105816400Y-78740000D03*
X103936800Y-75590400D03*
X109220000Y-102235000D03*
X108070648Y-97354726D03*
X109220000Y-103632000D03*
X107829854Y-95948289D03*
%TO.N,Net-(R24-Pad2)*%
X105181400Y-79273400D03*
X107315000Y-96520000D03*
X103327200Y-76098400D03*
X108458000Y-103632000D03*
X108458000Y-102235000D03*
X107449556Y-97924556D03*
X106553000Y-64008000D03*
X106807000Y-66929000D03*
%TO.N,SHIFT_OUTEN*%
X101092000Y-69342000D03*
X105410000Y-67310000D03*
X114554000Y-68326000D03*
X118618000Y-74625200D03*
%TO.N,TOUCH_NIGHT*%
X123926600Y-66014600D03*
X123967158Y-64516000D03*
%TO.N,TOUCH_LIGHT*%
X122732800Y-68351400D03*
X97205800Y-74853800D03*
X102438200Y-79933800D03*
X124358400Y-62839600D03*
X121864483Y-69850000D03*
X100126800Y-77774800D03*
X120396000Y-69850000D03*
X95631000Y-73177400D03*
%TO.N,SHIFT_CLK*%
X120002978Y-72021327D03*
X117221000Y-67437000D03*
X122047000Y-76200000D03*
X122174000Y-86638326D03*
X122056348Y-78544826D03*
%TO.N,SHIFT_LATCH*%
X118676356Y-73906444D03*
X113665000Y-66421000D03*
X121656702Y-84946900D03*
X115253439Y-68413459D03*
X113665000Y-64516000D03*
X121624106Y-86088826D03*
X121013156Y-76192444D03*
X120904000Y-77597000D03*
%TO.N,SHIFT_DS*%
X118110000Y-68326000D03*
X120523000Y-71553479D03*
%TO.N,LED_WHITE_FAN*%
X132593789Y-84059528D03*
X129636478Y-82100778D03*
D29*
%TO.N,EN_D*%
X84709000Y-50419000D03*
%TO.N,IO0_D*%
X83185000Y-51816000D03*
%TO.N,GND1*%
X87122000Y-49657000D03*
X82169000Y-54356000D03*
%TD*%
D30*
%TO.N,VCC*%
X123825000Y-87249000D02*
X123825000Y-86944200D01*
X112578000Y-99512000D02*
X112578000Y-98608000D01*
X106045000Y-92837000D02*
X106690296Y-92837000D01*
X123736100Y-87972900D02*
X124460000Y-87249000D01*
X124460000Y-85699600D02*
X125487860Y-84671740D01*
D31*
X123063000Y-87249000D02*
X124460000Y-85852000D01*
D30*
X113228000Y-98608000D02*
X113228000Y-99878000D01*
D31*
X123825000Y-87249000D02*
X124079000Y-87249000D01*
D30*
X123825000Y-87249000D02*
X123825000Y-87884000D01*
X124460000Y-87249000D02*
X124460000Y-86309200D01*
X123825000Y-86944200D02*
X124460000Y-86309200D01*
X108663391Y-94810095D02*
X108663391Y-95597391D01*
D31*
X123367800Y-87249000D02*
X123825000Y-87249000D01*
D30*
X123146010Y-78138287D02*
X123146010Y-74101100D01*
X124460000Y-86309200D02*
X124460000Y-85801200D01*
X122094000Y-89615000D02*
X123736100Y-87972900D01*
D31*
X124460000Y-85852000D02*
X124460000Y-85801200D01*
X123063000Y-87249000D02*
X123367800Y-87249000D01*
D30*
X120644480Y-98181520D02*
X122094000Y-96732000D01*
D31*
X119761000Y-87249000D02*
X123063000Y-87249000D01*
D30*
X124460000Y-87249000D02*
X123825000Y-87249000D01*
X114872499Y-101806499D02*
X113086000Y-100020000D01*
X125487860Y-83024799D02*
X125487860Y-80480137D01*
D32*
X123825000Y-86944200D02*
X123672600Y-86944200D01*
D31*
X124079000Y-87376000D02*
X124206000Y-87503000D01*
D30*
X114872520Y-107202782D02*
X114872520Y-110353436D01*
X125487860Y-84671740D02*
X125487860Y-83024799D01*
D31*
X123367800Y-87426800D02*
X123240800Y-87426800D01*
D30*
X112578000Y-99512000D02*
X111247520Y-98181520D01*
X122094000Y-96732000D02*
X122094000Y-89615000D01*
D32*
X123367800Y-87426800D02*
X123825000Y-87884000D01*
D30*
X124460000Y-85801200D02*
X124460000Y-85699600D01*
X112151520Y-98181520D02*
X113654480Y-98181520D01*
D31*
X124079000Y-87249000D02*
X124079000Y-87376000D01*
D30*
X113228000Y-98608000D02*
X113654480Y-98181520D01*
D32*
X123672600Y-86944200D02*
X123367800Y-87249000D01*
D30*
X113654480Y-98181520D02*
X120644480Y-98181520D01*
X112578000Y-98608000D02*
X113228000Y-98608000D01*
X114872499Y-107202761D02*
X114872499Y-101806499D01*
D32*
X123367800Y-87249000D02*
X123367800Y-87426800D01*
D30*
X111247520Y-98181520D02*
X112151520Y-98181520D01*
X108663391Y-95597391D02*
X111247520Y-98181520D01*
X123825000Y-87884000D02*
X123736100Y-87972900D01*
X114872520Y-110353436D02*
X110351583Y-114874373D01*
X113086000Y-100020000D02*
X112578000Y-99512000D01*
X125487860Y-80480137D02*
X123146010Y-78138287D01*
D31*
X123240800Y-87426800D02*
X123063000Y-87249000D01*
D30*
X106690296Y-92837000D02*
X108663391Y-94810095D01*
%TO.N,+3V3*%
X108813600Y-72898000D02*
X104356899Y-77354701D01*
D31*
X109702600Y-72872600D02*
X109626400Y-72796400D01*
D30*
X109740169Y-71971431D02*
X109270800Y-72440800D01*
X101600000Y-87630000D02*
X102412800Y-88442800D01*
X101600000Y-89154000D02*
X101600000Y-88493600D01*
X104356899Y-89116899D02*
X104356899Y-88558099D01*
D31*
X109169200Y-72796400D02*
X109042200Y-72669400D01*
X129032000Y-54102000D02*
X127381000Y-52451000D01*
X109702600Y-72872600D02*
X109702600Y-72212200D01*
D30*
X124206000Y-58723738D02*
X124206000Y-54483000D01*
X102235000Y-89154000D02*
X104013000Y-89154000D01*
D31*
X109626400Y-72796400D02*
X109169200Y-72796400D01*
D30*
X103784400Y-89154000D02*
X104356899Y-88581501D01*
D31*
X127127000Y-78740000D02*
X126111000Y-77724000D01*
D30*
X103784400Y-89154000D02*
X104013000Y-89154000D01*
X109601000Y-72110600D02*
X113590320Y-68121280D01*
X104013000Y-89154000D02*
X104394000Y-89154000D01*
D31*
X127406400Y-80721200D02*
X127127000Y-80441800D01*
X110134400Y-73304400D02*
X109702600Y-72872600D01*
X127381000Y-52451000D02*
X126238000Y-52451000D01*
D30*
X124206000Y-54483000D02*
X126238000Y-52451000D01*
D31*
X109702600Y-72872600D02*
X108839000Y-72872600D01*
D30*
X102235000Y-89154000D02*
X101600000Y-89789000D01*
X101600000Y-89789000D02*
X101600000Y-90678000D01*
X102412800Y-88442800D02*
X103124000Y-89154000D01*
D31*
X130048000Y-54102000D02*
X129032000Y-54102000D01*
D30*
X114158234Y-67501489D02*
X115428250Y-67501489D01*
D31*
X108839000Y-72872600D02*
X108813600Y-72898000D01*
D30*
X101600000Y-89154000D02*
X102235000Y-89154000D01*
X103124000Y-89154000D02*
X103784400Y-89154000D01*
X102362000Y-88493600D02*
X102412800Y-88442800D01*
D31*
X109626400Y-72796400D02*
X109270800Y-72440800D01*
X126111000Y-77724000D02*
X126111000Y-74676000D01*
D30*
X104356899Y-88581501D02*
X104356899Y-88558099D01*
X109042200Y-72669400D02*
X108813600Y-72898000D01*
X104356899Y-77354701D02*
X104356899Y-88558099D01*
D31*
X126111000Y-74676000D02*
X124739400Y-73304400D01*
X99187000Y-85217000D02*
X101600000Y-87630000D01*
D30*
X109270800Y-72440800D02*
X109042200Y-72669400D01*
D31*
X99187000Y-72771000D02*
X99187000Y-85217000D01*
X124739400Y-73304400D02*
X110134400Y-73304400D01*
D30*
X115428250Y-67501489D02*
X124206000Y-58723738D01*
X101600000Y-89154000D02*
X101600000Y-90678000D01*
X104394000Y-89154000D02*
X104356899Y-89116899D01*
X101600000Y-88493600D02*
X102362000Y-88493600D01*
X101600000Y-90678000D02*
X103124000Y-89154000D01*
X113729489Y-67930234D02*
X114158234Y-67501489D01*
D31*
X109702600Y-72212200D02*
X109601000Y-72110600D01*
D30*
X101600000Y-88493600D02*
X101600000Y-87630000D01*
D31*
X127127000Y-80441800D02*
X127127000Y-78740000D01*
%TD*%
M02*
