%TF.GenerationSoftware,KiCad,Pcbnew,(5.99.0-10634-g5f56117be9)*%
%TF.CreationDate,2021-05-24T23:14:31+02:00*%
%TF.ProjectId,custom-pcb,63757374-6f6d-42d7-9063-622e6b696361,rev?*%
%TF.SameCoordinates,Original*%
%TF.FileFunction,Soldermask,Top*%
%TF.FilePolarity,Negative*%
%FSLAX46Y46*%
G04 Gerber Fmt 4.6, Leading zero omitted, Abs format (unit mm)*
G04 Created by KiCad (PCBNEW (5.99.0-10634-g5f56117be9)) date 2021-05-24 23:14:31*
%MOMM*%
%LPD*%
G01*
G04 APERTURE LIST*
G04 Aperture macros list*
%AMRoundRect*
0 Rectangle with rounded corners*
0 $1 Rounding radius*
0 $2 $3 $4 $5 $6 $7 $8 $9 X,Y pos of 4 corners*
0 Add a 4 corners polygon primitive as box body*
4,1,4,$2,$3,$4,$5,$6,$7,$8,$9,$2,$3,0*
0 Add four circle primitives for the rounded corners*
1,1,$1+$1,$2,$3*
1,1,$1+$1,$4,$5*
1,1,$1+$1,$6,$7*
1,1,$1+$1,$8,$9*
0 Add four rect primitives between the rounded corners*
20,1,$1+$1,$2,$3,$4,$5,0*
20,1,$1+$1,$4,$5,$6,$7,0*
20,1,$1+$1,$6,$7,$8,$9,0*
20,1,$1+$1,$8,$9,$2,$3,0*%
%AMHorizOval*
0 Thick line with rounded ends*
0 $1 width*
0 $2 $3 position (X,Y) of the first rounded end (center of the circle)*
0 $4 $5 position (X,Y) of the second rounded end (center of the circle)*
0 Add line between two ends*
20,1,$1,$2,$3,$4,$5,0*
0 Add two circle primitives to create the rounded ends*
1,1,$1,$2,$3*
1,1,$1,$4,$5*%
%AMRotRect*
0 Rectangle, with rotation*
0 The origin of the aperture is its center*
0 $1 length*
0 $2 width*
0 $3 Rotation angle, in degrees counterclockwise*
0 Add horizontal line*
21,1,$1,$2,0,0,$3*%
G04 Aperture macros list end*
%ADD10R,1.800000X1.800000*%
%ADD11C,1.800000*%
%ADD12RoundRect,0.237500X-0.287500X-0.237500X0.287500X-0.237500X0.287500X0.237500X-0.287500X0.237500X0*%
%ADD13RoundRect,0.237500X0.287500X0.237500X-0.287500X0.237500X-0.287500X-0.237500X0.287500X-0.237500X0*%
%ADD14RoundRect,0.500000X1.238529X-0.982877X1.580549X-0.043184X-1.238529X0.982877X-1.580549X0.043184X0*%
%ADD15RoundRect,0.500000X1.549038X0.316987X1.049038X1.183013X-1.549038X-0.316987X-1.049038X-1.183013X0*%
%ADD16RoundRect,0.500000X1.183013X1.049038X0.316987X1.549038X-1.183013X-1.049038X-0.316987X-1.549038X0*%
%ADD17RoundRect,0.500000X0.500000X1.500000X-0.500000X1.500000X-0.500000X-1.500000X0.500000X-1.500000X0*%
%ADD18RoundRect,0.500000X0.316987X-1.549038X1.183013X-1.049038X-0.316987X1.549038X-1.183013X1.049038X0*%
%ADD19RoundRect,0.500000X1.049038X-1.183013X1.549038X-0.316987X-1.049038X1.183013X-1.549038X0.316987X0*%
%ADD20C,1.700000*%
%ADD21HorizOval,1.700000X0.000000X0.000000X0.000000X0.000000X0*%
%ADD22RotRect,1.700000X1.700000X257.000000*%
%ADD23HorizOval,1.700000X0.000000X0.000000X0.000000X0.000000X0*%
%ADD24RotRect,1.700000X1.700000X281.000000*%
%ADD25RotRect,1.500000X1.000000X45.000000*%
%ADD26RoundRect,0.500000X-1.571177X0.177206X-1.363266X-0.800941X1.571177X-0.177206X1.363266X0.800941X0*%
%ADD27C,1.448000*%
%ADD28RoundRect,0.250000X0.350000X0.625000X-0.350000X0.625000X-0.350000X-0.625000X0.350000X-0.625000X0*%
%ADD29O,1.200000X1.750000*%
%ADD30HorizOval,1.700000X0.000000X0.000000X0.000000X0.000000X0*%
%ADD31RotRect,1.700000X1.700000X135.000000*%
G04 APERTURE END LIST*
D10*
%TO.C,D1*%
X113842800Y-80233200D03*
D11*
X113842800Y-82773200D03*
%TD*%
D10*
%TO.C,D2*%
X143134400Y-81661000D03*
D11*
X140594400Y-81661000D03*
%TD*%
D10*
%TO.C,D3*%
X91186000Y-96413000D03*
D11*
X91186000Y-98953000D03*
%TD*%
D10*
%TO.C,D4*%
X137775000Y-65659000D03*
D11*
X135235000Y-65659000D03*
%TD*%
D12*
%TO.C,D5*%
X123980000Y-107061000D03*
X125730000Y-107061000D03*
%TD*%
%TO.C,D6*%
X108345000Y-54203600D03*
X110095000Y-54203600D03*
%TD*%
%TO.C,D7*%
X112790000Y-109372400D03*
X114540000Y-109372400D03*
%TD*%
%TO.C,D8*%
X101374000Y-106807000D03*
X103124000Y-106807000D03*
%TD*%
%TO.C,D9*%
X99328000Y-57404000D03*
X101078000Y-57404000D03*
%TD*%
D13*
%TO.C,D10*%
X129145000Y-57531000D03*
X127395000Y-57531000D03*
%TD*%
D10*
%TO.C,D11*%
X86971200Y-81432400D03*
D11*
X84431200Y-81432400D03*
%TD*%
D12*
%TO.C,D12*%
X118251000Y-54229000D03*
X120001000Y-54229000D03*
%TD*%
D14*
%TO.C,SW3*%
X115552901Y-76784737D03*
X112132699Y-86181663D03*
%TD*%
D15*
%TO.C,SW4*%
X133868800Y-93612273D03*
X138868800Y-102272527D03*
%TD*%
D16*
%TO.C,SW5*%
X137583473Y-79338800D03*
X146243727Y-84338800D03*
%TD*%
D17*
%TO.C,SW6*%
X131753600Y-65481200D03*
X141753600Y-65481200D03*
%TD*%
D18*
%TO.C,SW7*%
X90051327Y-78932400D03*
X81391073Y-83932400D03*
%TD*%
D19*
%TO.C,SW9*%
X93584400Y-93155073D03*
X88584400Y-101815327D03*
%TD*%
D10*
%TO.C,D13*%
X136368800Y-99421000D03*
D11*
X136368800Y-96881000D03*
%TD*%
D20*
%TO.C,J2*%
X110351583Y-114874373D03*
D21*
X107876683Y-114302997D03*
X105401783Y-113731622D03*
D22*
X102926883Y-113160246D03*
%TD*%
D20*
%TO.C,J4*%
X122809000Y-114046000D03*
D23*
X120315667Y-114530655D03*
D24*
X117822334Y-115015310D03*
%TD*%
D25*
%TO.C,SW10*%
X83963746Y-49608619D03*
X86438619Y-47133746D03*
X87994254Y-48689381D03*
X85519381Y-51164254D03*
%TD*%
%TO.C,SW11*%
X82501619Y-51070746D03*
X80026746Y-53545619D03*
X81582381Y-55101254D03*
X84057254Y-52626381D03*
%TD*%
D26*
%TO.C,SW8*%
X92784358Y-69914738D03*
X90705242Y-60133262D03*
%TD*%
D27*
%TO.C,REF\u002A\u002A*%
X128016000Y-50393600D03*
%TD*%
%TO.C,REF\u002A\u002A*%
X98933000Y-110109000D03*
%TD*%
D28*
%TO.C,J1*%
X122094000Y-96732000D03*
D29*
X120094000Y-96732000D03*
X118094000Y-96732000D03*
X116094000Y-96732000D03*
X114094000Y-96732000D03*
X112094000Y-96732000D03*
%TD*%
D20*
%TO.C,J3*%
X88392000Y-52197000D03*
D30*
X86595949Y-53993051D03*
D31*
X84799898Y-55789102D03*
%TD*%
M02*
