%TF.GenerationSoftware,KiCad,Pcbnew,(5.99.0-10634-g5f56117be9)*%
%TF.CreationDate,2021-05-24T23:14:31+02:00*%
%TF.ProjectId,custom-pcb,63757374-6f6d-42d7-9063-622e6b696361,rev?*%
%TF.SameCoordinates,Original*%
%TF.FileFunction,Paste,Bot*%
%TF.FilePolarity,Positive*%
%FSLAX46Y46*%
G04 Gerber Fmt 4.6, Leading zero omitted, Abs format (unit mm)*
G04 Created by KiCad (PCBNEW (5.99.0-10634-g5f56117be9)) date 2021-05-24 23:14:31*
%MOMM*%
%LPD*%
G01*
G04 APERTURE LIST*
G04 Aperture macros list*
%AMRoundRect*
0 Rectangle with rounded corners*
0 $1 Rounding radius*
0 $2 $3 $4 $5 $6 $7 $8 $9 X,Y pos of 4 corners*
0 Add a 4 corners polygon primitive as box body*
4,1,4,$2,$3,$4,$5,$6,$7,$8,$9,$2,$3,0*
0 Add four circle primitives for the rounded corners*
1,1,$1+$1,$2,$3*
1,1,$1+$1,$4,$5*
1,1,$1+$1,$6,$7*
1,1,$1+$1,$8,$9*
0 Add four rect primitives between the rounded corners*
20,1,$1+$1,$2,$3,$4,$5,0*
20,1,$1+$1,$4,$5,$6,$7,0*
20,1,$1+$1,$6,$7,$8,$9,0*
20,1,$1+$1,$8,$9,$2,$3,0*%
%AMRotRect*
0 Rectangle, with rotation*
0 The origin of the aperture is its center*
0 $1 length*
0 $2 width*
0 $3 Rotation angle, in degrees counterclockwise*
0 Add horizontal line*
21,1,$1,$2,0,0,$3*%
G04 Aperture macros list end*
%ADD10RoundRect,0.250000X0.250000X0.475000X-0.250000X0.475000X-0.250000X-0.475000X0.250000X-0.475000X0*%
%ADD11RoundRect,0.250000X-0.475000X0.250000X-0.475000X-0.250000X0.475000X-0.250000X0.475000X0.250000X0*%
%ADD12RoundRect,0.140000X0.140000X0.170000X-0.140000X0.170000X-0.140000X-0.170000X0.140000X-0.170000X0*%
%ADD13RoundRect,0.140000X0.191728X-0.108353X0.143107X0.167393X-0.191728X0.108353X-0.143107X-0.167393X0*%
%ADD14RoundRect,0.250000X0.511196X-0.163719X0.424372X0.328685X-0.511196X0.163719X-0.424372X-0.328685X0*%
%ADD15RoundRect,0.135000X0.135000X0.185000X-0.135000X0.185000X-0.135000X-0.185000X0.135000X-0.185000X0*%
%ADD16RoundRect,0.200000X0.275000X-0.200000X0.275000X0.200000X-0.275000X0.200000X-0.275000X-0.200000X0*%
%ADD17RoundRect,0.200000X0.200000X0.275000X-0.200000X0.275000X-0.200000X-0.275000X0.200000X-0.275000X0*%
%ADD18RoundRect,0.135000X-0.135000X-0.185000X0.135000X-0.185000X0.135000X0.185000X-0.135000X0.185000X0*%
%ADD19RoundRect,0.135000X0.185000X-0.135000X0.185000X0.135000X-0.185000X0.135000X-0.185000X-0.135000X0*%
%ADD20RoundRect,0.135000X-0.205632X0.100824X-0.158747X-0.165074X0.205632X-0.100824X0.158747X0.165074X0*%
%ADD21RoundRect,0.135000X0.205632X-0.100824X0.158747X0.165074X-0.205632X0.100824X-0.158747X-0.165074X0*%
%ADD22RoundRect,0.135000X0.149890X-0.173156X0.210627X0.089924X-0.149890X0.173156X-0.210627X-0.089924X0*%
%ADD23RoundRect,0.135000X-0.185000X0.135000X-0.185000X-0.135000X0.185000X-0.135000X0.185000X0.135000X0*%
%ADD24RotRect,1.500000X1.000000X305.000000*%
%ADD25RotRect,1.500000X1.000000X300.000000*%
%ADD26R,2.000000X1.500000*%
%ADD27R,2.000000X3.800000*%
%ADD28RoundRect,0.100000X0.637500X0.100000X-0.637500X0.100000X-0.637500X-0.100000X0.637500X-0.100000X0*%
%ADD29RotRect,2.000000X0.900000X190.000000*%
%ADD30RotRect,2.000000X0.900000X100.000000*%
%ADD31RotRect,5.000000X5.000000X190.000000*%
%ADD32RoundRect,0.200000X-0.200000X-0.275000X0.200000X-0.275000X0.200000X0.275000X-0.200000X0.275000X0*%
%ADD33RoundRect,0.250000X0.475000X-0.250000X0.475000X0.250000X-0.475000X0.250000X-0.475000X-0.250000X0*%
%ADD34RoundRect,0.250000X-0.250000X-0.475000X0.250000X-0.475000X0.250000X0.475000X-0.250000X0.475000X0*%
%ADD35RoundRect,0.140000X-0.170000X0.140000X-0.170000X-0.140000X0.170000X-0.140000X0.170000X0.140000X0*%
%ADD36RoundRect,0.140000X-0.140000X-0.170000X0.140000X-0.170000X0.140000X0.170000X-0.140000X0.170000X0*%
%ADD37RoundRect,0.135000X0.227715X-0.024413X0.092715X0.209413X-0.227715X0.024413X-0.092715X-0.209413X0*%
%ADD38RoundRect,0.135000X0.209413X0.092715X-0.024413X0.227715X-0.209413X-0.092715X0.024413X-0.227715X0*%
%ADD39RoundRect,0.135000X0.092715X-0.209413X0.227715X0.024413X-0.092715X0.209413X-0.227715X-0.024413X0*%
%ADD40RoundRect,0.135000X-0.024413X-0.227715X0.209413X-0.092715X0.024413X0.227715X-0.209413X0.092715X0*%
%ADD41RoundRect,0.135000X0.127670X-0.190132X0.220016X0.063585X-0.127670X0.190132X-0.220016X-0.063585X0*%
G04 APERTURE END LIST*
D10*
%TO.C,C2*%
X125664000Y-73152000D03*
X123764000Y-73152000D03*
%TD*%
D11*
%TO.C,C3*%
X124256800Y-80888800D03*
X124256800Y-82788800D03*
%TD*%
D12*
%TO.C,C5*%
X131798000Y-53086000D03*
X130838000Y-53086000D03*
%TD*%
D13*
%TO.C,C6*%
X100540351Y-74513708D03*
X100373649Y-73568292D03*
%TD*%
D14*
%TO.C,C8*%
X122846966Y-53005567D03*
X122517034Y-51134433D03*
%TD*%
D15*
%TO.C,R2*%
X120652000Y-88011000D03*
X119632000Y-88011000D03*
%TD*%
%TO.C,R3*%
X124718000Y-71628000D03*
X123698000Y-71628000D03*
%TD*%
D16*
%TO.C,R4*%
X144145000Y-73977000D03*
X144145000Y-72327000D03*
%TD*%
%TO.C,R5*%
X100076000Y-96583000D03*
X100076000Y-94933000D03*
%TD*%
D17*
%TO.C,R6*%
X139573000Y-73914000D03*
X137923000Y-73914000D03*
%TD*%
D18*
%TO.C,R7*%
X123278200Y-105613200D03*
X124298200Y-105613200D03*
%TD*%
%TO.C,R8*%
X124458000Y-57912000D03*
X125478000Y-57912000D03*
%TD*%
%TO.C,R9*%
X112037400Y-107696000D03*
X113057400Y-107696000D03*
%TD*%
D19*
%TO.C,R10*%
X99556600Y-106758200D03*
X99556600Y-105738200D03*
%TD*%
D18*
%TO.C,R11*%
X130808000Y-54102000D03*
X131828000Y-54102000D03*
%TD*%
D15*
%TO.C,R12*%
X95381000Y-56896000D03*
X94361000Y-56896000D03*
%TD*%
D19*
%TO.C,R13*%
X130429000Y-57279000D03*
X130429000Y-56259000D03*
%TD*%
D15*
%TO.C,R14*%
X87632000Y-72771000D03*
X86612000Y-72771000D03*
%TD*%
D20*
%TO.C,R15*%
X99352439Y-73665748D03*
X99529561Y-74670252D03*
%TD*%
D18*
%TO.C,R16*%
X124456000Y-54862000D03*
X125476000Y-54862000D03*
%TD*%
%TO.C,R17*%
X130808000Y-52070000D03*
X131828000Y-52070000D03*
%TD*%
D19*
%TO.C,R18*%
X112188000Y-92668000D03*
X112188000Y-91648000D03*
%TD*%
%TO.C,R19*%
X114220000Y-92670000D03*
X114220000Y-91650000D03*
%TD*%
%TO.C,R20*%
X116252000Y-92668000D03*
X116252000Y-91648000D03*
%TD*%
D21*
%TO.C,R21*%
X101523122Y-74410504D03*
X101346000Y-73406000D03*
%TD*%
D19*
%TO.C,R22*%
X118030000Y-92670000D03*
X118030000Y-91650000D03*
%TD*%
D22*
%TO.C,R23*%
X108597275Y-109462929D03*
X108826725Y-108469071D03*
%TD*%
%TO.C,R24*%
X107581275Y-109208929D03*
X107810725Y-108215071D03*
%TD*%
D23*
%TO.C,R25*%
X99314000Y-68324000D03*
X99314000Y-69344000D03*
%TD*%
%TO.C,R26*%
X127406400Y-81481200D03*
X127406400Y-82501200D03*
%TD*%
D24*
%TO.C,SW1*%
X130810174Y-107528418D03*
X132817692Y-110395450D03*
X134619826Y-109133582D03*
X132612308Y-106266550D03*
%TD*%
D25*
%TO.C,SW2*%
X128241744Y-113097088D03*
X126491744Y-110066000D03*
X128397000Y-108966000D03*
X130147000Y-111997088D03*
%TD*%
D26*
%TO.C,U1*%
X106020000Y-86854000D03*
X106020000Y-89154000D03*
D27*
X99720000Y-89154000D03*
D26*
X106020000Y-91454000D03*
%TD*%
D28*
%TO.C,U2*%
X129608500Y-74941000D03*
X129608500Y-75591000D03*
X129608500Y-76241000D03*
X129608500Y-76891000D03*
X129608500Y-77541000D03*
X129608500Y-78191000D03*
X129608500Y-78841000D03*
X129608500Y-79491000D03*
X123883500Y-79491000D03*
X123883500Y-78841000D03*
X123883500Y-78191000D03*
X123883500Y-77541000D03*
X123883500Y-76891000D03*
X123883500Y-76241000D03*
X123883500Y-75591000D03*
X123883500Y-74941000D03*
%TD*%
%TO.C,U3*%
X129608500Y-84085000D03*
X129608500Y-84735000D03*
X129608500Y-85385000D03*
X129608500Y-86035000D03*
X129608500Y-86685000D03*
X129608500Y-87335000D03*
X129608500Y-87985000D03*
X129608500Y-88635000D03*
X123883500Y-88635000D03*
X123883500Y-87985000D03*
X123883500Y-87335000D03*
X123883500Y-86685000D03*
X123883500Y-86035000D03*
X123883500Y-85385000D03*
X123883500Y-84735000D03*
X123883500Y-84085000D03*
%TD*%
D29*
%TO.C,U4*%
X117554636Y-52597351D03*
X117775169Y-53848057D03*
X117995703Y-55098763D03*
X118216236Y-56349469D03*
X118436769Y-57600175D03*
X118657302Y-58850881D03*
X118877835Y-60101587D03*
X119098368Y-61352292D03*
X119318902Y-62602998D03*
X119539435Y-63853704D03*
X119759968Y-65104410D03*
X119980501Y-66355116D03*
X120201034Y-67605822D03*
X120421568Y-68856527D03*
D30*
X117852526Y-70324945D03*
X116601820Y-70545479D03*
X115351115Y-70766012D03*
X114100409Y-70986545D03*
X112849703Y-71207078D03*
X111598997Y-71427611D03*
X110348291Y-71648145D03*
X109097585Y-71868678D03*
X107846879Y-72089211D03*
X106596174Y-72309744D03*
D29*
X103679836Y-71808547D03*
X103459303Y-70557841D03*
X103238769Y-69307135D03*
X103018236Y-68056429D03*
X102797703Y-66805723D03*
X102577170Y-65555017D03*
X102356637Y-64304311D03*
X102136104Y-63053606D03*
X101915570Y-61802900D03*
X101695037Y-60552194D03*
X101474504Y-59301488D03*
X101253971Y-58050782D03*
X101033438Y-56800076D03*
X100812904Y-55549371D03*
D31*
X111470939Y-61285771D03*
%TD*%
D16*
%TO.C,R27*%
X126873000Y-96075000D03*
X126873000Y-94425000D03*
%TD*%
D32*
%TO.C,R1*%
X120485400Y-81584800D03*
X122135400Y-81584800D03*
%TD*%
D33*
%TO.C,C1*%
X108712000Y-91628000D03*
X108712000Y-89728000D03*
%TD*%
D34*
%TO.C,C4*%
X102108000Y-84328000D03*
X104008000Y-84328000D03*
%TD*%
D14*
%TO.C,C7*%
X124878966Y-52751567D03*
X124549034Y-50880433D03*
%TD*%
D35*
%TO.C,C10*%
X142875000Y-72672000D03*
X142875000Y-73632000D03*
%TD*%
D15*
%TO.C,R31*%
X129796000Y-65405000D03*
X128776000Y-65405000D03*
%TD*%
D36*
%TO.C,C16*%
X96294000Y-57404000D03*
X97254000Y-57404000D03*
%TD*%
D12*
%TO.C,C20*%
X125448000Y-55880000D03*
X124488000Y-55880000D03*
%TD*%
D37*
%TO.C,R29*%
X133859000Y-91246673D03*
X133349000Y-90363327D03*
%TD*%
D12*
%TO.C,C9*%
X122326400Y-82854800D03*
X121366400Y-82854800D03*
%TD*%
%TO.C,C21*%
X85697000Y-72771000D03*
X84737000Y-72771000D03*
%TD*%
%TO.C,C12*%
X136652000Y-73914000D03*
X135692000Y-73914000D03*
%TD*%
D38*
%TO.C,R30*%
X135696673Y-78233000D03*
X134813327Y-77723000D03*
%TD*%
D18*
%TO.C,R33*%
X93724000Y-71755000D03*
X94744000Y-71755000D03*
%TD*%
D36*
%TO.C,C15*%
X114353400Y-107696000D03*
X115313400Y-107696000D03*
%TD*%
%TO.C,C13*%
X125340200Y-105613200D03*
X126300200Y-105613200D03*
%TD*%
D39*
%TO.C,R34*%
X94741000Y-91500673D03*
X95251000Y-90617327D03*
%TD*%
D35*
%TO.C,C18*%
X128143000Y-94290000D03*
X128143000Y-95250000D03*
%TD*%
D12*
%TO.C,C19*%
X129385000Y-56007000D03*
X128425000Y-56007000D03*
%TD*%
%TO.C,C11*%
X100556000Y-98552000D03*
X99596000Y-98552000D03*
%TD*%
%TO.C,C14*%
X125448000Y-56896000D03*
X124488000Y-56896000D03*
%TD*%
D40*
%TO.C,R32*%
X92014327Y-77725000D03*
X92897673Y-77215000D03*
%TD*%
D41*
%TO.C,R28*%
X117427570Y-74393243D03*
X117776430Y-73434757D03*
%TD*%
D36*
%TO.C,C17*%
X100628600Y-105486200D03*
X101588600Y-105486200D03*
%TD*%
M02*
