%TF.GenerationSoftware,KiCad,Pcbnew,5.1.9*%
%TF.CreationDate,2021-04-14T19:17:29+02:00*%
%TF.ProjectId,custom-pcb,63757374-6f6d-42d7-9063-622e6b696361,rev?*%
%TF.SameCoordinates,Original*%
%TF.FileFunction,Soldermask,Top*%
%TF.FilePolarity,Negative*%
%FSLAX46Y46*%
G04 Gerber Fmt 4.6, Leading zero omitted, Abs format (unit mm)*
G04 Created by KiCad (PCBNEW 5.1.9) date 2021-04-14 19:17:29*
%MOMM*%
%LPD*%
G01*
G04 APERTURE LIST*
%ADD10C,2.000000*%
%ADD11C,1.800000*%
%ADD12C,0.100000*%
%ADD13R,1.800000X1.800000*%
%ADD14O,1.200000X1.750000*%
%ADD15C,1.700000*%
G04 APERTURE END LIST*
D10*
%TO.C,SW8*%
X92784358Y-69914738D03*
G36*
G01*
X92380375Y-60799542D02*
X89445932Y-61423277D01*
G75*
G02*
X88852902Y-61038159I-103956J489074D01*
G01*
X88644991Y-60060012D01*
G75*
G02*
X89030109Y-59466982I489074J103956D01*
G01*
X91964552Y-58843247D01*
G75*
G02*
X92557582Y-59228365I103956J-489074D01*
G01*
X92765493Y-60206512D01*
G75*
G02*
X92380375Y-60799542I-489074J-103956D01*
G01*
G37*
%TD*%
D11*
%TO.C,D1*%
X114355931Y-80315581D03*
D12*
G36*
X114025105Y-83855941D02*
G01*
X112333659Y-83240305D01*
X112949295Y-81548859D01*
X114640741Y-82164495D01*
X114025105Y-83855941D01*
G37*
%TD*%
D13*
%TO.C,D2*%
X141884400Y-80467200D03*
D11*
X141884400Y-83007200D03*
%TD*%
%TO.C,D3*%
X91186000Y-98907600D03*
D13*
X91186000Y-96367600D03*
%TD*%
%TO.C,D4*%
X136550400Y-64363600D03*
D11*
X136550400Y-66903600D03*
%TD*%
D13*
%TO.C,D5*%
X123494800Y-106984800D03*
D11*
X126034800Y-106984800D03*
%TD*%
%TO.C,D6*%
X110490000Y-54203600D03*
D13*
X107950000Y-54203600D03*
%TD*%
D11*
%TO.C,D7*%
X114909600Y-109372400D03*
D13*
X112369600Y-109372400D03*
%TD*%
%TO.C,D8*%
X100990400Y-106730800D03*
D11*
X103530400Y-106730800D03*
%TD*%
D12*
%TO.C,D9*%
G36*
X97804859Y-57484705D02*
G01*
X98420495Y-55793259D01*
X100111941Y-56408895D01*
X99496305Y-58100341D01*
X97804859Y-57484705D01*
G37*
D11*
X101345219Y-57815531D03*
%TD*%
D13*
%TO.C,D10*%
X126898400Y-57454800D03*
D11*
X129438400Y-57454800D03*
%TD*%
%TO.C,D11*%
X87071200Y-81483200D03*
D13*
X84531200Y-81483200D03*
%TD*%
D11*
%TO.C,D12*%
X120396000Y-54152800D03*
D13*
X117856000Y-54152800D03*
%TD*%
%TO.C,J1*%
G36*
G01*
X134712000Y-86750999D02*
X134712000Y-88001001D01*
G75*
G02*
X134462001Y-88251000I-249999J0D01*
G01*
X133761999Y-88251000D01*
G75*
G02*
X133512000Y-88001001I0J249999D01*
G01*
X133512000Y-86750999D01*
G75*
G02*
X133761999Y-86501000I249999J0D01*
G01*
X134462001Y-86501000D01*
G75*
G02*
X134712000Y-86750999I0J-249999D01*
G01*
G37*
D14*
X132112000Y-87376000D03*
X130112000Y-87376000D03*
X128112000Y-87376000D03*
X126112000Y-87376000D03*
X124112000Y-87376000D03*
%TD*%
%TO.C,U2*%
G36*
G01*
X128568000Y-73041000D02*
X128568000Y-73241000D01*
G75*
G02*
X128468000Y-73341000I-100000J0D01*
G01*
X127193000Y-73341000D01*
G75*
G02*
X127093000Y-73241000I0J100000D01*
G01*
X127093000Y-73041000D01*
G75*
G02*
X127193000Y-72941000I100000J0D01*
G01*
X128468000Y-72941000D01*
G75*
G02*
X128568000Y-73041000I0J-100000D01*
G01*
G37*
G36*
G01*
X128568000Y-72391000D02*
X128568000Y-72591000D01*
G75*
G02*
X128468000Y-72691000I-100000J0D01*
G01*
X127193000Y-72691000D01*
G75*
G02*
X127093000Y-72591000I0J100000D01*
G01*
X127093000Y-72391000D01*
G75*
G02*
X127193000Y-72291000I100000J0D01*
G01*
X128468000Y-72291000D01*
G75*
G02*
X128568000Y-72391000I0J-100000D01*
G01*
G37*
G36*
G01*
X128568000Y-71741000D02*
X128568000Y-71941000D01*
G75*
G02*
X128468000Y-72041000I-100000J0D01*
G01*
X127193000Y-72041000D01*
G75*
G02*
X127093000Y-71941000I0J100000D01*
G01*
X127093000Y-71741000D01*
G75*
G02*
X127193000Y-71641000I100000J0D01*
G01*
X128468000Y-71641000D01*
G75*
G02*
X128568000Y-71741000I0J-100000D01*
G01*
G37*
G36*
G01*
X128568000Y-71091000D02*
X128568000Y-71291000D01*
G75*
G02*
X128468000Y-71391000I-100000J0D01*
G01*
X127193000Y-71391000D01*
G75*
G02*
X127093000Y-71291000I0J100000D01*
G01*
X127093000Y-71091000D01*
G75*
G02*
X127193000Y-70991000I100000J0D01*
G01*
X128468000Y-70991000D01*
G75*
G02*
X128568000Y-71091000I0J-100000D01*
G01*
G37*
G36*
G01*
X128568000Y-70441000D02*
X128568000Y-70641000D01*
G75*
G02*
X128468000Y-70741000I-100000J0D01*
G01*
X127193000Y-70741000D01*
G75*
G02*
X127093000Y-70641000I0J100000D01*
G01*
X127093000Y-70441000D01*
G75*
G02*
X127193000Y-70341000I100000J0D01*
G01*
X128468000Y-70341000D01*
G75*
G02*
X128568000Y-70441000I0J-100000D01*
G01*
G37*
G36*
G01*
X128568000Y-69791000D02*
X128568000Y-69991000D01*
G75*
G02*
X128468000Y-70091000I-100000J0D01*
G01*
X127193000Y-70091000D01*
G75*
G02*
X127093000Y-69991000I0J100000D01*
G01*
X127093000Y-69791000D01*
G75*
G02*
X127193000Y-69691000I100000J0D01*
G01*
X128468000Y-69691000D01*
G75*
G02*
X128568000Y-69791000I0J-100000D01*
G01*
G37*
G36*
G01*
X128568000Y-69141000D02*
X128568000Y-69341000D01*
G75*
G02*
X128468000Y-69441000I-100000J0D01*
G01*
X127193000Y-69441000D01*
G75*
G02*
X127093000Y-69341000I0J100000D01*
G01*
X127093000Y-69141000D01*
G75*
G02*
X127193000Y-69041000I100000J0D01*
G01*
X128468000Y-69041000D01*
G75*
G02*
X128568000Y-69141000I0J-100000D01*
G01*
G37*
G36*
G01*
X128568000Y-68491000D02*
X128568000Y-68691000D01*
G75*
G02*
X128468000Y-68791000I-100000J0D01*
G01*
X127193000Y-68791000D01*
G75*
G02*
X127093000Y-68691000I0J100000D01*
G01*
X127093000Y-68491000D01*
G75*
G02*
X127193000Y-68391000I100000J0D01*
G01*
X128468000Y-68391000D01*
G75*
G02*
X128568000Y-68491000I0J-100000D01*
G01*
G37*
G36*
G01*
X122843000Y-68491000D02*
X122843000Y-68691000D01*
G75*
G02*
X122743000Y-68791000I-100000J0D01*
G01*
X121468000Y-68791000D01*
G75*
G02*
X121368000Y-68691000I0J100000D01*
G01*
X121368000Y-68491000D01*
G75*
G02*
X121468000Y-68391000I100000J0D01*
G01*
X122743000Y-68391000D01*
G75*
G02*
X122843000Y-68491000I0J-100000D01*
G01*
G37*
G36*
G01*
X122843000Y-69141000D02*
X122843000Y-69341000D01*
G75*
G02*
X122743000Y-69441000I-100000J0D01*
G01*
X121468000Y-69441000D01*
G75*
G02*
X121368000Y-69341000I0J100000D01*
G01*
X121368000Y-69141000D01*
G75*
G02*
X121468000Y-69041000I100000J0D01*
G01*
X122743000Y-69041000D01*
G75*
G02*
X122843000Y-69141000I0J-100000D01*
G01*
G37*
G36*
G01*
X122843000Y-69791000D02*
X122843000Y-69991000D01*
G75*
G02*
X122743000Y-70091000I-100000J0D01*
G01*
X121468000Y-70091000D01*
G75*
G02*
X121368000Y-69991000I0J100000D01*
G01*
X121368000Y-69791000D01*
G75*
G02*
X121468000Y-69691000I100000J0D01*
G01*
X122743000Y-69691000D01*
G75*
G02*
X122843000Y-69791000I0J-100000D01*
G01*
G37*
G36*
G01*
X122843000Y-70441000D02*
X122843000Y-70641000D01*
G75*
G02*
X122743000Y-70741000I-100000J0D01*
G01*
X121468000Y-70741000D01*
G75*
G02*
X121368000Y-70641000I0J100000D01*
G01*
X121368000Y-70441000D01*
G75*
G02*
X121468000Y-70341000I100000J0D01*
G01*
X122743000Y-70341000D01*
G75*
G02*
X122843000Y-70441000I0J-100000D01*
G01*
G37*
G36*
G01*
X122843000Y-71091000D02*
X122843000Y-71291000D01*
G75*
G02*
X122743000Y-71391000I-100000J0D01*
G01*
X121468000Y-71391000D01*
G75*
G02*
X121368000Y-71291000I0J100000D01*
G01*
X121368000Y-71091000D01*
G75*
G02*
X121468000Y-70991000I100000J0D01*
G01*
X122743000Y-70991000D01*
G75*
G02*
X122843000Y-71091000I0J-100000D01*
G01*
G37*
G36*
G01*
X122843000Y-71741000D02*
X122843000Y-71941000D01*
G75*
G02*
X122743000Y-72041000I-100000J0D01*
G01*
X121468000Y-72041000D01*
G75*
G02*
X121368000Y-71941000I0J100000D01*
G01*
X121368000Y-71741000D01*
G75*
G02*
X121468000Y-71641000I100000J0D01*
G01*
X122743000Y-71641000D01*
G75*
G02*
X122843000Y-71741000I0J-100000D01*
G01*
G37*
G36*
G01*
X122843000Y-72391000D02*
X122843000Y-72591000D01*
G75*
G02*
X122743000Y-72691000I-100000J0D01*
G01*
X121468000Y-72691000D01*
G75*
G02*
X121368000Y-72591000I0J100000D01*
G01*
X121368000Y-72391000D01*
G75*
G02*
X121468000Y-72291000I100000J0D01*
G01*
X122743000Y-72291000D01*
G75*
G02*
X122843000Y-72391000I0J-100000D01*
G01*
G37*
G36*
G01*
X122843000Y-73041000D02*
X122843000Y-73241000D01*
G75*
G02*
X122743000Y-73341000I-100000J0D01*
G01*
X121468000Y-73341000D01*
G75*
G02*
X121368000Y-73241000I0J100000D01*
G01*
X121368000Y-73041000D01*
G75*
G02*
X121468000Y-72941000I100000J0D01*
G01*
X122743000Y-72941000D01*
G75*
G02*
X122843000Y-73041000I0J-100000D01*
G01*
G37*
%TD*%
%TO.C,U3*%
G36*
G01*
X129125000Y-74787000D02*
X129125000Y-74587000D01*
G75*
G02*
X129225000Y-74487000I100000J0D01*
G01*
X130500000Y-74487000D01*
G75*
G02*
X130600000Y-74587000I0J-100000D01*
G01*
X130600000Y-74787000D01*
G75*
G02*
X130500000Y-74887000I-100000J0D01*
G01*
X129225000Y-74887000D01*
G75*
G02*
X129125000Y-74787000I0J100000D01*
G01*
G37*
G36*
G01*
X129125000Y-75437000D02*
X129125000Y-75237000D01*
G75*
G02*
X129225000Y-75137000I100000J0D01*
G01*
X130500000Y-75137000D01*
G75*
G02*
X130600000Y-75237000I0J-100000D01*
G01*
X130600000Y-75437000D01*
G75*
G02*
X130500000Y-75537000I-100000J0D01*
G01*
X129225000Y-75537000D01*
G75*
G02*
X129125000Y-75437000I0J100000D01*
G01*
G37*
G36*
G01*
X129125000Y-76087000D02*
X129125000Y-75887000D01*
G75*
G02*
X129225000Y-75787000I100000J0D01*
G01*
X130500000Y-75787000D01*
G75*
G02*
X130600000Y-75887000I0J-100000D01*
G01*
X130600000Y-76087000D01*
G75*
G02*
X130500000Y-76187000I-100000J0D01*
G01*
X129225000Y-76187000D01*
G75*
G02*
X129125000Y-76087000I0J100000D01*
G01*
G37*
G36*
G01*
X129125000Y-76737000D02*
X129125000Y-76537000D01*
G75*
G02*
X129225000Y-76437000I100000J0D01*
G01*
X130500000Y-76437000D01*
G75*
G02*
X130600000Y-76537000I0J-100000D01*
G01*
X130600000Y-76737000D01*
G75*
G02*
X130500000Y-76837000I-100000J0D01*
G01*
X129225000Y-76837000D01*
G75*
G02*
X129125000Y-76737000I0J100000D01*
G01*
G37*
G36*
G01*
X129125000Y-77387000D02*
X129125000Y-77187000D01*
G75*
G02*
X129225000Y-77087000I100000J0D01*
G01*
X130500000Y-77087000D01*
G75*
G02*
X130600000Y-77187000I0J-100000D01*
G01*
X130600000Y-77387000D01*
G75*
G02*
X130500000Y-77487000I-100000J0D01*
G01*
X129225000Y-77487000D01*
G75*
G02*
X129125000Y-77387000I0J100000D01*
G01*
G37*
G36*
G01*
X129125000Y-78037000D02*
X129125000Y-77837000D01*
G75*
G02*
X129225000Y-77737000I100000J0D01*
G01*
X130500000Y-77737000D01*
G75*
G02*
X130600000Y-77837000I0J-100000D01*
G01*
X130600000Y-78037000D01*
G75*
G02*
X130500000Y-78137000I-100000J0D01*
G01*
X129225000Y-78137000D01*
G75*
G02*
X129125000Y-78037000I0J100000D01*
G01*
G37*
G36*
G01*
X129125000Y-78687000D02*
X129125000Y-78487000D01*
G75*
G02*
X129225000Y-78387000I100000J0D01*
G01*
X130500000Y-78387000D01*
G75*
G02*
X130600000Y-78487000I0J-100000D01*
G01*
X130600000Y-78687000D01*
G75*
G02*
X130500000Y-78787000I-100000J0D01*
G01*
X129225000Y-78787000D01*
G75*
G02*
X129125000Y-78687000I0J100000D01*
G01*
G37*
G36*
G01*
X129125000Y-79337000D02*
X129125000Y-79137000D01*
G75*
G02*
X129225000Y-79037000I100000J0D01*
G01*
X130500000Y-79037000D01*
G75*
G02*
X130600000Y-79137000I0J-100000D01*
G01*
X130600000Y-79337000D01*
G75*
G02*
X130500000Y-79437000I-100000J0D01*
G01*
X129225000Y-79437000D01*
G75*
G02*
X129125000Y-79337000I0J100000D01*
G01*
G37*
G36*
G01*
X123400000Y-79337000D02*
X123400000Y-79137000D01*
G75*
G02*
X123500000Y-79037000I100000J0D01*
G01*
X124775000Y-79037000D01*
G75*
G02*
X124875000Y-79137000I0J-100000D01*
G01*
X124875000Y-79337000D01*
G75*
G02*
X124775000Y-79437000I-100000J0D01*
G01*
X123500000Y-79437000D01*
G75*
G02*
X123400000Y-79337000I0J100000D01*
G01*
G37*
G36*
G01*
X123400000Y-78687000D02*
X123400000Y-78487000D01*
G75*
G02*
X123500000Y-78387000I100000J0D01*
G01*
X124775000Y-78387000D01*
G75*
G02*
X124875000Y-78487000I0J-100000D01*
G01*
X124875000Y-78687000D01*
G75*
G02*
X124775000Y-78787000I-100000J0D01*
G01*
X123500000Y-78787000D01*
G75*
G02*
X123400000Y-78687000I0J100000D01*
G01*
G37*
G36*
G01*
X123400000Y-78037000D02*
X123400000Y-77837000D01*
G75*
G02*
X123500000Y-77737000I100000J0D01*
G01*
X124775000Y-77737000D01*
G75*
G02*
X124875000Y-77837000I0J-100000D01*
G01*
X124875000Y-78037000D01*
G75*
G02*
X124775000Y-78137000I-100000J0D01*
G01*
X123500000Y-78137000D01*
G75*
G02*
X123400000Y-78037000I0J100000D01*
G01*
G37*
G36*
G01*
X123400000Y-77387000D02*
X123400000Y-77187000D01*
G75*
G02*
X123500000Y-77087000I100000J0D01*
G01*
X124775000Y-77087000D01*
G75*
G02*
X124875000Y-77187000I0J-100000D01*
G01*
X124875000Y-77387000D01*
G75*
G02*
X124775000Y-77487000I-100000J0D01*
G01*
X123500000Y-77487000D01*
G75*
G02*
X123400000Y-77387000I0J100000D01*
G01*
G37*
G36*
G01*
X123400000Y-76737000D02*
X123400000Y-76537000D01*
G75*
G02*
X123500000Y-76437000I100000J0D01*
G01*
X124775000Y-76437000D01*
G75*
G02*
X124875000Y-76537000I0J-100000D01*
G01*
X124875000Y-76737000D01*
G75*
G02*
X124775000Y-76837000I-100000J0D01*
G01*
X123500000Y-76837000D01*
G75*
G02*
X123400000Y-76737000I0J100000D01*
G01*
G37*
G36*
G01*
X123400000Y-76087000D02*
X123400000Y-75887000D01*
G75*
G02*
X123500000Y-75787000I100000J0D01*
G01*
X124775000Y-75787000D01*
G75*
G02*
X124875000Y-75887000I0J-100000D01*
G01*
X124875000Y-76087000D01*
G75*
G02*
X124775000Y-76187000I-100000J0D01*
G01*
X123500000Y-76187000D01*
G75*
G02*
X123400000Y-76087000I0J100000D01*
G01*
G37*
G36*
G01*
X123400000Y-75437000D02*
X123400000Y-75237000D01*
G75*
G02*
X123500000Y-75137000I100000J0D01*
G01*
X124775000Y-75137000D01*
G75*
G02*
X124875000Y-75237000I0J-100000D01*
G01*
X124875000Y-75437000D01*
G75*
G02*
X124775000Y-75537000I-100000J0D01*
G01*
X123500000Y-75537000D01*
G75*
G02*
X123400000Y-75437000I0J100000D01*
G01*
G37*
G36*
G01*
X123400000Y-74787000D02*
X123400000Y-74587000D01*
G75*
G02*
X123500000Y-74487000I100000J0D01*
G01*
X124775000Y-74487000D01*
G75*
G02*
X124875000Y-74587000I0J-100000D01*
G01*
X124875000Y-74787000D01*
G75*
G02*
X124775000Y-74887000I-100000J0D01*
G01*
X123500000Y-74887000D01*
G75*
G02*
X123400000Y-74787000I0J100000D01*
G01*
G37*
%TD*%
%TO.C,SW3*%
G36*
G01*
X111065180Y-84728940D02*
X113884258Y-85755001D01*
G75*
G02*
X114183094Y-86395857I-171010J-469846D01*
G01*
X113841074Y-87335550D01*
G75*
G02*
X113200218Y-87634386I-469846J171010D01*
G01*
X110381140Y-86608325D01*
G75*
G02*
X110082304Y-85967469I171010J469846D01*
G01*
X110424324Y-85027776D01*
G75*
G02*
X111065180Y-84728940I469846J-171010D01*
G01*
G37*
D10*
X115552901Y-76784737D03*
%TD*%
%TO.C,SW4*%
G36*
G01*
X142368800Y-96442400D02*
X142368800Y-99442400D01*
G75*
G02*
X141868800Y-99942400I-500000J0D01*
G01*
X140868800Y-99942400D01*
G75*
G02*
X140368800Y-99442400I0J500000D01*
G01*
X140368800Y-96442400D01*
G75*
G02*
X140868800Y-95942400I500000J0D01*
G01*
X141868800Y-95942400D01*
G75*
G02*
X142368800Y-96442400I0J-500000D01*
G01*
G37*
G36*
G01*
X132368800Y-96442400D02*
X132368800Y-99442400D01*
G75*
G02*
X131868800Y-99942400I-500000J0D01*
G01*
X130868800Y-99942400D01*
G75*
G02*
X130368800Y-99442400I0J500000D01*
G01*
X130368800Y-96442400D01*
G75*
G02*
X130868800Y-95942400I500000J0D01*
G01*
X131868800Y-95942400D01*
G75*
G02*
X132368800Y-96442400I0J-500000D01*
G01*
G37*
%TD*%
%TO.C,SW5*%
G36*
G01*
X147913600Y-80338800D02*
X147913600Y-83338800D01*
G75*
G02*
X147413600Y-83838800I-500000J0D01*
G01*
X146413600Y-83838800D01*
G75*
G02*
X145913600Y-83338800I0J500000D01*
G01*
X145913600Y-80338800D01*
G75*
G02*
X146413600Y-79838800I500000J0D01*
G01*
X147413600Y-79838800D01*
G75*
G02*
X147913600Y-80338800I0J-500000D01*
G01*
G37*
G36*
G01*
X137913600Y-80338800D02*
X137913600Y-83338800D01*
G75*
G02*
X137413600Y-83838800I-500000J0D01*
G01*
X136413600Y-83838800D01*
G75*
G02*
X135913600Y-83338800I0J500000D01*
G01*
X135913600Y-80338800D01*
G75*
G02*
X136413600Y-79838800I500000J0D01*
G01*
X137413600Y-79838800D01*
G75*
G02*
X137913600Y-80338800I0J-500000D01*
G01*
G37*
%TD*%
%TO.C,SW6*%
G36*
G01*
X132753600Y-63981200D02*
X132753600Y-66981200D01*
G75*
G02*
X132253600Y-67481200I-500000J0D01*
G01*
X131253600Y-67481200D01*
G75*
G02*
X130753600Y-66981200I0J500000D01*
G01*
X130753600Y-63981200D01*
G75*
G02*
X131253600Y-63481200I500000J0D01*
G01*
X132253600Y-63481200D01*
G75*
G02*
X132753600Y-63981200I0J-500000D01*
G01*
G37*
X141753600Y-65481200D03*
%TD*%
%TO.C,SW7*%
G36*
G01*
X88498820Y-78186660D02*
X85679742Y-77160599D01*
G75*
G02*
X85380906Y-76519743I171010J469846D01*
G01*
X85722926Y-75580050D01*
G75*
G02*
X86363782Y-75281214I469846J-171010D01*
G01*
X89182860Y-76307275D01*
G75*
G02*
X89481696Y-76948131I-171010J-469846D01*
G01*
X89139676Y-77887824D01*
G75*
G02*
X88498820Y-78186660I-469846J171010D01*
G01*
G37*
G36*
G01*
X85078618Y-87583586D02*
X82259540Y-86557525D01*
G75*
G02*
X81960704Y-85916669I171010J469846D01*
G01*
X82302724Y-84976976D01*
G75*
G02*
X82943580Y-84678140I469846J-171010D01*
G01*
X85762658Y-85704201D01*
G75*
G02*
X86061494Y-86345057I-171010J-469846D01*
G01*
X85719474Y-87284750D01*
G75*
G02*
X85078618Y-87583586I-469846J171010D01*
G01*
G37*
%TD*%
%TO.C,SW9*%
G36*
G01*
X85084400Y-98985200D02*
X85084400Y-95985200D01*
G75*
G02*
X85584400Y-95485200I500000J0D01*
G01*
X86584400Y-95485200D01*
G75*
G02*
X87084400Y-95985200I0J-500000D01*
G01*
X87084400Y-98985200D01*
G75*
G02*
X86584400Y-99485200I-500000J0D01*
G01*
X85584400Y-99485200D01*
G75*
G02*
X85084400Y-98985200I0J500000D01*
G01*
G37*
G36*
G01*
X95084400Y-98985200D02*
X95084400Y-95985200D01*
G75*
G02*
X95584400Y-95485200I500000J0D01*
G01*
X96584400Y-95485200D01*
G75*
G02*
X97084400Y-95985200I0J-500000D01*
G01*
X97084400Y-98985200D01*
G75*
G02*
X96584400Y-99485200I-500000J0D01*
G01*
X95584400Y-99485200D01*
G75*
G02*
X95084400Y-98985200I0J500000D01*
G01*
G37*
%TD*%
D13*
%TO.C,D13*%
X136448800Y-96774000D03*
D11*
X136448800Y-99314000D03*
%TD*%
D12*
%TO.C,J2*%
G36*
X133180027Y-104861977D02*
G01*
X134572585Y-103886897D01*
X135547665Y-105279455D01*
X134155107Y-106254535D01*
X133180027Y-104861977D01*
G37*
G36*
G01*
X131795660Y-105831321D02*
X131795660Y-105831321D01*
G75*
G02*
X132979479Y-106040060I487540J-696279D01*
G01*
X132979479Y-106040060D01*
G75*
G02*
X132770740Y-107223879I-696279J-487540D01*
G01*
X132770740Y-107223879D01*
G75*
G02*
X131586921Y-107015140I-487540J696279D01*
G01*
X131586921Y-107015140D01*
G75*
G02*
X131795660Y-105831321I696279J487540D01*
G01*
G37*
G36*
G01*
X129715014Y-107288205D02*
X129715014Y-107288205D01*
G75*
G02*
X130898833Y-107496944I487540J-696279D01*
G01*
X130898833Y-107496944D01*
G75*
G02*
X130690094Y-108680763I-696279J-487540D01*
G01*
X130690094Y-108680763D01*
G75*
G02*
X129506275Y-108472024I-487540J696279D01*
G01*
X129506275Y-108472024D01*
G75*
G02*
X129715014Y-107288205I696279J487540D01*
G01*
G37*
G36*
G01*
X127634367Y-108745089D02*
X127634367Y-108745089D01*
G75*
G02*
X128818186Y-108953828I487540J-696279D01*
G01*
X128818186Y-108953828D01*
G75*
G02*
X128609447Y-110137647I-696279J-487540D01*
G01*
X128609447Y-110137647D01*
G75*
G02*
X127425628Y-109928908I-487540J696279D01*
G01*
X127425628Y-109928908D01*
G75*
G02*
X127634367Y-108745089I696279J487540D01*
G01*
G37*
%TD*%
%TO.C,J4*%
G36*
X143977440Y-75205095D02*
G01*
X143396006Y-73607617D01*
X144993484Y-73026183D01*
X145574918Y-74623661D01*
X143977440Y-75205095D01*
G37*
G36*
G01*
X142817992Y-72019536D02*
X142817992Y-72019536D01*
G75*
G02*
X143326014Y-70930080I798739J290717D01*
G01*
X143326014Y-70930080D01*
G75*
G02*
X144415470Y-71438102I290717J-798739D01*
G01*
X144415470Y-71438102D01*
G75*
G02*
X143907448Y-72527558I-798739J-290717D01*
G01*
X143907448Y-72527558D01*
G75*
G02*
X142817992Y-72019536I-290717J798739D01*
G01*
G37*
D15*
X142748000Y-69342000D03*
%TD*%
D12*
%TO.C,SW10*%
G36*
X79778067Y-54929170D02*
G01*
X79070961Y-54222064D01*
X80131621Y-53161404D01*
X80838727Y-53868510D01*
X79778067Y-54929170D01*
G37*
G36*
X81333702Y-56484805D02*
G01*
X80626596Y-55777699D01*
X81687256Y-54717039D01*
X82394362Y-55424145D01*
X81333702Y-56484805D01*
G37*
G36*
X83808575Y-54009932D02*
G01*
X83101469Y-53302826D01*
X84162129Y-52242166D01*
X84869235Y-52949272D01*
X83808575Y-54009932D01*
G37*
G36*
X82252940Y-52454297D02*
G01*
X81545834Y-51747191D01*
X82606494Y-50686531D01*
X83313600Y-51393637D01*
X82252940Y-52454297D01*
G37*
%TD*%
%TO.C,SW11*%
G36*
X86495581Y-48211657D02*
G01*
X85788475Y-47504551D01*
X86849135Y-46443891D01*
X87556241Y-47150997D01*
X86495581Y-48211657D01*
G37*
G36*
X88051216Y-49767292D02*
G01*
X87344110Y-49060186D01*
X88404770Y-47999526D01*
X89111876Y-48706632D01*
X88051216Y-49767292D01*
G37*
G36*
X85576343Y-52242165D02*
G01*
X84869237Y-51535059D01*
X85929897Y-50474399D01*
X86637003Y-51181505D01*
X85576343Y-52242165D01*
G37*
G36*
X84020708Y-50686530D02*
G01*
X83313602Y-49979424D01*
X84374262Y-48918764D01*
X85081368Y-49625870D01*
X84020708Y-50686530D01*
G37*
%TD*%
%TO.C,J3*%
G36*
X85986465Y-55984174D02*
G01*
X84784383Y-57186256D01*
X83582301Y-55984174D01*
X84784383Y-54782092D01*
X85986465Y-55984174D01*
G37*
G36*
G01*
X87181475Y-54789164D02*
X87181475Y-54789164D01*
G75*
G02*
X85979393Y-54789164I-601041J601041D01*
G01*
X85979393Y-54789164D01*
G75*
G02*
X85979393Y-53587082I601041J601041D01*
G01*
X85979393Y-53587082D01*
G75*
G02*
X87181475Y-53587082I601041J-601041D01*
G01*
X87181475Y-53587082D01*
G75*
G02*
X87181475Y-54789164I-601041J-601041D01*
G01*
G37*
D15*
X88376485Y-52392072D03*
%TD*%
M02*
